<?xml version="1.0" encoding="UTF-8"?><svg xmlns="http://www.w3.org/2000/svg" xmlns:xlink="http://www.w3.org/1999/xlink" stroke-dasharray="none" shape-rendering="auto" font-family="'Dialog'" width="680" text-rendering="auto" fill-opacity="1" contentScriptType="text/ecmascript" color-interpolation="auto" color-rendering="auto" preserveAspectRatio="xMidYMid meet" font-size="12" viewBox="0 0 680 428" fill="black" stroke="black" image-rendering="auto" stroke-miterlimit="10" zoomAndPan="magnify" version="1.0" stroke-linecap="square" stroke-linejoin="miter" contentStyleType="text/css" font-style="normal" height="428" stroke-width="1" stroke-dashoffset="0" font-weight="normal" stroke-opacity="1">
<!--Generated by the Batik Graphics2D SVG Generator-->
<defs id="genericDefs"/>
<g>
<defs id="defs1">
<linearGradient x1="145" x2="536" y1="10" gradientUnits="userSpaceOnUse" y2="416" xlink:type="simple" xlink:actuate="onLoad" id="linearGradient1" xlink:show="other" spreadMethod="pad">
<stop stop-opacity="1" stop-color="white" offset="0%"/>
<stop stop-opacity="1" stop-color="white" offset="100%"/>
</linearGradient>
<linearGradient x1="282" x2="413" y1="43" gradientUnits="userSpaceOnUse" y2="129" xlink:type="simple" xlink:actuate="onLoad" id="linearGradient2" xlink:show="other" spreadMethod="pad">
<stop stop-opacity="1" stop-color="white" offset="0%"/>
<stop stop-opacity="1" stop-color="white" offset="100%"/>
</linearGradient>
<linearGradient x1="274" x2="422" y1="185" gradientUnits="userSpaceOnUse" y2="293" xlink:type="simple" xlink:actuate="onLoad" id="linearGradient3" xlink:show="other" spreadMethod="pad">
<stop stop-opacity="1" stop-color="white" offset="0%"/>
<stop stop-opacity="1" stop-color="white" offset="100%"/>
</linearGradient>
<linearGradient x1="282" x2="430" y1="305" gradientUnits="userSpaceOnUse" y2="413" xlink:type="simple" xlink:actuate="onLoad" id="linearGradient4" xlink:show="other" spreadMethod="pad">
<stop stop-opacity="1" stop-color="white" offset="0%"/>
<stop stop-opacity="1" stop-color="white" offset="100%"/>
</linearGradient>
<clipPath clipPathUnits="userSpaceOnUse" id="clipPath1">
<path d="M151 9 L531 9 L531 419 L151 419 L151 9 Z"/>
</clipPath>
<clipPath clipPathUnits="userSpaceOnUse" id="clipPath2">
<path d="M151 9 L529 9 L529 417 L151 417 L151 9 Z"/>
</clipPath>
<clipPath clipPathUnits="userSpaceOnUse" id="clipPath3">
<path d="M282 14 L399 14 L399 31 L282 31 L282 14 Z"/>
</clipPath>
<clipPath clipPathUnits="userSpaceOnUse" id="clipPath4">
<path d="M281 64 L416 64 L416 109 L281 109 L281 64 Z"/>
</clipPath>
<clipPath clipPathUnits="userSpaceOnUse" id="clipPath5">
<path d="M281 64 L414 64 L414 107 L281 107 L281 64 Z"/>
</clipPath>
<clipPath clipPathUnits="userSpaceOnUse" id="clipPath6">
<path d="M326 69 L370 69 L370 84 L326 84 L326 69 Z"/>
</clipPath>
<clipPath clipPathUnits="userSpaceOnUse" id="clipPath7">
<path d="M337 97 L359 97 L359 119 L337 119 L337 97 Z"/>
</clipPath>
<clipPath clipPathUnits="userSpaceOnUse" id="clipPath8">
<path d="M358 104 L407 104 L407 119 L358 119 L358 104 Z"/>
</clipPath>
<clipPath clipPathUnits="userSpaceOnUse" id="clipPath9">
<path d="M226 144 L514 144 L514 156 L226 156 L226 144 Z"/>
</clipPath>
<clipPath clipPathUnits="userSpaceOnUse" id="clipPath10">
<path d="M273 204 L425 204 L425 276 L273 276 L273 204 Z"/>
</clipPath>
<clipPath clipPathUnits="userSpaceOnUse" id="clipPath11">
<path d="M273 204 L423 204 L423 274 L273 274 L273 204 Z"/>
</clipPath>
<clipPath clipPathUnits="userSpaceOnUse" id="clipPath12">
<path d="M321 209 L377 209 L377 224 L321 224 L321 209 Z"/>
</clipPath>
<clipPath clipPathUnits="userSpaceOnUse" id="clipPath13">
<path d="M331 192 L353 192 L353 214 L331 214 L331 192 Z"/>
</clipPath>
<clipPath clipPathUnits="userSpaceOnUse" id="clipPath14">
<path d="M352 192 L404 192 L404 207 L352 207 L352 192 Z"/>
</clipPath>
<clipPath clipPathUnits="userSpaceOnUse" id="clipPath15">
<path d="M337 264 L359 264 L359 286 L337 286 L337 264 Z"/>
</clipPath>
<clipPath clipPathUnits="userSpaceOnUse" id="clipPath16">
<path d="M358 271 L414 271 L414 286 L358 286 L358 271 Z"/>
</clipPath>
<clipPath clipPathUnits="userSpaceOnUse" id="clipPath17">
<path d="M281 324 L433 324 L433 396 L281 396 L281 324 Z"/>
</clipPath>
<clipPath clipPathUnits="userSpaceOnUse" id="clipPath18">
<path d="M281 324 L431 324 L431 394 L281 394 L281 324 Z"/>
</clipPath>
<clipPath clipPathUnits="userSpaceOnUse" id="clipPath19">
<path d="M301 329 L413 329 L413 344 L301 344 L301 329 Z"/>
</clipPath>
<clipPath clipPathUnits="userSpaceOnUse" id="clipPath20">
<path d="M269 344 L291 344 L291 366 L269 366 L269 344 Z"/>
</clipPath>
<clipPath clipPathUnits="userSpaceOnUse" id="clipPath21">
<path d="M290 344 L345 344 L345 359 L290 359 L290 344 Z"/>
</clipPath>
<clipPath clipPathUnits="userSpaceOnUse" id="clipPath22">
<path d="M336 312 L358 312 L358 334 L336 334 L336 312 Z"/>
</clipPath>
<clipPath clipPathUnits="userSpaceOnUse" id="clipPath23">
<path d="M357 312 L426 312 L426 327 L357 327 L357 312 Z"/>
</clipPath>
<clipPath clipPathUnits="userSpaceOnUse" id="clipPath24">
<path d="M9 329 L161 329 L161 381 L9 381 L9 329 Z"/>
</clipPath>
<clipPath clipPathUnits="userSpaceOnUse" id="clipPath25">
<path d="M10 330 L162 330 L162 380 L10 380 L10 330 Z"/>
</clipPath>
<clipPath clipPathUnits="userSpaceOnUse" id="clipPath26">
<path d="M519 333 L671 333 L671 385 L519 385 L519 333 Z"/>
</clipPath>
<clipPath clipPathUnits="userSpaceOnUse" id="clipPath27">
<path d="M520 334 L672 334 L672 384 L520 384 L520 334 Z"/>
</clipPath>
<clipPath clipPathUnits="userSpaceOnUse" id="clipPath28">
<path d="M-1 -1 L681 -1 L681 429 L-1 429 L-1 -1 Z"/>
</clipPath>
<clipPath clipPathUnits="userSpaceOnUse" id="clipPath29">
<path d="M343 305 L352 305 L352 315 L343 315 L343 305 Z"/>
</clipPath>
<clipPath clipPathUnits="userSpaceOnUse" id="clipPath30">
<path d="M338 185 L347 185 L347 195 L338 195 L338 185 Z"/>
</clipPath>
<clipPath clipPathUnits="userSpaceOnUse" id="clipPath31">
<path d="M512 355 L522 355 L522 364 L512 364 L512 355 Z"/>
</clipPath>
<clipPath clipPathUnits="userSpaceOnUse" id="clipPath32">
<path d="M338 137 L347 137 L347 147 L338 147 L338 137 Z"/>
</clipPath>
<clipPath clipPathUnits="userSpaceOnUse" id="clipPath33">
<path d="M262 344 L272 344 L272 353 L262 353 L262 344 Z"/>
</clipPath>
</defs>
<g fill="rgb(131,122,133)" font-family="'Segoe UI'" stroke-linejoin="round" stroke="rgb(131,122,133)" stroke-width="0" stroke-miterlimit="0">
<rect x="153" y="11" clip-path="url(#clipPath1)" width="376" rx="12.5" opacity="0.2549" ry="12.5" height="406" stroke="none"/>
<rect x="154" y="12" clip-path="url(#clipPath1)" width="376" rx="12.5" opacity="0.2549" ry="12.5" height="406" stroke="none"/>
<rect x="152" y="10" clip-path="url(#clipPath2)" fill="url(#linearGradient1)" width="376" rx="12.5" ry="12.5" height="406" stroke="none"/>
</g>
<g stroke-width="1.1" font-family="'Segoe UI'" stroke-linecap="butt">
<rect x="152" y="10" clip-path="url(#clipPath2)" fill="none" width="375" rx="12.5" ry="12.5" height="405"/>
<text xml:space="preserve" x="283" y="28" clip-path="url(#clipPath3)" stroke="none">actTestCallDelegation</text>
</g>
<g stroke-linecap="butt" font-size="11" fill="rgb(131,122,133)" font-family="'Segoe UI'" stroke="rgb(131,122,133)" font-weight="bold" stroke-width="1.1">
<rect x="283" y="66" clip-path="url(#clipPath4)" width="131" rx="12.5" opacity="0.2549" ry="12.5" height="41" stroke="none"/>
<rect x="284" y="67" clip-path="url(#clipPath4)" width="131" rx="12.5" opacity="0.2549" ry="12.5" height="41" stroke="none"/>
<rect x="282" y="65" clip-path="url(#clipPath5)" fill="url(#linearGradient2)" width="131" rx="12.5" ry="12.5" height="41" stroke="none"/>
<rect x="282" y="65" clip-path="url(#clipPath5)" fill="none" width="130" rx="12.5" ry="12.5" height="40" stroke="black"/>
<text x="327" y="82" clip-path="url(#clipPath6)" fill="black" stroke="none" xml:space="preserve">CreateC</text>
</g>
<g fill="white" stroke-width="1.1" font-family="'Segoe UI'" stroke-linecap="butt" stroke="white">
<rect x="338" y="98" clip-path="url(#clipPath7)" width="20" height="20" stroke="none"/>
<rect x="338" y="98" clip-path="url(#clipPath7)" fill="none" width="19" height="19" stroke="black"/>
<text x="359" font-size="11" y="117" clip-path="url(#clipPath8)" fill="black" stroke="none" xml:space="preserve">result : C</text>
<rect x="227" y="145" clip-path="url(#clipPath9)" fill="black" width="286" height="10" stroke="none"/>
<rect x="227" y="145" clip-path="url(#clipPath9)" fill="none" width="285" height="9" stroke="black" stroke-width="0.1"/>
</g>
<g stroke-linecap="butt" font-size="11" fill="rgb(131,122,133)" font-family="'Segoe UI'" stroke="rgb(131,122,133)" font-weight="bold" stroke-width="0.1">
<rect x="275" y="206" clip-path="url(#clipPath10)" width="148" rx="12.5" opacity="0.2549" ry="12.5" height="68" stroke="none"/>
<rect x="276" y="207" clip-path="url(#clipPath10)" width="148" rx="12.5" opacity="0.2549" ry="12.5" height="68" stroke="none"/>
<rect x="274" y="205" clip-path="url(#clipPath11)" fill="url(#linearGradient3)" width="148" rx="12.5" ry="12.5" height="68" stroke="none"/>
<rect x="274" y="205" clip-path="url(#clipPath11)" fill="none" width="147" rx="12.5" ry="12.5" height="67" stroke="black" stroke-width="1.1"/>
<text x="322" y="222" clip-path="url(#clipPath12)" fill="black" stroke="none" stroke-width="1.1" xml:space="preserve">ReadPofC</text>
</g>
<g fill="white" stroke-width="1.1" font-family="'Segoe UI'" stroke-linecap="butt" stroke="white">
<rect x="332" y="193" clip-path="url(#clipPath13)" width="20" height="20" stroke="none"/>
<rect x="332" y="193" clip-path="url(#clipPath13)" fill="none" width="19" height="19" stroke="black"/>
<text x="353" font-size="11" y="205" clip-path="url(#clipPath14)" fill="black" stroke="none" xml:space="preserve">object : C</text>
<rect x="338" y="265" clip-path="url(#clipPath15)" width="20" height="20" stroke="none"/>
<rect x="338" y="265" clip-path="url(#clipPath15)" fill="none" width="19" height="19" stroke="black"/>
<text x="359" font-size="11" y="284" clip-path="url(#clipPath16)" fill="black" stroke="none" xml:space="preserve">out : IImpl</text>
</g>
<g stroke-linecap="butt" font-size="11" fill="rgb(131,122,133)" font-family="'Segoe UI'" stroke="rgb(131,122,133)" font-weight="bold" stroke-width="1.1">
<rect x="283" y="326" clip-path="url(#clipPath17)" width="148" rx="12.5" opacity="0.2549" ry="12.5" height="68" stroke="none"/>
<rect x="284" y="327" clip-path="url(#clipPath17)" width="148" rx="12.5" opacity="0.2549" ry="12.5" height="68" stroke="none"/>
<rect x="282" y="325" clip-path="url(#clipPath18)" fill="url(#linearGradient4)" width="148" rx="12.5" ry="12.5" height="68" stroke="none"/>
<rect x="282" y="325" clip-path="url(#clipPath18)" fill="none" width="147" rx="12.5" ry="12.5" height="67" stroke="black"/>
<text x="302" y="342" clip-path="url(#clipPath19)" fill="black" stroke="none" xml:space="preserve">callAssignP : assignP</text>
</g>
<g fill="white" stroke-width="1.1" font-family="'Segoe UI'" stroke-linecap="butt" stroke="white">
<rect x="270" y="345" clip-path="url(#clipPath20)" width="20" height="20" stroke="none"/>
<rect x="270" y="345" clip-path="url(#clipPath20)" fill="none" width="19" height="19" stroke="black"/>
<text x="291" font-size="11" y="357" clip-path="url(#clipPath21)" fill="black" stroke="none" xml:space="preserve">v : Integer</text>
<rect x="337" y="313" clip-path="url(#clipPath22)" width="20" height="20" stroke="none"/>
<rect x="337" y="313" clip-path="url(#clipPath22)" fill="none" width="19" height="19" stroke="black"/>
<text x="358" font-size="11" y="325" clip-path="url(#clipPath23)" fill="black" stroke="none" xml:space="preserve">target : IImpl</text>
<rect x="10" y="330" clip-path="url(#clipPath24)" width="150" height="50" stroke="none"/>
<rect x="10" y="330" clip-path="url(#clipPath24)" fill="none" width="149" height="49" stroke="black"/>
<text x="59" font-size="11" y="360" clip-path="url(#clipPath25)" fill="black" stroke="none" xml:space="preserve">v : Integer</text>
<rect x="520" y="334" clip-path="url(#clipPath26)" width="150" height="50" stroke="none"/>
<rect x="520" y="334" clip-path="url(#clipPath26)" fill="none" width="149" height="49" stroke="black"/>
<text x="578" font-size="11" y="364" clip-path="url(#clipPath27)" fill="black" stroke="none" xml:space="preserve">out : C</text>
<line clip-path="url(#clipPath28)" fill="none" x1="347" x2="347" y1="285" y2="313" stroke="black"/>
<line clip-path="url(#clipPath29)" fill="none" x1="344" x2="347" y1="306" y2="313" stroke="black"/>
<line clip-path="url(#clipPath29)" fill="none" x1="347" x2="350" y1="313" y2="306" stroke="black"/>
<line clip-path="url(#clipPath28)" fill="none" x1="342" x2="342" y1="155" y2="193" stroke="black"/>
<line clip-path="url(#clipPath30)" fill="none" x1="339" x2="342" y1="186" y2="193" stroke="black"/>
<line clip-path="url(#clipPath30)" fill="none" x1="342" x2="345" y1="193" y2="186" stroke="black"/>
<line clip-path="url(#clipPath28)" fill="none" x1="452" x2="452" y1="155" y2="359" stroke="black"/>
<line clip-path="url(#clipPath28)" fill="none" x1="452" x2="520" y1="359" y2="359" stroke="black"/>
<line clip-path="url(#clipPath31)" fill="none" x1="513" x2="520" y1="362" y2="359" stroke="black"/>
<line clip-path="url(#clipPath31)" fill="none" x1="520" x2="513" y1="359" y2="356" stroke="black"/>
<line clip-path="url(#clipPath28)" fill="none" x1="348" x2="348" y1="118" y2="131" stroke="black"/>
<line clip-path="url(#clipPath28)" fill="none" x1="348" x2="342" y1="131" y2="131" stroke="black"/>
<line clip-path="url(#clipPath28)" fill="none" x1="342" x2="342" y1="131" y2="145" stroke="black"/>
<line clip-path="url(#clipPath32)" fill="none" x1="339" x2="342" y1="138" y2="145" stroke="black"/>
<line clip-path="url(#clipPath32)" fill="none" x1="342" x2="345" y1="145" y2="138" stroke="black"/>
<line clip-path="url(#clipPath28)" fill="none" x1="160" x2="270" y1="348" y2="348" stroke="black"/>
<line clip-path="url(#clipPath33)" fill="none" x1="263" x2="270" y1="351" y2="348" stroke="black"/>
<line clip-path="url(#clipPath33)" fill="none" x1="270" x2="263" y1="348" y2="345" stroke="black"/>
<line clip-path="url(#clipPath28)" fill="none" x1="348" x2="348" y1="118" y2="131" stroke="black"/>
<line clip-path="url(#clipPath28)" fill="none" x1="348" x2="342" y1="131" y2="131" stroke="black"/>
<line clip-path="url(#clipPath28)" fill="none" x1="342" x2="342" y1="131" y2="145" stroke="black"/>
<line clip-path="url(#clipPath32)" fill="none" x1="339" x2="342" y1="138" y2="145" stroke="black"/>
<line clip-path="url(#clipPath32)" fill="none" x1="342" x2="345" y1="145" y2="138" stroke="black"/>
<line clip-path="url(#clipPath28)" fill="none" x1="452" x2="452" y1="155" y2="359" stroke="black"/>
<line clip-path="url(#clipPath28)" fill="none" x1="452" x2="520" y1="359" y2="359" stroke="black"/>
<line clip-path="url(#clipPath31)" fill="none" x1="513" x2="520" y1="362" y2="359" stroke="black"/>
<line clip-path="url(#clipPath31)" fill="none" x1="520" x2="513" y1="359" y2="356" stroke="black"/>
<line clip-path="url(#clipPath28)" fill="none" x1="342" x2="342" y1="155" y2="193" stroke="black"/>
<line clip-path="url(#clipPath30)" fill="none" x1="339" x2="342" y1="186" y2="193" stroke="black"/>
<line clip-path="url(#clipPath30)" fill="none" x1="342" x2="345" y1="193" y2="186" stroke="black"/>
<line clip-path="url(#clipPath28)" fill="none" x1="347" x2="347" y1="285" y2="313" stroke="black"/>
<line clip-path="url(#clipPath29)" fill="none" x1="344" x2="347" y1="306" y2="313" stroke="black"/>
<line clip-path="url(#clipPath29)" fill="none" x1="347" x2="350" y1="313" y2="306" stroke="black"/>
<line clip-path="url(#clipPath28)" fill="none" x1="160" x2="270" y1="348" y2="348" stroke="black"/>
<line clip-path="url(#clipPath33)" fill="none" x1="263" x2="270" y1="351" y2="348" stroke="black"/>
<line clip-path="url(#clipPath33)" fill="none" x1="270" x2="263" y1="348" y2="345" stroke="black"/>
</g>
</g>
</svg>
