<?xml version="1.0" encoding="UTF-8"?><svg xmlns="http://www.w3.org/2000/svg" xmlns:xlink="http://www.w3.org/1999/xlink" stroke-dasharray="none" shape-rendering="auto" font-family="'Dialog'" width="775" text-rendering="auto" fill-opacity="1" contentScriptType="text/ecmascript" color-interpolation="auto" color-rendering="auto" preserveAspectRatio="xMidYMid meet" font-size="12" viewBox="0 0 775 319" fill="black" stroke="black" image-rendering="auto" stroke-miterlimit="10" zoomAndPan="magnify" version="1.0" stroke-linecap="square" stroke-linejoin="miter" contentStyleType="text/css" font-style="normal" height="319" stroke-width="1" stroke-dashoffset="0" font-weight="normal" stroke-opacity="1">
<!--Generated by the Batik Graphics2D SVG Generator-->
<defs id="genericDefs"/>
<g>
<defs id="defs1">
<linearGradient x1="470" x2="588" y1="165" gradientUnits="userSpaceOnUse" y2="273" xlink:type="simple" xlink:actuate="onLoad" id="linearGradient1" xlink:show="other" spreadMethod="pad">
<stop stop-opacity="1" stop-color="white" offset="0%"/>
<stop stop-opacity="1" stop-color="white" offset="100%"/>
</linearGradient>
<linearGradient x1="290" x2="408" y1="165" gradientUnits="userSpaceOnUse" y2="273" xlink:type="simple" xlink:actuate="onLoad" id="linearGradient2" xlink:show="other" spreadMethod="pad">
<stop stop-opacity="1" stop-color="white" offset="0%"/>
<stop stop-opacity="1" stop-color="white" offset="100%"/>
</linearGradient>
<linearGradient x1="645" x2="763" y1="165" gradientUnits="userSpaceOnUse" y2="273" xlink:type="simple" xlink:actuate="onLoad" id="linearGradient3" xlink:show="other" spreadMethod="pad">
<stop stop-opacity="1" stop-color="white" offset="0%"/>
<stop stop-opacity="1" stop-color="white" offset="100%"/>
</linearGradient>
<linearGradient x1="10" x2="128" y1="165" gradientUnits="userSpaceOnUse" y2="273" xlink:type="simple" xlink:actuate="onLoad" id="linearGradient4" xlink:show="other" spreadMethod="pad">
<stop stop-opacity="1" stop-color="white" offset="0%"/>
<stop stop-opacity="1" stop-color="white" offset="100%"/>
</linearGradient>
<linearGradient x1="145" x2="263" y1="5" gradientUnits="userSpaceOnUse" y2="113" xlink:type="simple" xlink:actuate="onLoad" id="linearGradient5" xlink:show="other" spreadMethod="pad">
<stop stop-opacity="1" stop-color="white" offset="0%"/>
<stop stop-opacity="1" stop-color="white" offset="100%"/>
</linearGradient>
<linearGradient x1="574" x2="763" y1="-12" gradientUnits="userSpaceOnUse" y2="131" xlink:type="simple" xlink:actuate="onLoad" id="linearGradient6" xlink:show="other" spreadMethod="pad">
<stop stop-opacity="1" stop-color="white" offset="0%"/>
<stop stop-opacity="1" stop-color="white" offset="100%"/>
</linearGradient>
<clipPath clipPathUnits="userSpaceOnUse" id="clipPath1">
<path d="M469 169 L591 169 L591 271 L469 271 L469 169 Z"/>
</clipPath>
<clipPath clipPathUnits="userSpaceOnUse" id="clipPath2">
<path d="M469 169 L589 169 L589 269 L469 269 L469 169 Z"/>
</clipPath>
<clipPath clipPathUnits="userSpaceOnUse" id="clipPath3">
<path d="M524 174 L538 174 L538 191 L524 191 L524 174 Z"/>
</clipPath>
<clipPath clipPathUnits="userSpaceOnUse" id="clipPath4">
<path d="M474 196 L511 196 L511 211 L474 211 L474 196 Z"/>
</clipPath>
<clipPath clipPathUnits="userSpaceOnUse" id="clipPath5">
<path d="M474 209 L519 209 L519 224 L474 224 L474 209 Z"/>
</clipPath>
<clipPath clipPathUnits="userSpaceOnUse" id="clipPath6">
<path d="M470 194 L588 194 L588 268 L470 268 L470 194 Z"/>
</clipPath>
<clipPath clipPathUnits="userSpaceOnUse" id="clipPath7">
<path d="M289 169 L411 169 L411 271 L289 271 L289 169 Z"/>
</clipPath>
<clipPath clipPathUnits="userSpaceOnUse" id="clipPath8">
<path d="M289 169 L409 169 L409 269 L289 269 L289 169 Z"/>
</clipPath>
<clipPath clipPathUnits="userSpaceOnUse" id="clipPath9">
<path d="M344 174 L358 174 L358 191 L344 191 L344 174 Z"/>
</clipPath>
<clipPath clipPathUnits="userSpaceOnUse" id="clipPath10">
<path d="M294 196 L362 196 L362 211 L294 211 L294 196 Z"/>
</clipPath>
<clipPath clipPathUnits="userSpaceOnUse" id="clipPath11">
<path d="M294 209 L348 209 L348 224 L294 224 L294 209 Z"/>
</clipPath>
<clipPath clipPathUnits="userSpaceOnUse" id="clipPath12">
<path d="M294 222 L405 222 L405 237 L294 237 L294 222 Z"/>
</clipPath>
<clipPath clipPathUnits="userSpaceOnUse" id="clipPath13">
<path d="M294 235 L346 235 L346 250 L294 250 L294 235 Z"/>
</clipPath>
<clipPath clipPathUnits="userSpaceOnUse" id="clipPath14">
<path d="M290 194 L408 194 L408 268 L290 268 L290 194 Z"/>
</clipPath>
<clipPath clipPathUnits="userSpaceOnUse" id="clipPath15">
<path d="M644 169 L766 169 L766 271 L644 271 L644 169 Z"/>
</clipPath>
<clipPath clipPathUnits="userSpaceOnUse" id="clipPath16">
<path d="M644 169 L764 169 L764 269 L644 269 L644 169 Z"/>
</clipPath>
<clipPath clipPathUnits="userSpaceOnUse" id="clipPath17">
<path d="M699 174 L711 174 L711 191 L699 191 L699 174 Z"/>
</clipPath>
<clipPath clipPathUnits="userSpaceOnUse" id="clipPath18">
<path d="M649 196 L694 196 L694 211 L649 211 L649 196 Z"/>
</clipPath>
<clipPath clipPathUnits="userSpaceOnUse" id="clipPath19">
<path d="M649 209 L686 209 L686 224 L649 224 L649 209 Z"/>
</clipPath>
<clipPath clipPathUnits="userSpaceOnUse" id="clipPath20">
<path d="M645 194 L763 194 L763 268 L645 268 L645 194 Z"/>
</clipPath>
<clipPath clipPathUnits="userSpaceOnUse" id="clipPath21">
<path d="M9 169 L131 169 L131 271 L9 271 L9 169 Z"/>
</clipPath>
<clipPath clipPathUnits="userSpaceOnUse" id="clipPath22">
<path d="M9 169 L129 169 L129 269 L9 269 L9 169 Z"/>
</clipPath>
<clipPath clipPathUnits="userSpaceOnUse" id="clipPath23">
<path d="M53 174 L86 174 L86 191 L53 191 L53 174 Z"/>
</clipPath>
<clipPath clipPathUnits="userSpaceOnUse" id="clipPath24">
<path d="M14 196 L49 196 L49 211 L14 211 L14 196 Z"/>
</clipPath>
<clipPath clipPathUnits="userSpaceOnUse" id="clipPath25">
<path d="M14 209 L80 209 L80 224 L14 224 L14 209 Z"/>
</clipPath>
<clipPath clipPathUnits="userSpaceOnUse" id="clipPath26">
<path d="M14 222 L88 222 L88 237 L14 237 L14 222 Z"/>
</clipPath>
<clipPath clipPathUnits="userSpaceOnUse" id="clipPath27">
<path d="M14 235 L125 235 L125 250 L14 250 L14 235 Z"/>
</clipPath>
<clipPath clipPathUnits="userSpaceOnUse" id="clipPath28">
<path d="M10 194 L128 194 L128 268 L10 268 L10 194 Z"/>
</clipPath>
<clipPath clipPathUnits="userSpaceOnUse" id="clipPath29">
<path d="M144 9 L266 9 L266 111 L144 111 L144 9 Z"/>
</clipPath>
<clipPath clipPathUnits="userSpaceOnUse" id="clipPath30">
<path d="M144 9 L264 9 L264 109 L144 109 L144 9 Z"/>
</clipPath>
<clipPath clipPathUnits="userSpaceOnUse" id="clipPath31">
<path d="M170 14 L240 14 L240 46 L170 46 L170 14 Z"/>
</clipPath>
<clipPath clipPathUnits="userSpaceOnUse" id="clipPath32">
<path d="M149 51 L260 51 L260 66 L149 66 L149 51 Z"/>
</clipPath>
<clipPath clipPathUnits="userSpaceOnUse" id="clipPath33">
<path d="M145 49 L263 49 L263 108 L145 108 L145 49 Z"/>
</clipPath>
<clipPath clipPathUnits="userSpaceOnUse" id="clipPath34">
<path d="M573 9 L766 9 L766 111 L573 111 L573 9 Z"/>
</clipPath>
<clipPath clipPathUnits="userSpaceOnUse" id="clipPath35">
<path d="M573 9 L764 9 L764 109 L573 109 L573 9 Z"/>
</clipPath>
<clipPath clipPathUnits="userSpaceOnUse" id="clipPath36">
<path d="M650 14 L689 14 L689 31 L650 31 L650 14 Z"/>
</clipPath>
<clipPath clipPathUnits="userSpaceOnUse" id="clipPath37">
<path d="M578 36 L761 36 L761 51 L578 51 L578 36 Z"/>
</clipPath>
<clipPath clipPathUnits="userSpaceOnUse" id="clipPath38">
<path d="M574 34 L763 34 L763 108 L574 108 L574 34 Z"/>
</clipPath>
<clipPath clipPathUnits="userSpaceOnUse" id="clipPath39">
<path d="M-1 -1 L776 -1 L776 320 L-1 320 L-1 -1 Z"/>
</clipPath>
<clipPath clipPathUnits="userSpaceOnUse" id="clipPath40">
<path d="M204 106 L216 106 L216 117 L204 117 L204 106 Z"/>
</clipPath>
<clipPath clipPathUnits="userSpaceOnUse" id="clipPath41">
<path d="M195 107 L207 107 L207 117 L195 117 L195 107 Z"/>
</clipPath>
<clipPath clipPathUnits="userSpaceOnUse" id="clipPath42">
<path d="M139 241 L160 241 L160 256 L139 256 L139 241 Z"/>
</clipPath>
<clipPath clipPathUnits="userSpaceOnUse" id="clipPath43">
<path d="M109 279 L138 279 L138 294 L109 294 L109 279 Z"/>
</clipPath>
<clipPath clipPathUnits="userSpaceOnUse" id="clipPath44">
<path d="M127 236 L137 236 L137 245 L127 245 L127 236 Z"/>
</clipPath>
<clipPath clipPathUnits="userSpaceOnUse" id="clipPath45">
<path d="M94 267 L103 267 L103 277 L94 277 L94 267 Z"/>
</clipPath>
<clipPath clipPathUnits="userSpaceOnUse" id="clipPath46">
<path d="M149 195 L158 195 L158 210 L149 210 L149 195 Z"/>
</clipPath>
<clipPath clipPathUnits="userSpaceOnUse" id="clipPath47">
<path d="M263 194 L272 194 L272 209 L263 209 L263 194 Z"/>
</clipPath>
<clipPath clipPathUnits="userSpaceOnUse" id="clipPath48">
<path d="M127 188 L137 188 L137 197 L127 197 L127 188 Z"/>
</clipPath>
<clipPath clipPathUnits="userSpaceOnUse" id="clipPath49">
<path d="M282 188 L292 188 L292 197 L282 197 L282 188 Z"/>
</clipPath>
</defs>
<g fill="rgb(131,122,133)" font-family="'Segoe UI'" stroke-linejoin="round" stroke="rgb(131,122,133)" font-weight="bold" stroke-width="0" stroke-miterlimit="0">
<rect x="471" y="171" clip-path="url(#clipPath1)" width="118" rx="2.5" opacity="0.2549" ry="2.5" height="98" stroke="none"/>
<rect x="472" y="172" clip-path="url(#clipPath1)" width="118" rx="2.5" opacity="0.2549" ry="2.5" height="98" stroke="none"/>
<rect x="470" y="170" clip-path="url(#clipPath2)" fill="url(#linearGradient1)" width="118" rx="2.5" ry="2.5" height="98" stroke="none"/>
</g>
<g stroke-width="1.1" font-weight="bold" font-family="'Segoe UI'" stroke-linecap="butt">
<rect x="470" y="170" clip-path="url(#clipPath2)" fill="none" width="117" rx="2.5" ry="2.5" height="97"/>
<text xml:space="preserve" x="525" y="188" clip-path="url(#clipPath3)" stroke="none">A</text>
<text x="475" font-size="11" y="209" clip-path="url(#clipPath4)" stroke="none" font-weight="normal" xml:space="preserve">+ b : B</text>
<text x="475" font-size="11" y="222" clip-path="url(#clipPath5)" stroke="none" font-weight="normal" xml:space="preserve">q : IImpl</text>
<line clip-path="url(#clipPath6)" fill="none" x1="471" x2="587" y1="195" y2="195"/>
<rect x="291" y="171" clip-path="url(#clipPath7)" fill="rgb(131,122,133)" width="118" rx="2.5" opacity="0.2549" ry="2.5" height="98" stroke="none"/>
<rect x="292" y="172" clip-path="url(#clipPath7)" fill="rgb(131,122,133)" width="118" rx="2.5" opacity="0.2549" ry="2.5" height="98" stroke="none"/>
<rect x="290" y="170" clip-path="url(#clipPath8)" fill="url(#linearGradient2)" width="118" rx="2.5" ry="2.5" height="98" stroke="none"/>
<rect x="290" y="170" clip-path="url(#clipPath8)" fill="none" width="117" rx="2.5" ry="2.5" height="97"/>
<text xml:space="preserve" x="345" y="188" clip-path="url(#clipPath9)" stroke="none">B</text>
<text x="295" font-size="11" y="209" clip-path="url(#clipPath10)" stroke="none" font-weight="normal" xml:space="preserve">+ p : Integer</text>
<text x="295" font-size="11" y="222" clip-path="url(#clipPath11)" stroke="none" font-weight="normal" xml:space="preserve">+ y : IImpl</text>
<text x="295" font-size="11" y="235" clip-path="url(#clipPath12)" stroke="none" font-weight="normal" xml:space="preserve">+ assignP(v : Integer)</text>
<text x="295" font-size="11" y="248" clip-path="url(#clipPath13)" stroke="none" font-weight="normal" xml:space="preserve">+ printP()</text>
<line clip-path="url(#clipPath14)" fill="none" x1="291" x2="407" y1="195" y2="195"/>
<rect x="646" y="171" clip-path="url(#clipPath15)" fill="rgb(131,122,133)" width="118" rx="2.5" opacity="0.2549" ry="2.5" height="98" stroke="none"/>
<rect x="647" y="172" clip-path="url(#clipPath15)" fill="rgb(131,122,133)" width="118" rx="2.5" opacity="0.2549" ry="2.5" height="98" stroke="none"/>
<rect x="645" y="170" clip-path="url(#clipPath16)" fill="url(#linearGradient3)" width="118" rx="2.5" ry="2.5" height="98" stroke="none"/>
<rect x="645" y="170" clip-path="url(#clipPath16)" fill="none" width="117" rx="2.5" ry="2.5" height="97"/>
<text xml:space="preserve" x="700" y="188" clip-path="url(#clipPath17)" stroke="none">C</text>
<text x="650" font-size="11" y="209" clip-path="url(#clipPath18)" stroke="none" font-weight="normal" xml:space="preserve">p : IImpl</text>
<text x="650" font-size="11" y="222" clip-path="url(#clipPath19)" stroke="none" font-weight="normal" xml:space="preserve">+ a : A</text>
<line clip-path="url(#clipPath20)" fill="none" x1="646" x2="762" y1="195" y2="195"/>
<rect x="11" y="171" clip-path="url(#clipPath21)" fill="rgb(131,122,133)" width="118" rx="2.5" opacity="0.2549" ry="2.5" height="98" stroke="none"/>
<rect x="12" y="172" clip-path="url(#clipPath21)" fill="rgb(131,122,133)" width="118" rx="2.5" opacity="0.2549" ry="2.5" height="98" stroke="none"/>
<rect x="10" y="170" clip-path="url(#clipPath22)" fill="url(#linearGradient4)" width="118" rx="2.5" ry="2.5" height="98" stroke="none"/>
<rect x="10" y="170" clip-path="url(#clipPath22)" fill="none" width="117" rx="2.5" ry="2.5" height="97"/>
<text xml:space="preserve" x="54" y="188" clip-path="url(#clipPath23)" stroke="none">IImpl</text>
<text x="15" font-size="11" y="209" clip-path="url(#clipPath24)" stroke="none" font-weight="normal" xml:space="preserve">+ x : B</text>
<text x="15" font-size="11" y="222" clip-path="url(#clipPath25)" stroke="none" font-weight="normal" xml:space="preserve">+ left : IImpl</text>
<text x="15" font-size="11" y="235" clip-path="url(#clipPath26)" stroke="none" font-weight="normal" xml:space="preserve">+ right : IImpl</text>
<text x="15" font-size="11" y="248" clip-path="url(#clipPath27)" stroke="none" font-weight="normal" xml:space="preserve">+ assignP(v : Integer)</text>
<line clip-path="url(#clipPath28)" fill="none" x1="11" x2="127" y1="195" y2="195"/>
<rect x="146" y="11" clip-path="url(#clipPath29)" fill="rgb(131,122,133)" width="118" rx="2.5" opacity="0.2549" ry="2.5" height="98" stroke="none"/>
<rect x="147" y="12" clip-path="url(#clipPath29)" fill="rgb(131,122,133)" width="118" rx="2.5" opacity="0.2549" ry="2.5" height="98" stroke="none"/>
<rect x="145" y="10" clip-path="url(#clipPath30)" fill="url(#linearGradient5)" width="118" rx="2.5" ry="2.5" height="98" stroke="none"/>
<rect x="145" y="10" clip-path="url(#clipPath30)" fill="none" width="117" rx="2.5" ry="2.5" height="97"/>
<text xml:space="preserve" x="171" y="28" clip-path="url(#clipPath31)" stroke="none">«Interface»&#13;</text>
<text xml:space="preserve" x="171" y="43" clip-path="url(#clipPath31)" stroke="none">I</text>
<text x="150" font-size="11" y="64" clip-path="url(#clipPath32)" stroke="none" font-weight="normal" xml:space="preserve">+ assignP(v : Integer)</text>
<line clip-path="url(#clipPath33)" fill="none" x1="146" x2="262" y1="50" y2="50"/>
<rect x="575" y="11" clip-path="url(#clipPath34)" fill="rgb(131,122,133)" width="189" rx="2.5" opacity="0.2549" ry="2.5" height="98" stroke="none"/>
<rect x="576" y="12" clip-path="url(#clipPath34)" fill="rgb(131,122,133)" width="189" rx="2.5" opacity="0.2549" ry="2.5" height="98" stroke="none"/>
<rect x="574" y="10" clip-path="url(#clipPath35)" fill="url(#linearGradient6)" width="189" rx="2.5" ry="2.5" height="98" stroke="none"/>
<rect x="574" y="10" clip-path="url(#clipPath35)" fill="none" width="188" rx="2.5" ry="2.5" height="97"/>
<text xml:space="preserve" x="651" y="28" clip-path="url(#clipPath36)" stroke="none">Tester</text>
<text x="579" font-size="11" y="49" clip-path="url(#clipPath37)" stroke="none" font-weight="normal" xml:space="preserve">+ testCallDelegation(v : Integer) : C</text>
<line clip-path="url(#clipPath38)" fill="none" x1="575" x2="762" y1="35" y2="35"/>
<line clip-path="url(#clipPath39)" fill="none" x1="350" x2="205" y1="170" y2="108" stroke-dasharray="5,5"/>
</g>
<g stroke-linecap="butt" font-size="11" fill="white" font-family="'Segoe UI'" stroke-dasharray="5,5" stroke="white" stroke-width="1.1">
<polygon clip-path="url(#clipPath40)" points=" 205 108 214 107 211 115" stroke="none"/>
<polygon fill="none" stroke-dasharray="none" clip-path="url(#clipPath40)" points=" 205 108 214 107 211 115" stroke="black"/>
<line clip-path="url(#clipPath39)" fill="none" x1="70" x2="205" y1="170" y2="108" stroke="black"/>
<polygon clip-path="url(#clipPath41)" points=" 205 108 199 115 196 108" stroke="none"/>
<polygon fill="none" stroke-dasharray="none" clip-path="url(#clipPath41)" points=" 205 108 199 115 196 108" stroke="black"/>
<line clip-path="url(#clipPath39)" fill="none" x1="128" x2="175" y1="240" y2="240" stroke-dasharray="none" stroke="black"/>
<line clip-path="url(#clipPath39)" fill="none" x1="175" x2="175" y1="240" y2="295" stroke-dasharray="none" stroke="black"/>
<line clip-path="url(#clipPath39)" fill="none" x1="175" x2="98" y1="295" y2="295" stroke-dasharray="none" stroke="black"/>
<line clip-path="url(#clipPath39)" fill="none" x1="98" x2="98" y1="295" y2="268" stroke-dasharray="none" stroke="black"/>
<text x="140" y="254" clip-path="url(#clipPath42)" fill="black" stroke-dasharray="none" stroke="none" xml:space="preserve">left</text>
<text x="110" y="292" clip-path="url(#clipPath43)" fill="black" stroke-dasharray="none" stroke="none" xml:space="preserve">right</text>
<line clip-path="url(#clipPath44)" fill="none" x1="135" x2="128" y1="237" y2="240" stroke-dasharray="none" stroke="black"/>
<line clip-path="url(#clipPath44)" fill="none" x1="128" x2="135" y1="240" y2="243" stroke-dasharray="none" stroke="black"/>
<line clip-path="url(#clipPath45)" fill="none" x1="101" x2="98" y1="275" y2="268" stroke-dasharray="none" stroke="black"/>
<line clip-path="url(#clipPath45)" fill="none" x1="98" x2="95" y1="268" y2="275" stroke-dasharray="none" stroke="black"/>
<line clip-path="url(#clipPath39)" fill="none" x1="128" x2="290" y1="192" y2="192" stroke-dasharray="none" stroke="black"/>
<text x="150" y="208" clip-path="url(#clipPath46)" fill="black" stroke-dasharray="none" stroke="none" xml:space="preserve">y</text>
<text x="264" y="207" clip-path="url(#clipPath47)" fill="black" stroke-dasharray="none" stroke="none" xml:space="preserve">x</text>
<line clip-path="url(#clipPath48)" fill="none" x1="135" x2="128" y1="189" y2="192" stroke-dasharray="none" stroke="black"/>
<line clip-path="url(#clipPath48)" fill="none" x1="128" x2="135" y1="192" y2="195" stroke-dasharray="none" stroke="black"/>
<line clip-path="url(#clipPath49)" fill="none" x1="283" x2="290" y1="195" y2="192" stroke-dasharray="none" stroke="black"/>
<line clip-path="url(#clipPath49)" fill="none" x1="290" x2="283" y1="192" y2="189" stroke-dasharray="none" stroke="black"/>
</g>
</g>
</svg>
