<?xml version="1.0" encoding="UTF-8"?><svg xmlns="http://www.w3.org/2000/svg" xmlns:xlink="http://www.w3.org/1999/xlink" stroke-dasharray="none" shape-rendering="auto" font-family="'Dialog'" width="176" text-rendering="auto" fill-opacity="1" contentScriptType="text/ecmascript" color-interpolation="auto" color-rendering="auto" preserveAspectRatio="xMidYMid meet" font-size="12" viewBox="0 0 176 158" fill="black" stroke="black" image-rendering="auto" stroke-miterlimit="10" zoomAndPan="magnify" version="1.0" stroke-linecap="square" stroke-linejoin="miter" contentStyleType="text/css" font-style="normal" height="158" stroke-width="1" stroke-dashoffset="0" font-weight="normal" stroke-opacity="1">
<!--Generated by the Batik Graphics2D SVG Generator-->
<defs id="genericDefs"/>
<g>
<defs id="defs1">
<linearGradient x1="10" x2="164" y1="-14" gradientUnits="userSpaceOnUse" y2="91" xlink:type="simple" xlink:actuate="onLoad" id="linearGradient1" xlink:show="other" spreadMethod="pad">
<stop stop-opacity="1" stop-color="white" offset="0%"/>
<stop stop-opacity="1" stop-color="white" offset="100%"/>
</linearGradient>
<linearGradient x1="10" x2="164" y1="66" gradientUnits="userSpaceOnUse" y2="171" xlink:type="simple" xlink:actuate="onLoad" id="linearGradient2" xlink:show="other" spreadMethod="pad">
<stop stop-opacity="1" stop-color="white" offset="0%"/>
<stop stop-opacity="1" stop-color="white" offset="100%"/>
</linearGradient>
<clipPath clipPathUnits="userSpaceOnUse" id="clipPath1">
<path d="M9 9 L167 9 L167 69 L9 69 L9 9 Z"/>
</clipPath>
<clipPath clipPathUnits="userSpaceOnUse" id="clipPath2">
<path d="M9 9 L165 9 L165 67 L9 67 L9 9 Z"/>
</clipPath>
<clipPath clipPathUnits="userSpaceOnUse" id="clipPath3">
<path d="M82 14 L96 14 L96 31 L82 31 L82 14 Z"/>
</clipPath>
<clipPath clipPathUnits="userSpaceOnUse" id="clipPath4">
<path d="M14 36 L162 36 L162 51 L14 51 L14 36 Z"/>
</clipPath>
<clipPath clipPathUnits="userSpaceOnUse" id="clipPath5">
<path d="M10 34 L164 34 L164 66 L10 66 L10 34 Z"/>
</clipPath>
<clipPath clipPathUnits="userSpaceOnUse" id="clipPath6">
<path d="M9 89 L167 89 L167 149 L9 149 L9 89 Z"/>
</clipPath>
<clipPath clipPathUnits="userSpaceOnUse" id="clipPath7">
<path d="M9 89 L165 89 L165 147 L9 147 L9 89 Z"/>
</clipPath>
<clipPath clipPathUnits="userSpaceOnUse" id="clipPath8">
<path d="M82 94 L96 94 L96 111 L82 111 L82 94 Z"/>
</clipPath>
<clipPath clipPathUnits="userSpaceOnUse" id="clipPath9">
<path d="M14 116 L82 116 L82 131 L14 131 L14 116 Z"/>
</clipPath>
<clipPath clipPathUnits="userSpaceOnUse" id="clipPath10">
<path d="M10 114 L164 114 L164 146 L10 146 L10 114 Z"/>
</clipPath>
</defs>
<g fill="rgb(131,122,133)" font-family="'Segoe UI'" stroke-linejoin="round" stroke="rgb(131,122,133)" font-weight="bold" stroke-width="0" stroke-miterlimit="0">
<rect x="11" y="11" clip-path="url(#clipPath1)" width="154" rx="2.5" opacity="0.2549" ry="2.5" height="56" stroke="none"/>
<rect x="12" y="12" clip-path="url(#clipPath1)" width="154" rx="2.5" opacity="0.2549" ry="2.5" height="56" stroke="none"/>
<rect x="10" y="10" clip-path="url(#clipPath2)" fill="url(#linearGradient1)" width="154" rx="2.5" ry="2.5" height="56" stroke="none"/>
</g>
<g stroke-width="1.1" font-weight="bold" font-family="'Segoe UI'" stroke-linecap="butt">
<rect x="10" y="10" clip-path="url(#clipPath2)" fill="none" width="153" rx="2.5" ry="2.5" height="55"/>
<text xml:space="preserve" x="83" y="28" clip-path="url(#clipPath3)" stroke="none">A</text>
<text x="15" font-size="11" y="49" clip-path="url(#clipPath4)" stroke="none" font-weight="normal" xml:space="preserve">+ b : B [4..*] = defaultValueB</text>
<line clip-path="url(#clipPath5)" fill="none" x1="11" x2="163" y1="35" y2="35"/>
<rect x="11" y="91" clip-path="url(#clipPath6)" fill="rgb(131,122,133)" width="154" rx="2.5" opacity="0.2549" ry="2.5" height="56" stroke="none"/>
<rect x="12" y="92" clip-path="url(#clipPath6)" fill="rgb(131,122,133)" width="154" rx="2.5" opacity="0.2549" ry="2.5" height="56" stroke="none"/>
<rect x="10" y="90" clip-path="url(#clipPath7)" fill="url(#linearGradient2)" width="154" rx="2.5" ry="2.5" height="56" stroke="none"/>
<rect x="10" y="90" clip-path="url(#clipPath7)" fill="none" width="153" rx="2.5" ry="2.5" height="55"/>
<text xml:space="preserve" x="83" y="108" clip-path="url(#clipPath8)" stroke="none">B</text>
<text x="15" font-size="11" y="129" clip-path="url(#clipPath9)" stroke="none" font-weight="normal" xml:space="preserve">+ p : Integer</text>
<line clip-path="url(#clipPath10)" fill="none" x1="11" x2="163" y1="115" y2="115"/>
</g>
</g>
</svg>
