<?xml version="1.0" encoding="UTF-8"?><svg xmlns="http://www.w3.org/2000/svg" xmlns:xlink="http://www.w3.org/1999/xlink" stroke-dasharray="none" shape-rendering="auto" font-family="'Dialog'" width="273" text-rendering="auto" fill-opacity="1" contentScriptType="text/ecmascript" color-interpolation="auto" color-rendering="auto" preserveAspectRatio="xMidYMid meet" font-size="12" viewBox="0 0 273 226" fill="black" stroke="black" image-rendering="auto" stroke-miterlimit="10" zoomAndPan="magnify" version="1.0" stroke-linecap="square" stroke-linejoin="miter" contentStyleType="text/css" font-style="normal" height="226" stroke-width="1" stroke-dashoffset="0" font-weight="normal" stroke-opacity="1">
<!--Generated by the Batik Graphics2D SVG Generator-->
<defs id="genericDefs"/>
<g>
<defs id="defs1">
<linearGradient x1="10" x2="261" y1="-21" gradientUnits="userSpaceOnUse" y2="166" xlink:type="simple" xlink:actuate="onLoad" id="linearGradient1" xlink:show="other" spreadMethod="pad">
<stop stop-opacity="1" stop-color="white" offset="0%"/>
<stop stop-opacity="1" stop-color="white" offset="100%"/>
</linearGradient>
<linearGradient x1="15" x2="71" y1="158" gradientUnits="userSpaceOnUse" y2="158" xlink:type="simple" xlink:actuate="onLoad" id="linearGradient2" xlink:show="other" spreadMethod="pad">
<stop stop-opacity="1" stop-color="white" offset="0%"/>
<stop stop-opacity="1" stop-color="white" offset="100%"/>
</linearGradient>
<clipPath clipPathUnits="userSpaceOnUse" id="clipPath1">
<path d="M9 9 L264 9 L264 137 L9 137 L9 9 Z"/>
</clipPath>
<clipPath clipPathUnits="userSpaceOnUse" id="clipPath2">
<path d="M9 9 L262 9 L262 135 L9 135 L9 9 Z"/>
</clipPath>
<clipPath clipPathUnits="userSpaceOnUse" id="clipPath3">
<path d="M130 14 L144 14 L144 31 L130 31 L130 14 Z"/>
</clipPath>
<clipPath clipPathUnits="userSpaceOnUse" id="clipPath4">
<path d="M14 36 L139 36 L139 51 L14 51 L14 36 Z"/>
</clipPath>
<clipPath clipPathUnits="userSpaceOnUse" id="clipPath5">
<path d="M14 49 L148 49 L148 64 L14 64 L14 49 Z"/>
</clipPath>
<clipPath clipPathUnits="userSpaceOnUse" id="clipPath6">
<path d="M14 62 L164 62 L164 77 L14 77 L14 62 Z"/>
</clipPath>
<clipPath clipPathUnits="userSpaceOnUse" id="clipPath7">
<path d="M14 75 L240 75 L240 90 L14 90 L14 75 Z"/>
</clipPath>
<clipPath clipPathUnits="userSpaceOnUse" id="clipPath8">
<path d="M14 88 L118 88 L118 103 L14 103 L14 88 Z"/>
</clipPath>
<clipPath clipPathUnits="userSpaceOnUse" id="clipPath9">
<path d="M14 101 L106 101 L106 116 L14 116 L14 101 Z"/>
</clipPath>
<clipPath clipPathUnits="userSpaceOnUse" id="clipPath10">
<path d="M10 34 L261 34 L261 134 L10 134 L10 34 Z"/>
</clipPath>
<clipPath clipPathUnits="userSpaceOnUse" id="clipPath11">
<path d="M14 157 L74 157 L74 217 L14 217 L14 157 Z"/>
</clipPath>
<clipPath clipPathUnits="userSpaceOnUse" id="clipPath12">
<path d="M14 157 L72 157 L72 215 L14 215 L14 157 Z"/>
</clipPath>
<clipPath clipPathUnits="userSpaceOnUse" id="clipPath13">
<path d="M39 162 L50 162 L50 179 L39 179 L39 162 Z"/>
</clipPath>
<clipPath clipPathUnits="userSpaceOnUse" id="clipPath14">
<path d="M19 184 L36 184 L36 199 L19 199 L19 184 Z"/>
</clipPath>
<clipPath clipPathUnits="userSpaceOnUse" id="clipPath15">
<path d="M19 197 L36 197 L36 212 L19 212 L19 197 Z"/>
</clipPath>
<clipPath clipPathUnits="userSpaceOnUse" id="clipPath16">
<path d="M15 182 L71 182 L71 214 L15 214 L15 182 Z"/>
</clipPath>
</defs>
<g fill="rgb(131,122,133)" font-family="'Segoe UI'" stroke-linejoin="round" stroke="rgb(131,122,133)" font-weight="bold" stroke-width="0" stroke-miterlimit="0">
<rect x="11" y="11" clip-path="url(#clipPath1)" width="251" rx="2.5" opacity="0.2549" ry="2.5" height="124" stroke="none"/>
<rect x="12" y="12" clip-path="url(#clipPath1)" width="251" rx="2.5" opacity="0.2549" ry="2.5" height="124" stroke="none"/>
<rect x="10" y="10" clip-path="url(#clipPath2)" fill="url(#linearGradient1)" width="251" rx="2.5" ry="2.5" height="124" stroke="none"/>
</g>
<g stroke-width="1.1" font-weight="bold" font-family="'Segoe UI'" stroke-linecap="butt">
<rect x="10" y="10" clip-path="url(#clipPath2)" fill="none" width="250" rx="2.5" ry="2.5" height="123"/>
<text xml:space="preserve" x="131" y="28" clip-path="url(#clipPath3)" stroke="none">A</text>
<text x="15" font-size="11" y="49" clip-path="url(#clipPath4)" stroke="none" font-weight="normal" xml:space="preserve">+ pInteger : Integer = 4</text>
<text x="15" font-size="11" y="62" clip-path="url(#clipPath5)" stroke="none" font-weight="normal" xml:space="preserve">+ pString : String = Hello</text>
<text x="15" font-size="11" y="75" clip-path="url(#clipPath6)" stroke="none" font-weight="normal" xml:space="preserve">+ pBoolean : Boolean = true</text>
<text x="15" font-size="11" y="88" clip-path="url(#clipPath7)" stroke="none" font-weight="normal" xml:space="preserve">+ pUnlimitedNatural : UnlimitedNatural = *</text>
<text x="15" font-size="11" y="101" clip-path="url(#clipPath8)" stroke="none" font-weight="normal" xml:space="preserve">+ pReal : Real = 4.0</text>
<text x="15" font-size="11" y="114" clip-path="url(#clipPath9)" stroke="none" font-weight="normal" xml:space="preserve">+ pEnum : E = e2</text>
<line clip-path="url(#clipPath10)" fill="none" x1="11" x2="260" y1="35" y2="35"/>
<rect x="16" y="159" clip-path="url(#clipPath11)" fill="rgb(131,122,133)" width="56" rx="2.5" opacity="0.2549" ry="2.5" height="56" stroke="none"/>
<rect x="17" y="160" clip-path="url(#clipPath11)" fill="rgb(131,122,133)" width="56" rx="2.5" opacity="0.2549" ry="2.5" height="56" stroke="none"/>
<rect x="15" y="158" clip-path="url(#clipPath12)" fill="url(#linearGradient2)" width="56" rx="2.5" ry="2.5" height="56" stroke="none"/>
<rect x="15" y="158" clip-path="url(#clipPath12)" fill="none" width="55" rx="2.5" ry="2.5" height="55"/>
<text xml:space="preserve" x="40" y="176" clip-path="url(#clipPath13)" stroke="none">E</text>
<text x="20" font-size="11" y="197" clip-path="url(#clipPath14)" stroke="none" font-weight="normal" xml:space="preserve">e1</text>
<text x="20" font-size="11" y="210" clip-path="url(#clipPath15)" stroke="none" font-weight="normal" xml:space="preserve">e2</text>
<line clip-path="url(#clipPath16)" fill="none" x1="16" x2="70" y1="183" y2="183"/>
</g>
</g>
</svg>
