<?xml version="1.0" encoding="UTF-8"?><svg xmlns="http://www.w3.org/2000/svg" xmlns:xlink="http://www.w3.org/1999/xlink" stroke-dasharray="none" shape-rendering="auto" font-family="'Dialog'" width="421" text-rendering="auto" fill-opacity="1" contentScriptType="text/ecmascript" color-interpolation="auto" color-rendering="auto" preserveAspectRatio="xMidYMid meet" font-size="12" viewBox="0 0 421 354" fill="black" stroke="black" image-rendering="auto" stroke-miterlimit="10" zoomAndPan="magnify" version="1.0" stroke-linecap="square" stroke-linejoin="miter" contentStyleType="text/css" font-style="normal" height="354" stroke-width="1" stroke-dashoffset="0" font-weight="normal" stroke-opacity="1">
<!--Generated by the Batik Graphics2D SVG Generator-->
<defs id="genericDefs"/>
<g>
<defs id="defs1">
<linearGradient x1="10" x2="128" y1="5" gradientUnits="userSpaceOnUse" y2="113" xlink:type="simple" xlink:actuate="onLoad" id="linearGradient1" xlink:show="other" spreadMethod="pad">
<stop stop-opacity="1" stop-color="white" offset="0%"/>
<stop stop-opacity="1" stop-color="white" offset="100%"/>
</linearGradient>
<linearGradient x1="202" x2="335" y1="162" gradientUnits="userSpaceOnUse" y2="277" xlink:type="simple" xlink:actuate="onLoad" id="linearGradient2" xlink:show="other" spreadMethod="pad">
<stop stop-opacity="1" stop-color="white" offset="0%"/>
<stop stop-opacity="1" stop-color="white" offset="100%"/>
</linearGradient>
<linearGradient x1="210" x2="328" y1="5" gradientUnits="userSpaceOnUse" y2="113" xlink:type="simple" xlink:actuate="onLoad" id="linearGradient3" xlink:show="other" spreadMethod="pad">
<stop stop-opacity="1" stop-color="white" offset="0%"/>
<stop stop-opacity="1" stop-color="white" offset="100%"/>
</linearGradient>
<clipPath clipPathUnits="userSpaceOnUse" id="clipPath1">
<path d="M9 9 L131 9 L131 111 L9 111 L9 9 Z"/>
</clipPath>
<clipPath clipPathUnits="userSpaceOnUse" id="clipPath2">
<path d="M9 9 L129 9 L129 109 L9 109 L9 9 Z"/>
</clipPath>
<clipPath clipPathUnits="userSpaceOnUse" id="clipPath3">
<path d="M64 14 L78 14 L78 31 L64 31 L64 14 Z"/>
</clipPath>
<clipPath clipPathUnits="userSpaceOnUse" id="clipPath4">
<path d="M14 36 L118 36 L118 51 L14 51 L14 36 Z"/>
</clipPath>
<clipPath clipPathUnits="userSpaceOnUse" id="clipPath5">
<path d="M10 34 L128 34 L128 108 L10 108 L10 34 Z"/>
</clipPath>
<clipPath clipPathUnits="userSpaceOnUse" id="clipPath6">
<path d="M201 169 L338 169 L338 271 L201 271 L201 169 Z"/>
</clipPath>
<clipPath clipPathUnits="userSpaceOnUse" id="clipPath7">
<path d="M201 169 L336 169 L336 269 L201 269 L201 169 Z"/>
</clipPath>
<clipPath clipPathUnits="userSpaceOnUse" id="clipPath8">
<path d="M220 174 L319 174 L319 191 L220 191 L220 174 Z"/>
</clipPath>
<clipPath clipPathUnits="userSpaceOnUse" id="clipPath9">
<path d="M206 196 L333 196 L333 211 L206 211 L206 196 Z"/>
</clipPath>
<clipPath clipPathUnits="userSpaceOnUse" id="clipPath10">
<path d="M206 209 L333 209 L333 224 L206 224 L206 209 Z"/>
</clipPath>
<clipPath clipPathUnits="userSpaceOnUse" id="clipPath11">
<path d="M202 194 L335 194 L335 268 L202 268 L202 194 Z"/>
</clipPath>
<clipPath clipPathUnits="userSpaceOnUse" id="clipPath12">
<path d="M209 9 L331 9 L331 111 L209 111 L209 9 Z"/>
</clipPath>
<clipPath clipPathUnits="userSpaceOnUse" id="clipPath13">
<path d="M209 9 L329 9 L329 109 L209 109 L209 9 Z"/>
</clipPath>
<clipPath clipPathUnits="userSpaceOnUse" id="clipPath14">
<path d="M235 14 L305 14 L305 46 L235 46 L235 14 Z"/>
</clipPath>
<clipPath clipPathUnits="userSpaceOnUse" id="clipPath15">
<path d="M210 49 L328 49 L328 108 L210 108 L210 49 Z"/>
</clipPath>
<clipPath clipPathUnits="userSpaceOnUse" id="clipPath16">
<path d="M-1 -1 L422 -1 L422 355 L-1 355 L-1 -1 Z"/>
</clipPath>
<clipPath clipPathUnits="userSpaceOnUse" id="clipPath17">
<path d="M265 107 L276 107 L276 118 L265 118 L265 107 Z"/>
</clipPath>
<clipPath clipPathUnits="userSpaceOnUse" id="clipPath18">
<path d="M369 228 L389 228 L389 243 L369 243 L369 228 Z"/>
</clipPath>
<clipPath clipPathUnits="userSpaceOnUse" id="clipPath19">
<path d="M269 301 L289 301 L289 316 L269 316 L269 301 Z"/>
</clipPath>
<clipPath clipPathUnits="userSpaceOnUse" id="clipPath20">
<path d="M334 221 L344 221 L344 230 L334 230 L334 221 Z"/>
</clipPath>
<clipPath clipPathUnits="userSpaceOnUse" id="clipPath21">
<path d="M264 267 L273 267 L273 277 L264 277 L264 267 Z"/>
</clipPath>
</defs>
<g fill="rgb(131,122,133)" font-family="'Segoe UI'" stroke-linejoin="round" stroke="rgb(131,122,133)" font-weight="bold" stroke-width="0" stroke-miterlimit="0">
<rect x="11" y="11" clip-path="url(#clipPath1)" width="118" rx="2.5" opacity="0.2549" ry="2.5" height="98" stroke="none"/>
<rect x="12" y="12" clip-path="url(#clipPath1)" width="118" rx="2.5" opacity="0.2549" ry="2.5" height="98" stroke="none"/>
<rect x="10" y="10" clip-path="url(#clipPath2)" fill="url(#linearGradient1)" width="118" rx="2.5" ry="2.5" height="98" stroke="none"/>
</g>
<g stroke-width="1.1" font-weight="bold" font-family="'Segoe UI'" stroke-linecap="butt">
<rect x="10" y="10" clip-path="url(#clipPath2)" fill="none" width="117" rx="2.5" ry="2.5" height="97"/>
<text xml:space="preserve" x="65" y="28" clip-path="url(#clipPath3)" stroke="none">B</text>
<text x="15" font-size="11" y="49" clip-path="url(#clipPath4)" stroke="none" font-weight="normal" xml:space="preserve">q : IImplementation</text>
<line clip-path="url(#clipPath5)" fill="none" x1="11" x2="127" y1="35" y2="35"/>
<rect x="203" y="171" clip-path="url(#clipPath6)" fill="rgb(131,122,133)" width="133" rx="2.5" opacity="0.2549" ry="2.5" height="98" stroke="none"/>
<rect x="204" y="172" clip-path="url(#clipPath6)" fill="rgb(131,122,133)" width="133" rx="2.5" opacity="0.2549" ry="2.5" height="98" stroke="none"/>
<rect x="202" y="170" clip-path="url(#clipPath7)" fill="url(#linearGradient2)" width="133" rx="2.5" ry="2.5" height="98" stroke="none"/>
<rect x="202" y="170" clip-path="url(#clipPath7)" fill="none" width="132" rx="2.5" ry="2.5" height="97"/>
<text xml:space="preserve" x="221" y="188" clip-path="url(#clipPath8)" stroke="none">IImplementation</text>
<text x="207" font-size="11" y="209" clip-path="url(#clipPath9)" stroke="none" font-weight="normal" xml:space="preserve">+ x : IImplementation [*]</text>
<text x="207" font-size="11" y="222" clip-path="url(#clipPath10)" stroke="none" font-weight="normal" xml:space="preserve">+ y : IImplementation [*]</text>
<line clip-path="url(#clipPath11)" fill="none" x1="203" x2="334" y1="195" y2="195"/>
<rect x="211" y="11" clip-path="url(#clipPath12)" fill="rgb(131,122,133)" width="118" rx="2.5" opacity="0.2549" ry="2.5" height="98" stroke="none"/>
<rect x="212" y="12" clip-path="url(#clipPath12)" fill="rgb(131,122,133)" width="118" rx="2.5" opacity="0.2549" ry="2.5" height="98" stroke="none"/>
<rect x="210" y="10" clip-path="url(#clipPath13)" fill="url(#linearGradient3)" width="118" rx="2.5" ry="2.5" height="98" stroke="none"/>
<rect x="210" y="10" clip-path="url(#clipPath13)" fill="none" width="117" rx="2.5" ry="2.5" height="97"/>
<text xml:space="preserve" x="236" y="28" clip-path="url(#clipPath14)" stroke="none">«Interface»&#13;</text>
<text xml:space="preserve" x="236" y="43" clip-path="url(#clipPath14)" stroke="none">I</text>
<line clip-path="url(#clipPath15)" fill="none" x1="211" x2="327" y1="50" y2="50"/>
<line clip-path="url(#clipPath16)" fill="none" x1="270" x2="270" y1="170" y2="108" stroke-dasharray="5,5"/>
</g>
<g stroke-linecap="butt" font-size="11" fill="white" font-family="'Segoe UI'" stroke-dasharray="5,5" stroke="white" stroke-width="1.1">
<polygon clip-path="url(#clipPath17)" points=" 270 108 274 116 266 116" stroke="none"/>
<polygon fill="none" stroke-dasharray="none" clip-path="url(#clipPath17)" points=" 270 108 274 116 266 116" stroke="black"/>
<line clip-path="url(#clipPath16)" fill="none" x1="335" x2="397" y1="225" y2="225" stroke-dasharray="none" stroke="black"/>
<line clip-path="url(#clipPath16)" fill="none" x1="397" x2="397" y1="225" y2="330" stroke-dasharray="none" stroke="black"/>
<line clip-path="url(#clipPath16)" fill="none" x1="397" x2="268" y1="330" y2="330" stroke-dasharray="none" stroke="black"/>
<line clip-path="url(#clipPath16)" fill="none" x1="268" x2="268" y1="330" y2="268" stroke-dasharray="none" stroke="black"/>
<text x="370" y="241" clip-path="url(#clipPath18)" fill="black" stroke-dasharray="none" stroke="none" xml:space="preserve">x[*]</text>
<text x="270" y="314" clip-path="url(#clipPath19)" fill="black" stroke-dasharray="none" stroke="none" xml:space="preserve">y[*]</text>
<line clip-path="url(#clipPath20)" fill="none" x1="342" x2="335" y1="222" y2="225" stroke-dasharray="none" stroke="black"/>
<line clip-path="url(#clipPath20)" fill="none" x1="335" x2="342" y1="225" y2="228" stroke-dasharray="none" stroke="black"/>
<line clip-path="url(#clipPath21)" fill="none" x1="271" x2="268" y1="275" y2="268" stroke-dasharray="none" stroke="black"/>
<line clip-path="url(#clipPath21)" fill="none" x1="268" x2="265" y1="268" y2="275" stroke-dasharray="none" stroke="black"/>
</g>
</g>
</svg>
