<?xml version="1.0" encoding="UTF-8"?><svg xmlns="http://www.w3.org/2000/svg" xmlns:xlink="http://www.w3.org/1999/xlink" stroke-dasharray="none" shape-rendering="auto" font-family="'Dialog'" width="315" text-rendering="auto" fill-opacity="1" contentScriptType="text/ecmascript" color-interpolation="auto" color-rendering="auto" preserveAspectRatio="xMidYMid meet" font-size="12" viewBox="0 0 315 385" fill="black" stroke="black" image-rendering="auto" stroke-miterlimit="10" zoomAndPan="magnify" version="1.0" stroke-linecap="square" stroke-linejoin="miter" contentStyleType="text/css" font-style="normal" height="385" stroke-width="1" stroke-dashoffset="0" font-weight="normal" stroke-opacity="1">
<!--Generated by the Batik Graphics2D SVG Generator-->
<defs id="genericDefs"/>
<g>
<defs id="defs1">
<linearGradient x1="10" x2="128" y1="5" gradientUnits="userSpaceOnUse" y2="113" xlink:type="simple" xlink:actuate="onLoad" id="linearGradient1" xlink:show="other" spreadMethod="pad">
<stop stop-opacity="1" stop-color="white" offset="0%"/>
<stop stop-opacity="1" stop-color="white" offset="100%"/>
</linearGradient>
<linearGradient x1="185" x2="303" y1="5" gradientUnits="userSpaceOnUse" y2="113" xlink:type="simple" xlink:actuate="onLoad" id="linearGradient2" xlink:show="other" spreadMethod="pad">
<stop stop-opacity="1" stop-color="white" offset="0%"/>
<stop stop-opacity="1" stop-color="white" offset="100%"/>
</linearGradient>
<linearGradient x1="10" x2="128" y1="135" gradientUnits="userSpaceOnUse" y2="243" xlink:type="simple" xlink:actuate="onLoad" id="linearGradient3" xlink:show="other" spreadMethod="pad">
<stop stop-opacity="1" stop-color="white" offset="0%"/>
<stop stop-opacity="1" stop-color="white" offset="100%"/>
</linearGradient>
<linearGradient x1="185" x2="303" y1="135" gradientUnits="userSpaceOnUse" y2="243" xlink:type="simple" xlink:actuate="onLoad" id="linearGradient4" xlink:show="other" spreadMethod="pad">
<stop stop-opacity="1" stop-color="white" offset="0%"/>
<stop stop-opacity="1" stop-color="white" offset="100%"/>
</linearGradient>
<linearGradient x1="10" x2="128" y1="270" gradientUnits="userSpaceOnUse" y2="378" xlink:type="simple" xlink:actuate="onLoad" id="linearGradient5" xlink:show="other" spreadMethod="pad">
<stop stop-opacity="1" stop-color="white" offset="0%"/>
<stop stop-opacity="1" stop-color="white" offset="100%"/>
</linearGradient>
<clipPath clipPathUnits="userSpaceOnUse" id="clipPath1">
<path d="M9 9 L131 9 L131 111 L9 111 L9 9 Z"/>
</clipPath>
<clipPath clipPathUnits="userSpaceOnUse" id="clipPath2">
<path d="M9 9 L129 9 L129 109 L9 109 L9 9 Z"/>
</clipPath>
<clipPath clipPathUnits="userSpaceOnUse" id="clipPath3">
<path d="M64 14 L78 14 L78 31 L64 31 L64 14 Z"/>
</clipPath>
<clipPath clipPathUnits="userSpaceOnUse" id="clipPath4">
<path d="M14 36 L51 36 L51 51 L14 51 L14 36 Z"/>
</clipPath>
<clipPath clipPathUnits="userSpaceOnUse" id="clipPath5">
<path d="M10 34 L128 34 L128 108 L10 108 L10 34 Z"/>
</clipPath>
<clipPath clipPathUnits="userSpaceOnUse" id="clipPath6">
<path d="M184 9 L306 9 L306 111 L184 111 L184 9 Z"/>
</clipPath>
<clipPath clipPathUnits="userSpaceOnUse" id="clipPath7">
<path d="M184 9 L304 9 L304 109 L184 109 L184 9 Z"/>
</clipPath>
<clipPath clipPathUnits="userSpaceOnUse" id="clipPath8">
<path d="M239 14 L253 14 L253 31 L239 31 L239 14 Z"/>
</clipPath>
<clipPath clipPathUnits="userSpaceOnUse" id="clipPath9">
<path d="M189 36 L225 36 L225 51 L189 51 L189 36 Z"/>
</clipPath>
<clipPath clipPathUnits="userSpaceOnUse" id="clipPath10">
<path d="M185 34 L303 34 L303 108 L185 108 L185 34 Z"/>
</clipPath>
<clipPath clipPathUnits="userSpaceOnUse" id="clipPath11">
<path d="M9 139 L131 139 L131 241 L9 241 L9 139 Z"/>
</clipPath>
<clipPath clipPathUnits="userSpaceOnUse" id="clipPath12">
<path d="M9 139 L129 139 L129 239 L9 239 L9 139 Z"/>
</clipPath>
<clipPath clipPathUnits="userSpaceOnUse" id="clipPath13">
<path d="M64 144 L76 144 L76 161 L64 161 L64 144 Z"/>
</clipPath>
<clipPath clipPathUnits="userSpaceOnUse" id="clipPath14">
<path d="M14 166 L53 166 L53 181 L14 181 L14 166 Z"/>
</clipPath>
<clipPath clipPathUnits="userSpaceOnUse" id="clipPath15">
<path d="M10 164 L128 164 L128 238 L10 238 L10 164 Z"/>
</clipPath>
<clipPath clipPathUnits="userSpaceOnUse" id="clipPath16">
<path d="M184 139 L306 139 L306 241 L184 241 L184 139 Z"/>
</clipPath>
<clipPath clipPathUnits="userSpaceOnUse" id="clipPath17">
<path d="M184 139 L304 139 L304 239 L184 239 L184 139 Z"/>
</clipPath>
<clipPath clipPathUnits="userSpaceOnUse" id="clipPath18">
<path d="M238 144 L253 144 L253 161 L238 161 L238 144 Z"/>
</clipPath>
<clipPath clipPathUnits="userSpaceOnUse" id="clipPath19">
<path d="M189 166 L225 166 L225 181 L189 181 L189 166 Z"/>
</clipPath>
<clipPath clipPathUnits="userSpaceOnUse" id="clipPath20">
<path d="M185 164 L303 164 L303 238 L185 238 L185 164 Z"/>
</clipPath>
<clipPath clipPathUnits="userSpaceOnUse" id="clipPath21">
<path d="M9 274 L131 274 L131 376 L9 376 L9 274 Z"/>
</clipPath>
<clipPath clipPathUnits="userSpaceOnUse" id="clipPath22">
<path d="M9 274 L129 274 L129 374 L9 374 L9 274 Z"/>
</clipPath>
<clipPath clipPathUnits="userSpaceOnUse" id="clipPath23">
<path d="M65 279 L76 279 L76 296 L65 296 L65 279 Z"/>
</clipPath>
<clipPath clipPathUnits="userSpaceOnUse" id="clipPath24">
<path d="M10 299 L128 299 L128 373 L10 373 L10 299 Z"/>
</clipPath>
</defs>
<g fill="rgb(131,122,133)" font-family="'Segoe UI'" stroke-linejoin="round" stroke="rgb(131,122,133)" font-weight="bold" stroke-width="0" stroke-miterlimit="0">
<rect x="11" y="11" clip-path="url(#clipPath1)" width="118" rx="2.5" opacity="0.2549" ry="2.5" height="98" stroke="none"/>
<rect x="12" y="12" clip-path="url(#clipPath1)" width="118" rx="2.5" opacity="0.2549" ry="2.5" height="98" stroke="none"/>
<rect x="10" y="10" clip-path="url(#clipPath2)" fill="url(#linearGradient1)" width="118" rx="2.5" ry="2.5" height="98" stroke="none"/>
</g>
<g stroke-width="1.1" font-weight="bold" font-family="'Segoe UI'" stroke-linecap="butt">
<rect x="10" y="10" clip-path="url(#clipPath2)" fill="none" width="117" rx="2.5" ry="2.5" height="97"/>
<text xml:space="preserve" x="65" y="28" clip-path="url(#clipPath3)" stroke="none">A</text>
<text x="15" font-size="11" y="49" clip-path="url(#clipPath4)" stroke="none" font-weight="normal" xml:space="preserve">+ b : B</text>
<line clip-path="url(#clipPath5)" fill="none" x1="11" x2="127" y1="35" y2="35"/>
<rect x="186" y="11" clip-path="url(#clipPath6)" fill="rgb(131,122,133)" width="118" rx="2.5" opacity="0.2549" ry="2.5" height="98" stroke="none"/>
<rect x="187" y="12" clip-path="url(#clipPath6)" fill="rgb(131,122,133)" width="118" rx="2.5" opacity="0.2549" ry="2.5" height="98" stroke="none"/>
<rect x="185" y="10" clip-path="url(#clipPath7)" fill="url(#linearGradient2)" width="118" rx="2.5" ry="2.5" height="98" stroke="none"/>
<rect x="185" y="10" clip-path="url(#clipPath7)" fill="none" width="117" rx="2.5" ry="2.5" height="97"/>
<text xml:space="preserve" x="240" y="28" clip-path="url(#clipPath8)" stroke="none">B</text>
<text x="190" font-size="11" y="49" clip-path="url(#clipPath9)" stroke="none" font-weight="normal" xml:space="preserve">+ c : C</text>
<line clip-path="url(#clipPath10)" fill="none" x1="186" x2="302" y1="35" y2="35"/>
<rect x="11" y="141" clip-path="url(#clipPath11)" fill="rgb(131,122,133)" width="118" rx="2.5" opacity="0.2549" ry="2.5" height="98" stroke="none"/>
<rect x="12" y="142" clip-path="url(#clipPath11)" fill="rgb(131,122,133)" width="118" rx="2.5" opacity="0.2549" ry="2.5" height="98" stroke="none"/>
<rect x="10" y="140" clip-path="url(#clipPath12)" fill="url(#linearGradient3)" width="118" rx="2.5" ry="2.5" height="98" stroke="none"/>
<rect x="10" y="140" clip-path="url(#clipPath12)" fill="none" width="117" rx="2.5" ry="2.5" height="97"/>
<text xml:space="preserve" x="65" y="158" clip-path="url(#clipPath13)" stroke="none">C</text>
<text x="15" font-size="11" y="179" clip-path="url(#clipPath14)" stroke="none" font-weight="normal" xml:space="preserve">+ d : D</text>
<line clip-path="url(#clipPath15)" fill="none" x1="11" x2="127" y1="165" y2="165"/>
<rect x="186" y="141" clip-path="url(#clipPath16)" fill="rgb(131,122,133)" width="118" rx="2.5" opacity="0.2549" ry="2.5" height="98" stroke="none"/>
<rect x="187" y="142" clip-path="url(#clipPath16)" fill="rgb(131,122,133)" width="118" rx="2.5" opacity="0.2549" ry="2.5" height="98" stroke="none"/>
<rect x="185" y="140" clip-path="url(#clipPath17)" fill="url(#linearGradient4)" width="118" rx="2.5" ry="2.5" height="98" stroke="none"/>
<rect x="185" y="140" clip-path="url(#clipPath17)" fill="none" width="117" rx="2.5" ry="2.5" height="97"/>
<text xml:space="preserve" x="239" y="158" clip-path="url(#clipPath18)" stroke="none">D</text>
<text x="190" font-size="11" y="179" clip-path="url(#clipPath19)" stroke="none" font-weight="normal" xml:space="preserve">+ e : E</text>
<line clip-path="url(#clipPath20)" fill="none" x1="186" x2="302" y1="165" y2="165"/>
<rect x="11" y="276" clip-path="url(#clipPath21)" fill="rgb(131,122,133)" width="118" rx="2.5" opacity="0.2549" ry="2.5" height="98" stroke="none"/>
<rect x="12" y="277" clip-path="url(#clipPath21)" fill="rgb(131,122,133)" width="118" rx="2.5" opacity="0.2549" ry="2.5" height="98" stroke="none"/>
<rect x="10" y="275" clip-path="url(#clipPath22)" fill="url(#linearGradient5)" width="118" rx="2.5" ry="2.5" height="98" stroke="none"/>
<rect x="10" y="275" clip-path="url(#clipPath22)" fill="none" width="117" rx="2.5" ry="2.5" height="97"/>
<text xml:space="preserve" x="66" y="293" clip-path="url(#clipPath23)" stroke="none">E</text>
<line clip-path="url(#clipPath24)" fill="none" x1="11" x2="127" y1="300" y2="300"/>
</g>
</g>
</svg>
