<?xml version="1.0" encoding="UTF-8"?><svg xmlns="http://www.w3.org/2000/svg" xmlns:xlink="http://www.w3.org/1999/xlink" stroke-dasharray="none" shape-rendering="auto" font-family="'Dialog'" width="549" text-rendering="auto" fill-opacity="1" contentScriptType="text/ecmascript" color-interpolation="auto" color-rendering="auto" preserveAspectRatio="xMidYMid meet" font-size="12" viewBox="0 0 549 280" fill="black" stroke="black" image-rendering="auto" stroke-miterlimit="10" zoomAndPan="magnify" version="1.0" stroke-linecap="square" stroke-linejoin="miter" contentStyleType="text/css" font-style="normal" height="280" stroke-width="1" stroke-dashoffset="0" font-weight="normal" stroke-opacity="1">
<!--Generated by the Batik Graphics2D SVG Generator-->
<defs id="genericDefs"/>
<g>
<defs id="defs1">
<linearGradient x1="415" x2="533" y1="5" gradientUnits="userSpaceOnUse" y2="113" xlink:type="simple" xlink:actuate="onLoad" id="linearGradient1" xlink:show="other" spreadMethod="pad">
<stop stop-opacity="1" stop-color="white" offset="0%"/>
<stop stop-opacity="1" stop-color="white" offset="100%"/>
</linearGradient>
<linearGradient x1="10" x2="128" y1="5" gradientUnits="userSpaceOnUse" y2="113" xlink:type="simple" xlink:actuate="onLoad" id="linearGradient2" xlink:show="other" spreadMethod="pad">
<stop stop-opacity="1" stop-color="white" offset="0%"/>
<stop stop-opacity="1" stop-color="white" offset="100%"/>
</linearGradient>
<linearGradient x1="10" x2="128" y1="165" gradientUnits="userSpaceOnUse" y2="273" xlink:type="simple" xlink:actuate="onLoad" id="linearGradient3" xlink:show="other" spreadMethod="pad">
<stop stop-opacity="1" stop-color="white" offset="0%"/>
<stop stop-opacity="1" stop-color="white" offset="100%"/>
</linearGradient>
<linearGradient x1="325" x2="537" y1="142" gradientUnits="userSpaceOnUse" y2="297" xlink:type="simple" xlink:actuate="onLoad" id="linearGradient4" xlink:show="other" spreadMethod="pad">
<stop stop-opacity="1" stop-color="white" offset="0%"/>
<stop stop-opacity="1" stop-color="white" offset="100%"/>
</linearGradient>
<clipPath clipPathUnits="userSpaceOnUse" id="clipPath1">
<path d="M414 9 L536 9 L536 111 L414 111 L414 9 Z"/>
</clipPath>
<clipPath clipPathUnits="userSpaceOnUse" id="clipPath2">
<path d="M414 9 L534 9 L534 109 L414 109 L414 9 Z"/>
</clipPath>
<clipPath clipPathUnits="userSpaceOnUse" id="clipPath3">
<path d="M469 14 L483 14 L483 31 L469 31 L469 14 Z"/>
</clipPath>
<clipPath clipPathUnits="userSpaceOnUse" id="clipPath4">
<path d="M419 36 L523 36 L523 51 L419 51 L419 36 Z"/>
</clipPath>
<clipPath clipPathUnits="userSpaceOnUse" id="clipPath5">
<path d="M415 34 L533 34 L533 108 L415 108 L415 34 Z"/>
</clipPath>
<clipPath clipPathUnits="userSpaceOnUse" id="clipPath6">
<path d="M9 9 L131 9 L131 111 L9 111 L9 9 Z"/>
</clipPath>
<clipPath clipPathUnits="userSpaceOnUse" id="clipPath7">
<path d="M9 9 L129 9 L129 109 L9 109 L9 9 Z"/>
</clipPath>
<clipPath clipPathUnits="userSpaceOnUse" id="clipPath8">
<path d="M35 14 L105 14 L105 46 L35 46 L35 14 Z"/>
</clipPath>
<clipPath clipPathUnits="userSpaceOnUse" id="clipPath9">
<path d="M10 49 L128 49 L128 108 L10 108 L10 49 Z"/>
</clipPath>
<clipPath clipPathUnits="userSpaceOnUse" id="clipPath10">
<path d="M9 169 L131 169 L131 271 L9 271 L9 169 Z"/>
</clipPath>
<clipPath clipPathUnits="userSpaceOnUse" id="clipPath11">
<path d="M9 169 L129 169 L129 269 L9 269 L9 169 Z"/>
</clipPath>
<clipPath clipPathUnits="userSpaceOnUse" id="clipPath12">
<path d="M21 174 L120 174 L120 191 L21 191 L21 174 Z"/>
</clipPath>
<clipPath clipPathUnits="userSpaceOnUse" id="clipPath13">
<path d="M14 196 L64 196 L64 211 L14 211 L14 196 Z"/>
</clipPath>
<clipPath clipPathUnits="userSpaceOnUse" id="clipPath14">
<path d="M10 194 L128 194 L128 268 L10 268 L10 194 Z"/>
</clipPath>
<clipPath clipPathUnits="userSpaceOnUse" id="clipPath15">
<path d="M324 169 L540 169 L540 271 L324 271 L324 169 Z"/>
</clipPath>
<clipPath clipPathUnits="userSpaceOnUse" id="clipPath16">
<path d="M324 169 L538 169 L538 269 L324 269 L324 169 Z"/>
</clipPath>
<clipPath clipPathUnits="userSpaceOnUse" id="clipPath17">
<path d="M426 174 L438 174 L438 191 L426 191 L426 174 Z"/>
</clipPath>
<clipPath clipPathUnits="userSpaceOnUse" id="clipPath18">
<path d="M329 196 L535 196 L535 211 L329 211 L329 196 Z"/>
</clipPath>
<clipPath clipPathUnits="userSpaceOnUse" id="clipPath19">
<path d="M325 194 L537 194 L537 268 L325 268 L325 194 Z"/>
</clipPath>
<clipPath clipPathUnits="userSpaceOnUse" id="clipPath20">
<path d="M-1 -1 L550 -1 L550 281 L-1 281 L-1 -1 Z"/>
</clipPath>
<clipPath clipPathUnits="userSpaceOnUse" id="clipPath21">
<path d="M65 107 L76 107 L76 118 L65 118 L65 107 Z"/>
</clipPath>
<clipPath clipPathUnits="userSpaceOnUse" id="clipPath22">
<path d="M139 199 L238 199 L238 214 L139 214 L139 199 Z"/>
</clipPath>
<clipPath clipPathUnits="userSpaceOnUse" id="clipPath23">
<path d="M286 222 L306 222 L306 237 L286 237 L286 222 Z"/>
</clipPath>
<clipPath clipPathUnits="userSpaceOnUse" id="clipPath24">
<path d="M127 215 L137 215 L137 224 L127 224 L127 215 Z"/>
</clipPath>
<clipPath clipPathUnits="userSpaceOnUse" id="clipPath25">
<path d="M317 215 L327 215 L327 224 L317 224 L317 215 Z"/>
</clipPath>
</defs>
<g fill="rgb(131,122,133)" font-family="'Segoe UI'" stroke-linejoin="round" stroke="rgb(131,122,133)" font-weight="bold" stroke-width="0" stroke-miterlimit="0">
<rect x="416" y="11" clip-path="url(#clipPath1)" width="118" rx="2.5" opacity="0.2549" ry="2.5" height="98" stroke="none"/>
<rect x="417" y="12" clip-path="url(#clipPath1)" width="118" rx="2.5" opacity="0.2549" ry="2.5" height="98" stroke="none"/>
<rect x="415" y="10" clip-path="url(#clipPath2)" fill="url(#linearGradient1)" width="118" rx="2.5" ry="2.5" height="98" stroke="none"/>
</g>
<g stroke-width="1.1" font-weight="bold" font-family="'Segoe UI'" stroke-linecap="butt">
<rect x="415" y="10" clip-path="url(#clipPath2)" fill="none" width="117" rx="2.5" ry="2.5" height="97"/>
<text xml:space="preserve" x="470" y="28" clip-path="url(#clipPath3)" stroke="none">B</text>
<text x="420" font-size="11" y="49" clip-path="url(#clipPath4)" stroke="none" font-weight="normal" xml:space="preserve">p : IImplementation</text>
<line clip-path="url(#clipPath5)" fill="none" x1="416" x2="532" y1="35" y2="35"/>
<rect x="11" y="11" clip-path="url(#clipPath6)" fill="rgb(131,122,133)" width="118" rx="2.5" opacity="0.2549" ry="2.5" height="98" stroke="none"/>
<rect x="12" y="12" clip-path="url(#clipPath6)" fill="rgb(131,122,133)" width="118" rx="2.5" opacity="0.2549" ry="2.5" height="98" stroke="none"/>
<rect x="10" y="10" clip-path="url(#clipPath7)" fill="url(#linearGradient2)" width="118" rx="2.5" ry="2.5" height="98" stroke="none"/>
<rect x="10" y="10" clip-path="url(#clipPath7)" fill="none" width="117" rx="2.5" ry="2.5" height="97"/>
<text xml:space="preserve" x="36" y="28" clip-path="url(#clipPath8)" stroke="none">«Interface»&#13;</text>
<text xml:space="preserve" x="36" y="43" clip-path="url(#clipPath8)" stroke="none">I</text>
<line clip-path="url(#clipPath9)" fill="none" x1="11" x2="127" y1="50" y2="50"/>
<rect x="11" y="171" clip-path="url(#clipPath10)" fill="rgb(131,122,133)" width="118" rx="2.5" opacity="0.2549" ry="2.5" height="98" stroke="none"/>
<rect x="12" y="172" clip-path="url(#clipPath10)" fill="rgb(131,122,133)" width="118" rx="2.5" opacity="0.2549" ry="2.5" height="98" stroke="none"/>
<rect x="10" y="170" clip-path="url(#clipPath11)" fill="url(#linearGradient3)" width="118" rx="2.5" ry="2.5" height="98" stroke="none"/>
<rect x="10" y="170" clip-path="url(#clipPath11)" fill="none" width="117" rx="2.5" ry="2.5" height="97"/>
<text xml:space="preserve" x="22" y="188" clip-path="url(#clipPath12)" stroke="none">IImplementation</text>
<text x="15" font-size="11" y="209" clip-path="url(#clipPath13)" stroke="none" font-weight="normal" xml:space="preserve">+ c : C [*]</text>
<line clip-path="url(#clipPath14)" fill="none" x1="11" x2="127" y1="195" y2="195"/>
<rect x="326" y="171" clip-path="url(#clipPath15)" fill="rgb(131,122,133)" width="212" rx="2.5" opacity="0.2549" ry="2.5" height="98" stroke="none"/>
<rect x="327" y="172" clip-path="url(#clipPath15)" fill="rgb(131,122,133)" width="212" rx="2.5" opacity="0.2549" ry="2.5" height="98" stroke="none"/>
<rect x="325" y="170" clip-path="url(#clipPath16)" fill="url(#linearGradient4)" width="212" rx="2.5" ry="2.5" height="98" stroke="none"/>
<rect x="325" y="170" clip-path="url(#clipPath16)" fill="none" width="211" rx="2.5" ry="2.5" height="97"/>
<text xml:space="preserve" x="427" y="188" clip-path="url(#clipPath17)" stroke="none">C</text>
<text x="330" font-size="11" y="209" clip-path="url(#clipPath18)" stroke="none" font-weight="normal" xml:space="preserve">+ iImplementation : IImplementation [*]</text>
<line clip-path="url(#clipPath19)" fill="none" x1="326" x2="536" y1="195" y2="195"/>
<line clip-path="url(#clipPath20)" fill="none" x1="70" x2="70" y1="170" y2="108" stroke-dasharray="5,5"/>
</g>
<g stroke-linecap="butt" font-size="11" fill="white" font-family="'Segoe UI'" stroke-dasharray="5,5" stroke="white" stroke-width="1.1">
<polygon clip-path="url(#clipPath21)" points=" 70 108 74 116 66 116" stroke="none"/>
<polygon fill="none" stroke-dasharray="none" clip-path="url(#clipPath21)" points=" 70 108 74 116 66 116" stroke="black"/>
<line clip-path="url(#clipPath20)" fill="none" x1="128" x2="325" y1="219" y2="219" stroke-dasharray="none" stroke="black"/>
<text x="140" y="212" clip-path="url(#clipPath22)" fill="black" stroke-dasharray="none" stroke="none" xml:space="preserve">iImplementation[*]</text>
<text x="287" y="235" clip-path="url(#clipPath23)" fill="black" stroke-dasharray="none" stroke="none" xml:space="preserve">c[*]</text>
<line clip-path="url(#clipPath24)" fill="none" x1="135" x2="128" y1="216" y2="219" stroke-dasharray="none" stroke="black"/>
<line clip-path="url(#clipPath24)" fill="none" x1="128" x2="135" y1="219" y2="222" stroke-dasharray="none" stroke="black"/>
<line clip-path="url(#clipPath25)" fill="none" x1="318" x2="325" y1="222" y2="219" stroke-dasharray="none" stroke="black"/>
<line clip-path="url(#clipPath25)" fill="none" x1="325" x2="318" y1="219" y2="216" stroke-dasharray="none" stroke="black"/>
</g>
</g>
</svg>
