<?xml version="1.0" encoding="UTF-8"?><svg xmlns="http://www.w3.org/2000/svg" xmlns:xlink="http://www.w3.org/1999/xlink" stroke-dasharray="none" shape-rendering="auto" font-family="'Dialog'" width="690" text-rendering="auto" fill-opacity="1" contentScriptType="text/ecmascript" color-interpolation="auto" color-rendering="auto" preserveAspectRatio="xMidYMid meet" font-size="12" viewBox="0 0 690 508" fill="black" stroke="black" image-rendering="auto" stroke-miterlimit="10" zoomAndPan="magnify" version="1.0" stroke-linecap="square" stroke-linejoin="miter" contentStyleType="text/css" font-style="normal" height="508" stroke-width="1" stroke-dashoffset="0" font-weight="normal" stroke-opacity="1">
<!--Generated by the Batik Graphics2D SVG Generator-->
<defs id="genericDefs"/>
<g>
<defs id="defs1">
<linearGradient x1="127" x2="563" y1="10" gradientUnits="userSpaceOnUse" y2="496" xlink:type="simple" xlink:actuate="onLoad" id="linearGradient1" xlink:show="other" spreadMethod="pad">
<stop stop-opacity="1" stop-color="white" offset="0%"/>
<stop stop-opacity="1" stop-color="white" offset="100%"/>
</linearGradient>
<linearGradient x1="262" x2="410" y1="40" gradientUnits="userSpaceOnUse" y2="148" xlink:type="simple" xlink:actuate="onLoad" id="linearGradient2" xlink:show="other" spreadMethod="pad">
<stop stop-opacity="1" stop-color="white" offset="0%"/>
<stop stop-opacity="1" stop-color="white" offset="100%"/>
</linearGradient>
<linearGradient x1="262" x2="410" y1="196" gradientUnits="userSpaceOnUse" y2="295" xlink:type="simple" xlink:actuate="onLoad" id="linearGradient3" xlink:show="other" spreadMethod="pad">
<stop stop-opacity="1" stop-color="white" offset="0%"/>
<stop stop-opacity="1" stop-color="white" offset="100%"/>
</linearGradient>
<linearGradient x1="272" x2="420" y1="300" gradientUnits="userSpaceOnUse" y2="408" xlink:type="simple" xlink:actuate="onLoad" id="linearGradient4" xlink:show="other" spreadMethod="pad">
<stop stop-opacity="1" stop-color="white" offset="0%"/>
<stop stop-opacity="1" stop-color="white" offset="100%"/>
</linearGradient>
<clipPath clipPathUnits="userSpaceOnUse" id="clipPath1">
<path d="M151 9 L541 9 L541 499 L151 499 L151 9 Z"/>
</clipPath>
<clipPath clipPathUnits="userSpaceOnUse" id="clipPath2">
<path d="M151 9 L539 9 L539 497 L151 497 L151 9 Z"/>
</clipPath>
<clipPath clipPathUnits="userSpaceOnUse" id="clipPath3">
<path d="M287 14 L404 14 L404 31 L287 31 L287 14 Z"/>
</clipPath>
<clipPath clipPathUnits="userSpaceOnUse" id="clipPath4">
<path d="M261 59 L413 59 L413 131 L261 131 L261 59 Z"/>
</clipPath>
<clipPath clipPathUnits="userSpaceOnUse" id="clipPath5">
<path d="M261 59 L411 59 L411 129 L261 129 L261 59 Z"/>
</clipPath>
<clipPath clipPathUnits="userSpaceOnUse" id="clipPath6">
<path d="M315 64 L359 64 L359 79 L315 79 L315 64 Z"/>
</clipPath>
<clipPath clipPathUnits="userSpaceOnUse" id="clipPath7">
<path d="M326 119 L348 119 L348 141 L326 141 L326 119 Z"/>
</clipPath>
<clipPath clipPathUnits="userSpaceOnUse" id="clipPath8">
<path d="M347 119 L396 119 L396 134 L347 134 L347 119 Z"/>
</clipPath>
<clipPath clipPathUnits="userSpaceOnUse" id="clipPath9">
<path d="M301 169 L499 169 L499 181 L301 181 L301 169 Z"/>
</clipPath>
<clipPath clipPathUnits="userSpaceOnUse" id="clipPath10">
<path d="M261 219 L413 219 L413 274 L261 274 L261 219 Z"/>
</clipPath>
<clipPath clipPathUnits="userSpaceOnUse" id="clipPath11">
<path d="M261 219 L411 219 L411 272 L261 272 L261 219 Z"/>
</clipPath>
<clipPath clipPathUnits="userSpaceOnUse" id="clipPath12">
<path d="M309 224 L365 224 L365 239 L309 239 L309 224 Z"/>
</clipPath>
<clipPath clipPathUnits="userSpaceOnUse" id="clipPath13">
<path d="M321 207 L343 207 L343 229 L321 229 L321 207 Z"/>
</clipPath>
<clipPath clipPathUnits="userSpaceOnUse" id="clipPath14">
<path d="M342 207 L394 207 L394 222 L342 222 L342 207 Z"/>
</clipPath>
<clipPath clipPathUnits="userSpaceOnUse" id="clipPath15">
<path d="M321 262 L343 262 L343 284 L321 284 L321 262 Z"/>
</clipPath>
<clipPath clipPathUnits="userSpaceOnUse" id="clipPath16">
<path d="M342 269 L398 269 L398 284 L342 284 L342 269 Z"/>
</clipPath>
<clipPath clipPathUnits="userSpaceOnUse" id="clipPath17">
<path d="M271 319 L423 319 L423 391 L271 391 L271 319 Z"/>
</clipPath>
<clipPath clipPathUnits="userSpaceOnUse" id="clipPath18">
<path d="M271 319 L421 319 L421 389 L271 389 L271 319 Z"/>
</clipPath>
<clipPath clipPathUnits="userSpaceOnUse" id="clipPath19">
<path d="M290 324 L404 324 L404 339 L290 339 L290 324 Z"/>
</clipPath>
<clipPath clipPathUnits="userSpaceOnUse" id="clipPath20">
<path d="M259 339 L281 339 L281 361 L259 361 L259 339 Z"/>
</clipPath>
<clipPath clipPathUnits="userSpaceOnUse" id="clipPath21">
<path d="M207 346 L262 346 L262 361 L207 361 L207 346 Z"/>
</clipPath>
<clipPath clipPathUnits="userSpaceOnUse" id="clipPath22">
<path d="M321 307 L343 307 L343 329 L321 329 L321 307 Z"/>
</clipPath>
<clipPath clipPathUnits="userSpaceOnUse" id="clipPath23">
<path d="M342 307 L411 307 L411 322 L342 322 L342 307 Z"/>
</clipPath>
<clipPath clipPathUnits="userSpaceOnUse" id="clipPath24">
<path d="M9 328 L161 328 L161 380 L9 380 L9 328 Z"/>
</clipPath>
<clipPath clipPathUnits="userSpaceOnUse" id="clipPath25">
<path d="M10 329 L162 329 L162 379 L10 379 L10 329 Z"/>
</clipPath>
<clipPath clipPathUnits="userSpaceOnUse" id="clipPath26">
<path d="M529 414 L681 414 L681 466 L529 466 L529 414 Z"/>
</clipPath>
<clipPath clipPathUnits="userSpaceOnUse" id="clipPath27">
<path d="M530 415 L682 415 L682 465 L530 465 L530 415 Z"/>
</clipPath>
<clipPath clipPathUnits="userSpaceOnUse" id="clipPath28">
<path d="M-1 -1 L691 -1 L691 509 L-1 509 L-1 -1 Z"/>
</clipPath>
<clipPath clipPathUnits="userSpaceOnUse" id="clipPath29">
<path d="M328 200 L337 200 L337 210 L328 210 L328 200 Z"/>
</clipPath>
<clipPath clipPathUnits="userSpaceOnUse" id="clipPath30">
<path d="M333 162 L342 162 L342 172 L333 172 L333 162 Z"/>
</clipPath>
<clipPath clipPathUnits="userSpaceOnUse" id="clipPath31">
<path d="M522 436 L532 436 L532 445 L522 445 L522 436 Z"/>
</clipPath>
<clipPath clipPathUnits="userSpaceOnUse" id="clipPath32">
<path d="M252 344 L262 344 L262 353 L252 353 L252 344 Z"/>
</clipPath>
<clipPath clipPathUnits="userSpaceOnUse" id="clipPath33">
<path d="M328 300 L337 300 L337 310 L328 310 L328 300 Z"/>
</clipPath>
</defs>
<g fill="rgb(131,122,133)" font-family="'Segoe UI'" stroke-linejoin="round" stroke="rgb(131,122,133)" stroke-width="0" stroke-miterlimit="0">
<rect x="153" y="11" clip-path="url(#clipPath1)" width="386" rx="12.5" opacity="0.2549" ry="12.5" height="486" stroke="none"/>
<rect x="154" y="12" clip-path="url(#clipPath1)" width="386" rx="12.5" opacity="0.2549" ry="12.5" height="486" stroke="none"/>
<rect x="152" y="10" clip-path="url(#clipPath2)" fill="url(#linearGradient1)" width="386" rx="12.5" ry="12.5" height="486" stroke="none"/>
</g>
<g stroke-width="1.1" font-family="'Segoe UI'" stroke-linecap="butt">
<rect x="152" y="10" clip-path="url(#clipPath2)" fill="none" width="385" rx="12.5" ry="12.5" height="485"/>
<text xml:space="preserve" x="288" y="28" clip-path="url(#clipPath3)" stroke="none">actTestCallDelegation</text>
</g>
<g stroke-linecap="butt" font-size="11" fill="rgb(131,122,133)" font-family="'Segoe UI'" stroke="rgb(131,122,133)" font-weight="bold" stroke-width="1.1">
<rect x="263" y="61" clip-path="url(#clipPath4)" width="148" rx="12.5" opacity="0.2549" ry="12.5" height="68" stroke="none"/>
<rect x="264" y="62" clip-path="url(#clipPath4)" width="148" rx="12.5" opacity="0.2549" ry="12.5" height="68" stroke="none"/>
<rect x="262" y="60" clip-path="url(#clipPath5)" fill="url(#linearGradient2)" width="148" rx="12.5" ry="12.5" height="68" stroke="none"/>
<rect x="262" y="60" clip-path="url(#clipPath5)" fill="none" width="147" rx="12.5" ry="12.5" height="67" stroke="black"/>
<text x="316" y="77" clip-path="url(#clipPath6)" fill="black" stroke="none" xml:space="preserve">CreateC</text>
</g>
<g fill="white" stroke-width="1.1" font-family="'Segoe UI'" stroke-linecap="butt" stroke="white">
<rect x="327" y="120" clip-path="url(#clipPath7)" width="20" height="20" stroke="none"/>
<rect x="327" y="120" clip-path="url(#clipPath7)" fill="none" width="19" height="19" stroke="black"/>
<text x="348" font-size="11" y="132" clip-path="url(#clipPath8)" fill="black" stroke="none" xml:space="preserve">result : C</text>
<rect x="302" y="170" clip-path="url(#clipPath9)" fill="black" width="196" height="10" stroke="none"/>
<rect x="302" y="170" clip-path="url(#clipPath9)" fill="none" width="195" height="9" stroke="black" stroke-width="0.1"/>
</g>
<g stroke-linecap="butt" font-size="11" fill="rgb(131,122,133)" font-family="'Segoe UI'" stroke="rgb(131,122,133)" font-weight="bold" stroke-width="0.1">
<rect x="263" y="221" clip-path="url(#clipPath10)" width="148" rx="12.5" opacity="0.2549" ry="12.5" height="51" stroke="none"/>
<rect x="264" y="222" clip-path="url(#clipPath10)" width="148" rx="12.5" opacity="0.2549" ry="12.5" height="51" stroke="none"/>
<rect x="262" y="220" clip-path="url(#clipPath11)" fill="url(#linearGradient3)" width="148" rx="12.5" ry="12.5" height="51" stroke="none"/>
<rect x="262" y="220" clip-path="url(#clipPath11)" fill="none" width="147" rx="12.5" ry="12.5" height="50" stroke="black" stroke-width="1.1"/>
<text x="310" y="237" clip-path="url(#clipPath12)" fill="black" stroke="none" stroke-width="1.1" xml:space="preserve">ReadPofC</text>
</g>
<g fill="white" stroke-width="1.1" font-family="'Segoe UI'" stroke-linecap="butt" stroke="white">
<rect x="322" y="208" clip-path="url(#clipPath13)" width="20" height="20" stroke="none"/>
<rect x="322" y="208" clip-path="url(#clipPath13)" fill="none" width="19" height="19" stroke="black"/>
<text x="343" font-size="11" y="220" clip-path="url(#clipPath14)" fill="black" stroke="none" xml:space="preserve">object : C</text>
<rect x="322" y="263" clip-path="url(#clipPath15)" width="20" height="20" stroke="none"/>
<rect x="322" y="263" clip-path="url(#clipPath15)" fill="none" width="19" height="19" stroke="black"/>
<text x="343" font-size="11" y="282" clip-path="url(#clipPath16)" fill="black" stroke="none" xml:space="preserve">out : IImpl</text>
</g>
<g stroke-linecap="butt" font-size="11" fill="rgb(131,122,133)" font-family="'Segoe UI'" stroke="rgb(131,122,133)" font-weight="bold" stroke-width="1.1">
<rect x="273" y="321" clip-path="url(#clipPath17)" width="148" rx="12.5" opacity="0.2549" ry="12.5" height="68" stroke="none"/>
<rect x="274" y="322" clip-path="url(#clipPath17)" width="148" rx="12.5" opacity="0.2549" ry="12.5" height="68" stroke="none"/>
<rect x="272" y="320" clip-path="url(#clipPath18)" fill="url(#linearGradient4)" width="148" rx="12.5" ry="12.5" height="68" stroke="none"/>
<rect x="272" y="320" clip-path="url(#clipPath18)" fill="none" width="147" rx="12.5" ry="12.5" height="67" stroke="black"/>
<text x="291" y="337" clip-path="url(#clipPath19)" fill="black" stroke="none" xml:space="preserve">CallAssignP : assignP</text>
</g>
<g fill="white" stroke-width="1.1" font-family="'Segoe UI'" stroke-linecap="butt" stroke="white">
<rect x="260" y="340" clip-path="url(#clipPath20)" width="20" height="20" stroke="none"/>
<rect x="260" y="340" clip-path="url(#clipPath20)" fill="none" width="19" height="19" stroke="black"/>
<text x="208" font-size="11" y="359" clip-path="url(#clipPath21)" fill="black" stroke="none" xml:space="preserve">v : Integer</text>
<rect x="322" y="308" clip-path="url(#clipPath22)" width="20" height="20" stroke="none"/>
<rect x="322" y="308" clip-path="url(#clipPath22)" fill="none" width="19" height="19" stroke="black"/>
<text x="343" font-size="11" y="320" clip-path="url(#clipPath23)" fill="black" stroke="none" xml:space="preserve">target : IImpl</text>
<rect x="10" y="329" clip-path="url(#clipPath24)" width="150" height="50" stroke="none"/>
<rect x="10" y="329" clip-path="url(#clipPath24)" fill="none" width="149" height="49" stroke="black"/>
<text x="59" font-size="11" y="359" clip-path="url(#clipPath25)" fill="black" stroke="none" xml:space="preserve">v : Integer</text>
<rect x="530" y="415" clip-path="url(#clipPath26)" width="150" height="50" stroke="none"/>
<rect x="530" y="415" clip-path="url(#clipPath26)" fill="none" width="149" height="49" stroke="black"/>
<text x="588" font-size="11" y="445" clip-path="url(#clipPath27)" fill="black" stroke="none" xml:space="preserve">out : C</text>
<line clip-path="url(#clipPath28)" fill="none" x1="332" x2="332" y1="180" y2="208" stroke="black"/>
<line clip-path="url(#clipPath29)" fill="none" x1="329" x2="332" y1="201" y2="208" stroke="black"/>
<line clip-path="url(#clipPath29)" fill="none" x1="332" x2="335" y1="208" y2="201" stroke="black"/>
<line clip-path="url(#clipPath28)" fill="none" x1="337" x2="337" y1="140" y2="170" stroke="black"/>
<line clip-path="url(#clipPath30)" fill="none" x1="334" x2="337" y1="163" y2="170" stroke="black"/>
<line clip-path="url(#clipPath30)" fill="none" x1="337" x2="340" y1="170" y2="163" stroke="black"/>
<line clip-path="url(#clipPath28)" fill="none" x1="474" x2="474" y1="180" y2="440" stroke="black"/>
<line clip-path="url(#clipPath28)" fill="none" x1="474" x2="530" y1="440" y2="440" stroke="black"/>
<line clip-path="url(#clipPath31)" fill="none" x1="523" x2="530" y1="443" y2="440" stroke="black"/>
<line clip-path="url(#clipPath31)" fill="none" x1="530" x2="523" y1="440" y2="437" stroke="black"/>
<line clip-path="url(#clipPath28)" fill="none" x1="160" x2="260" y1="348" y2="348" stroke="black"/>
<line clip-path="url(#clipPath32)" fill="none" x1="253" x2="260" y1="351" y2="348" stroke="black"/>
<line clip-path="url(#clipPath32)" fill="none" x1="260" x2="253" y1="348" y2="345" stroke="black"/>
<line clip-path="url(#clipPath28)" fill="none" x1="332" x2="332" y1="283" y2="308" stroke="black"/>
<line clip-path="url(#clipPath33)" fill="none" x1="329" x2="332" y1="301" y2="308" stroke="black"/>
<line clip-path="url(#clipPath33)" fill="none" x1="332" x2="335" y1="308" y2="301" stroke="black"/>
<line clip-path="url(#clipPath28)" fill="none" x1="337" x2="337" y1="140" y2="170" stroke="black"/>
<line clip-path="url(#clipPath30)" fill="none" x1="334" x2="337" y1="163" y2="170" stroke="black"/>
<line clip-path="url(#clipPath30)" fill="none" x1="337" x2="340" y1="170" y2="163" stroke="black"/>
<line clip-path="url(#clipPath28)" fill="none" x1="474" x2="474" y1="180" y2="440" stroke="black"/>
<line clip-path="url(#clipPath28)" fill="none" x1="474" x2="530" y1="440" y2="440" stroke="black"/>
<line clip-path="url(#clipPath31)" fill="none" x1="523" x2="530" y1="443" y2="440" stroke="black"/>
<line clip-path="url(#clipPath31)" fill="none" x1="530" x2="523" y1="440" y2="437" stroke="black"/>
<line clip-path="url(#clipPath28)" fill="none" x1="332" x2="332" y1="180" y2="208" stroke="black"/>
<line clip-path="url(#clipPath29)" fill="none" x1="329" x2="332" y1="201" y2="208" stroke="black"/>
<line clip-path="url(#clipPath29)" fill="none" x1="332" x2="335" y1="208" y2="201" stroke="black"/>
<line clip-path="url(#clipPath28)" fill="none" x1="332" x2="332" y1="283" y2="308" stroke="black"/>
<line clip-path="url(#clipPath33)" fill="none" x1="329" x2="332" y1="301" y2="308" stroke="black"/>
<line clip-path="url(#clipPath33)" fill="none" x1="332" x2="335" y1="308" y2="301" stroke="black"/>
<line clip-path="url(#clipPath28)" fill="none" x1="160" x2="260" y1="348" y2="348" stroke="black"/>
<line clip-path="url(#clipPath32)" fill="none" x1="253" x2="260" y1="351" y2="348" stroke="black"/>
<line clip-path="url(#clipPath32)" fill="none" x1="260" x2="253" y1="348" y2="345" stroke="black"/>
</g>
</g>
</svg>
