<?xml version="1.0" encoding="UTF-8"?><svg xmlns="http://www.w3.org/2000/svg" xmlns:xlink="http://www.w3.org/1999/xlink" stroke-dasharray="none" shape-rendering="auto" font-family="'Dialog'" width="825" text-rendering="auto" fill-opacity="1" contentScriptType="text/ecmascript" color-interpolation="auto" color-rendering="auto" preserveAspectRatio="xMidYMid meet" font-size="12" viewBox="0 0 825 354" fill="black" stroke="black" image-rendering="auto" stroke-miterlimit="10" zoomAndPan="magnify" version="1.0" stroke-linecap="square" stroke-linejoin="miter" contentStyleType="text/css" font-style="normal" height="354" stroke-width="1" stroke-dashoffset="0" font-weight="normal" stroke-opacity="1">
<!--Generated by the Batik Graphics2D SVG Generator-->
<defs id="genericDefs"/>
<g>
<defs id="defs1">
<linearGradient x1="695" x2="813" y1="165" gradientUnits="userSpaceOnUse" y2="273" xlink:type="simple" xlink:actuate="onLoad" id="linearGradient1" xlink:show="other" spreadMethod="pad">
<stop stop-opacity="1" stop-color="white" offset="0%"/>
<stop stop-opacity="1" stop-color="white" offset="100%"/>
</linearGradient>
<linearGradient x1="510" x2="628" y1="165" gradientUnits="userSpaceOnUse" y2="273" xlink:type="simple" xlink:actuate="onLoad" id="linearGradient2" xlink:show="other" spreadMethod="pad">
<stop stop-opacity="1" stop-color="white" offset="0%"/>
<stop stop-opacity="1" stop-color="white" offset="100%"/>
</linearGradient>
<linearGradient x1="310" x2="428" y1="165" gradientUnits="userSpaceOnUse" y2="273" xlink:type="simple" xlink:actuate="onLoad" id="linearGradient3" xlink:show="other" spreadMethod="pad">
<stop stop-opacity="1" stop-color="white" offset="0%"/>
<stop stop-opacity="1" stop-color="white" offset="100%"/>
</linearGradient>
<linearGradient x1="10" x2="128" y1="165" gradientUnits="userSpaceOnUse" y2="273" xlink:type="simple" xlink:actuate="onLoad" id="linearGradient4" xlink:show="other" spreadMethod="pad">
<stop stop-opacity="1" stop-color="white" offset="0%"/>
<stop stop-opacity="1" stop-color="white" offset="100%"/>
</linearGradient>
<linearGradient x1="145" x2="263" y1="5" gradientUnits="userSpaceOnUse" y2="113" xlink:type="simple" xlink:actuate="onLoad" id="linearGradient5" xlink:show="other" spreadMethod="pad">
<stop stop-opacity="1" stop-color="white" offset="0%"/>
<stop stop-opacity="1" stop-color="white" offset="100%"/>
</linearGradient>
<linearGradient x1="555" x2="744" y1="-12" gradientUnits="userSpaceOnUse" y2="131" xlink:type="simple" xlink:actuate="onLoad" id="linearGradient6" xlink:show="other" spreadMethod="pad">
<stop stop-opacity="1" stop-color="white" offset="0%"/>
<stop stop-opacity="1" stop-color="white" offset="100%"/>
</linearGradient>
<clipPath clipPathUnits="userSpaceOnUse" id="clipPath1">
<path d="M694 169 L816 169 L816 271 L694 271 L694 169 Z"/>
</clipPath>
<clipPath clipPathUnits="userSpaceOnUse" id="clipPath2">
<path d="M694 169 L814 169 L814 269 L694 269 L694 169 Z"/>
</clipPath>
<clipPath clipPathUnits="userSpaceOnUse" id="clipPath3">
<path d="M749 174 L761 174 L761 191 L749 191 L749 174 Z"/>
</clipPath>
<clipPath clipPathUnits="userSpaceOnUse" id="clipPath4">
<path d="M699 196 L742 196 L742 211 L699 211 L699 196 Z"/>
</clipPath>
<clipPath clipPathUnits="userSpaceOnUse" id="clipPath5">
<path d="M699 209 L742 209 L742 224 L699 224 L699 209 Z"/>
</clipPath>
<clipPath clipPathUnits="userSpaceOnUse" id="clipPath6">
<path d="M699 222 L742 222 L742 237 L699 237 L699 222 Z"/>
</clipPath>
<clipPath clipPathUnits="userSpaceOnUse" id="clipPath7">
<path d="M699 235 L742 235 L742 250 L699 250 L699 235 Z"/>
</clipPath>
<clipPath clipPathUnits="userSpaceOnUse" id="clipPath8">
<path d="M699 248 L744 248 L744 263 L699 263 L699 248 Z"/>
</clipPath>
<clipPath clipPathUnits="userSpaceOnUse" id="clipPath9">
<path d="M695 194 L813 194 L813 268 L695 268 L695 194 Z"/>
</clipPath>
<clipPath clipPathUnits="userSpaceOnUse" id="clipPath10">
<path d="M509 169 L631 169 L631 271 L509 271 L509 169 Z"/>
</clipPath>
<clipPath clipPathUnits="userSpaceOnUse" id="clipPath11">
<path d="M509 169 L629 169 L629 269 L509 269 L509 169 Z"/>
</clipPath>
<clipPath clipPathUnits="userSpaceOnUse" id="clipPath12">
<path d="M564 174 L578 174 L578 191 L564 191 L564 174 Z"/>
</clipPath>
<clipPath clipPathUnits="userSpaceOnUse" id="clipPath13">
<path d="M514 196 L551 196 L551 211 L514 211 L514 196 Z"/>
</clipPath>
<clipPath clipPathUnits="userSpaceOnUse" id="clipPath14">
<path d="M514 209 L559 209 L559 224 L514 224 L514 209 Z"/>
</clipPath>
<clipPath clipPathUnits="userSpaceOnUse" id="clipPath15">
<path d="M510 194 L628 194 L628 268 L510 268 L510 194 Z"/>
</clipPath>
<clipPath clipPathUnits="userSpaceOnUse" id="clipPath16">
<path d="M309 169 L431 169 L431 271 L309 271 L309 169 Z"/>
</clipPath>
<clipPath clipPathUnits="userSpaceOnUse" id="clipPath17">
<path d="M309 169 L429 169 L429 269 L309 269 L309 169 Z"/>
</clipPath>
<clipPath clipPathUnits="userSpaceOnUse" id="clipPath18">
<path d="M364 174 L378 174 L378 191 L364 191 L364 174 Z"/>
</clipPath>
<clipPath clipPathUnits="userSpaceOnUse" id="clipPath19">
<path d="M314 196 L382 196 L382 211 L314 211 L314 196 Z"/>
</clipPath>
<clipPath clipPathUnits="userSpaceOnUse" id="clipPath20">
<path d="M314 209 L382 209 L382 224 L314 224 L314 209 Z"/>
</clipPath>
<clipPath clipPathUnits="userSpaceOnUse" id="clipPath21">
<path d="M314 222 L425 222 L425 237 L314 237 L314 222 Z"/>
</clipPath>
<clipPath clipPathUnits="userSpaceOnUse" id="clipPath22">
<path d="M314 235 L366 235 L366 250 L314 250 L314 235 Z"/>
</clipPath>
<clipPath clipPathUnits="userSpaceOnUse" id="clipPath23">
<path d="M310 194 L428 194 L428 268 L310 268 L310 194 Z"/>
</clipPath>
<clipPath clipPathUnits="userSpaceOnUse" id="clipPath24">
<path d="M9 169 L131 169 L131 271 L9 271 L9 169 Z"/>
</clipPath>
<clipPath clipPathUnits="userSpaceOnUse" id="clipPath25">
<path d="M9 169 L129 169 L129 269 L9 269 L9 169 Z"/>
</clipPath>
<clipPath clipPathUnits="userSpaceOnUse" id="clipPath26">
<path d="M53 174 L86 174 L86 191 L53 191 L53 174 Z"/>
</clipPath>
<clipPath clipPathUnits="userSpaceOnUse" id="clipPath27">
<path d="M14 196 L49 196 L49 211 L14 211 L14 196 Z"/>
</clipPath>
<clipPath clipPathUnits="userSpaceOnUse" id="clipPath28">
<path d="M14 209 L80 209 L80 224 L14 224 L14 209 Z"/>
</clipPath>
<clipPath clipPathUnits="userSpaceOnUse" id="clipPath29">
<path d="M14 222 L102 222 L102 237 L14 237 L14 222 Z"/>
</clipPath>
<clipPath clipPathUnits="userSpaceOnUse" id="clipPath30">
<path d="M14 235 L125 235 L125 250 L14 250 L14 235 Z"/>
</clipPath>
<clipPath clipPathUnits="userSpaceOnUse" id="clipPath31">
<path d="M10 194 L128 194 L128 268 L10 268 L10 194 Z"/>
</clipPath>
<clipPath clipPathUnits="userSpaceOnUse" id="clipPath32">
<path d="M144 9 L266 9 L266 111 L144 111 L144 9 Z"/>
</clipPath>
<clipPath clipPathUnits="userSpaceOnUse" id="clipPath33">
<path d="M144 9 L264 9 L264 109 L144 109 L144 9 Z"/>
</clipPath>
<clipPath clipPathUnits="userSpaceOnUse" id="clipPath34">
<path d="M170 14 L240 14 L240 46 L170 46 L170 14 Z"/>
</clipPath>
<clipPath clipPathUnits="userSpaceOnUse" id="clipPath35">
<path d="M149 51 L260 51 L260 66 L149 66 L149 51 Z"/>
</clipPath>
<clipPath clipPathUnits="userSpaceOnUse" id="clipPath36">
<path d="M145 49 L263 49 L263 108 L145 108 L145 49 Z"/>
</clipPath>
<clipPath clipPathUnits="userSpaceOnUse" id="clipPath37">
<path d="M554 9 L747 9 L747 111 L554 111 L554 9 Z"/>
</clipPath>
<clipPath clipPathUnits="userSpaceOnUse" id="clipPath38">
<path d="M554 9 L745 9 L745 109 L554 109 L554 9 Z"/>
</clipPath>
<clipPath clipPathUnits="userSpaceOnUse" id="clipPath39">
<path d="M631 14 L670 14 L670 31 L631 31 L631 14 Z"/>
</clipPath>
<clipPath clipPathUnits="userSpaceOnUse" id="clipPath40">
<path d="M559 36 L742 36 L742 51 L559 51 L559 36 Z"/>
</clipPath>
<clipPath clipPathUnits="userSpaceOnUse" id="clipPath41">
<path d="M555 34 L744 34 L744 108 L555 108 L555 34 Z"/>
</clipPath>
<clipPath clipPathUnits="userSpaceOnUse" id="clipPath42">
<path d="M-1 -1 L826 -1 L826 355 L-1 355 L-1 -1 Z"/>
</clipPath>
<clipPath clipPathUnits="userSpaceOnUse" id="clipPath43">
<path d="M204 106 L216 106 L216 117 L204 117 L204 106 Z"/>
</clipPath>
<clipPath clipPathUnits="userSpaceOnUse" id="clipPath44">
<path d="M195 107 L207 107 L207 117 L195 117 L195 107 Z"/>
</clipPath>
<clipPath clipPathUnits="userSpaceOnUse" id="clipPath45">
<path d="M162 246 L183 246 L183 261 L162 261 L162 246 Z"/>
</clipPath>
<clipPath clipPathUnits="userSpaceOnUse" id="clipPath46">
<path d="M81 301 L121 301 L121 316 L81 316 L81 301 Z"/>
</clipPath>
<clipPath clipPathUnits="userSpaceOnUse" id="clipPath47">
<path d="M127 239 L137 239 L137 248 L127 248 L127 239 Z"/>
</clipPath>
<clipPath clipPathUnits="userSpaceOnUse" id="clipPath48">
<path d="M86 267 L95 267 L95 277 L86 277 L86 267 Z"/>
</clipPath>
<clipPath clipPathUnits="userSpaceOnUse" id="clipPath49">
<path d="M146 222 L166 222 L166 237 L146 237 L146 222 Z"/>
</clipPath>
<clipPath clipPathUnits="userSpaceOnUse" id="clipPath50">
<path d="M280 222 L289 222 L289 237 L280 237 L280 222 Z"/>
</clipPath>
<clipPath clipPathUnits="userSpaceOnUse" id="clipPath51">
<path d="M127 215 L137 215 L137 224 L127 224 L127 215 Z"/>
</clipPath>
<clipPath clipPathUnits="userSpaceOnUse" id="clipPath52">
<path d="M302 215 L312 215 L312 224 L302 224 L302 215 Z"/>
</clipPath>
</defs>
<g fill="rgb(131,122,133)" font-family="'Segoe UI'" stroke-linejoin="round" stroke="rgb(131,122,133)" font-weight="bold" stroke-width="0" stroke-miterlimit="0">
<rect x="696" y="171" clip-path="url(#clipPath1)" width="118" rx="2.5" opacity="0.2549" ry="2.5" height="98" stroke="none"/>
<rect x="697" y="172" clip-path="url(#clipPath1)" width="118" rx="2.5" opacity="0.2549" ry="2.5" height="98" stroke="none"/>
<rect x="695" y="170" clip-path="url(#clipPath2)" fill="url(#linearGradient1)" width="118" rx="2.5" ry="2.5" height="98" stroke="none"/>
</g>
<g stroke-width="1.1" font-weight="bold" font-family="'Segoe UI'" stroke-linecap="butt">
<rect x="695" y="170" clip-path="url(#clipPath2)" fill="none" width="117" rx="2.5" ry="2.5" height="97"/>
<text xml:space="preserve" x="750" y="188" clip-path="url(#clipPath3)" stroke="none">C</text>
<text x="700" font-size="11" y="209" clip-path="url(#clipPath4)" stroke="none" font-weight="normal" xml:space="preserve">+ a1 : A</text>
<text x="700" font-size="11" y="222" clip-path="url(#clipPath5)" stroke="none" font-weight="normal" xml:space="preserve">+ a2 : A</text>
<text x="700" font-size="11" y="235" clip-path="url(#clipPath6)" stroke="none" font-weight="normal" xml:space="preserve">+ a3 : A</text>
<text x="700" font-size="11" y="248" clip-path="url(#clipPath7)" stroke="none" font-weight="normal" xml:space="preserve">+ a4 : A</text>
<text x="700" font-size="11" y="261" clip-path="url(#clipPath8)" stroke="none" font-weight="normal" xml:space="preserve">p : IImpl</text>
<line clip-path="url(#clipPath9)" fill="none" x1="696" x2="812" y1="195" y2="195"/>
<rect x="511" y="171" clip-path="url(#clipPath10)" fill="rgb(131,122,133)" width="118" rx="2.5" opacity="0.2549" ry="2.5" height="98" stroke="none"/>
<rect x="512" y="172" clip-path="url(#clipPath10)" fill="rgb(131,122,133)" width="118" rx="2.5" opacity="0.2549" ry="2.5" height="98" stroke="none"/>
<rect x="510" y="170" clip-path="url(#clipPath11)" fill="url(#linearGradient2)" width="118" rx="2.5" ry="2.5" height="98" stroke="none"/>
<rect x="510" y="170" clip-path="url(#clipPath11)" fill="none" width="117" rx="2.5" ry="2.5" height="97"/>
<text xml:space="preserve" x="565" y="188" clip-path="url(#clipPath12)" stroke="none">A</text>
<text x="515" font-size="11" y="209" clip-path="url(#clipPath13)" stroke="none" font-weight="normal" xml:space="preserve">+ b : B</text>
<text x="515" font-size="11" y="222" clip-path="url(#clipPath14)" stroke="none" font-weight="normal" xml:space="preserve">q : IImpl</text>
<line clip-path="url(#clipPath15)" fill="none" x1="511" x2="627" y1="195" y2="195"/>
<rect x="311" y="171" clip-path="url(#clipPath16)" fill="rgb(131,122,133)" width="118" rx="2.5" opacity="0.2549" ry="2.5" height="98" stroke="none"/>
<rect x="312" y="172" clip-path="url(#clipPath16)" fill="rgb(131,122,133)" width="118" rx="2.5" opacity="0.2549" ry="2.5" height="98" stroke="none"/>
<rect x="310" y="170" clip-path="url(#clipPath17)" fill="url(#linearGradient3)" width="118" rx="2.5" ry="2.5" height="98" stroke="none"/>
<rect x="310" y="170" clip-path="url(#clipPath17)" fill="none" width="117" rx="2.5" ry="2.5" height="97"/>
<text xml:space="preserve" x="365" y="188" clip-path="url(#clipPath18)" stroke="none">B</text>
<text x="315" font-size="11" y="209" clip-path="url(#clipPath19)" stroke="none" font-weight="normal" xml:space="preserve">+ p : Integer</text>
<text x="315" font-size="11" y="222" clip-path="url(#clipPath20)" stroke="none" font-weight="normal" xml:space="preserve">+ y : IImpl [*]</text>
<text x="315" font-size="11" y="235" clip-path="url(#clipPath21)" stroke="none" font-weight="normal" xml:space="preserve">+ assignP(v : Integer)</text>
<text x="315" font-size="11" y="248" clip-path="url(#clipPath22)" stroke="none" font-weight="normal" xml:space="preserve">+ printP()</text>
<line clip-path="url(#clipPath23)" fill="none" x1="311" x2="427" y1="195" y2="195"/>
<rect x="11" y="171" clip-path="url(#clipPath24)" fill="rgb(131,122,133)" width="118" rx="2.5" opacity="0.2549" ry="2.5" height="98" stroke="none"/>
<rect x="12" y="172" clip-path="url(#clipPath24)" fill="rgb(131,122,133)" width="118" rx="2.5" opacity="0.2549" ry="2.5" height="98" stroke="none"/>
<rect x="10" y="170" clip-path="url(#clipPath25)" fill="url(#linearGradient4)" width="118" rx="2.5" ry="2.5" height="98" stroke="none"/>
<rect x="10" y="170" clip-path="url(#clipPath25)" fill="none" width="117" rx="2.5" ry="2.5" height="97"/>
<text xml:space="preserve" x="54" y="188" clip-path="url(#clipPath26)" stroke="none">IImpl</text>
<text x="15" font-size="11" y="209" clip-path="url(#clipPath27)" stroke="none" font-weight="normal" xml:space="preserve">+ x : B</text>
<text x="15" font-size="11" y="222" clip-path="url(#clipPath28)" stroke="none" font-weight="normal" xml:space="preserve">+ left : IImpl</text>
<text x="15" font-size="11" y="235" clip-path="url(#clipPath29)" stroke="none" font-weight="normal" xml:space="preserve">+ right : IImpl [*]</text>
<text x="15" font-size="11" y="248" clip-path="url(#clipPath30)" stroke="none" font-weight="normal" xml:space="preserve">+ assignP(v : Integer)</text>
<line clip-path="url(#clipPath31)" fill="none" x1="11" x2="127" y1="195" y2="195"/>
<rect x="146" y="11" clip-path="url(#clipPath32)" fill="rgb(131,122,133)" width="118" rx="2.5" opacity="0.2549" ry="2.5" height="98" stroke="none"/>
<rect x="147" y="12" clip-path="url(#clipPath32)" fill="rgb(131,122,133)" width="118" rx="2.5" opacity="0.2549" ry="2.5" height="98" stroke="none"/>
<rect x="145" y="10" clip-path="url(#clipPath33)" fill="url(#linearGradient5)" width="118" rx="2.5" ry="2.5" height="98" stroke="none"/>
<rect x="145" y="10" clip-path="url(#clipPath33)" fill="none" width="117" rx="2.5" ry="2.5" height="97"/>
<text xml:space="preserve" x="171" y="28" clip-path="url(#clipPath34)" stroke="none">«Interface»&#13;</text>
<text xml:space="preserve" x="171" y="43" clip-path="url(#clipPath34)" stroke="none">I</text>
<text x="150" font-size="11" y="64" clip-path="url(#clipPath35)" stroke="none" font-weight="normal" xml:space="preserve">+ assignP(v : Integer)</text>
<line clip-path="url(#clipPath36)" fill="none" x1="146" x2="262" y1="50" y2="50"/>
<rect x="556" y="11" clip-path="url(#clipPath37)" fill="rgb(131,122,133)" width="189" rx="2.5" opacity="0.2549" ry="2.5" height="98" stroke="none"/>
<rect x="557" y="12" clip-path="url(#clipPath37)" fill="rgb(131,122,133)" width="189" rx="2.5" opacity="0.2549" ry="2.5" height="98" stroke="none"/>
<rect x="555" y="10" clip-path="url(#clipPath38)" fill="url(#linearGradient6)" width="189" rx="2.5" ry="2.5" height="98" stroke="none"/>
<rect x="555" y="10" clip-path="url(#clipPath38)" fill="none" width="188" rx="2.5" ry="2.5" height="97"/>
<text xml:space="preserve" x="632" y="28" clip-path="url(#clipPath39)" stroke="none">Tester</text>
<text x="560" font-size="11" y="49" clip-path="url(#clipPath40)" stroke="none" font-weight="normal" xml:space="preserve">+ testCallDelegation(v : Integer) : C</text>
<line clip-path="url(#clipPath41)" fill="none" x1="556" x2="743" y1="35" y2="35"/>
<line clip-path="url(#clipPath42)" fill="none" x1="370" x2="205" y1="170" y2="108" stroke-dasharray="5,5"/>
</g>
<g stroke-linecap="butt" font-size="11" fill="white" font-family="'Segoe UI'" stroke-dasharray="5,5" stroke="white" stroke-width="1.1">
<polygon clip-path="url(#clipPath43)" points=" 205 108 214 107 211 115" stroke="none"/>
<polygon fill="none" stroke-dasharray="none" clip-path="url(#clipPath43)" points=" 205 108 214 107 211 115" stroke="black"/>
<line clip-path="url(#clipPath42)" fill="none" x1="70" x2="205" y1="170" y2="108" stroke="black"/>
<polygon clip-path="url(#clipPath44)" points=" 205 108 199 115 196 108" stroke="none"/>
<polygon fill="none" stroke-dasharray="none" clip-path="url(#clipPath44)" points=" 205 108 199 115 196 108" stroke="black"/>
<line clip-path="url(#clipPath42)" fill="none" x1="128" x2="190" y1="243" y2="243" stroke-dasharray="none" stroke="black"/>
<line clip-path="url(#clipPath42)" fill="none" x1="190" x2="190" y1="243" y2="330" stroke-dasharray="none" stroke="black"/>
<line clip-path="url(#clipPath42)" fill="none" x1="190" x2="90" y1="330" y2="330" stroke-dasharray="none" stroke="black"/>
<line clip-path="url(#clipPath42)" fill="none" x1="90" x2="90" y1="330" y2="268" stroke-dasharray="none" stroke="black"/>
<text x="163" y="259" clip-path="url(#clipPath45)" fill="black" stroke-dasharray="none" stroke="none" xml:space="preserve">left</text>
<text x="82" y="314" clip-path="url(#clipPath46)" fill="black" stroke-dasharray="none" stroke="none" xml:space="preserve">right[*]</text>
<line clip-path="url(#clipPath47)" fill="none" x1="135" x2="128" y1="240" y2="243" stroke-dasharray="none" stroke="black"/>
<line clip-path="url(#clipPath47)" fill="none" x1="128" x2="135" y1="243" y2="246" stroke-dasharray="none" stroke="black"/>
<line clip-path="url(#clipPath48)" fill="none" x1="93" x2="90" y1="275" y2="268" stroke-dasharray="none" stroke="black"/>
<line clip-path="url(#clipPath48)" fill="none" x1="90" x2="87" y1="268" y2="275" stroke-dasharray="none" stroke="black"/>
<line clip-path="url(#clipPath42)" fill="none" x1="128" x2="310" y1="219" y2="219" stroke-dasharray="none" stroke="black"/>
<text x="147" y="235" clip-path="url(#clipPath49)" fill="black" stroke-dasharray="none" stroke="none" xml:space="preserve">y[*]</text>
<text x="281" y="235" clip-path="url(#clipPath50)" fill="black" stroke-dasharray="none" stroke="none" xml:space="preserve">x</text>
<line clip-path="url(#clipPath51)" fill="none" x1="135" x2="128" y1="216" y2="219" stroke-dasharray="none" stroke="black"/>
<line clip-path="url(#clipPath51)" fill="none" x1="128" x2="135" y1="219" y2="222" stroke-dasharray="none" stroke="black"/>
<line clip-path="url(#clipPath52)" fill="none" x1="303" x2="310" y1="222" y2="219" stroke-dasharray="none" stroke="black"/>
<line clip-path="url(#clipPath52)" fill="none" x1="310" x2="303" y1="219" y2="216" stroke-dasharray="none" stroke="black"/>
</g>
</g>
</svg>
