<?xml version="1.0" encoding="UTF-8"?><svg xmlns="http://www.w3.org/2000/svg" xmlns:xlink="http://www.w3.org/1999/xlink" stroke-dasharray="none" shape-rendering="auto" font-family="'Dialog'" width="834" text-rendering="auto" fill-opacity="1" contentScriptType="text/ecmascript" color-interpolation="auto" color-rendering="auto" preserveAspectRatio="xMidYMid meet" font-size="12" viewBox="0 0 834 323" fill="black" stroke="black" image-rendering="auto" stroke-miterlimit="10" zoomAndPan="magnify" version="1.0" stroke-linecap="square" stroke-linejoin="miter" contentStyleType="text/css" font-style="normal" height="323" stroke-width="1" stroke-dashoffset="0" font-weight="normal" stroke-opacity="1">
<!--Generated by the Batik Graphics2D SVG Generator-->
<defs id="genericDefs"/>
<g>
<defs id="defs1">
<linearGradient x1="470" x2="588" y1="9" gradientUnits="userSpaceOnUse" y2="117" xlink:type="simple" xlink:actuate="onLoad" id="linearGradient1" xlink:show="other" spreadMethod="pad">
<stop stop-opacity="1" stop-color="white" offset="0%"/>
<stop stop-opacity="1" stop-color="white" offset="100%"/>
</linearGradient>
<linearGradient x1="230" x2="348" y1="7" gradientUnits="userSpaceOnUse" y2="119" xlink:type="simple" xlink:actuate="onLoad" id="linearGradient2" xlink:show="other" spreadMethod="pad">
<stop stop-opacity="1" stop-color="white" offset="0%"/>
<stop stop-opacity="1" stop-color="white" offset="100%"/>
</linearGradient>
<linearGradient x1="470" x2="588" y1="169" gradientUnits="userSpaceOnUse" y2="277" xlink:type="simple" xlink:actuate="onLoad" id="linearGradient3" xlink:show="other" spreadMethod="pad">
<stop stop-opacity="1" stop-color="white" offset="0%"/>
<stop stop-opacity="1" stop-color="white" offset="100%"/>
</linearGradient>
<linearGradient x1="230" x2="348" y1="169" gradientUnits="userSpaceOnUse" y2="277" xlink:type="simple" xlink:actuate="onLoad" id="linearGradient4" xlink:show="other" spreadMethod="pad">
<stop stop-opacity="1" stop-color="white" offset="0%"/>
<stop stop-opacity="1" stop-color="white" offset="100%"/>
</linearGradient>
<linearGradient x1="10" x2="128" y1="169" gradientUnits="userSpaceOnUse" y2="277" xlink:type="simple" xlink:actuate="onLoad" id="linearGradient5" xlink:show="other" spreadMethod="pad">
<stop stop-opacity="1" stop-color="white" offset="0%"/>
<stop stop-opacity="1" stop-color="white" offset="100%"/>
</linearGradient>
<linearGradient x1="10" x2="128" y1="9" gradientUnits="userSpaceOnUse" y2="117" xlink:type="simple" xlink:actuate="onLoad" id="linearGradient6" xlink:show="other" spreadMethod="pad">
<stop stop-opacity="1" stop-color="white" offset="0%"/>
<stop stop-opacity="1" stop-color="white" offset="100%"/>
</linearGradient>
<linearGradient x1="695" x2="822" y1="7" gradientUnits="userSpaceOnUse" y2="119" xlink:type="simple" xlink:actuate="onLoad" id="linearGradient7" xlink:show="other" spreadMethod="pad">
<stop stop-opacity="1" stop-color="white" offset="0%"/>
<stop stop-opacity="1" stop-color="white" offset="100%"/>
</linearGradient>
<clipPath clipPathUnits="userSpaceOnUse" id="clipPath1">
<path d="M469 13 L591 13 L591 115 L469 115 L469 13 Z"/>
</clipPath>
<clipPath clipPathUnits="userSpaceOnUse" id="clipPath2">
<path d="M469 13 L589 13 L589 113 L469 113 L469 13 Z"/>
</clipPath>
<clipPath clipPathUnits="userSpaceOnUse" id="clipPath3">
<path d="M524 18 L536 18 L536 35 L524 35 L524 18 Z"/>
</clipPath>
<clipPath clipPathUnits="userSpaceOnUse" id="clipPath4">
<path d="M474 40 L541 40 L541 55 L474 55 L474 40 Z"/>
</clipPath>
<clipPath clipPathUnits="userSpaceOnUse" id="clipPath5">
<path d="M474 53 L541 53 L541 68 L474 68 L474 53 Z"/>
</clipPath>
<clipPath clipPathUnits="userSpaceOnUse" id="clipPath6">
<path d="M470 38 L588 38 L588 112 L470 112 L470 38 Z"/>
</clipPath>
<clipPath clipPathUnits="userSpaceOnUse" id="clipPath7">
<path d="M229 9 L351 9 L351 119 L229 119 L229 9 Z"/>
</clipPath>
<clipPath clipPathUnits="userSpaceOnUse" id="clipPath8">
<path d="M229 9 L349 9 L349 117 L229 117 L229 9 Z"/>
</clipPath>
<clipPath clipPathUnits="userSpaceOnUse" id="clipPath9">
<path d="M284 14 L296 14 L296 31 L284 31 L284 14 Z"/>
</clipPath>
<clipPath clipPathUnits="userSpaceOnUse" id="clipPath10">
<path d="M234 36 L303 36 L303 51 L234 51 L234 36 Z"/>
</clipPath>
<clipPath clipPathUnits="userSpaceOnUse" id="clipPath11">
<path d="M234 49 L302 49 L302 64 L234 64 L234 49 Z"/>
</clipPath>
<clipPath clipPathUnits="userSpaceOnUse" id="clipPath12">
<path d="M234 62 L303 62 L303 77 L234 77 L234 62 Z"/>
</clipPath>
<clipPath clipPathUnits="userSpaceOnUse" id="clipPath13">
<path d="M234 75 L302 75 L302 90 L234 90 L234 75 Z"/>
</clipPath>
<clipPath clipPathUnits="userSpaceOnUse" id="clipPath14">
<path d="M234 88 L295 88 L295 103 L234 103 L234 88 Z"/>
</clipPath>
<clipPath clipPathUnits="userSpaceOnUse" id="clipPath15">
<path d="M234 101 L303 101 L303 116 L234 116 L234 101 Z"/>
</clipPath>
<clipPath clipPathUnits="userSpaceOnUse" id="clipPath16">
<path d="M230 34 L348 34 L348 116 L230 116 L230 34 Z"/>
</clipPath>
<clipPath clipPathUnits="userSpaceOnUse" id="clipPath17">
<path d="M469 173 L591 173 L591 275 L469 275 L469 173 Z"/>
</clipPath>
<clipPath clipPathUnits="userSpaceOnUse" id="clipPath18">
<path d="M469 173 L589 173 L589 273 L469 273 L469 173 Z"/>
</clipPath>
<clipPath clipPathUnits="userSpaceOnUse" id="clipPath19">
<path d="M524 178 L536 178 L536 195 L524 195 L524 178 Z"/>
</clipPath>
<clipPath clipPathUnits="userSpaceOnUse" id="clipPath20">
<path d="M474 200 L529 200 L529 215 L474 215 L474 200 Z"/>
</clipPath>
<clipPath clipPathUnits="userSpaceOnUse" id="clipPath21">
<path d="M474 213 L524 213 L524 228 L474 228 L474 213 Z"/>
</clipPath>
<clipPath clipPathUnits="userSpaceOnUse" id="clipPath22">
<path d="M470 198 L588 198 L588 272 L470 272 L470 198 Z"/>
</clipPath>
<clipPath clipPathUnits="userSpaceOnUse" id="clipPath23">
<path d="M229 173 L351 173 L351 275 L229 275 L229 173 Z"/>
</clipPath>
<clipPath clipPathUnits="userSpaceOnUse" id="clipPath24">
<path d="M229 173 L349 173 L349 273 L229 273 L229 173 Z"/>
</clipPath>
<clipPath clipPathUnits="userSpaceOnUse" id="clipPath25">
<path d="M284 178 L296 178 L296 195 L284 195 L284 178 Z"/>
</clipPath>
<clipPath clipPathUnits="userSpaceOnUse" id="clipPath26">
<path d="M234 200 L287 200 L287 215 L234 215 L234 200 Z"/>
</clipPath>
<clipPath clipPathUnits="userSpaceOnUse" id="clipPath27">
<path d="M234 213 L285 213 L285 228 L234 228 L234 213 Z"/>
</clipPath>
<clipPath clipPathUnits="userSpaceOnUse" id="clipPath28">
<path d="M230 198 L348 198 L348 272 L230 272 L230 198 Z"/>
</clipPath>
<clipPath clipPathUnits="userSpaceOnUse" id="clipPath29">
<path d="M9 173 L131 173 L131 275 L9 275 L9 173 Z"/>
</clipPath>
<clipPath clipPathUnits="userSpaceOnUse" id="clipPath30">
<path d="M9 173 L129 173 L129 273 L9 273 L9 173 Z"/>
</clipPath>
<clipPath clipPathUnits="userSpaceOnUse" id="clipPath31">
<path d="M53 178 L86 178 L86 195 L53 195 L53 178 Z"/>
</clipPath>
<clipPath clipPathUnits="userSpaceOnUse" id="clipPath32">
<path d="M14 200 L94 200 L94 215 L14 215 L14 200 Z"/>
</clipPath>
<clipPath clipPathUnits="userSpaceOnUse" id="clipPath33">
<path d="M14 213 L102 213 L102 228 L14 228 L14 213 Z"/>
</clipPath>
<clipPath clipPathUnits="userSpaceOnUse" id="clipPath34">
<path d="M10 198 L128 198 L128 272 L10 272 L10 198 Z"/>
</clipPath>
<clipPath clipPathUnits="userSpaceOnUse" id="clipPath35">
<path d="M9 13 L131 13 L131 115 L9 115 L9 13 Z"/>
</clipPath>
<clipPath clipPathUnits="userSpaceOnUse" id="clipPath36">
<path d="M9 13 L129 13 L129 113 L9 113 L9 13 Z"/>
</clipPath>
<clipPath clipPathUnits="userSpaceOnUse" id="clipPath37">
<path d="M35 18 L105 18 L105 50 L35 50 L35 18 Z"/>
</clipPath>
<clipPath clipPathUnits="userSpaceOnUse" id="clipPath38">
<path d="M10 53 L128 53 L128 112 L10 112 L10 53 Z"/>
</clipPath>
<clipPath clipPathUnits="userSpaceOnUse" id="clipPath39">
<path d="M694 13 L825 13 L825 115 L694 115 L694 13 Z"/>
</clipPath>
<clipPath clipPathUnits="userSpaceOnUse" id="clipPath40">
<path d="M694 13 L823 13 L823 113 L694 113 L694 13 Z"/>
</clipPath>
<clipPath clipPathUnits="userSpaceOnUse" id="clipPath41">
<path d="M740 18 L779 18 L779 35 L740 35 L740 18 Z"/>
</clipPath>
<clipPath clipPathUnits="userSpaceOnUse" id="clipPath42">
<path d="M699 40 L820 40 L820 55 L699 55 L699 40 Z"/>
</clipPath>
<clipPath clipPathUnits="userSpaceOnUse" id="clipPath43">
<path d="M695 38 L822 38 L822 112 L695 112 L695 38 Z"/>
</clipPath>
<clipPath clipPathUnits="userSpaceOnUse" id="clipPath44">
<path d="M-1 -1 L835 -1 L835 324 L-1 324 L-1 -1 Z"/>
</clipPath>
<clipPath clipPathUnits="userSpaceOnUse" id="clipPath45">
<path d="M65 111 L76 111 L76 122 L65 122 L65 111 Z"/>
</clipPath>
<clipPath clipPathUnits="userSpaceOnUse" id="clipPath46">
<path d="M452 223 L474 223 L474 238 L452 238 L452 223 Z"/>
</clipPath>
<clipPath clipPathUnits="userSpaceOnUse" id="clipPath47">
<path d="M364 208 L384 208 L384 223 L364 223 L364 208 Z"/>
</clipPath>
<clipPath clipPathUnits="userSpaceOnUse" id="clipPath48">
<path d="M462 217 L472 217 L472 226 L462 226 L462 217 Z"/>
</clipPath>
<clipPath clipPathUnits="userSpaceOnUse" id="clipPath49">
<path d="M347 217 L357 217 L357 226 L347 226 L347 217 Z"/>
</clipPath>
<clipPath clipPathUnits="userSpaceOnUse" id="clipPath50">
<path d="M138 226 L170 226 L170 241 L138 241 L138 226 Z"/>
</clipPath>
<clipPath clipPathUnits="userSpaceOnUse" id="clipPath51">
<path d="M60 282 L100 282 L100 297 L60 297 L60 282 Z"/>
</clipPath>
<clipPath clipPathUnits="userSpaceOnUse" id="clipPath52">
<path d="M127 219 L137 219 L137 228 L127 228 L127 219 Z"/>
</clipPath>
<clipPath clipPathUnits="userSpaceOnUse" id="clipPath53">
<path d="M65 271 L74 271 L74 281 L65 281 L65 271 Z"/>
</clipPath>
<clipPath clipPathUnits="userSpaceOnUse" id="clipPath54">
<path d="M364 78 L396 78 L396 93 L364 93 L364 78 Z"/>
</clipPath>
<clipPath clipPathUnits="userSpaceOnUse" id="clipPath55">
<path d="M304 123 L344 123 L344 138 L304 138 L304 123 Z"/>
</clipPath>
<clipPath clipPathUnits="userSpaceOnUse" id="clipPath56">
<path d="M347 59 L357 59 L357 68 L347 68 L347 59 Z"/>
</clipPath>
<clipPath clipPathUnits="userSpaceOnUse" id="clipPath57">
<path d="M285 115 L294 115 L294 125 L285 125 L285 115 Z"/>
</clipPath>
</defs>
<g fill="rgb(131,122,133)" font-family="'Segoe UI'" stroke-linejoin="round" stroke="rgb(131,122,133)" font-weight="bold" stroke-width="0" stroke-miterlimit="0">
<rect x="471" y="15" clip-path="url(#clipPath1)" width="118" rx="2.5" opacity="0.2549" ry="2.5" height="98" stroke="none"/>
<rect x="472" y="16" clip-path="url(#clipPath1)" width="118" rx="2.5" opacity="0.2549" ry="2.5" height="98" stroke="none"/>
<rect x="470" y="14" clip-path="url(#clipPath2)" fill="url(#linearGradient1)" width="118" rx="2.5" ry="2.5" height="98" stroke="none"/>
</g>
<g stroke-width="1.1" font-weight="bold" font-family="'Segoe UI'" stroke-linecap="butt">
<rect x="470" y="14" clip-path="url(#clipPath2)" fill="none" width="117" rx="2.5" ry="2.5" height="97"/>
<text xml:space="preserve" x="525" y="32" clip-path="url(#clipPath3)" stroke="none">T</text>
<text x="475" font-size="11" y="53" clip-path="url(#clipPath4)" stroke="none" font-weight="normal" xml:space="preserve">+ s1 : S [2..*]</text>
<text x="475" font-size="11" y="66" clip-path="url(#clipPath5)" stroke="none" font-weight="normal" xml:space="preserve">+ s2 : S [1..*]</text>
<line clip-path="url(#clipPath6)" fill="none" x1="471" x2="587" y1="39" y2="39"/>
<rect x="231" y="11" clip-path="url(#clipPath7)" fill="rgb(131,122,133)" width="118" rx="2.5" opacity="0.2549" ry="2.5" height="106" stroke="none"/>
<rect x="232" y="12" clip-path="url(#clipPath7)" fill="rgb(131,122,133)" width="118" rx="2.5" opacity="0.2549" ry="2.5" height="106" stroke="none"/>
<rect x="230" y="10" clip-path="url(#clipPath8)" fill="url(#linearGradient2)" width="118" rx="2.5" ry="2.5" height="106" stroke="none"/>
<rect x="230" y="10" clip-path="url(#clipPath8)" fill="none" width="117" rx="2.5" ry="2.5" height="105"/>
<text xml:space="preserve" x="285" y="28" clip-path="url(#clipPath9)" stroke="none">S</text>
<text x="235" font-size="11" y="49" clip-path="url(#clipPath10)" stroke="none" font-weight="normal" xml:space="preserve">+ p1 : P [3..*]</text>
<text x="235" font-size="11" y="62" clip-path="url(#clipPath11)" stroke="none" font-weight="normal" xml:space="preserve">+ c1 : C [1..*]</text>
<text x="235" font-size="11" y="75" clip-path="url(#clipPath12)" stroke="none" font-weight="normal" xml:space="preserve">+ p2 : P [1..*]</text>
<text x="235" font-size="11" y="88" clip-path="url(#clipPath13)" stroke="none" font-weight="normal" xml:space="preserve">+ c2 : C [3..*]</text>
<text x="235" font-size="11" y="101" clip-path="url(#clipPath14)" stroke="none" font-weight="normal" xml:space="preserve">+ left : S [*]</text>
<text x="235" font-size="11" y="114" clip-path="url(#clipPath15)" stroke="none" font-weight="normal" xml:space="preserve">+ right : S [*]</text>
<line clip-path="url(#clipPath16)" fill="none" x1="231" x2="347" y1="35" y2="35"/>
<rect x="471" y="175" clip-path="url(#clipPath17)" fill="rgb(131,122,133)" width="118" rx="2.5" opacity="0.2549" ry="2.5" height="98" stroke="none"/>
<rect x="472" y="176" clip-path="url(#clipPath17)" fill="rgb(131,122,133)" width="118" rx="2.5" opacity="0.2549" ry="2.5" height="98" stroke="none"/>
<rect x="470" y="174" clip-path="url(#clipPath18)" fill="url(#linearGradient3)" width="118" rx="2.5" ry="2.5" height="98" stroke="none"/>
<rect x="470" y="174" clip-path="url(#clipPath18)" fill="none" width="117" rx="2.5" ry="2.5" height="97"/>
<text xml:space="preserve" x="525" y="192" clip-path="url(#clipPath19)" stroke="none">P</text>
<text x="475" font-size="11" y="213" clip-path="url(#clipPath20)" stroke="none" font-weight="normal" xml:space="preserve">ipp : IImpl</text>
<text x="475" font-size="11" y="226" clip-path="url(#clipPath21)" stroke="none" font-weight="normal" xml:space="preserve">+ c : C [*]</text>
<line clip-path="url(#clipPath22)" fill="none" x1="471" x2="587" y1="199" y2="199"/>
<rect x="231" y="175" clip-path="url(#clipPath23)" fill="rgb(131,122,133)" width="118" rx="2.5" opacity="0.2549" ry="2.5" height="98" stroke="none"/>
<rect x="232" y="176" clip-path="url(#clipPath23)" fill="rgb(131,122,133)" width="118" rx="2.5" opacity="0.2549" ry="2.5" height="98" stroke="none"/>
<rect x="230" y="174" clip-path="url(#clipPath24)" fill="url(#linearGradient4)" width="118" rx="2.5" ry="2.5" height="98" stroke="none"/>
<rect x="230" y="174" clip-path="url(#clipPath24)" fill="none" width="117" rx="2.5" ry="2.5" height="97"/>
<text xml:space="preserve" x="285" y="192" clip-path="url(#clipPath25)" stroke="none">C</text>
<text x="235" font-size="11" y="213" clip-path="url(#clipPath26)" stroke="none" font-weight="normal" xml:space="preserve">ipc : IImpl</text>
<text x="235" font-size="11" y="226" clip-path="url(#clipPath27)" stroke="none" font-weight="normal" xml:space="preserve">+ p : P [*]</text>
<line clip-path="url(#clipPath28)" fill="none" x1="231" x2="347" y1="199" y2="199"/>
<rect x="11" y="175" clip-path="url(#clipPath29)" fill="rgb(131,122,133)" width="118" rx="2.5" opacity="0.2549" ry="2.5" height="98" stroke="none"/>
<rect x="12" y="176" clip-path="url(#clipPath29)" fill="rgb(131,122,133)" width="118" rx="2.5" opacity="0.2549" ry="2.5" height="98" stroke="none"/>
<rect x="10" y="174" clip-path="url(#clipPath30)" fill="url(#linearGradient5)" width="118" rx="2.5" ry="2.5" height="98" stroke="none"/>
<rect x="10" y="174" clip-path="url(#clipPath30)" fill="none" width="117" rx="2.5" ry="2.5" height="97"/>
<text xml:space="preserve" x="54" y="192" clip-path="url(#clipPath31)" stroke="none">IImpl</text>
<text x="15" font-size="11" y="213" clip-path="url(#clipPath32)" stroke="none" font-weight="normal" xml:space="preserve">+ left : IImpl [*]</text>
<text x="15" font-size="11" y="226" clip-path="url(#clipPath33)" stroke="none" font-weight="normal" xml:space="preserve">+ right : IImpl [*]</text>
<line clip-path="url(#clipPath34)" fill="none" x1="11" x2="127" y1="199" y2="199"/>
<rect x="11" y="15" clip-path="url(#clipPath35)" fill="rgb(131,122,133)" width="118" rx="2.5" opacity="0.2549" ry="2.5" height="98" stroke="none"/>
<rect x="12" y="16" clip-path="url(#clipPath35)" fill="rgb(131,122,133)" width="118" rx="2.5" opacity="0.2549" ry="2.5" height="98" stroke="none"/>
<rect x="10" y="14" clip-path="url(#clipPath36)" fill="url(#linearGradient6)" width="118" rx="2.5" ry="2.5" height="98" stroke="none"/>
<rect x="10" y="14" clip-path="url(#clipPath36)" fill="none" width="117" rx="2.5" ry="2.5" height="97"/>
<text xml:space="preserve" x="36" y="32" clip-path="url(#clipPath37)" stroke="none">«Interface»&#13;</text>
<text xml:space="preserve" x="36" y="47" clip-path="url(#clipPath37)" stroke="none">I</text>
<line clip-path="url(#clipPath38)" fill="none" x1="11" x2="127" y1="54" y2="54"/>
<rect x="696" y="15" clip-path="url(#clipPath39)" fill="rgb(131,122,133)" width="127" rx="2.5" opacity="0.2549" ry="2.5" height="98" stroke="none"/>
<rect x="697" y="16" clip-path="url(#clipPath39)" fill="rgb(131,122,133)" width="127" rx="2.5" opacity="0.2549" ry="2.5" height="98" stroke="none"/>
<rect x="695" y="14" clip-path="url(#clipPath40)" fill="url(#linearGradient7)" width="127" rx="2.5" ry="2.5" height="98" stroke="none"/>
<rect x="695" y="14" clip-path="url(#clipPath40)" fill="none" width="126" rx="2.5" ry="2.5" height="97"/>
<text xml:space="preserve" x="741" y="32" clip-path="url(#clipPath41)" stroke="none">Tester</text>
<text x="700" font-size="11" y="53" clip-path="url(#clipPath42)" stroke="none" font-weight="normal" xml:space="preserve">+ testPortDestruction()</text>
<line clip-path="url(#clipPath43)" fill="none" x1="696" x2="821" y1="39" y2="39"/>
<line clip-path="url(#clipPath44)" fill="none" x1="70" x2="70" y1="174" y2="112" stroke-dasharray="5,5"/>
</g>
<g stroke-linecap="butt" font-size="11" fill="white" font-family="'Segoe UI'" stroke-dasharray="5,5" stroke="white" stroke-width="1.1">
<polygon clip-path="url(#clipPath45)" points=" 70 112 74 120 66 120" stroke="none"/>
<polygon fill="none" stroke-dasharray="none" clip-path="url(#clipPath45)" points=" 70 112 74 120 66 120" stroke="black"/>
<line clip-path="url(#clipPath44)" fill="none" x1="470" x2="348" y1="221" y2="221" stroke-dasharray="none" stroke="black"/>
<text x="453" y="236" clip-path="url(#clipPath46)" fill="black" stroke-dasharray="none" stroke="none" xml:space="preserve">p[*]</text>
<text x="365" y="221" clip-path="url(#clipPath47)" fill="black" stroke-dasharray="none" stroke="none" xml:space="preserve">c[*]</text>
<line clip-path="url(#clipPath48)" fill="none" x1="463" x2="470" y1="224" y2="221" stroke-dasharray="none" stroke="black"/>
<line clip-path="url(#clipPath48)" fill="none" x1="470" x2="463" y1="221" y2="218" stroke-dasharray="none" stroke="black"/>
<line clip-path="url(#clipPath49)" fill="none" x1="355" x2="348" y1="218" y2="221" stroke-dasharray="none" stroke="black"/>
<line clip-path="url(#clipPath49)" fill="none" x1="348" x2="355" y1="221" y2="224" stroke-dasharray="none" stroke="black"/>
<line clip-path="url(#clipPath44)" fill="none" x1="128" x2="165" y1="223" y2="223" stroke-dasharray="none" stroke="black"/>
<line clip-path="url(#clipPath44)" fill="none" x1="165" x2="165" y1="223" y2="299" stroke-dasharray="none" stroke="black"/>
<line clip-path="url(#clipPath44)" fill="none" x1="165" x2="69" y1="299" y2="299" stroke-dasharray="none" stroke="black"/>
<line clip-path="url(#clipPath44)" fill="none" x1="69" x2="69" y1="299" y2="272" stroke-dasharray="none" stroke="black"/>
<text x="139" y="239" clip-path="url(#clipPath50)" fill="black" stroke-dasharray="none" stroke="none" xml:space="preserve">left[*]</text>
<text x="61" y="295" clip-path="url(#clipPath51)" fill="black" stroke-dasharray="none" stroke="none" xml:space="preserve">right[*]</text>
<line clip-path="url(#clipPath52)" fill="none" x1="135" x2="128" y1="220" y2="223" stroke-dasharray="none" stroke="black"/>
<line clip-path="url(#clipPath52)" fill="none" x1="128" x2="135" y1="223" y2="226" stroke-dasharray="none" stroke="black"/>
<line clip-path="url(#clipPath53)" fill="none" x1="72" x2="69" y1="279" y2="272" stroke-dasharray="none" stroke="black"/>
<line clip-path="url(#clipPath53)" fill="none" x1="69" x2="66" y1="272" y2="279" stroke-dasharray="none" stroke="black"/>
<line clip-path="url(#clipPath44)" fill="none" x1="348" x2="395" y1="63" y2="63" stroke-dasharray="none" stroke="black"/>
<line clip-path="url(#clipPath44)" fill="none" x1="395" x2="395" y1="63" y2="149" stroke-dasharray="none" stroke="black"/>
<line clip-path="url(#clipPath44)" fill="none" x1="395" x2="289" y1="149" y2="149" stroke-dasharray="none" stroke="black"/>
<line clip-path="url(#clipPath44)" fill="none" x1="289" x2="289" y1="149" y2="116" stroke-dasharray="none" stroke="black"/>
<text x="365" y="91" clip-path="url(#clipPath54)" fill="black" stroke-dasharray="none" stroke="none" xml:space="preserve">left[*]</text>
<text x="305" y="136" clip-path="url(#clipPath55)" fill="black" stroke-dasharray="none" stroke="none" xml:space="preserve">right[*]</text>
<line clip-path="url(#clipPath56)" fill="none" x1="355" x2="348" y1="60" y2="63" stroke-dasharray="none" stroke="black"/>
<line clip-path="url(#clipPath56)" fill="none" x1="348" x2="355" y1="63" y2="66" stroke-dasharray="none" stroke="black"/>
<line clip-path="url(#clipPath57)" fill="none" x1="292" x2="289" y1="123" y2="116" stroke-dasharray="none" stroke="black"/>
<line clip-path="url(#clipPath57)" fill="none" x1="289" x2="286" y1="116" y2="123" stroke-dasharray="none" stroke="black"/>
</g>
</g>
</svg>
