<?xml version="1.0" encoding="UTF-8"?><svg xmlns="http://www.w3.org/2000/svg" xmlns:xlink="http://www.w3.org/1999/xlink" stroke-dasharray="none" shape-rendering="auto" font-family="'Dialog'" width="665" text-rendering="auto" fill-opacity="1" contentScriptType="text/ecmascript" color-interpolation="auto" color-rendering="auto" preserveAspectRatio="xMidYMid meet" font-size="12" viewBox="0 0 665 503" fill="black" stroke="black" image-rendering="auto" stroke-miterlimit="10" zoomAndPan="magnify" version="1.0" stroke-linecap="square" stroke-linejoin="miter" contentStyleType="text/css" font-style="normal" height="503" stroke-width="1" stroke-dashoffset="0" font-weight="normal" stroke-opacity="1">
<!--Generated by the Batik Graphics2D SVG Generator-->
<defs id="genericDefs"/>
<g>
<defs id="defs1">
<linearGradient x1="122" x2="543" y1="10" gradientUnits="userSpaceOnUse" y2="491" xlink:type="simple" xlink:actuate="onLoad" id="linearGradient1" xlink:show="other" spreadMethod="pad">
<stop stop-opacity="1" stop-color="white" offset="0%"/>
<stop stop-opacity="1" stop-color="white" offset="100%"/>
</linearGradient>
<linearGradient x1="247" x2="395" y1="341" gradientUnits="userSpaceOnUse" y2="449" xlink:type="simple" xlink:actuate="onLoad" id="linearGradient2" xlink:show="other" spreadMethod="pad">
<stop stop-opacity="1" stop-color="white" offset="0%"/>
<stop stop-opacity="1" stop-color="white" offset="100%"/>
</linearGradient>
<linearGradient x1="262" x2="410" y1="30" gradientUnits="userSpaceOnUse" y2="138" xlink:type="simple" xlink:actuate="onLoad" id="linearGradient3" xlink:show="other" spreadMethod="pad">
<stop stop-opacity="1" stop-color="white" offset="0%"/>
<stop stop-opacity="1" stop-color="white" offset="100%"/>
</linearGradient>
<linearGradient x1="247" x2="395" y1="210" gradientUnits="userSpaceOnUse" y2="318" xlink:type="simple" xlink:actuate="onLoad" id="linearGradient4" xlink:show="other" spreadMethod="pad">
<stop stop-opacity="1" stop-color="white" offset="0%"/>
<stop stop-opacity="1" stop-color="white" offset="100%"/>
</linearGradient>
<clipPath clipPathUnits="userSpaceOnUse" id="clipPath1">
<path d="M151 9 L516 9 L516 494 L151 494 L151 9 Z"/>
</clipPath>
<clipPath clipPathUnits="userSpaceOnUse" id="clipPath2">
<path d="M151 9 L514 9 L514 492 L151 492 L151 9 Z"/>
</clipPath>
<clipPath clipPathUnits="userSpaceOnUse" id="clipPath3">
<path d="M275 14 L392 14 L392 31 L275 31 L275 14 Z"/>
</clipPath>
<clipPath clipPathUnits="userSpaceOnUse" id="clipPath4">
<path d="M246 360 L398 360 L398 432 L246 432 L246 360 Z"/>
</clipPath>
<clipPath clipPathUnits="userSpaceOnUse" id="clipPath5">
<path d="M246 360 L396 360 L396 430 L246 430 L246 360 Z"/>
</clipPath>
<clipPath clipPathUnits="userSpaceOnUse" id="clipPath6">
<path d="M266 365 L378 365 L378 380 L266 380 L266 365 Z"/>
</clipPath>
<clipPath clipPathUnits="userSpaceOnUse" id="clipPath7">
<path d="M234 384 L256 384 L256 406 L234 406 L234 384 Z"/>
</clipPath>
<clipPath clipPathUnits="userSpaceOnUse" id="clipPath8">
<path d="M182 391 L237 391 L237 406 L182 406 L182 391 Z"/>
</clipPath>
<clipPath clipPathUnits="userSpaceOnUse" id="clipPath9">
<path d="M306 348 L328 348 L328 370 L306 370 L306 348 Z"/>
</clipPath>
<clipPath clipPathUnits="userSpaceOnUse" id="clipPath10">
<path d="M327 348 L396 348 L396 363 L327 363 L327 348 Z"/>
</clipPath>
<clipPath clipPathUnits="userSpaceOnUse" id="clipPath11">
<path d="M261 49 L413 49 L413 121 L261 121 L261 49 Z"/>
</clipPath>
<clipPath clipPathUnits="userSpaceOnUse" id="clipPath12">
<path d="M261 49 L411 49 L411 119 L261 119 L261 49 Z"/>
</clipPath>
<clipPath clipPathUnits="userSpaceOnUse" id="clipPath13">
<path d="M314 54 L359 54 L359 69 L314 69 L314 54 Z"/>
</clipPath>
<clipPath clipPathUnits="userSpaceOnUse" id="clipPath14">
<path d="M321 109 L343 109 L343 131 L321 131 L321 109 Z"/>
</clipPath>
<clipPath clipPathUnits="userSpaceOnUse" id="clipPath15">
<path d="M342 116 L391 116 L391 131 L342 131 L342 116 Z"/>
</clipPath>
<clipPath clipPathUnits="userSpaceOnUse" id="clipPath16">
<path d="M246 229 L398 229 L398 301 L246 301 L246 229 Z"/>
</clipPath>
<clipPath clipPathUnits="userSpaceOnUse" id="clipPath17">
<path d="M246 229 L396 229 L396 299 L246 299 L246 229 Z"/>
</clipPath>
<clipPath clipPathUnits="userSpaceOnUse" id="clipPath18">
<path d="M293 234 L351 234 L351 249 L293 249 L293 234 Z"/>
</clipPath>
<clipPath clipPathUnits="userSpaceOnUse" id="clipPath19">
<path d="M306 217 L328 217 L328 239 L306 239 L306 217 Z"/>
</clipPath>
<clipPath clipPathUnits="userSpaceOnUse" id="clipPath20">
<path d="M327 217 L353 217 L353 232 L327 232 L327 217 Z"/>
</clipPath>
<clipPath clipPathUnits="userSpaceOnUse" id="clipPath21">
<path d="M306 289 L328 289 L328 311 L306 311 L306 289 Z"/>
</clipPath>
<clipPath clipPathUnits="userSpaceOnUse" id="clipPath22">
<path d="M327 296 L372 296 L372 311 L327 311 L327 296 Z"/>
</clipPath>
<clipPath clipPathUnits="userSpaceOnUse" id="clipPath23">
<path d="M271 164 L474 164 L474 176 L271 176 L271 164 Z"/>
</clipPath>
<clipPath clipPathUnits="userSpaceOnUse" id="clipPath24">
<path d="M9 369 L161 369 L161 421 L9 421 L9 369 Z"/>
</clipPath>
<clipPath clipPathUnits="userSpaceOnUse" id="clipPath25">
<path d="M10 370 L162 370 L162 420 L10 420 L10 370 Z"/>
</clipPath>
<clipPath clipPathUnits="userSpaceOnUse" id="clipPath26">
<path d="M504 369 L656 369 L656 421 L504 421 L504 369 Z"/>
</clipPath>
<clipPath clipPathUnits="userSpaceOnUse" id="clipPath27">
<path d="M505 370 L657 370 L657 420 L505 420 L505 370 Z"/>
</clipPath>
<clipPath clipPathUnits="userSpaceOnUse" id="clipPath28">
<path d="M-1 -1 L666 -1 L666 504 L-1 504 L-1 -1 Z"/>
</clipPath>
<clipPath clipPathUnits="userSpaceOnUse" id="clipPath29">
<path d="M313 210 L322 210 L322 220 L313 220 L313 210 Z"/>
</clipPath>
<clipPath clipPathUnits="userSpaceOnUse" id="clipPath30">
<path d="M497 391 L507 391 L507 400 L497 400 L497 391 Z"/>
</clipPath>
<clipPath clipPathUnits="userSpaceOnUse" id="clipPath31">
<path d="M227 391 L237 391 L237 400 L227 400 L227 391 Z"/>
</clipPath>
<clipPath clipPathUnits="userSpaceOnUse" id="clipPath32">
<path d="M313 341 L322 341 L322 351 L313 351 L313 341 Z"/>
</clipPath>
<clipPath clipPathUnits="userSpaceOnUse" id="clipPath33">
<path d="M331 157 L340 157 L340 167 L331 167 L331 157 Z"/>
</clipPath>
</defs>
<g fill="rgb(131,122,133)" font-family="'Segoe UI'" stroke-linejoin="round" stroke="rgb(131,122,133)" stroke-width="0" stroke-miterlimit="0">
<rect x="153" y="11" clip-path="url(#clipPath1)" width="361" rx="12.5" opacity="0.2549" ry="12.5" height="481" stroke="none"/>
<rect x="154" y="12" clip-path="url(#clipPath1)" width="361" rx="12.5" opacity="0.2549" ry="12.5" height="481" stroke="none"/>
<rect x="152" y="10" clip-path="url(#clipPath2)" fill="url(#linearGradient1)" width="361" rx="12.5" ry="12.5" height="481" stroke="none"/>
</g>
<g stroke-width="1.1" font-family="'Segoe UI'" stroke-linecap="butt">
<rect x="152" y="10" clip-path="url(#clipPath2)" fill="none" width="360" rx="12.5" ry="12.5" height="480"/>
<text xml:space="preserve" x="276" y="28" clip-path="url(#clipPath3)" stroke="none">actTestCallDelegation</text>
</g>
<g stroke-linecap="butt" font-size="11" fill="rgb(131,122,133)" font-family="'Segoe UI'" stroke="rgb(131,122,133)" font-weight="bold" stroke-width="1.1">
<rect x="248" y="362" clip-path="url(#clipPath4)" width="148" rx="12.5" opacity="0.2549" ry="12.5" height="68" stroke="none"/>
<rect x="249" y="363" clip-path="url(#clipPath4)" width="148" rx="12.5" opacity="0.2549" ry="12.5" height="68" stroke="none"/>
<rect x="247" y="361" clip-path="url(#clipPath5)" fill="url(#linearGradient2)" width="148" rx="12.5" ry="12.5" height="68" stroke="none"/>
<rect x="247" y="361" clip-path="url(#clipPath5)" fill="none" width="147" rx="12.5" ry="12.5" height="67" stroke="black"/>
<text x="267" y="378" clip-path="url(#clipPath6)" fill="black" stroke="none" xml:space="preserve">callAssignP : assignP</text>
</g>
<g fill="white" stroke-width="1.1" font-family="'Segoe UI'" stroke-linecap="butt" stroke="white">
<rect x="235" y="385" clip-path="url(#clipPath7)" width="20" height="20" stroke="none"/>
<rect x="235" y="385" clip-path="url(#clipPath7)" fill="none" width="19" height="19" stroke="black"/>
<text x="183" font-size="11" y="404" clip-path="url(#clipPath8)" fill="black" stroke="none" xml:space="preserve">v : Integer</text>
<rect x="307" y="349" clip-path="url(#clipPath9)" width="20" height="20" stroke="none"/>
<rect x="307" y="349" clip-path="url(#clipPath9)" fill="none" width="19" height="19" stroke="black"/>
<text x="328" font-size="11" y="361" clip-path="url(#clipPath10)" fill="black" stroke="none" xml:space="preserve">target : IImpl</text>
</g>
<g stroke-linecap="butt" font-size="11" fill="rgb(131,122,133)" font-family="'Segoe UI'" stroke="rgb(131,122,133)" font-weight="bold" stroke-width="1.1">
<rect x="263" y="51" clip-path="url(#clipPath11)" width="148" rx="12.5" opacity="0.2549" ry="12.5" height="68" stroke="none"/>
<rect x="264" y="52" clip-path="url(#clipPath11)" width="148" rx="12.5" opacity="0.2549" ry="12.5" height="68" stroke="none"/>
<rect x="262" y="50" clip-path="url(#clipPath12)" fill="url(#linearGradient3)" width="148" rx="12.5" ry="12.5" height="68" stroke="none"/>
<rect x="262" y="50" clip-path="url(#clipPath12)" fill="none" width="147" rx="12.5" ry="12.5" height="67" stroke="black"/>
<text x="315" y="67" clip-path="url(#clipPath13)" fill="black" stroke="none" xml:space="preserve">CreateA</text>
</g>
<g fill="white" stroke-width="1.1" font-family="'Segoe UI'" stroke-linecap="butt" stroke="white">
<rect x="322" y="110" clip-path="url(#clipPath14)" width="20" height="20" stroke="none"/>
<rect x="322" y="110" clip-path="url(#clipPath14)" fill="none" width="19" height="19" stroke="black"/>
<text x="343" font-size="11" y="129" clip-path="url(#clipPath15)" fill="black" stroke="none" xml:space="preserve">result : A</text>
</g>
<g stroke-linecap="butt" font-size="11" fill="rgb(131,122,133)" font-family="'Segoe UI'" stroke="rgb(131,122,133)" font-weight="bold" stroke-width="1.1">
<rect x="248" y="231" clip-path="url(#clipPath16)" width="148" rx="12.5" opacity="0.2549" ry="12.5" height="68" stroke="none"/>
<rect x="249" y="232" clip-path="url(#clipPath16)" width="148" rx="12.5" opacity="0.2549" ry="12.5" height="68" stroke="none"/>
<rect x="247" y="230" clip-path="url(#clipPath17)" fill="url(#linearGradient4)" width="148" rx="12.5" ry="12.5" height="68" stroke="none"/>
<rect x="247" y="230" clip-path="url(#clipPath17)" fill="none" width="147" rx="12.5" ry="12.5" height="67" stroke="black"/>
<text x="294" y="247" clip-path="url(#clipPath18)" fill="black" stroke="none" xml:space="preserve">ReadQofA</text>
</g>
<g fill="white" stroke-width="1.1" font-family="'Segoe UI'" stroke-linecap="butt" stroke="white">
<rect x="307" y="218" clip-path="url(#clipPath19)" width="20" height="20" stroke="none"/>
<rect x="307" y="218" clip-path="url(#clipPath19)" fill="none" width="19" height="19" stroke="black"/>
<text x="328" font-size="11" y="230" clip-path="url(#clipPath20)" fill="black" stroke="none" xml:space="preserve">a : A</text>
<rect x="307" y="290" clip-path="url(#clipPath21)" width="20" height="20" stroke="none"/>
<rect x="307" y="290" clip-path="url(#clipPath21)" fill="none" width="19" height="19" stroke="black"/>
<text x="328" font-size="11" y="309" clip-path="url(#clipPath22)" fill="black" stroke="none" xml:space="preserve">q : IImpl</text>
<rect x="272" y="165" clip-path="url(#clipPath23)" fill="black" width="201" height="10" stroke="none"/>
<rect x="272" y="165" clip-path="url(#clipPath23)" fill="none" width="200" height="9" stroke="black" stroke-width="0.1"/>
<rect x="10" y="370" clip-path="url(#clipPath24)" width="150" height="50" stroke="none" stroke-width="0.1"/>
<rect x="10" y="370" clip-path="url(#clipPath24)" fill="none" width="149" height="49" stroke="black"/>
<text x="59" font-size="11" y="400" clip-path="url(#clipPath25)" fill="black" stroke="none" xml:space="preserve">v : Integer</text>
<rect x="505" y="370" clip-path="url(#clipPath26)" width="150" height="50" stroke="none"/>
<rect x="505" y="370" clip-path="url(#clipPath26)" fill="none" width="149" height="49" stroke="black"/>
<text x="563" font-size="11" y="400" clip-path="url(#clipPath27)" fill="black" stroke="none" xml:space="preserve">out : A</text>
<line clip-path="url(#clipPath28)" fill="none" x1="317" x2="317" y1="175" y2="218" stroke="black"/>
<line clip-path="url(#clipPath29)" fill="none" x1="314" x2="317" y1="211" y2="218" stroke="black"/>
<line clip-path="url(#clipPath29)" fill="none" x1="317" x2="320" y1="218" y2="211" stroke="black"/>
<line clip-path="url(#clipPath28)" fill="none" x1="434" x2="434" y1="175" y2="395" stroke="black"/>
<line clip-path="url(#clipPath28)" fill="none" x1="434" x2="505" y1="395" y2="395" stroke="black"/>
<line clip-path="url(#clipPath30)" fill="none" x1="498" x2="505" y1="398" y2="395" stroke="black"/>
<line clip-path="url(#clipPath30)" fill="none" x1="505" x2="498" y1="395" y2="392" stroke="black"/>
<line clip-path="url(#clipPath28)" fill="none" x1="160" x2="235" y1="395" y2="395" stroke="black"/>
<line clip-path="url(#clipPath31)" fill="none" x1="228" x2="235" y1="398" y2="395" stroke="black"/>
<line clip-path="url(#clipPath31)" fill="none" x1="235" x2="228" y1="395" y2="392" stroke="black"/>
<line clip-path="url(#clipPath28)" fill="none" x1="317" x2="317" y1="310" y2="349" stroke="black"/>
<line clip-path="url(#clipPath32)" fill="none" x1="314" x2="317" y1="342" y2="349" stroke="black"/>
<line clip-path="url(#clipPath32)" fill="none" x1="317" x2="320" y1="349" y2="342" stroke="black"/>
<line clip-path="url(#clipPath28)" fill="none" x1="335" x2="335" y1="130" y2="165" stroke="black"/>
<line clip-path="url(#clipPath33)" fill="none" x1="332" x2="335" y1="158" y2="165" stroke="black"/>
<line clip-path="url(#clipPath33)" fill="none" x1="335" x2="338" y1="165" y2="158" stroke="black"/>
<line clip-path="url(#clipPath28)" fill="none" x1="335" x2="335" y1="130" y2="165" stroke="black"/>
<line clip-path="url(#clipPath33)" fill="none" x1="332" x2="335" y1="158" y2="165" stroke="black"/>
<line clip-path="url(#clipPath33)" fill="none" x1="335" x2="338" y1="165" y2="158" stroke="black"/>
<line clip-path="url(#clipPath28)" fill="none" x1="317" x2="317" y1="175" y2="218" stroke="black"/>
<line clip-path="url(#clipPath29)" fill="none" x1="314" x2="317" y1="211" y2="218" stroke="black"/>
<line clip-path="url(#clipPath29)" fill="none" x1="317" x2="320" y1="218" y2="211" stroke="black"/>
<line clip-path="url(#clipPath28)" fill="none" x1="317" x2="317" y1="310" y2="349" stroke="black"/>
<line clip-path="url(#clipPath32)" fill="none" x1="314" x2="317" y1="342" y2="349" stroke="black"/>
<line clip-path="url(#clipPath32)" fill="none" x1="317" x2="320" y1="349" y2="342" stroke="black"/>
<line clip-path="url(#clipPath28)" fill="none" x1="160" x2="235" y1="395" y2="395" stroke="black"/>
<line clip-path="url(#clipPath31)" fill="none" x1="228" x2="235" y1="398" y2="395" stroke="black"/>
<line clip-path="url(#clipPath31)" fill="none" x1="235" x2="228" y1="395" y2="392" stroke="black"/>
<line clip-path="url(#clipPath28)" fill="none" x1="434" x2="434" y1="175" y2="395" stroke="black"/>
<line clip-path="url(#clipPath28)" fill="none" x1="434" x2="505" y1="395" y2="395" stroke="black"/>
<line clip-path="url(#clipPath30)" fill="none" x1="498" x2="505" y1="398" y2="395" stroke="black"/>
<line clip-path="url(#clipPath30)" fill="none" x1="505" x2="498" y1="395" y2="392" stroke="black"/>
</g>
</g>
</svg>
