<?xml version="1.0" encoding="UTF-8"?><svg xmlns="http://www.w3.org/2000/svg" xmlns:xlink="http://www.w3.org/1999/xlink" stroke-dasharray="none" shape-rendering="auto" font-family="'Dialog'" width="655" text-rendering="auto" fill-opacity="1" contentScriptType="text/ecmascript" color-interpolation="auto" color-rendering="auto" preserveAspectRatio="xMidYMid meet" font-size="12" viewBox="0 0 655 508" fill="black" stroke="black" image-rendering="auto" stroke-miterlimit="10" zoomAndPan="magnify" version="1.0" stroke-linecap="square" stroke-linejoin="miter" contentStyleType="text/css" font-style="normal" height="508" stroke-width="1" stroke-dashoffset="0" font-weight="normal" stroke-opacity="1">
<!--Generated by the Batik Graphics2D SVG Generator-->
<defs id="genericDefs"/>
<g>
<defs id="defs1">
<linearGradient x1="119" x2="537" y1="10" gradientUnits="userSpaceOnUse" y2="496" xlink:type="simple" xlink:actuate="onLoad" id="linearGradient1" xlink:show="other" spreadMethod="pad">
<stop stop-opacity="1" stop-color="white" offset="0%"/>
<stop stop-opacity="1" stop-color="white" offset="100%"/>
</linearGradient>
<linearGradient x1="242" x2="343" y1="47" gradientUnits="userSpaceOnUse" y2="120" xlink:type="simple" xlink:actuate="onLoad" id="linearGradient2" xlink:show="other" spreadMethod="pad">
<stop stop-opacity="1" stop-color="white" offset="0%"/>
<stop stop-opacity="1" stop-color="white" offset="100%"/>
</linearGradient>
<linearGradient x1="242" x2="353" y1="200" gradientUnits="userSpaceOnUse" y2="289" xlink:type="simple" xlink:actuate="onLoad" id="linearGradient3" xlink:show="other" spreadMethod="pad">
<stop stop-opacity="1" stop-color="white" offset="0%"/>
<stop stop-opacity="1" stop-color="white" offset="100%"/>
</linearGradient>
<linearGradient x1="242" x2="378" y1="332" gradientUnits="userSpaceOnUse" y2="430" xlink:type="simple" xlink:actuate="onLoad" id="linearGradient4" xlink:show="other" spreadMethod="pad">
<stop stop-opacity="1" stop-color="white" offset="0%"/>
<stop stop-opacity="1" stop-color="white" offset="100%"/>
</linearGradient>
<clipPath clipPathUnits="userSpaceOnUse" id="clipPath1">
<path d="M151 9 L506 9 L506 499 L151 499 L151 9 Z"/>
</clipPath>
<clipPath clipPathUnits="userSpaceOnUse" id="clipPath2">
<path d="M151 9 L504 9 L504 497 L151 497 L151 9 Z"/>
</clipPath>
<clipPath clipPathUnits="userSpaceOnUse" id="clipPath3">
<path d="M270 14 L387 14 L387 31 L270 31 L270 14 Z"/>
</clipPath>
<clipPath clipPathUnits="userSpaceOnUse" id="clipPath4">
<path d="M241 59 L346 59 L346 109 L241 109 L241 59 Z"/>
</clipPath>
<clipPath clipPathUnits="userSpaceOnUse" id="clipPath5">
<path d="M241 59 L344 59 L344 107 L241 107 L241 59 Z"/>
</clipPath>
<clipPath clipPathUnits="userSpaceOnUse" id="clipPath6">
<path d="M271 64 L316 64 L316 79 L271 79 L271 64 Z"/>
</clipPath>
<clipPath clipPathUnits="userSpaceOnUse" id="clipPath7">
<path d="M286 97 L308 97 L308 119 L286 119 L286 97 Z"/>
</clipPath>
<clipPath clipPathUnits="userSpaceOnUse" id="clipPath8">
<path d="M307 104 L356 104 L356 119 L307 119 L307 104 Z"/>
</clipPath>
<clipPath clipPathUnits="userSpaceOnUse" id="clipPath9">
<path d="M211 149 L454 149 L454 161 L211 161 L211 149 Z"/>
</clipPath>
<clipPath clipPathUnits="userSpaceOnUse" id="clipPath10">
<path d="M241 209 L356 209 L356 281 L241 281 L241 209 Z"/>
</clipPath>
<clipPath clipPathUnits="userSpaceOnUse" id="clipPath11">
<path d="M241 209 L354 209 L354 279 L241 279 L241 209 Z"/>
</clipPath>
<clipPath clipPathUnits="userSpaceOnUse" id="clipPath12">
<path d="M270 214 L328 214 L328 229 L270 229 L270 214 Z"/>
</clipPath>
<clipPath clipPathUnits="userSpaceOnUse" id="clipPath13">
<path d="M281 197 L303 197 L303 219 L281 219 L281 197 Z"/>
</clipPath>
<clipPath clipPathUnits="userSpaceOnUse" id="clipPath14">
<path d="M302 197 L328 197 L328 212 L302 212 L302 197 Z"/>
</clipPath>
<clipPath clipPathUnits="userSpaceOnUse" id="clipPath15">
<path d="M287 269 L309 269 L309 291 L287 291 L287 269 Z"/>
</clipPath>
<clipPath clipPathUnits="userSpaceOnUse" id="clipPath16">
<path d="M308 276 L353 276 L353 291 L308 291 L308 276 Z"/>
</clipPath>
<clipPath clipPathUnits="userSpaceOnUse" id="clipPath17">
<path d="M241 349 L381 349 L381 414 L241 414 L241 349 Z"/>
</clipPath>
<clipPath clipPathUnits="userSpaceOnUse" id="clipPath18">
<path d="M241 349 L379 349 L379 412 L241 412 L241 349 Z"/>
</clipPath>
<clipPath clipPathUnits="userSpaceOnUse" id="clipPath19">
<path d="M255 354 L367 354 L367 369 L255 369 L255 354 Z"/>
</clipPath>
<clipPath clipPathUnits="userSpaceOnUse" id="clipPath20">
<path d="M229 374 L251 374 L251 396 L229 396 L229 374 Z"/>
</clipPath>
<clipPath clipPathUnits="userSpaceOnUse" id="clipPath21">
<path d="M214 395 L269 395 L269 410 L214 410 L214 395 Z"/>
</clipPath>
<clipPath clipPathUnits="userSpaceOnUse" id="clipPath22">
<path d="M291 337 L313 337 L313 359 L291 359 L291 337 Z"/>
</clipPath>
<clipPath clipPathUnits="userSpaceOnUse" id="clipPath23">
<path d="M312 337 L381 337 L381 352 L312 352 L312 337 Z"/>
</clipPath>
<clipPath clipPathUnits="userSpaceOnUse" id="clipPath24">
<path d="M9 360 L161 360 L161 412 L9 412 L9 360 Z"/>
</clipPath>
<clipPath clipPathUnits="userSpaceOnUse" id="clipPath25">
<path d="M10 361 L162 361 L162 411 L10 411 L10 361 Z"/>
</clipPath>
<clipPath clipPathUnits="userSpaceOnUse" id="clipPath26">
<path d="M494 364 L646 364 L646 416 L494 416 L494 364 Z"/>
</clipPath>
<clipPath clipPathUnits="userSpaceOnUse" id="clipPath27">
<path d="M495 365 L647 365 L647 415 L495 415 L495 365 Z"/>
</clipPath>
<clipPath clipPathUnits="userSpaceOnUse" id="clipPath28">
<path d="M-1 -1 L656 -1 L656 509 L-1 509 L-1 -1 Z"/>
</clipPath>
<clipPath clipPathUnits="userSpaceOnUse" id="clipPath29">
<path d="M293 142 L302 142 L302 152 L293 152 L293 142 Z"/>
</clipPath>
<clipPath clipPathUnits="userSpaceOnUse" id="clipPath30">
<path d="M298 330 L307 330 L307 340 L298 340 L298 330 Z"/>
</clipPath>
<clipPath clipPathUnits="userSpaceOnUse" id="clipPath31">
<path d="M289 190 L298 190 L298 200 L289 200 L289 190 Z"/>
</clipPath>
<clipPath clipPathUnits="userSpaceOnUse" id="clipPath32">
<path d="M222 381 L232 381 L232 390 L222 390 L222 381 Z"/>
</clipPath>
<clipPath clipPathUnits="userSpaceOnUse" id="clipPath33">
<path d="M487 371 L497 371 L497 380 L487 380 L487 371 Z"/>
</clipPath>
</defs>
<g fill="rgb(131,122,133)" font-family="'Segoe UI'" stroke-linejoin="round" stroke="rgb(131,122,133)" stroke-width="0" stroke-miterlimit="0">
<rect x="153" y="11" clip-path="url(#clipPath1)" width="351" rx="12.5" opacity="0.2549" ry="12.5" height="486" stroke="none"/>
<rect x="154" y="12" clip-path="url(#clipPath1)" width="351" rx="12.5" opacity="0.2549" ry="12.5" height="486" stroke="none"/>
<rect x="152" y="10" clip-path="url(#clipPath2)" fill="url(#linearGradient1)" width="351" rx="12.5" ry="12.5" height="486" stroke="none"/>
</g>
<g stroke-width="1.1" font-family="'Segoe UI'" stroke-linecap="butt">
<rect x="152" y="10" clip-path="url(#clipPath2)" fill="none" width="350" rx="12.5" ry="12.5" height="485"/>
<text xml:space="preserve" x="271" y="28" clip-path="url(#clipPath3)" stroke="none">actTestCallDelegation</text>
</g>
<g stroke-linecap="butt" font-size="11" fill="rgb(131,122,133)" font-family="'Segoe UI'" stroke="rgb(131,122,133)" font-weight="bold" stroke-width="1.1">
<rect x="243" y="61" clip-path="url(#clipPath4)" width="101" rx="12.5" opacity="0.2549" ry="12.5" height="46" stroke="none"/>
<rect x="244" y="62" clip-path="url(#clipPath4)" width="101" rx="12.5" opacity="0.2549" ry="12.5" height="46" stroke="none"/>
<rect x="242" y="60" clip-path="url(#clipPath5)" fill="url(#linearGradient2)" width="101" rx="12.5" ry="12.5" height="46" stroke="none"/>
<rect x="242" y="60" clip-path="url(#clipPath5)" fill="none" width="100" rx="12.5" ry="12.5" height="45" stroke="black"/>
<text x="272" y="77" clip-path="url(#clipPath6)" fill="black" stroke="none" xml:space="preserve">CreateA</text>
</g>
<g fill="white" stroke-width="1.1" font-family="'Segoe UI'" stroke-linecap="butt" stroke="white">
<rect x="287" y="98" clip-path="url(#clipPath7)" width="20" height="20" stroke="none"/>
<rect x="287" y="98" clip-path="url(#clipPath7)" fill="none" width="19" height="19" stroke="black"/>
<text x="308" font-size="11" y="117" clip-path="url(#clipPath8)" fill="black" stroke="none" xml:space="preserve">result : A</text>
<rect x="212" y="150" clip-path="url(#clipPath9)" fill="black" width="241" height="10" stroke="none"/>
<rect x="212" y="150" clip-path="url(#clipPath9)" fill="none" width="240" height="9" stroke="black" stroke-width="0.1"/>
</g>
<g stroke-linecap="butt" font-size="11" fill="rgb(131,122,133)" font-family="'Segoe UI'" stroke="rgb(131,122,133)" font-weight="bold" stroke-width="0.1">
<rect x="243" y="211" clip-path="url(#clipPath10)" width="111" rx="12.5" opacity="0.2549" ry="12.5" height="68" stroke="none"/>
<rect x="244" y="212" clip-path="url(#clipPath10)" width="111" rx="12.5" opacity="0.2549" ry="12.5" height="68" stroke="none"/>
<rect x="242" y="210" clip-path="url(#clipPath11)" fill="url(#linearGradient3)" width="111" rx="12.5" ry="12.5" height="68" stroke="none"/>
<rect x="242" y="210" clip-path="url(#clipPath11)" fill="none" width="110" rx="12.5" ry="12.5" height="67" stroke="black" stroke-width="1.1"/>
<text x="271" y="227" clip-path="url(#clipPath12)" fill="black" stroke="none" stroke-width="1.1" xml:space="preserve">ReadQofA</text>
</g>
<g fill="white" stroke-width="1.1" font-family="'Segoe UI'" stroke-linecap="butt" stroke="white">
<rect x="282" y="198" clip-path="url(#clipPath13)" width="20" height="20" stroke="none"/>
<rect x="282" y="198" clip-path="url(#clipPath13)" fill="none" width="19" height="19" stroke="black"/>
<text x="303" font-size="11" y="210" clip-path="url(#clipPath14)" fill="black" stroke="none" xml:space="preserve">a : A</text>
<rect x="288" y="270" clip-path="url(#clipPath15)" width="20" height="20" stroke="none"/>
<rect x="288" y="270" clip-path="url(#clipPath15)" fill="none" width="19" height="19" stroke="black"/>
<text x="309" font-size="11" y="289" clip-path="url(#clipPath16)" fill="black" stroke="none" xml:space="preserve">q : IImpl</text>
</g>
<g stroke-linecap="butt" font-size="11" fill="rgb(131,122,133)" font-family="'Segoe UI'" stroke="rgb(131,122,133)" font-weight="bold" stroke-width="1.1">
<rect x="243" y="351" clip-path="url(#clipPath17)" width="136" rx="12.5" opacity="0.2549" ry="12.5" height="61" stroke="none"/>
<rect x="244" y="352" clip-path="url(#clipPath17)" width="136" rx="12.5" opacity="0.2549" ry="12.5" height="61" stroke="none"/>
<rect x="242" y="350" clip-path="url(#clipPath18)" fill="url(#linearGradient4)" width="136" rx="12.5" ry="12.5" height="61" stroke="none"/>
<rect x="242" y="350" clip-path="url(#clipPath18)" fill="none" width="135" rx="12.5" ry="12.5" height="60" stroke="black"/>
<text x="256" y="367" clip-path="url(#clipPath19)" fill="black" stroke="none" xml:space="preserve">callAssignP : assignP</text>
</g>
<g fill="white" stroke-width="1.1" font-family="'Segoe UI'" stroke-linecap="butt" stroke="white">
<rect x="230" y="375" clip-path="url(#clipPath20)" width="20" height="20" stroke="none"/>
<rect x="230" y="375" clip-path="url(#clipPath20)" fill="none" width="19" height="19" stroke="black"/>
<text x="215" font-size="11" y="408" clip-path="url(#clipPath21)" fill="black" stroke="none" xml:space="preserve">v : Integer</text>
<rect x="292" y="338" clip-path="url(#clipPath22)" width="20" height="20" stroke="none"/>
<rect x="292" y="338" clip-path="url(#clipPath22)" fill="none" width="19" height="19" stroke="black"/>
<text x="313" font-size="11" y="350" clip-path="url(#clipPath23)" fill="black" stroke="none" xml:space="preserve">target : IImpl</text>
<rect x="10" y="361" clip-path="url(#clipPath24)" width="150" height="50" stroke="none"/>
<rect x="10" y="361" clip-path="url(#clipPath24)" fill="none" width="149" height="49" stroke="black"/>
<text x="59" font-size="11" y="391" clip-path="url(#clipPath25)" fill="black" stroke="none" xml:space="preserve">v : Integer</text>
<rect x="495" y="365" clip-path="url(#clipPath26)" width="150" height="50" stroke="none"/>
<rect x="495" y="365" clip-path="url(#clipPath26)" fill="none" width="149" height="49" stroke="black"/>
<text x="553" font-size="11" y="395" clip-path="url(#clipPath27)" fill="black" stroke="none" xml:space="preserve">out : A</text>
<line clip-path="url(#clipPath28)" fill="none" x1="297" x2="297" y1="118" y2="150" stroke="black"/>
<line clip-path="url(#clipPath29)" fill="none" x1="294" x2="297" y1="143" y2="150" stroke="black"/>
<line clip-path="url(#clipPath29)" fill="none" x1="297" x2="300" y1="150" y2="143" stroke="black"/>
<line clip-path="url(#clipPath28)" fill="none" x1="302" x2="302" y1="290" y2="338" stroke="black"/>
<line clip-path="url(#clipPath30)" fill="none" x1="299" x2="302" y1="331" y2="338" stroke="black"/>
<line clip-path="url(#clipPath30)" fill="none" x1="302" x2="305" y1="338" y2="331" stroke="black"/>
<line clip-path="url(#clipPath28)" fill="none" x1="293" x2="293" y1="160" y2="198" stroke="black"/>
<line clip-path="url(#clipPath31)" fill="none" x1="290" x2="293" y1="191" y2="198" stroke="black"/>
<line clip-path="url(#clipPath31)" fill="none" x1="293" x2="296" y1="198" y2="191" stroke="black"/>
<line clip-path="url(#clipPath28)" fill="none" x1="160" x2="230" y1="385" y2="385" stroke="black"/>
<line clip-path="url(#clipPath32)" fill="none" x1="223" x2="230" y1="388" y2="385" stroke="black"/>
<line clip-path="url(#clipPath32)" fill="none" x1="230" x2="223" y1="385" y2="382" stroke="black"/>
<line clip-path="url(#clipPath28)" fill="none" x1="409" x2="409" y1="160" y2="375" stroke="black"/>
<line clip-path="url(#clipPath28)" fill="none" x1="409" x2="495" y1="375" y2="375" stroke="black"/>
<line clip-path="url(#clipPath33)" fill="none" x1="488" x2="495" y1="378" y2="375" stroke="black"/>
<line clip-path="url(#clipPath33)" fill="none" x1="495" x2="488" y1="375" y2="372" stroke="black"/>
<line clip-path="url(#clipPath28)" fill="none" x1="297" x2="297" y1="118" y2="150" stroke="black"/>
<line clip-path="url(#clipPath29)" fill="none" x1="294" x2="297" y1="143" y2="150" stroke="black"/>
<line clip-path="url(#clipPath29)" fill="none" x1="297" x2="300" y1="150" y2="143" stroke="black"/>
<line clip-path="url(#clipPath28)" fill="none" x1="293" x2="293" y1="160" y2="198" stroke="black"/>
<line clip-path="url(#clipPath31)" fill="none" x1="290" x2="293" y1="191" y2="198" stroke="black"/>
<line clip-path="url(#clipPath31)" fill="none" x1="293" x2="296" y1="198" y2="191" stroke="black"/>
<line clip-path="url(#clipPath28)" fill="none" x1="302" x2="302" y1="290" y2="338" stroke="black"/>
<line clip-path="url(#clipPath30)" fill="none" x1="299" x2="302" y1="331" y2="338" stroke="black"/>
<line clip-path="url(#clipPath30)" fill="none" x1="302" x2="305" y1="338" y2="331" stroke="black"/>
<line clip-path="url(#clipPath28)" fill="none" x1="160" x2="230" y1="385" y2="385" stroke="black"/>
<line clip-path="url(#clipPath32)" fill="none" x1="223" x2="230" y1="388" y2="385" stroke="black"/>
<line clip-path="url(#clipPath32)" fill="none" x1="230" x2="223" y1="385" y2="382" stroke="black"/>
<line clip-path="url(#clipPath28)" fill="none" x1="409" x2="409" y1="160" y2="375" stroke="black"/>
<line clip-path="url(#clipPath28)" fill="none" x1="409" x2="495" y1="375" y2="375" stroke="black"/>
<line clip-path="url(#clipPath33)" fill="none" x1="488" x2="495" y1="378" y2="375" stroke="black"/>
<line clip-path="url(#clipPath33)" fill="none" x1="495" x2="488" y1="375" y2="372" stroke="black"/>
</g>
</g>
</svg>
