<?xml version="1.0" encoding="UTF-8"?><svg xmlns="http://www.w3.org/2000/svg" xmlns:xlink="http://www.w3.org/1999/xlink" stroke-dasharray="none" shape-rendering="auto" font-family="'Dialog'" width="615" text-rendering="auto" fill-opacity="1" contentScriptType="text/ecmascript" color-interpolation="auto" color-rendering="auto" preserveAspectRatio="xMidYMid meet" font-size="12" viewBox="0 0 615 280" fill="black" stroke="black" image-rendering="auto" stroke-miterlimit="10" zoomAndPan="magnify" version="1.0" stroke-linecap="square" stroke-linejoin="miter" contentStyleType="text/css" font-style="normal" height="280" stroke-width="1" stroke-dashoffset="0" font-weight="normal" stroke-opacity="1">
<!--Generated by the Batik Graphics2D SVG Generator-->
<defs id="genericDefs"/>
<g>
<defs id="defs1">
<linearGradient x1="485" x2="603" y1="165" gradientUnits="userSpaceOnUse" y2="273" xlink:type="simple" xlink:actuate="onLoad" id="linearGradient1" xlink:show="other" spreadMethod="pad">
<stop stop-opacity="1" stop-color="white" offset="0%"/>
<stop stop-opacity="1" stop-color="white" offset="100%"/>
</linearGradient>
<linearGradient x1="280" x2="398" y1="165" gradientUnits="userSpaceOnUse" y2="273" xlink:type="simple" xlink:actuate="onLoad" id="linearGradient2" xlink:show="other" spreadMethod="pad">
<stop stop-opacity="1" stop-color="white" offset="0%"/>
<stop stop-opacity="1" stop-color="white" offset="100%"/>
</linearGradient>
<linearGradient x1="10" x2="128" y1="165" gradientUnits="userSpaceOnUse" y2="273" xlink:type="simple" xlink:actuate="onLoad" id="linearGradient3" xlink:show="other" spreadMethod="pad">
<stop stop-opacity="1" stop-color="white" offset="0%"/>
<stop stop-opacity="1" stop-color="white" offset="100%"/>
</linearGradient>
<linearGradient x1="145" x2="263" y1="5" gradientUnits="userSpaceOnUse" y2="113" xlink:type="simple" xlink:actuate="onLoad" id="linearGradient4" xlink:show="other" spreadMethod="pad">
<stop stop-opacity="1" stop-color="white" offset="0%"/>
<stop stop-opacity="1" stop-color="white" offset="100%"/>
</linearGradient>
<linearGradient x1="414" x2="603" y1="-12" gradientUnits="userSpaceOnUse" y2="131" xlink:type="simple" xlink:actuate="onLoad" id="linearGradient5" xlink:show="other" spreadMethod="pad">
<stop stop-opacity="1" stop-color="white" offset="0%"/>
<stop stop-opacity="1" stop-color="white" offset="100%"/>
</linearGradient>
<clipPath clipPathUnits="userSpaceOnUse" id="clipPath1">
<path d="M484 169 L606 169 L606 271 L484 271 L484 169 Z"/>
</clipPath>
<clipPath clipPathUnits="userSpaceOnUse" id="clipPath2">
<path d="M484 169 L604 169 L604 269 L484 269 L484 169 Z"/>
</clipPath>
<clipPath clipPathUnits="userSpaceOnUse" id="clipPath3">
<path d="M539 174 L553 174 L553 191 L539 191 L539 174 Z"/>
</clipPath>
<clipPath clipPathUnits="userSpaceOnUse" id="clipPath4">
<path d="M489 196 L526 196 L526 211 L489 211 L489 196 Z"/>
</clipPath>
<clipPath clipPathUnits="userSpaceOnUse" id="clipPath5">
<path d="M489 209 L534 209 L534 224 L489 224 L489 209 Z"/>
</clipPath>
<clipPath clipPathUnits="userSpaceOnUse" id="clipPath6">
<path d="M485 194 L603 194 L603 268 L485 268 L485 194 Z"/>
</clipPath>
<clipPath clipPathUnits="userSpaceOnUse" id="clipPath7">
<path d="M279 169 L401 169 L401 271 L279 271 L279 169 Z"/>
</clipPath>
<clipPath clipPathUnits="userSpaceOnUse" id="clipPath8">
<path d="M279 169 L399 169 L399 269 L279 269 L279 169 Z"/>
</clipPath>
<clipPath clipPathUnits="userSpaceOnUse" id="clipPath9">
<path d="M334 174 L348 174 L348 191 L334 191 L334 174 Z"/>
</clipPath>
<clipPath clipPathUnits="userSpaceOnUse" id="clipPath10">
<path d="M284 196 L352 196 L352 211 L284 211 L284 196 Z"/>
</clipPath>
<clipPath clipPathUnits="userSpaceOnUse" id="clipPath11">
<path d="M284 209 L338 209 L338 224 L284 224 L284 209 Z"/>
</clipPath>
<clipPath clipPathUnits="userSpaceOnUse" id="clipPath12">
<path d="M284 222 L395 222 L395 237 L284 237 L284 222 Z"/>
</clipPath>
<clipPath clipPathUnits="userSpaceOnUse" id="clipPath13">
<path d="M284 235 L336 235 L336 250 L284 250 L284 235 Z"/>
</clipPath>
<clipPath clipPathUnits="userSpaceOnUse" id="clipPath14">
<path d="M280 194 L398 194 L398 268 L280 268 L280 194 Z"/>
</clipPath>
<clipPath clipPathUnits="userSpaceOnUse" id="clipPath15">
<path d="M9 169 L131 169 L131 271 L9 271 L9 169 Z"/>
</clipPath>
<clipPath clipPathUnits="userSpaceOnUse" id="clipPath16">
<path d="M9 169 L129 169 L129 269 L9 269 L9 169 Z"/>
</clipPath>
<clipPath clipPathUnits="userSpaceOnUse" id="clipPath17">
<path d="M53 174 L86 174 L86 191 L53 191 L53 174 Z"/>
</clipPath>
<clipPath clipPathUnits="userSpaceOnUse" id="clipPath18">
<path d="M14 196 L49 196 L49 211 L14 211 L14 196 Z"/>
</clipPath>
<clipPath clipPathUnits="userSpaceOnUse" id="clipPath19">
<path d="M14 209 L125 209 L125 224 L14 224 L14 209 Z"/>
</clipPath>
<clipPath clipPathUnits="userSpaceOnUse" id="clipPath20">
<path d="M10 194 L128 194 L128 268 L10 268 L10 194 Z"/>
</clipPath>
<clipPath clipPathUnits="userSpaceOnUse" id="clipPath21">
<path d="M144 9 L266 9 L266 111 L144 111 L144 9 Z"/>
</clipPath>
<clipPath clipPathUnits="userSpaceOnUse" id="clipPath22">
<path d="M144 9 L264 9 L264 109 L144 109 L144 9 Z"/>
</clipPath>
<clipPath clipPathUnits="userSpaceOnUse" id="clipPath23">
<path d="M170 14 L240 14 L240 46 L170 46 L170 14 Z"/>
</clipPath>
<clipPath clipPathUnits="userSpaceOnUse" id="clipPath24">
<path d="M149 51 L260 51 L260 66 L149 66 L149 51 Z"/>
</clipPath>
<clipPath clipPathUnits="userSpaceOnUse" id="clipPath25">
<path d="M145 49 L263 49 L263 108 L145 108 L145 49 Z"/>
</clipPath>
<clipPath clipPathUnits="userSpaceOnUse" id="clipPath26">
<path d="M413 9 L606 9 L606 111 L413 111 L413 9 Z"/>
</clipPath>
<clipPath clipPathUnits="userSpaceOnUse" id="clipPath27">
<path d="M413 9 L604 9 L604 109 L413 109 L413 9 Z"/>
</clipPath>
<clipPath clipPathUnits="userSpaceOnUse" id="clipPath28">
<path d="M490 14 L529 14 L529 31 L490 31 L490 14 Z"/>
</clipPath>
<clipPath clipPathUnits="userSpaceOnUse" id="clipPath29">
<path d="M418 36 L601 36 L601 51 L418 51 L418 36 Z"/>
</clipPath>
<clipPath clipPathUnits="userSpaceOnUse" id="clipPath30">
<path d="M414 34 L603 34 L603 108 L414 108 L414 34 Z"/>
</clipPath>
<clipPath clipPathUnits="userSpaceOnUse" id="clipPath31">
<path d="M-1 -1 L616 -1 L616 281 L-1 281 L-1 -1 Z"/>
</clipPath>
<clipPath clipPathUnits="userSpaceOnUse" id="clipPath32">
<path d="M204 107 L216 107 L216 117 L204 117 L204 107 Z"/>
</clipPath>
<clipPath clipPathUnits="userSpaceOnUse" id="clipPath33">
<path d="M195 107 L207 107 L207 117 L195 117 L195 107 Z"/>
</clipPath>
<clipPath clipPathUnits="userSpaceOnUse" id="clipPath34">
<path d="M148 222 L157 222 L157 237 L148 237 L148 222 Z"/>
</clipPath>
<clipPath clipPathUnits="userSpaceOnUse" id="clipPath35">
<path d="M254 222 L263 222 L263 237 L254 237 L254 222 Z"/>
</clipPath>
<clipPath clipPathUnits="userSpaceOnUse" id="clipPath36">
<path d="M127 215 L137 215 L137 224 L127 224 L127 215 Z"/>
</clipPath>
<clipPath clipPathUnits="userSpaceOnUse" id="clipPath37">
<path d="M272 215 L282 215 L282 224 L272 224 L272 215 Z"/>
</clipPath>
</defs>
<g fill="rgb(131,122,133)" font-family="'Segoe UI'" stroke-linejoin="round" stroke="rgb(131,122,133)" font-weight="bold" stroke-width="0" stroke-miterlimit="0">
<rect x="486" y="171" clip-path="url(#clipPath1)" width="118" rx="2.5" opacity="0.2549" ry="2.5" height="98" stroke="none"/>
<rect x="487" y="172" clip-path="url(#clipPath1)" width="118" rx="2.5" opacity="0.2549" ry="2.5" height="98" stroke="none"/>
<rect x="485" y="170" clip-path="url(#clipPath2)" fill="url(#linearGradient1)" width="118" rx="2.5" ry="2.5" height="98" stroke="none"/>
</g>
<g stroke-width="1.1" font-weight="bold" font-family="'Segoe UI'" stroke-linecap="butt">
<rect x="485" y="170" clip-path="url(#clipPath2)" fill="none" width="117" rx="2.5" ry="2.5" height="97"/>
<text xml:space="preserve" x="540" y="188" clip-path="url(#clipPath3)" stroke="none">A</text>
<text x="490" font-size="11" y="209" clip-path="url(#clipPath4)" stroke="none" font-weight="normal" xml:space="preserve">+ b : B</text>
<text x="490" font-size="11" y="222" clip-path="url(#clipPath5)" stroke="none" font-weight="normal" xml:space="preserve">q : IImpl</text>
<line clip-path="url(#clipPath6)" fill="none" x1="486" x2="602" y1="195" y2="195"/>
<rect x="281" y="171" clip-path="url(#clipPath7)" fill="rgb(131,122,133)" width="118" rx="2.5" opacity="0.2549" ry="2.5" height="98" stroke="none"/>
<rect x="282" y="172" clip-path="url(#clipPath7)" fill="rgb(131,122,133)" width="118" rx="2.5" opacity="0.2549" ry="2.5" height="98" stroke="none"/>
<rect x="280" y="170" clip-path="url(#clipPath8)" fill="url(#linearGradient2)" width="118" rx="2.5" ry="2.5" height="98" stroke="none"/>
<rect x="280" y="170" clip-path="url(#clipPath8)" fill="none" width="117" rx="2.5" ry="2.5" height="97"/>
<text xml:space="preserve" x="335" y="188" clip-path="url(#clipPath9)" stroke="none">B</text>
<text x="285" font-size="11" y="209" clip-path="url(#clipPath10)" stroke="none" font-weight="normal" xml:space="preserve">+ p : Integer</text>
<text x="285" font-size="11" y="222" clip-path="url(#clipPath11)" stroke="none" font-weight="normal" xml:space="preserve">+ y : IImpl</text>
<text x="285" font-size="11" y="235" clip-path="url(#clipPath12)" stroke="none" font-weight="normal" xml:space="preserve">+ assignP(v : Integer)</text>
<text x="285" font-size="11" y="248" clip-path="url(#clipPath13)" stroke="none" font-weight="normal" xml:space="preserve">+ printP()</text>
<line clip-path="url(#clipPath14)" fill="none" x1="281" x2="397" y1="195" y2="195"/>
<rect x="11" y="171" clip-path="url(#clipPath15)" fill="rgb(131,122,133)" width="118" rx="2.5" opacity="0.2549" ry="2.5" height="98" stroke="none"/>
<rect x="12" y="172" clip-path="url(#clipPath15)" fill="rgb(131,122,133)" width="118" rx="2.5" opacity="0.2549" ry="2.5" height="98" stroke="none"/>
<rect x="10" y="170" clip-path="url(#clipPath16)" fill="url(#linearGradient3)" width="118" rx="2.5" ry="2.5" height="98" stroke="none"/>
<rect x="10" y="170" clip-path="url(#clipPath16)" fill="none" width="117" rx="2.5" ry="2.5" height="97"/>
<text xml:space="preserve" x="54" y="188" clip-path="url(#clipPath17)" stroke="none">IImpl</text>
<text x="15" font-size="11" y="209" clip-path="url(#clipPath18)" stroke="none" font-weight="normal" xml:space="preserve">+ x : B</text>
<text x="15" font-size="11" y="222" clip-path="url(#clipPath19)" stroke="none" font-weight="normal" xml:space="preserve">+ assignP(v : Integer)</text>
<line clip-path="url(#clipPath20)" fill="none" x1="11" x2="127" y1="195" y2="195"/>
<rect x="146" y="11" clip-path="url(#clipPath21)" fill="rgb(131,122,133)" width="118" rx="2.5" opacity="0.2549" ry="2.5" height="98" stroke="none"/>
<rect x="147" y="12" clip-path="url(#clipPath21)" fill="rgb(131,122,133)" width="118" rx="2.5" opacity="0.2549" ry="2.5" height="98" stroke="none"/>
<rect x="145" y="10" clip-path="url(#clipPath22)" fill="url(#linearGradient4)" width="118" rx="2.5" ry="2.5" height="98" stroke="none"/>
<rect x="145" y="10" clip-path="url(#clipPath22)" fill="none" width="117" rx="2.5" ry="2.5" height="97"/>
<text xml:space="preserve" x="171" y="28" clip-path="url(#clipPath23)" stroke="none">«Interface»&#13;</text>
<text xml:space="preserve" x="171" y="43" clip-path="url(#clipPath23)" stroke="none">I</text>
<text x="150" font-size="11" y="64" clip-path="url(#clipPath24)" stroke="none" font-weight="normal" xml:space="preserve">+ assignP(v : Integer)</text>
<line clip-path="url(#clipPath25)" fill="none" x1="146" x2="262" y1="50" y2="50"/>
<rect x="415" y="11" clip-path="url(#clipPath26)" fill="rgb(131,122,133)" width="189" rx="2.5" opacity="0.2549" ry="2.5" height="98" stroke="none"/>
<rect x="416" y="12" clip-path="url(#clipPath26)" fill="rgb(131,122,133)" width="189" rx="2.5" opacity="0.2549" ry="2.5" height="98" stroke="none"/>
<rect x="414" y="10" clip-path="url(#clipPath27)" fill="url(#linearGradient5)" width="189" rx="2.5" ry="2.5" height="98" stroke="none"/>
<rect x="414" y="10" clip-path="url(#clipPath27)" fill="none" width="188" rx="2.5" ry="2.5" height="97"/>
<text xml:space="preserve" x="491" y="28" clip-path="url(#clipPath28)" stroke="none">Tester</text>
<text x="419" font-size="11" y="49" clip-path="url(#clipPath29)" stroke="none" font-weight="normal" xml:space="preserve">+ testCallDelegation(v : Integer) : A</text>
<line clip-path="url(#clipPath30)" fill="none" x1="415" x2="602" y1="35" y2="35"/>
<line clip-path="url(#clipPath31)" fill="none" x1="340" x2="205" y1="170" y2="108" stroke-dasharray="5,5"/>
</g>
<g stroke-linecap="butt" font-size="11" fill="white" font-family="'Segoe UI'" stroke-dasharray="5,5" stroke="white" stroke-width="1.1">
<polygon clip-path="url(#clipPath32)" points=" 205 108 214 108 211 115" stroke="none"/>
<polygon fill="none" stroke-dasharray="none" clip-path="url(#clipPath32)" points=" 205 108 214 108 211 115" stroke="black"/>
<line clip-path="url(#clipPath31)" fill="none" x1="70" x2="205" y1="170" y2="108" stroke="black"/>
<polygon clip-path="url(#clipPath33)" points=" 205 108 199 115 196 108" stroke="none"/>
<polygon fill="none" stroke-dasharray="none" clip-path="url(#clipPath33)" points=" 205 108 199 115 196 108" stroke="black"/>
<line clip-path="url(#clipPath31)" fill="none" x1="128" x2="280" y1="219" y2="219" stroke-dasharray="none" stroke="black"/>
<text x="149" y="235" clip-path="url(#clipPath34)" fill="black" stroke-dasharray="none" stroke="none" xml:space="preserve">y</text>
<text x="255" y="235" clip-path="url(#clipPath35)" fill="black" stroke-dasharray="none" stroke="none" xml:space="preserve">x</text>
<line clip-path="url(#clipPath36)" fill="none" x1="135" x2="128" y1="216" y2="219" stroke-dasharray="none" stroke="black"/>
<line clip-path="url(#clipPath36)" fill="none" x1="128" x2="135" y1="219" y2="222" stroke-dasharray="none" stroke="black"/>
<line clip-path="url(#clipPath37)" fill="none" x1="273" x2="280" y1="222" y2="219" stroke-dasharray="none" stroke="black"/>
<line clip-path="url(#clipPath37)" fill="none" x1="280" x2="273" y1="219" y2="216" stroke-dasharray="none" stroke="black"/>
</g>
</g>
</svg>
