<?xml version="1.0" encoding="UTF-8"?><svg xmlns="http://www.w3.org/2000/svg" xmlns:xlink="http://www.w3.org/1999/xlink" stroke-dasharray="none" shape-rendering="auto" font-family="'Dialog'" width="485" text-rendering="auto" fill-opacity="1" contentScriptType="text/ecmascript" color-interpolation="auto" color-rendering="auto" preserveAspectRatio="xMidYMid meet" font-size="12" viewBox="0 0 485 178" fill="black" stroke="black" image-rendering="auto" stroke-miterlimit="10" zoomAndPan="magnify" version="1.0" stroke-linecap="square" stroke-linejoin="miter" contentStyleType="text/css" font-style="normal" height="178" stroke-width="1" stroke-dashoffset="0" font-weight="normal" stroke-opacity="1">
<!--Generated by the Batik Graphics2D SVG Generator-->
<defs id="genericDefs"/>
<g>
<defs id="defs1">
<linearGradient x1="152" x2="473" y1="-31" gradientUnits="userSpaceOnUse" y2="207" xlink:type="simple" xlink:actuate="onLoad" id="linearGradient1" xlink:show="other" spreadMethod="pad">
<stop stop-opacity="1" stop-color="white" offset="0%"/>
<stop stop-opacity="1" stop-color="white" offset="100%"/>
</linearGradient>
<linearGradient x1="262" x2="410" y1="50" gradientUnits="userSpaceOnUse" y2="158" xlink:type="simple" xlink:actuate="onLoad" id="linearGradient2" xlink:show="other" spreadMethod="pad">
<stop stop-opacity="1" stop-color="white" offset="0%"/>
<stop stop-opacity="1" stop-color="white" offset="100%"/>
</linearGradient>
<clipPath clipPathUnits="userSpaceOnUse" id="clipPath1">
<path d="M151 9 L476 9 L476 169 L151 169 L151 9 Z"/>
</clipPath>
<clipPath clipPathUnits="userSpaceOnUse" id="clipPath2">
<path d="M151 9 L474 9 L474 167 L151 167 L151 9 Z"/>
</clipPath>
<clipPath clipPathUnits="userSpaceOnUse" id="clipPath3">
<path d="M282 14 L345 14 L345 31 L282 31 L282 14 Z"/>
</clipPath>
<clipPath clipPathUnits="userSpaceOnUse" id="clipPath4">
<path d="M261 69 L413 69 L413 141 L261 141 L261 69 Z"/>
</clipPath>
<clipPath clipPathUnits="userSpaceOnUse" id="clipPath5">
<path d="M261 69 L411 69 L411 139 L261 139 L261 69 Z"/>
</clipPath>
<clipPath clipPathUnits="userSpaceOnUse" id="clipPath6">
<path d="M315 74 L359 74 L359 89 L315 89 L315 74 Z"/>
</clipPath>
<clipPath clipPathUnits="userSpaceOnUse" id="clipPath7">
<path d="M249 89 L271 89 L271 111 L249 111 L249 89 Z"/>
</clipPath>
<clipPath clipPathUnits="userSpaceOnUse" id="clipPath8">
<path d="M270 89 L332 89 L332 104 L270 104 L270 89 Z"/>
</clipPath>
<clipPath clipPathUnits="userSpaceOnUse" id="clipPath9">
<path d="M321 57 L343 57 L343 79 L321 79 L321 57 Z"/>
</clipPath>
<clipPath clipPathUnits="userSpaceOnUse" id="clipPath10">
<path d="M342 57 L364 57 L364 72 L342 72 L342 57 Z"/>
</clipPath>
<clipPath clipPathUnits="userSpaceOnUse" id="clipPath11">
<path d="M9 74 L161 74 L161 126 L9 126 L9 74 Z"/>
</clipPath>
<clipPath clipPathUnits="userSpaceOnUse" id="clipPath12">
<path d="M10 75 L162 75 L162 125 L10 125 L10 75 Z"/>
</clipPath>
<clipPath clipPathUnits="userSpaceOnUse" id="clipPath13">
<path d="M-1 -1 L486 -1 L486 179 L-1 179 L-1 -1 Z"/>
</clipPath>
<clipPath clipPathUnits="userSpaceOnUse" id="clipPath14">
<path d="M242 94 L252 94 L252 103 L242 103 L242 94 Z"/>
</clipPath>
</defs>
<g fill="rgb(131,122,133)" font-family="'Segoe UI'" stroke-linejoin="round" stroke="rgb(131,122,133)" stroke-width="0" stroke-miterlimit="0">
<rect x="153" y="11" clip-path="url(#clipPath1)" width="321" rx="12.5" opacity="0.2549" ry="12.5" height="156" stroke="none"/>
<rect x="154" y="12" clip-path="url(#clipPath1)" width="321" rx="12.5" opacity="0.2549" ry="12.5" height="156" stroke="none"/>
<rect x="152" y="10" clip-path="url(#clipPath2)" fill="url(#linearGradient1)" width="321" rx="12.5" ry="12.5" height="156" stroke="none"/>
</g>
<g stroke-width="1.1" font-family="'Segoe UI'" stroke-linecap="butt">
<rect x="152" y="10" clip-path="url(#clipPath2)" fill="none" width="320" rx="12.5" ry="12.5" height="155"/>
<text xml:space="preserve" x="283" y="28" clip-path="url(#clipPath3)" stroke="none">actCallSetP</text>
</g>
<g stroke-linecap="butt" font-size="11" fill="rgb(131,122,133)" font-family="'Segoe UI'" stroke="rgb(131,122,133)" font-weight="bold" stroke-width="1.1">
<rect x="263" y="71" clip-path="url(#clipPath4)" width="148" rx="12.5" opacity="0.2549" ry="12.5" height="68" stroke="none"/>
<rect x="264" y="72" clip-path="url(#clipPath4)" width="148" rx="12.5" opacity="0.2549" ry="12.5" height="68" stroke="none"/>
<rect x="262" y="70" clip-path="url(#clipPath5)" fill="url(#linearGradient2)" width="148" rx="12.5" ry="12.5" height="68" stroke="none"/>
<rect x="262" y="70" clip-path="url(#clipPath5)" fill="none" width="147" rx="12.5" ry="12.5" height="67" stroke="black"/>
<text x="316" y="87" clip-path="url(#clipPath6)" fill="black" stroke="none" xml:space="preserve">assignP</text>
</g>
<g fill="white" stroke-width="1.1" font-family="'Segoe UI'" stroke-linecap="butt" stroke="white">
<rect x="250" y="90" clip-path="url(#clipPath7)" width="20" height="20" stroke="none"/>
<rect x="250" y="90" clip-path="url(#clipPath7)" fill="none" width="19" height="19" stroke="black"/>
<text x="271" font-size="11" y="102" clip-path="url(#clipPath8)" fill="black" stroke="none" xml:space="preserve">_p : Integer</text>
<rect x="322" y="58" clip-path="url(#clipPath9)" width="20" height="20" stroke="none"/>
<rect x="322" y="58" clip-path="url(#clipPath9)" fill="none" width="19" height="19" stroke="black"/>
<text x="343" font-size="11" y="70" clip-path="url(#clipPath10)" fill="black" stroke="none" xml:space="preserve">self</text>
<rect x="10" y="75" clip-path="url(#clipPath11)" width="150" height="50" stroke="none"/>
<rect x="10" y="75" clip-path="url(#clipPath11)" fill="none" width="149" height="49" stroke="black"/>
<text x="57" font-size="11" y="105" clip-path="url(#clipPath12)" fill="black" stroke="none" xml:space="preserve">_v : Integer</text>
<line clip-path="url(#clipPath13)" fill="none" x1="160" x2="250" y1="98" y2="98" stroke="black"/>
<line clip-path="url(#clipPath14)" fill="none" x1="243" x2="250" y1="101" y2="98" stroke="black"/>
<line clip-path="url(#clipPath14)" fill="none" x1="250" x2="243" y1="98" y2="95" stroke="black"/>
<line clip-path="url(#clipPath13)" fill="none" x1="160" x2="250" y1="98" y2="98" stroke="black"/>
<line clip-path="url(#clipPath14)" fill="none" x1="243" x2="250" y1="101" y2="98" stroke="black"/>
<line clip-path="url(#clipPath14)" fill="none" x1="250" x2="243" y1="98" y2="95" stroke="black"/>
</g>
</g>
</svg>
