<?xml version="1.0" encoding="UTF-8"?><svg xmlns="http://www.w3.org/2000/svg" xmlns:xlink="http://www.w3.org/1999/xlink" stroke-dasharray="none" shape-rendering="auto" font-family="'Dialog'" width="605" text-rendering="auto" fill-opacity="1" contentScriptType="text/ecmascript" color-interpolation="auto" color-rendering="auto" preserveAspectRatio="xMidYMid meet" font-size="12" viewBox="0 0 605 563" fill="black" stroke="black" image-rendering="auto" stroke-miterlimit="10" zoomAndPan="magnify" version="1.0" stroke-linecap="square" stroke-linejoin="miter" contentStyleType="text/css" font-style="normal" height="563" stroke-width="1" stroke-dashoffset="0" font-weight="normal" stroke-opacity="1">
<!--Generated by the Batik Graphics2D SVG Generator-->
<defs id="genericDefs"/>
<g>
<defs id="defs1">
<linearGradient x1="92" x2="513" y1="10" gradientUnits="userSpaceOnUse" y2="551" xlink:type="simple" xlink:actuate="onLoad" id="linearGradient1" xlink:show="other" spreadMethod="pad">
<stop stop-opacity="1" stop-color="white" offset="0%"/>
<stop stop-opacity="1" stop-color="white" offset="100%"/>
</linearGradient>
<linearGradient x1="232" x2="380" y1="25" gradientUnits="userSpaceOnUse" y2="133" xlink:type="simple" xlink:actuate="onLoad" id="linearGradient2" xlink:show="other" spreadMethod="pad">
<stop stop-opacity="1" stop-color="white" offset="0%"/>
<stop stop-opacity="1" stop-color="white" offset="100%"/>
</linearGradient>
<linearGradient x1="232" x2="380" y1="195" gradientUnits="userSpaceOnUse" y2="303" xlink:type="simple" xlink:actuate="onLoad" id="linearGradient3" xlink:show="other" spreadMethod="pad">
<stop stop-opacity="1" stop-color="white" offset="0%"/>
<stop stop-opacity="1" stop-color="white" offset="100%"/>
</linearGradient>
<linearGradient x1="232" x2="380" y1="356" gradientUnits="userSpaceOnUse" y2="464" xlink:type="simple" xlink:actuate="onLoad" id="linearGradient4" xlink:show="other" spreadMethod="pad">
<stop stop-opacity="1" stop-color="white" offset="0%"/>
<stop stop-opacity="1" stop-color="white" offset="100%"/>
</linearGradient>
<clipPath clipPathUnits="userSpaceOnUse" id="clipPath1">
<path d="M151 9 L456 9 L456 554 L151 554 L151 9 Z"/>
</clipPath>
<clipPath clipPathUnits="userSpaceOnUse" id="clipPath2">
<path d="M151 9 L454 9 L454 552 L151 552 L151 9 Z"/>
</clipPath>
<clipPath clipPathUnits="userSpaceOnUse" id="clipPath3">
<path d="M245 14 L362 14 L362 31 L245 31 L245 14 Z"/>
</clipPath>
<clipPath clipPathUnits="userSpaceOnUse" id="clipPath4">
<path d="M231 44 L383 44 L383 116 L231 116 L231 44 Z"/>
</clipPath>
<clipPath clipPathUnits="userSpaceOnUse" id="clipPath5">
<path d="M231 44 L381 44 L381 114 L231 114 L231 44 Z"/>
</clipPath>
<clipPath clipPathUnits="userSpaceOnUse" id="clipPath6">
<path d="M284 49 L329 49 L329 64 L284 64 L284 49 Z"/>
</clipPath>
<clipPath clipPathUnits="userSpaceOnUse" id="clipPath7">
<path d="M296 104 L318 104 L318 126 L296 126 L296 104 Z"/>
</clipPath>
<clipPath clipPathUnits="userSpaceOnUse" id="clipPath8">
<path d="M317 104 L367 104 L367 119 L317 119 L317 104 Z"/>
</clipPath>
<clipPath clipPathUnits="userSpaceOnUse" id="clipPath9">
<path d="M231 214 L383 214 L383 286 L231 286 L231 214 Z"/>
</clipPath>
<clipPath clipPathUnits="userSpaceOnUse" id="clipPath10">
<path d="M231 214 L381 214 L381 284 L231 284 L231 214 Z"/>
</clipPath>
<clipPath clipPathUnits="userSpaceOnUse" id="clipPath11">
<path d="M279 219 L336 219 L336 234 L279 234 L279 219 Z"/>
</clipPath>
<clipPath clipPathUnits="userSpaceOnUse" id="clipPath12">
<path d="M286 202 L308 202 L308 224 L286 224 L286 202 Z"/>
</clipPath>
<clipPath clipPathUnits="userSpaceOnUse" id="clipPath13">
<path d="M307 202 L360 202 L360 217 L307 217 L307 202 Z"/>
</clipPath>
<clipPath clipPathUnits="userSpaceOnUse" id="clipPath14">
<path d="M286 274 L308 274 L308 296 L286 296 L286 274 Z"/>
</clipPath>
<clipPath clipPathUnits="userSpaceOnUse" id="clipPath15">
<path d="M307 274 L345 274 L345 289 L307 289 L307 274 Z"/>
</clipPath>
<clipPath clipPathUnits="userSpaceOnUse" id="clipPath16">
<path d="M261 144 L404 144 L404 156 L261 156 L261 144 Z"/>
</clipPath>
<clipPath clipPathUnits="userSpaceOnUse" id="clipPath17">
<path d="M231 375 L383 375 L383 447 L231 447 L231 375 Z"/>
</clipPath>
<clipPath clipPathUnits="userSpaceOnUse" id="clipPath18">
<path d="M231 375 L381 375 L381 445 L231 445 L231 375 Z"/>
</clipPath>
<clipPath clipPathUnits="userSpaceOnUse" id="clipPath19">
<path d="M251 380 L362 380 L362 395 L251 395 L251 380 Z"/>
</clipPath>
<clipPath clipPathUnits="userSpaceOnUse" id="clipPath20">
<path d="M219 399 L241 399 L241 421 L219 421 L219 399 Z"/>
</clipPath>
<clipPath clipPathUnits="userSpaceOnUse" id="clipPath21">
<path d="M240 399 L295 399 L295 414 L240 414 L240 399 Z"/>
</clipPath>
<clipPath clipPathUnits="userSpaceOnUse" id="clipPath22">
<path d="M286 363 L308 363 L308 385 L286 385 L286 363 Z"/>
</clipPath>
<clipPath clipPathUnits="userSpaceOnUse" id="clipPath23">
<path d="M307 363 L358 363 L358 378 L307 378 L307 363 Z"/>
</clipPath>
<clipPath clipPathUnits="userSpaceOnUse" id="clipPath24">
<path d="M9 384 L161 384 L161 436 L9 436 L9 384 Z"/>
</clipPath>
<clipPath clipPathUnits="userSpaceOnUse" id="clipPath25">
<path d="M10 385 L162 385 L162 435 L10 435 L10 385 Z"/>
</clipPath>
<clipPath clipPathUnits="userSpaceOnUse" id="clipPath26">
<path d="M444 464 L596 464 L596 516 L444 516 L444 464 Z"/>
</clipPath>
<clipPath clipPathUnits="userSpaceOnUse" id="clipPath27">
<path d="M445 465 L597 465 L597 515 L445 515 L445 465 Z"/>
</clipPath>
<clipPath clipPathUnits="userSpaceOnUse" id="clipPath28">
<path d="M-1 -1 L606 -1 L606 564 L-1 564 L-1 -1 Z"/>
</clipPath>
<clipPath clipPathUnits="userSpaceOnUse" id="clipPath29">
<path d="M437 486 L447 486 L447 495 L437 495 L437 486 Z"/>
</clipPath>
<clipPath clipPathUnits="userSpaceOnUse" id="clipPath30">
<path d="M212 404 L222 404 L222 413 L212 413 L212 404 Z"/>
</clipPath>
<clipPath clipPathUnits="userSpaceOnUse" id="clipPath31">
<path d="M301 137 L310 137 L310 147 L301 147 L301 137 Z"/>
</clipPath>
<clipPath clipPathUnits="userSpaceOnUse" id="clipPath32">
<path d="M297 195 L306 195 L306 205 L297 205 L297 195 Z"/>
</clipPath>
<clipPath clipPathUnits="userSpaceOnUse" id="clipPath33">
<path d="M293 356 L302 356 L302 366 L293 366 L293 356 Z"/>
</clipPath>
</defs>
<g fill="rgb(131,122,133)" font-family="'Segoe UI'" stroke-linejoin="round" stroke="rgb(131,122,133)" stroke-width="0" stroke-miterlimit="0">
<rect x="153" y="11" clip-path="url(#clipPath1)" width="301" rx="12.5" opacity="0.2549" ry="12.5" height="541" stroke="none"/>
<rect x="154" y="12" clip-path="url(#clipPath1)" width="301" rx="12.5" opacity="0.2549" ry="12.5" height="541" stroke="none"/>
<rect x="152" y="10" clip-path="url(#clipPath2)" fill="url(#linearGradient1)" width="301" rx="12.5" ry="12.5" height="541" stroke="none"/>
</g>
<g stroke-width="1.1" font-family="'Segoe UI'" stroke-linecap="butt">
<rect x="152" y="10" clip-path="url(#clipPath2)" fill="none" width="300" rx="12.5" ry="12.5" height="540"/>
<text xml:space="preserve" x="246" y="28" clip-path="url(#clipPath3)" stroke="none">actTestCallDelegation</text>
</g>
<g stroke-linecap="butt" font-size="11" fill="rgb(131,122,133)" font-family="'Segoe UI'" stroke="rgb(131,122,133)" font-weight="bold" stroke-width="1.1">
<rect x="233" y="46" clip-path="url(#clipPath4)" width="148" rx="12.5" opacity="0.2549" ry="12.5" height="68" stroke="none"/>
<rect x="234" y="47" clip-path="url(#clipPath4)" width="148" rx="12.5" opacity="0.2549" ry="12.5" height="68" stroke="none"/>
<rect x="232" y="45" clip-path="url(#clipPath5)" fill="url(#linearGradient2)" width="148" rx="12.5" ry="12.5" height="68" stroke="none"/>
<rect x="232" y="45" clip-path="url(#clipPath5)" fill="none" width="147" rx="12.5" ry="12.5" height="67" stroke="black"/>
<text x="285" y="62" clip-path="url(#clipPath6)" fill="black" stroke="none" xml:space="preserve">CreateD</text>
</g>
<g fill="white" stroke-width="1.1" font-family="'Segoe UI'" stroke-linecap="butt" stroke="white">
<rect x="297" y="105" clip-path="url(#clipPath7)" width="20" height="20" stroke="none"/>
<rect x="297" y="105" clip-path="url(#clipPath7)" fill="none" width="19" height="19" stroke="black"/>
<text x="318" font-size="11" y="117" clip-path="url(#clipPath8)" fill="black" stroke="none" xml:space="preserve">result : D</text>
</g>
<g stroke-linecap="butt" font-size="11" fill="rgb(131,122,133)" font-family="'Segoe UI'" stroke="rgb(131,122,133)" font-weight="bold" stroke-width="1.1">
<rect x="233" y="216" clip-path="url(#clipPath9)" width="148" rx="12.5" opacity="0.2549" ry="12.5" height="68" stroke="none"/>
<rect x="234" y="217" clip-path="url(#clipPath9)" width="148" rx="12.5" opacity="0.2549" ry="12.5" height="68" stroke="none"/>
<rect x="232" y="215" clip-path="url(#clipPath10)" fill="url(#linearGradient3)" width="148" rx="12.5" ry="12.5" height="68" stroke="none"/>
<rect x="232" y="215" clip-path="url(#clipPath10)" fill="none" width="147" rx="12.5" ry="12.5" height="67" stroke="black"/>
<text x="280" y="232" clip-path="url(#clipPath11)" fill="black" stroke="none" xml:space="preserve">ReadCofD</text>
</g>
<g fill="white" stroke-width="1.1" font-family="'Segoe UI'" stroke-linecap="butt" stroke="white">
<rect x="287" y="203" clip-path="url(#clipPath12)" width="20" height="20" stroke="none"/>
<rect x="287" y="203" clip-path="url(#clipPath12)" fill="none" width="19" height="19" stroke="black"/>
<text x="308" font-size="11" y="215" clip-path="url(#clipPath13)" fill="black" stroke="none" xml:space="preserve">object : D</text>
<rect x="287" y="275" clip-path="url(#clipPath14)" width="20" height="20" stroke="none"/>
<rect x="287" y="275" clip-path="url(#clipPath14)" fill="none" width="19" height="19" stroke="black"/>
<text x="308" font-size="11" y="287" clip-path="url(#clipPath15)" fill="black" stroke="none" xml:space="preserve">out : C</text>
<rect x="262" y="145" clip-path="url(#clipPath16)" fill="black" width="141" height="10" stroke="none"/>
<rect x="262" y="145" clip-path="url(#clipPath16)" fill="none" width="140" height="9" stroke="black" stroke-width="0.1"/>
</g>
<g stroke-linecap="butt" font-size="11" fill="rgb(131,122,133)" font-family="'Segoe UI'" stroke="rgb(131,122,133)" font-weight="bold" stroke-width="0.1">
<rect x="233" y="377" clip-path="url(#clipPath17)" width="148" rx="12.5" opacity="0.2549" ry="12.5" height="68" stroke="none"/>
<rect x="234" y="378" clip-path="url(#clipPath17)" width="148" rx="12.5" opacity="0.2549" ry="12.5" height="68" stroke="none"/>
<rect x="232" y="376" clip-path="url(#clipPath18)" fill="url(#linearGradient4)" width="148" rx="12.5" ry="12.5" height="68" stroke="none"/>
<rect x="232" y="376" clip-path="url(#clipPath18)" fill="none" width="147" rx="12.5" ry="12.5" height="67" stroke="black" stroke-width="1.1"/>
<text x="252" y="393" clip-path="url(#clipPath19)" fill="black" stroke="none" stroke-width="1.1" xml:space="preserve">callSetPofC : callSetP</text>
</g>
<g fill="white" stroke-width="1.1" font-family="'Segoe UI'" stroke-linecap="butt" stroke="white">
<rect x="220" y="400" clip-path="url(#clipPath20)" width="20" height="20" stroke="none"/>
<rect x="220" y="400" clip-path="url(#clipPath20)" fill="none" width="19" height="19" stroke="black"/>
<text x="241" font-size="11" y="412" clip-path="url(#clipPath21)" fill="black" stroke="none" xml:space="preserve">v : Integer</text>
<rect x="287" y="364" clip-path="url(#clipPath22)" width="20" height="20" stroke="none"/>
<rect x="287" y="364" clip-path="url(#clipPath22)" fill="none" width="19" height="19" stroke="black"/>
<text x="308" font-size="11" y="376" clip-path="url(#clipPath23)" fill="black" stroke="none" xml:space="preserve">target : C</text>
<rect x="10" y="385" clip-path="url(#clipPath24)" width="150" height="50" stroke="none"/>
<rect x="10" y="385" clip-path="url(#clipPath24)" fill="none" width="149" height="49" stroke="black"/>
<text x="59" font-size="11" y="415" clip-path="url(#clipPath25)" fill="black" stroke="none" xml:space="preserve">v : Integer</text>
<rect x="445" y="465" clip-path="url(#clipPath26)" width="150" height="50" stroke="none"/>
<rect x="445" y="465" clip-path="url(#clipPath26)" fill="none" width="149" height="49" stroke="black"/>
<text x="502" font-size="11" y="495" clip-path="url(#clipPath27)" fill="black" stroke="none" xml:space="preserve">out : D</text>
<line clip-path="url(#clipPath28)" fill="none" x1="392" x2="392" y1="155" y2="180" stroke="black"/>
<line clip-path="url(#clipPath28)" fill="none" x1="392" x2="412" y1="180" y2="180" stroke="black"/>
<line clip-path="url(#clipPath28)" fill="none" x1="412" x2="412" y1="180" y2="490" stroke="black"/>
<line clip-path="url(#clipPath28)" fill="none" x1="412" x2="445" y1="490" y2="490" stroke="black"/>
<line clip-path="url(#clipPath29)" fill="none" x1="438" x2="445" y1="493" y2="490" stroke="black"/>
<line clip-path="url(#clipPath29)" fill="none" x1="445" x2="438" y1="490" y2="487" stroke="black"/>
<line clip-path="url(#clipPath28)" fill="none" x1="160" x2="220" y1="408" y2="408" stroke="black"/>
<line clip-path="url(#clipPath30)" fill="none" x1="213" x2="220" y1="411" y2="408" stroke="black"/>
<line clip-path="url(#clipPath30)" fill="none" x1="220" x2="213" y1="408" y2="405" stroke="black"/>
<line clip-path="url(#clipPath28)" fill="none" x1="305" x2="305" y1="125" y2="145" stroke="black"/>
<line clip-path="url(#clipPath31)" fill="none" x1="302" x2="305" y1="138" y2="145" stroke="black"/>
<line clip-path="url(#clipPath31)" fill="none" x1="305" x2="308" y1="145" y2="138" stroke="black"/>
<line clip-path="url(#clipPath28)" fill="none" x1="301" x2="301" y1="155" y2="203" stroke="black"/>
<line clip-path="url(#clipPath32)" fill="none" x1="298" x2="301" y1="196" y2="203" stroke="black"/>
<line clip-path="url(#clipPath32)" fill="none" x1="301" x2="304" y1="203" y2="196" stroke="black"/>
<line clip-path="url(#clipPath28)" fill="none" x1="297" x2="297" y1="295" y2="364" stroke="black"/>
<line clip-path="url(#clipPath33)" fill="none" x1="294" x2="297" y1="357" y2="364" stroke="black"/>
<line clip-path="url(#clipPath33)" fill="none" x1="297" x2="300" y1="364" y2="357" stroke="black"/>
<line clip-path="url(#clipPath28)" fill="none" x1="305" x2="305" y1="125" y2="145" stroke="black"/>
<line clip-path="url(#clipPath31)" fill="none" x1="302" x2="305" y1="138" y2="145" stroke="black"/>
<line clip-path="url(#clipPath31)" fill="none" x1="305" x2="308" y1="145" y2="138" stroke="black"/>
<line clip-path="url(#clipPath28)" fill="none" x1="392" x2="392" y1="155" y2="180" stroke="black"/>
<line clip-path="url(#clipPath28)" fill="none" x1="392" x2="412" y1="180" y2="180" stroke="black"/>
<line clip-path="url(#clipPath28)" fill="none" x1="412" x2="412" y1="180" y2="490" stroke="black"/>
<line clip-path="url(#clipPath28)" fill="none" x1="412" x2="445" y1="490" y2="490" stroke="black"/>
<line clip-path="url(#clipPath29)" fill="none" x1="438" x2="445" y1="493" y2="490" stroke="black"/>
<line clip-path="url(#clipPath29)" fill="none" x1="445" x2="438" y1="490" y2="487" stroke="black"/>
<line clip-path="url(#clipPath28)" fill="none" x1="301" x2="301" y1="155" y2="203" stroke="black"/>
<line clip-path="url(#clipPath32)" fill="none" x1="298" x2="301" y1="196" y2="203" stroke="black"/>
<line clip-path="url(#clipPath32)" fill="none" x1="301" x2="304" y1="203" y2="196" stroke="black"/>
<line clip-path="url(#clipPath28)" fill="none" x1="297" x2="297" y1="295" y2="364" stroke="black"/>
<line clip-path="url(#clipPath33)" fill="none" x1="294" x2="297" y1="357" y2="364" stroke="black"/>
<line clip-path="url(#clipPath33)" fill="none" x1="297" x2="300" y1="364" y2="357" stroke="black"/>
<line clip-path="url(#clipPath28)" fill="none" x1="160" x2="220" y1="408" y2="408" stroke="black"/>
<line clip-path="url(#clipPath30)" fill="none" x1="213" x2="220" y1="411" y2="408" stroke="black"/>
<line clip-path="url(#clipPath30)" fill="none" x1="220" x2="213" y1="408" y2="405" stroke="black"/>
</g>
</g>
</svg>
