<?xml version="1.0" encoding="UTF-8"?><svg xmlns="http://www.w3.org/2000/svg" xmlns:xlink="http://www.w3.org/1999/xlink" stroke-dasharray="none" shape-rendering="auto" font-family="'Dialog'" width="786" text-rendering="auto" fill-opacity="1" contentScriptType="text/ecmascript" color-interpolation="auto" color-rendering="auto" preserveAspectRatio="xMidYMid meet" font-size="12" viewBox="0 0 786 480" fill="black" stroke="black" image-rendering="auto" stroke-miterlimit="10" zoomAndPan="magnify" version="1.0" stroke-linecap="square" stroke-linejoin="miter" contentStyleType="text/css" font-style="normal" height="480" stroke-width="1" stroke-dashoffset="0" font-weight="normal" stroke-opacity="1">
<!--Generated by the Batik Graphics2D SVG Generator-->
<defs id="genericDefs"/>
<g>
<defs id="defs1">
<linearGradient x1="13" x2="131" y1="365" gradientUnits="userSpaceOnUse" y2="473" xlink:type="simple" xlink:actuate="onLoad" id="linearGradient1" xlink:show="other" spreadMethod="pad">
<stop stop-opacity="1" stop-color="white" offset="0%"/>
<stop stop-opacity="1" stop-color="white" offset="100%"/>
</linearGradient>
<linearGradient x1="650" x2="774" y1="169" gradientUnits="userSpaceOnUse" y2="280" xlink:type="simple" xlink:actuate="onLoad" id="linearGradient2" xlink:show="other" spreadMethod="pad">
<stop stop-opacity="1" stop-color="white" offset="0%"/>
<stop stop-opacity="1" stop-color="white" offset="100%"/>
</linearGradient>
<linearGradient x1="440" x2="564" y1="169" gradientUnits="userSpaceOnUse" y2="280" xlink:type="simple" xlink:actuate="onLoad" id="linearGradient3" xlink:show="other" spreadMethod="pad">
<stop stop-opacity="1" stop-color="white" offset="0%"/>
<stop stop-opacity="1" stop-color="white" offset="100%"/>
</linearGradient>
<linearGradient x1="230" x2="354" y1="169" gradientUnits="userSpaceOnUse" y2="280" xlink:type="simple" xlink:actuate="onLoad" id="linearGradient4" xlink:show="other" spreadMethod="pad">
<stop stop-opacity="1" stop-color="white" offset="0%"/>
<stop stop-opacity="1" stop-color="white" offset="100%"/>
</linearGradient>
<linearGradient x1="10" x2="134" y1="164" gradientUnits="userSpaceOnUse" y2="275" xlink:type="simple" xlink:actuate="onLoad" id="linearGradient5" xlink:show="other" spreadMethod="pad">
<stop stop-opacity="1" stop-color="white" offset="0%"/>
<stop stop-opacity="1" stop-color="white" offset="100%"/>
</linearGradient>
<linearGradient x1="230" x2="354" y1="4" gradientUnits="userSpaceOnUse" y2="115" xlink:type="simple" xlink:actuate="onLoad" id="linearGradient6" xlink:show="other" spreadMethod="pad">
<stop stop-opacity="1" stop-color="white" offset="0%"/>
<stop stop-opacity="1" stop-color="white" offset="100%"/>
</linearGradient>
<linearGradient x1="230" x2="420" y1="347" gradientUnits="userSpaceOnUse" y2="491" xlink:type="simple" xlink:actuate="onLoad" id="linearGradient7" xlink:show="other" spreadMethod="pad">
<stop stop-opacity="1" stop-color="white" offset="0%"/>
<stop stop-opacity="1" stop-color="white" offset="100%"/>
</linearGradient>
<clipPath clipPathUnits="userSpaceOnUse" id="clipPath1">
<path d="M12 369 L134 369 L134 471 L12 471 L12 369 Z"/>
</clipPath>
<clipPath clipPathUnits="userSpaceOnUse" id="clipPath2">
<path d="M12 369 L132 369 L132 469 L12 469 L12 369 Z"/>
</clipPath>
<clipPath clipPathUnits="userSpaceOnUse" id="clipPath3">
<path d="M66 374 L81 374 L81 391 L66 391 L66 374 Z"/>
</clipPath>
<clipPath clipPathUnits="userSpaceOnUse" id="clipPath4">
<path d="M17 396 L53 396 L53 411 L17 411 L17 396 Z"/>
</clipPath>
<clipPath clipPathUnits="userSpaceOnUse" id="clipPath5">
<path d="M17 409 L54 409 L54 424 L17 424 L17 409 Z"/>
</clipPath>
<clipPath clipPathUnits="userSpaceOnUse" id="clipPath6">
<path d="M13 394 L131 394 L131 468 L13 468 L13 394 Z"/>
</clipPath>
<clipPath clipPathUnits="userSpaceOnUse" id="clipPath7">
<path d="M649 174 L777 174 L777 276 L649 276 L649 174 Z"/>
</clipPath>
<clipPath clipPathUnits="userSpaceOnUse" id="clipPath8">
<path d="M649 174 L775 174 L775 274 L649 274 L649 174 Z"/>
</clipPath>
<clipPath clipPathUnits="userSpaceOnUse" id="clipPath9">
<path d="M707 179 L721 179 L721 196 L707 196 L707 179 Z"/>
</clipPath>
<clipPath clipPathUnits="userSpaceOnUse" id="clipPath10">
<path d="M654 201 L699 201 L699 216 L654 216 L654 201 Z"/>
</clipPath>
<clipPath clipPathUnits="userSpaceOnUse" id="clipPath11">
<path d="M654 214 L691 214 L691 229 L654 229 L654 214 Z"/>
</clipPath>
<clipPath clipPathUnits="userSpaceOnUse" id="clipPath12">
<path d="M654 227 L772 227 L772 242 L654 242 L654 227 Z"/>
</clipPath>
<clipPath clipPathUnits="userSpaceOnUse" id="clipPath13">
<path d="M650 199 L774 199 L774 273 L650 273 L650 199 Z"/>
</clipPath>
<clipPath clipPathUnits="userSpaceOnUse" id="clipPath14">
<path d="M439 174 L567 174 L567 276 L439 276 L439 174 Z"/>
</clipPath>
<clipPath clipPathUnits="userSpaceOnUse" id="clipPath15">
<path d="M439 174 L565 174 L565 274 L439 274 L439 174 Z"/>
</clipPath>
<clipPath clipPathUnits="userSpaceOnUse" id="clipPath16">
<path d="M497 179 L509 179 L509 196 L497 196 L497 179 Z"/>
</clipPath>
<clipPath clipPathUnits="userSpaceOnUse" id="clipPath17">
<path d="M444 201 L497 201 L497 216 L444 216 L444 201 Z"/>
</clipPath>
<clipPath clipPathUnits="userSpaceOnUse" id="clipPath18">
<path d="M444 214 L562 214 L562 229 L444 229 L444 214 Z"/>
</clipPath>
<clipPath clipPathUnits="userSpaceOnUse" id="clipPath19">
<path d="M444 227 L555 227 L555 242 L444 242 L444 227 Z"/>
</clipPath>
<clipPath clipPathUnits="userSpaceOnUse" id="clipPath20">
<path d="M440 199 L564 199 L564 273 L440 273 L440 199 Z"/>
</clipPath>
<clipPath clipPathUnits="userSpaceOnUse" id="clipPath21">
<path d="M229 174 L357 174 L357 276 L229 276 L229 174 Z"/>
</clipPath>
<clipPath clipPathUnits="userSpaceOnUse" id="clipPath22">
<path d="M229 174 L355 174 L355 274 L229 274 L229 174 Z"/>
</clipPath>
<clipPath clipPathUnits="userSpaceOnUse" id="clipPath23">
<path d="M287 179 L301 179 L301 196 L287 196 L287 179 Z"/>
</clipPath>
<clipPath clipPathUnits="userSpaceOnUse" id="clipPath24">
<path d="M234 201 L302 201 L302 216 L234 216 L234 201 Z"/>
</clipPath>
<clipPath clipPathUnits="userSpaceOnUse" id="clipPath25">
<path d="M234 214 L308 214 L308 229 L234 229 L234 214 Z"/>
</clipPath>
<clipPath clipPathUnits="userSpaceOnUse" id="clipPath26">
<path d="M234 227 L352 227 L352 242 L234 242 L234 227 Z"/>
</clipPath>
<clipPath clipPathUnits="userSpaceOnUse" id="clipPath27">
<path d="M230 199 L354 199 L354 273 L230 273 L230 199 Z"/>
</clipPath>
<clipPath clipPathUnits="userSpaceOnUse" id="clipPath28">
<path d="M9 169 L137 169 L137 271 L9 271 L9 169 Z"/>
</clipPath>
<clipPath clipPathUnits="userSpaceOnUse" id="clipPath29">
<path d="M9 169 L135 169 L135 269 L9 269 L9 169 Z"/>
</clipPath>
<clipPath clipPathUnits="userSpaceOnUse" id="clipPath30">
<path d="M56 174 L89 174 L89 191 L56 191 L56 174 Z"/>
</clipPath>
<clipPath clipPathUnits="userSpaceOnUse" id="clipPath31">
<path d="M14 196 L51 196 L51 211 L14 211 L14 196 Z"/>
</clipPath>
<clipPath clipPathUnits="userSpaceOnUse" id="clipPath32">
<path d="M14 209 L80 209 L80 224 L14 224 L14 209 Z"/>
</clipPath>
<clipPath clipPathUnits="userSpaceOnUse" id="clipPath33">
<path d="M14 222 L88 222 L88 237 L14 237 L14 222 Z"/>
</clipPath>
<clipPath clipPathUnits="userSpaceOnUse" id="clipPath34">
<path d="M14 235 L132 235 L132 250 L14 250 L14 235 Z"/>
</clipPath>
<clipPath clipPathUnits="userSpaceOnUse" id="clipPath35">
<path d="M10 194 L134 194 L134 268 L10 268 L10 194 Z"/>
</clipPath>
<clipPath clipPathUnits="userSpaceOnUse" id="clipPath36">
<path d="M229 9 L357 9 L357 111 L229 111 L229 9 Z"/>
</clipPath>
<clipPath clipPathUnits="userSpaceOnUse" id="clipPath37">
<path d="M229 9 L355 9 L355 109 L229 109 L229 9 Z"/>
</clipPath>
<clipPath clipPathUnits="userSpaceOnUse" id="clipPath38">
<path d="M258 14 L328 14 L328 46 L258 46 L258 14 Z"/>
</clipPath>
<clipPath clipPathUnits="userSpaceOnUse" id="clipPath39">
<path d="M234 51 L352 51 L352 66 L234 66 L234 51 Z"/>
</clipPath>
<clipPath clipPathUnits="userSpaceOnUse" id="clipPath40">
<path d="M230 49 L354 49 L354 108 L230 108 L230 49 Z"/>
</clipPath>
<clipPath clipPathUnits="userSpaceOnUse" id="clipPath41">
<path d="M229 369 L423 369 L423 471 L229 471 L229 369 Z"/>
</clipPath>
<clipPath clipPathUnits="userSpaceOnUse" id="clipPath42">
<path d="M229 369 L421 369 L421 469 L229 469 L229 369 Z"/>
</clipPath>
<clipPath clipPathUnits="userSpaceOnUse" id="clipPath43">
<path d="M306 374 L345 374 L345 391 L306 391 L306 374 Z"/>
</clipPath>
<clipPath clipPathUnits="userSpaceOnUse" id="clipPath44">
<path d="M234 396 L418 396 L418 411 L234 411 L234 396 Z"/>
</clipPath>
<clipPath clipPathUnits="userSpaceOnUse" id="clipPath45">
<path d="M230 394 L420 394 L420 468 L230 468 L230 394 Z"/>
</clipPath>
<clipPath clipPathUnits="userSpaceOnUse" id="clipPath46">
<path d="M-1 -1 L787 -1 L787 481 L-1 481 L-1 -1 Z"/>
</clipPath>
<clipPath clipPathUnits="userSpaceOnUse" id="clipPath47">
<path d="M292 106 L304 106 L304 116 L292 116 L292 106 Z"/>
</clipPath>
<clipPath clipPathUnits="userSpaceOnUse" id="clipPath48">
<path d="M288 107 L299 107 L299 118 L288 118 L288 107 Z"/>
</clipPath>
<clipPath clipPathUnits="userSpaceOnUse" id="clipPath49">
<path d="M283 105 L295 105 L295 116 L283 116 L283 105 Z"/>
</clipPath>
<clipPath clipPathUnits="userSpaceOnUse" id="clipPath50">
<path d="M166 256 L187 256 L187 271 L166 271 L166 256 Z"/>
</clipPath>
<clipPath clipPathUnits="userSpaceOnUse" id="clipPath51">
<path d="M89 279 L118 279 L118 294 L89 294 L89 279 Z"/>
</clipPath>
<clipPath clipPathUnits="userSpaceOnUse" id="clipPath52">
<path d="M133 250 L143 250 L143 259 L133 259 L133 250 Z"/>
</clipPath>
<clipPath clipPathUnits="userSpaceOnUse" id="clipPath53">
<path d="M76 267 L85 267 L85 277 L76 277 L76 267 Z"/>
</clipPath>
<clipPath clipPathUnits="userSpaceOnUse" id="clipPath54">
<path d="M135 227 L164 227 L164 242 L135 242 L135 227 Z"/>
</clipPath>
<clipPath clipPathUnits="userSpaceOnUse" id="clipPath55">
<path d="M212 227 L224 227 L224 242 L212 242 L212 227 Z"/>
</clipPath>
<clipPath clipPathUnits="userSpaceOnUse" id="clipPath56">
<path d="M133 220 L143 220 L143 229 L133 229 L133 220 Z"/>
</clipPath>
<clipPath clipPathUnits="userSpaceOnUse" id="clipPath57">
<path d="M222 220 L232 220 L232 229 L222 229 L222 220 Z"/>
</clipPath>
</defs>
<g fill="rgb(131,122,133)" font-family="'Segoe UI'" stroke-linejoin="round" stroke="rgb(131,122,133)" font-weight="bold" stroke-width="0" stroke-miterlimit="0">
<rect x="14" y="371" clip-path="url(#clipPath1)" width="118" rx="2.5" opacity="0.2549" ry="2.5" height="98" stroke="none"/>
<rect x="15" y="372" clip-path="url(#clipPath1)" width="118" rx="2.5" opacity="0.2549" ry="2.5" height="98" stroke="none"/>
<rect x="13" y="370" clip-path="url(#clipPath2)" fill="url(#linearGradient1)" width="118" rx="2.5" ry="2.5" height="98" stroke="none"/>
</g>
<g stroke-width="1.1" font-weight="bold" font-family="'Segoe UI'" stroke-linecap="butt">
<rect x="13" y="370" clip-path="url(#clipPath2)" fill="none" width="117" rx="2.5" ry="2.5" height="97"/>
<text xml:space="preserve" x="67" y="388" clip-path="url(#clipPath3)" stroke="none">D</text>
<text x="18" font-size="11" y="409" clip-path="url(#clipPath4)" stroke="none" font-weight="normal" xml:space="preserve">+ c : C</text>
<text x="18" font-size="11" y="422" clip-path="url(#clipPath5)" stroke="none" font-weight="normal" xml:space="preserve">+ a : A</text>
<line clip-path="url(#clipPath6)" fill="none" x1="14" x2="130" y1="395" y2="395"/>
<rect x="651" y="176" clip-path="url(#clipPath7)" fill="rgb(131,122,133)" width="124" rx="2.5" opacity="0.2549" ry="2.5" height="98" stroke="none"/>
<rect x="652" y="177" clip-path="url(#clipPath7)" fill="rgb(131,122,133)" width="124" rx="2.5" opacity="0.2549" ry="2.5" height="98" stroke="none"/>
<rect x="650" y="175" clip-path="url(#clipPath8)" fill="url(#linearGradient2)" width="124" rx="2.5" ry="2.5" height="98" stroke="none"/>
<rect x="650" y="175" clip-path="url(#clipPath8)" fill="none" width="123" rx="2.5" ry="2.5" height="97"/>
<text xml:space="preserve" x="708" y="193" clip-path="url(#clipPath9)" stroke="none">A</text>
<text x="655" font-size="11" y="214" clip-path="url(#clipPath10)" stroke="none" font-weight="normal" xml:space="preserve">q : IImpl</text>
<text x="655" font-size="11" y="227" clip-path="url(#clipPath11)" stroke="none" font-weight="normal" xml:space="preserve">+ b : B</text>
<text x="655" font-size="11" y="240" clip-path="url(#clipPath12)" stroke="none" font-weight="normal" xml:space="preserve">+ assignP(_p : Integer)</text>
<line clip-path="url(#clipPath13)" fill="none" x1="651" x2="773" y1="200" y2="200"/>
<rect x="441" y="176" clip-path="url(#clipPath14)" fill="rgb(131,122,133)" width="124" rx="2.5" opacity="0.2549" ry="2.5" height="98" stroke="none"/>
<rect x="442" y="177" clip-path="url(#clipPath14)" fill="rgb(131,122,133)" width="124" rx="2.5" opacity="0.2549" ry="2.5" height="98" stroke="none"/>
<rect x="440" y="175" clip-path="url(#clipPath15)" fill="url(#linearGradient3)" width="124" rx="2.5" ry="2.5" height="98" stroke="none"/>
<rect x="440" y="175" clip-path="url(#clipPath15)" fill="none" width="123" rx="2.5" ry="2.5" height="97"/>
<text xml:space="preserve" x="498" y="193" clip-path="url(#clipPath16)" stroke="none">C</text>
<text x="445" font-size="11" y="214" clip-path="url(#clipPath17)" stroke="none" font-weight="normal" xml:space="preserve">q : ~IImpl</text>
<text x="445" font-size="11" y="227" clip-path="url(#clipPath18)" stroke="none" font-weight="normal" xml:space="preserve">+ assignP(_p : Integer)</text>
<text x="445" font-size="11" y="240" clip-path="url(#clipPath19)" stroke="none" font-weight="normal" xml:space="preserve">+ callSetP(v : Integer)</text>
<line clip-path="url(#clipPath20)" fill="none" x1="441" x2="563" y1="200" y2="200"/>
<rect x="231" y="176" clip-path="url(#clipPath21)" fill="rgb(131,122,133)" width="124" rx="2.5" opacity="0.2549" ry="2.5" height="98" stroke="none"/>
<rect x="232" y="177" clip-path="url(#clipPath21)" fill="rgb(131,122,133)" width="124" rx="2.5" opacity="0.2549" ry="2.5" height="98" stroke="none"/>
<rect x="230" y="175" clip-path="url(#clipPath22)" fill="url(#linearGradient4)" width="124" rx="2.5" ry="2.5" height="98" stroke="none"/>
<rect x="230" y="175" clip-path="url(#clipPath22)" fill="none" width="123" rx="2.5" ry="2.5" height="97"/>
<text xml:space="preserve" x="288" y="193" clip-path="url(#clipPath23)" stroke="none">B</text>
<text x="235" font-size="11" y="214" clip-path="url(#clipPath24)" stroke="none" font-weight="normal" xml:space="preserve">+ p : Integer</text>
<text x="235" font-size="11" y="227" clip-path="url(#clipPath25)" stroke="none" font-weight="normal" xml:space="preserve">+ iImpl : IImpl</text>
<text x="235" font-size="11" y="240" clip-path="url(#clipPath26)" stroke="none" font-weight="normal" xml:space="preserve">+ assignP(_p : Integer)</text>
<line clip-path="url(#clipPath27)" fill="none" x1="231" x2="353" y1="200" y2="200"/>
<rect x="11" y="171" clip-path="url(#clipPath28)" fill="rgb(131,122,133)" width="124" rx="2.5" opacity="0.2549" ry="2.5" height="98" stroke="none"/>
<rect x="12" y="172" clip-path="url(#clipPath28)" fill="rgb(131,122,133)" width="124" rx="2.5" opacity="0.2549" ry="2.5" height="98" stroke="none"/>
<rect x="10" y="170" clip-path="url(#clipPath29)" fill="url(#linearGradient5)" width="124" rx="2.5" ry="2.5" height="98" stroke="none"/>
<rect x="10" y="170" clip-path="url(#clipPath29)" fill="none" width="123" rx="2.5" ry="2.5" height="97"/>
<text xml:space="preserve" x="57" y="188" clip-path="url(#clipPath30)" stroke="none">IImpl</text>
<text x="15" font-size="11" y="209" clip-path="url(#clipPath31)" stroke="none" font-weight="normal" xml:space="preserve">+ b : B</text>
<text x="15" font-size="11" y="222" clip-path="url(#clipPath32)" stroke="none" font-weight="normal" xml:space="preserve">+ left : IImpl</text>
<text x="15" font-size="11" y="235" clip-path="url(#clipPath33)" stroke="none" font-weight="normal" xml:space="preserve">+ right : IImpl</text>
<text x="15" font-size="11" y="248" clip-path="url(#clipPath34)" stroke="none" font-weight="normal" xml:space="preserve">+ assignP(_p : Integer)</text>
<line clip-path="url(#clipPath35)" fill="none" x1="11" x2="133" y1="195" y2="195"/>
<rect x="231" y="11" clip-path="url(#clipPath36)" fill="rgb(131,122,133)" width="124" rx="2.5" opacity="0.2549" ry="2.5" height="98" stroke="none"/>
<rect x="232" y="12" clip-path="url(#clipPath36)" fill="rgb(131,122,133)" width="124" rx="2.5" opacity="0.2549" ry="2.5" height="98" stroke="none"/>
<rect x="230" y="10" clip-path="url(#clipPath37)" fill="url(#linearGradient6)" width="124" rx="2.5" ry="2.5" height="98" stroke="none"/>
<rect x="230" y="10" clip-path="url(#clipPath37)" fill="none" width="123" rx="2.5" ry="2.5" height="97"/>
<text xml:space="preserve" x="259" y="28" clip-path="url(#clipPath38)" stroke="none">«Interface»&#13;</text>
<text xml:space="preserve" x="259" y="43" clip-path="url(#clipPath38)" stroke="none">I</text>
<text x="235" font-size="11" y="64" clip-path="url(#clipPath39)" stroke="none" font-weight="normal" xml:space="preserve">+ assignP(_p : Integer)</text>
<line clip-path="url(#clipPath40)" fill="none" x1="231" x2="353" y1="50" y2="50"/>
<rect x="231" y="371" clip-path="url(#clipPath41)" fill="rgb(131,122,133)" width="190" rx="2.5" opacity="0.2549" ry="2.5" height="98" stroke="none"/>
<rect x="232" y="372" clip-path="url(#clipPath41)" fill="rgb(131,122,133)" width="190" rx="2.5" opacity="0.2549" ry="2.5" height="98" stroke="none"/>
<rect x="230" y="370" clip-path="url(#clipPath42)" fill="url(#linearGradient7)" width="190" rx="2.5" ry="2.5" height="98" stroke="none"/>
<rect x="230" y="370" clip-path="url(#clipPath42)" fill="none" width="189" rx="2.5" ry="2.5" height="97"/>
<text xml:space="preserve" x="307" y="388" clip-path="url(#clipPath43)" stroke="none">Tester</text>
<text x="235" font-size="11" y="409" clip-path="url(#clipPath44)" stroke="none" font-weight="normal" xml:space="preserve">+ testCallDelegation(v : Integer) : D</text>
<line clip-path="url(#clipPath45)" fill="none" x1="231" x2="419" y1="395" y2="395"/>
<line clip-path="url(#clipPath46)" fill="none" x1="503" x2="293" y1="175" y2="108" stroke-dasharray="5,5"/>
</g>
<g stroke-linecap="butt" font-size="11" fill="white" font-family="'Segoe UI'" stroke-dasharray="5,5" stroke="white" stroke-width="1.1">
<polygon clip-path="url(#clipPath47)" points=" 293 108 302 107 299 114" stroke="none"/>
<polygon fill="none" stroke-dasharray="none" clip-path="url(#clipPath47)" points=" 293 108 302 107 299 114" stroke="black"/>
<line clip-path="url(#clipPath46)" fill="none" x1="293" x2="293" y1="175" y2="108" stroke="black"/>
<polygon clip-path="url(#clipPath48)" points=" 293 108 297 116 289 116" stroke="none"/>
<polygon fill="none" stroke-dasharray="none" clip-path="url(#clipPath48)" points=" 293 108 297 116 289 116" stroke="black"/>
<line clip-path="url(#clipPath46)" fill="none" x1="73" x2="293" y1="170" y2="108" stroke="black"/>
<polygon clip-path="url(#clipPath49)" points=" 293 108 286 114 284 106" stroke="none"/>
<polygon fill="none" stroke-dasharray="none" clip-path="url(#clipPath49)" points=" 293 108 286 114 284 106" stroke="black"/>
<line clip-path="url(#clipPath46)" fill="none" x1="134" x2="185" y1="254" y2="254" stroke-dasharray="none" stroke="black"/>
<line clip-path="url(#clipPath46)" fill="none" x1="185" x2="185" y1="254" y2="295" stroke-dasharray="none" stroke="black"/>
<line clip-path="url(#clipPath46)" fill="none" x1="185" x2="80" y1="295" y2="295" stroke-dasharray="none" stroke="black"/>
<line clip-path="url(#clipPath46)" fill="none" x1="80" x2="80" y1="295" y2="268" stroke-dasharray="none" stroke="black"/>
<text x="167" y="269" clip-path="url(#clipPath50)" fill="black" stroke-dasharray="none" stroke="none" xml:space="preserve">left</text>
<text x="90" y="292" clip-path="url(#clipPath51)" fill="black" stroke-dasharray="none" stroke="none" xml:space="preserve">right</text>
<line clip-path="url(#clipPath52)" fill="none" x1="141" x2="134" y1="251" y2="254" stroke-dasharray="none" stroke="black"/>
<line clip-path="url(#clipPath52)" fill="none" x1="134" x2="141" y1="254" y2="257" stroke-dasharray="none" stroke="black"/>
<line clip-path="url(#clipPath53)" fill="none" x1="83" x2="80" y1="275" y2="268" stroke-dasharray="none" stroke="black"/>
<line clip-path="url(#clipPath53)" fill="none" x1="80" x2="77" y1="268" y2="275" stroke-dasharray="none" stroke="black"/>
<line clip-path="url(#clipPath46)" fill="none" x1="134" x2="230" y1="224" y2="224" stroke-dasharray="none" stroke="black"/>
<text x="136" y="240" clip-path="url(#clipPath54)" fill="black" stroke-dasharray="none" stroke="none" xml:space="preserve">iImpl</text>
<text x="213" y="240" clip-path="url(#clipPath55)" fill="black" stroke-dasharray="none" stroke="none" xml:space="preserve">b</text>
<line clip-path="url(#clipPath56)" fill="none" x1="141" x2="134" y1="221" y2="224" stroke-dasharray="none" stroke="black"/>
<line clip-path="url(#clipPath56)" fill="none" x1="134" x2="141" y1="224" y2="227" stroke-dasharray="none" stroke="black"/>
<line clip-path="url(#clipPath57)" fill="none" x1="223" x2="230" y1="227" y2="224" stroke-dasharray="none" stroke="black"/>
<line clip-path="url(#clipPath57)" fill="none" x1="230" x2="223" y1="224" y2="221" stroke-dasharray="none" stroke="black"/>
</g>
</g>
</svg>
