<?xml version="1.0" encoding="UTF-8"?><svg xmlns="http://www.w3.org/2000/svg" xmlns:xlink="http://www.w3.org/1999/xlink" stroke-dasharray="none" shape-rendering="auto" font-family="'Dialog'" width="655" text-rendering="auto" fill-opacity="1" contentScriptType="text/ecmascript" color-interpolation="auto" color-rendering="auto" preserveAspectRatio="xMidYMid meet" font-size="12" viewBox="0 0 655 428" fill="black" stroke="black" image-rendering="auto" stroke-miterlimit="10" zoomAndPan="magnify" version="1.0" stroke-linecap="square" stroke-linejoin="miter" contentStyleType="text/css" font-style="normal" height="428" stroke-width="1" stroke-dashoffset="0" font-weight="normal" stroke-opacity="1">
<!--Generated by the Batik Graphics2D SVG Generator-->
<defs id="genericDefs"/>
<g>
<defs id="defs1">
<linearGradient x1="139" x2="517" y1="10" gradientUnits="userSpaceOnUse" y2="416" xlink:type="simple" xlink:actuate="onLoad" id="linearGradient1" xlink:show="other" spreadMethod="pad">
<stop stop-opacity="1" stop-color="white" offset="0%"/>
<stop stop-opacity="1" stop-color="white" offset="100%"/>
</linearGradient>
<linearGradient x1="297" x2="423" y1="40" gradientUnits="userSpaceOnUse" y2="126" xlink:type="simple" xlink:actuate="onLoad" id="linearGradient2" xlink:show="other" spreadMethod="pad">
<stop stop-opacity="1" stop-color="white" offset="0%"/>
<stop stop-opacity="1" stop-color="white" offset="100%"/>
</linearGradient>
<linearGradient x1="252" x2="400" y1="175" gradientUnits="userSpaceOnUse" y2="283" xlink:type="simple" xlink:actuate="onLoad" id="linearGradient3" xlink:show="other" spreadMethod="pad">
<stop stop-opacity="1" stop-color="white" offset="0%"/>
<stop stop-opacity="1" stop-color="white" offset="100%"/>
</linearGradient>
<linearGradient x1="252" x2="400" y1="300" gradientUnits="userSpaceOnUse" y2="408" xlink:type="simple" xlink:actuate="onLoad" id="linearGradient4" xlink:show="other" spreadMethod="pad">
<stop stop-opacity="1" stop-color="white" offset="0%"/>
<stop stop-opacity="1" stop-color="white" offset="100%"/>
</linearGradient>
<clipPath clipPathUnits="userSpaceOnUse" id="clipPath1">
<path d="M151 9 L506 9 L506 419 L151 419 L151 9 Z"/>
</clipPath>
<clipPath clipPathUnits="userSpaceOnUse" id="clipPath2">
<path d="M151 9 L504 9 L504 417 L151 417 L151 9 Z"/>
</clipPath>
<clipPath clipPathUnits="userSpaceOnUse" id="clipPath3">
<path d="M270 14 L387 14 L387 31 L270 31 L270 14 Z"/>
</clipPath>
<clipPath clipPathUnits="userSpaceOnUse" id="clipPath4">
<path d="M296 59 L426 59 L426 109 L296 109 L296 59 Z"/>
</clipPath>
<clipPath clipPathUnits="userSpaceOnUse" id="clipPath5">
<path d="M296 59 L424 59 L424 107 L296 107 L296 59 Z"/>
</clipPath>
<clipPath clipPathUnits="userSpaceOnUse" id="clipPath6">
<path d="M339 64 L383 64 L383 79 L339 79 L339 64 Z"/>
</clipPath>
<clipPath clipPathUnits="userSpaceOnUse" id="clipPath7">
<path d="M351 97 L373 97 L373 119 L351 119 L351 97 Z"/>
</clipPath>
<clipPath clipPathUnits="userSpaceOnUse" id="clipPath8">
<path d="M372 97 L421 97 L421 112 L372 112 L372 97 Z"/>
</clipPath>
<clipPath clipPathUnits="userSpaceOnUse" id="clipPath9">
<path d="M236 144 L474 144 L474 156 L236 156 L236 144 Z"/>
</clipPath>
<clipPath clipPathUnits="userSpaceOnUse" id="clipPath10">
<path d="M251 194 L403 194 L403 266 L251 266 L251 194 Z"/>
</clipPath>
<clipPath clipPathUnits="userSpaceOnUse" id="clipPath11">
<path d="M251 194 L401 194 L401 264 L251 264 L251 194 Z"/>
</clipPath>
<clipPath clipPathUnits="userSpaceOnUse" id="clipPath12">
<path d="M299 199 L355 199 L355 214 L299 214 L299 199 Z"/>
</clipPath>
<clipPath clipPathUnits="userSpaceOnUse" id="clipPath13">
<path d="M311 182 L333 182 L333 204 L311 204 L311 182 Z"/>
</clipPath>
<clipPath clipPathUnits="userSpaceOnUse" id="clipPath14">
<path d="M332 182 L384 182 L384 197 L332 197 L332 182 Z"/>
</clipPath>
<clipPath clipPathUnits="userSpaceOnUse" id="clipPath15">
<path d="M311 254 L333 254 L333 276 L311 276 L311 254 Z"/>
</clipPath>
<clipPath clipPathUnits="userSpaceOnUse" id="clipPath16">
<path d="M332 254 L388 254 L388 269 L332 269 L332 254 Z"/>
</clipPath>
<clipPath clipPathUnits="userSpaceOnUse" id="clipPath17">
<path d="M251 319 L403 319 L403 391 L251 391 L251 319 Z"/>
</clipPath>
<clipPath clipPathUnits="userSpaceOnUse" id="clipPath18">
<path d="M251 319 L401 319 L401 389 L251 389 L251 319 Z"/>
</clipPath>
<clipPath clipPathUnits="userSpaceOnUse" id="clipPath19">
<path d="M271 324 L383 324 L383 339 L271 339 L271 324 Z"/>
</clipPath>
<clipPath clipPathUnits="userSpaceOnUse" id="clipPath20">
<path d="M239 339 L261 339 L261 361 L239 361 L239 339 Z"/>
</clipPath>
<clipPath clipPathUnits="userSpaceOnUse" id="clipPath21">
<path d="M187 346 L242 346 L242 361 L187 361 L187 346 Z"/>
</clipPath>
<clipPath clipPathUnits="userSpaceOnUse" id="clipPath22">
<path d="M311 307 L333 307 L333 329 L311 329 L311 307 Z"/>
</clipPath>
<clipPath clipPathUnits="userSpaceOnUse" id="clipPath23">
<path d="M332 307 L401 307 L401 322 L332 322 L332 307 Z"/>
</clipPath>
<clipPath clipPathUnits="userSpaceOnUse" id="clipPath24">
<path d="M9 324 L161 324 L161 376 L9 376 L9 324 Z"/>
</clipPath>
<clipPath clipPathUnits="userSpaceOnUse" id="clipPath25">
<path d="M10 325 L162 325 L162 375 L10 375 L10 325 Z"/>
</clipPath>
<clipPath clipPathUnits="userSpaceOnUse" id="clipPath26">
<path d="M494 337 L646 337 L646 389 L494 389 L494 337 Z"/>
</clipPath>
<clipPath clipPathUnits="userSpaceOnUse" id="clipPath27">
<path d="M495 338 L647 338 L647 388 L495 388 L495 338 Z"/>
</clipPath>
<clipPath clipPathUnits="userSpaceOnUse" id="clipPath28">
<path d="M-1 -1 L656 -1 L656 429 L-1 429 L-1 -1 Z"/>
</clipPath>
<clipPath clipPathUnits="userSpaceOnUse" id="clipPath29">
<path d="M487 364 L497 364 L497 373 L487 373 L487 364 Z"/>
</clipPath>
<clipPath clipPathUnits="userSpaceOnUse" id="clipPath30">
<path d="M358 137 L367 137 L367 147 L358 147 L358 137 Z"/>
</clipPath>
<clipPath clipPathUnits="userSpaceOnUse" id="clipPath31">
<path d="M318 175 L327 175 L327 185 L318 185 L318 175 Z"/>
</clipPath>
<clipPath clipPathUnits="userSpaceOnUse" id="clipPath32">
<path d="M318 300 L327 300 L327 310 L318 310 L318 300 Z"/>
</clipPath>
<clipPath clipPathUnits="userSpaceOnUse" id="clipPath33">
<path d="M232 344 L242 344 L242 353 L232 353 L232 344 Z"/>
</clipPath>
</defs>
<g fill="rgb(131,122,133)" font-family="'Segoe UI'" stroke-linejoin="round" stroke="rgb(131,122,133)" stroke-width="0" stroke-miterlimit="0">
<rect x="153" y="11" clip-path="url(#clipPath1)" width="351" rx="12.5" opacity="0.2549" ry="12.5" height="406" stroke="none"/>
<rect x="154" y="12" clip-path="url(#clipPath1)" width="351" rx="12.5" opacity="0.2549" ry="12.5" height="406" stroke="none"/>
<rect x="152" y="10" clip-path="url(#clipPath2)" fill="url(#linearGradient1)" width="351" rx="12.5" ry="12.5" height="406" stroke="none"/>
</g>
<g stroke-width="1.1" font-family="'Segoe UI'" stroke-linecap="butt">
<rect x="152" y="10" clip-path="url(#clipPath2)" fill="none" width="350" rx="12.5" ry="12.5" height="405"/>
<text xml:space="preserve" x="271" y="28" clip-path="url(#clipPath3)" stroke="none">actTestCallDelegation</text>
</g>
<g stroke-linecap="butt" font-size="11" fill="rgb(131,122,133)" font-family="'Segoe UI'" stroke="rgb(131,122,133)" font-weight="bold" stroke-width="1.1">
<rect x="298" y="61" clip-path="url(#clipPath4)" width="126" rx="12.5" opacity="0.2549" ry="12.5" height="46" stroke="none"/>
<rect x="299" y="62" clip-path="url(#clipPath4)" width="126" rx="12.5" opacity="0.2549" ry="12.5" height="46" stroke="none"/>
<rect x="297" y="60" clip-path="url(#clipPath5)" fill="url(#linearGradient2)" width="126" rx="12.5" ry="12.5" height="46" stroke="none"/>
<rect x="297" y="60" clip-path="url(#clipPath5)" fill="none" width="125" rx="12.5" ry="12.5" height="45" stroke="black"/>
<text x="340" y="77" clip-path="url(#clipPath6)" fill="black" stroke="none" xml:space="preserve">CreateC</text>
</g>
<g fill="white" stroke-width="1.1" font-family="'Segoe UI'" stroke-linecap="butt" stroke="white">
<rect x="352" y="98" clip-path="url(#clipPath7)" width="20" height="20" stroke="none"/>
<rect x="352" y="98" clip-path="url(#clipPath7)" fill="none" width="19" height="19" stroke="black"/>
<text x="373" font-size="11" y="110" clip-path="url(#clipPath8)" fill="black" stroke="none" xml:space="preserve">result : C</text>
<rect x="237" y="145" clip-path="url(#clipPath9)" fill="black" width="236" height="10" stroke="none"/>
<rect x="237" y="145" clip-path="url(#clipPath9)" fill="none" width="235" height="9" stroke="black" stroke-width="0.1"/>
</g>
<g stroke-linecap="butt" font-size="11" fill="rgb(131,122,133)" font-family="'Segoe UI'" stroke="rgb(131,122,133)" font-weight="bold" stroke-width="0.1">
<rect x="253" y="196" clip-path="url(#clipPath10)" width="148" rx="12.5" opacity="0.2549" ry="12.5" height="68" stroke="none"/>
<rect x="254" y="197" clip-path="url(#clipPath10)" width="148" rx="12.5" opacity="0.2549" ry="12.5" height="68" stroke="none"/>
<rect x="252" y="195" clip-path="url(#clipPath11)" fill="url(#linearGradient3)" width="148" rx="12.5" ry="12.5" height="68" stroke="none"/>
<rect x="252" y="195" clip-path="url(#clipPath11)" fill="none" width="147" rx="12.5" ry="12.5" height="67" stroke="black" stroke-width="1.1"/>
<text x="300" y="212" clip-path="url(#clipPath12)" fill="black" stroke="none" stroke-width="1.1" xml:space="preserve">ReadPofC</text>
</g>
<g fill="white" stroke-width="1.1" font-family="'Segoe UI'" stroke-linecap="butt" stroke="white">
<rect x="312" y="183" clip-path="url(#clipPath13)" width="20" height="20" stroke="none"/>
<rect x="312" y="183" clip-path="url(#clipPath13)" fill="none" width="19" height="19" stroke="black"/>
<text x="333" font-size="11" y="195" clip-path="url(#clipPath14)" fill="black" stroke="none" xml:space="preserve">object : C</text>
<rect x="312" y="255" clip-path="url(#clipPath15)" width="20" height="20" stroke="none"/>
<rect x="312" y="255" clip-path="url(#clipPath15)" fill="none" width="19" height="19" stroke="black"/>
<text x="333" font-size="11" y="267" clip-path="url(#clipPath16)" fill="black" stroke="none" xml:space="preserve">out : IImpl</text>
</g>
<g stroke-linecap="butt" font-size="11" fill="rgb(131,122,133)" font-family="'Segoe UI'" stroke="rgb(131,122,133)" font-weight="bold" stroke-width="1.1">
<rect x="253" y="321" clip-path="url(#clipPath17)" width="148" rx="12.5" opacity="0.2549" ry="12.5" height="68" stroke="none"/>
<rect x="254" y="322" clip-path="url(#clipPath17)" width="148" rx="12.5" opacity="0.2549" ry="12.5" height="68" stroke="none"/>
<rect x="252" y="320" clip-path="url(#clipPath18)" fill="url(#linearGradient4)" width="148" rx="12.5" ry="12.5" height="68" stroke="none"/>
<rect x="252" y="320" clip-path="url(#clipPath18)" fill="none" width="147" rx="12.5" ry="12.5" height="67" stroke="black"/>
<text x="272" y="337" clip-path="url(#clipPath19)" fill="black" stroke="none" xml:space="preserve">callAssignP : assignP</text>
</g>
<g fill="white" stroke-width="1.1" font-family="'Segoe UI'" stroke-linecap="butt" stroke="white">
<rect x="240" y="340" clip-path="url(#clipPath20)" width="20" height="20" stroke="none"/>
<rect x="240" y="340" clip-path="url(#clipPath20)" fill="none" width="19" height="19" stroke="black"/>
<text x="188" font-size="11" y="359" clip-path="url(#clipPath21)" fill="black" stroke="none" xml:space="preserve">v : Integer</text>
<rect x="312" y="308" clip-path="url(#clipPath22)" width="20" height="20" stroke="none"/>
<rect x="312" y="308" clip-path="url(#clipPath22)" fill="none" width="19" height="19" stroke="black"/>
<text x="333" font-size="11" y="320" clip-path="url(#clipPath23)" fill="black" stroke="none" xml:space="preserve">target : IImpl</text>
<rect x="10" y="325" clip-path="url(#clipPath24)" width="150" height="50" stroke="none"/>
<rect x="10" y="325" clip-path="url(#clipPath24)" fill="none" width="149" height="49" stroke="black"/>
<text x="59" font-size="11" y="355" clip-path="url(#clipPath25)" fill="black" stroke="none" xml:space="preserve">v : Integer</text>
<rect x="495" y="338" clip-path="url(#clipPath26)" width="150" height="50" stroke="none"/>
<rect x="495" y="338" clip-path="url(#clipPath26)" fill="none" width="149" height="49" stroke="black"/>
<text x="553" font-size="11" y="368" clip-path="url(#clipPath27)" fill="black" stroke="none" xml:space="preserve">out : C</text>
<line clip-path="url(#clipPath28)" fill="none" x1="457" x2="457" y1="155" y2="368" stroke="black"/>
<line clip-path="url(#clipPath28)" fill="none" x1="457" x2="495" y1="368" y2="368" stroke="black"/>
<line clip-path="url(#clipPath29)" fill="none" x1="488" x2="495" y1="371" y2="368" stroke="black"/>
<line clip-path="url(#clipPath29)" fill="none" x1="495" x2="488" y1="368" y2="365" stroke="black"/>
<line clip-path="url(#clipPath28)" fill="none" x1="362" x2="362" y1="118" y2="145" stroke="black"/>
<line clip-path="url(#clipPath30)" fill="none" x1="359" x2="362" y1="138" y2="145" stroke="black"/>
<line clip-path="url(#clipPath30)" fill="none" x1="362" x2="365" y1="145" y2="138" stroke="black"/>
<line clip-path="url(#clipPath28)" fill="none" x1="322" x2="322" y1="155" y2="183" stroke="black"/>
<line clip-path="url(#clipPath31)" fill="none" x1="319" x2="322" y1="176" y2="183" stroke="black"/>
<line clip-path="url(#clipPath31)" fill="none" x1="322" x2="325" y1="183" y2="176" stroke="black"/>
<line clip-path="url(#clipPath28)" fill="none" x1="322" x2="322" y1="275" y2="308" stroke="black"/>
<line clip-path="url(#clipPath32)" fill="none" x1="319" x2="322" y1="301" y2="308" stroke="black"/>
<line clip-path="url(#clipPath32)" fill="none" x1="322" x2="325" y1="308" y2="301" stroke="black"/>
<line clip-path="url(#clipPath28)" fill="none" x1="160" x2="240" y1="348" y2="348" stroke="black"/>
<line clip-path="url(#clipPath33)" fill="none" x1="233" x2="240" y1="351" y2="348" stroke="black"/>
<line clip-path="url(#clipPath33)" fill="none" x1="240" x2="233" y1="348" y2="345" stroke="black"/>
<line clip-path="url(#clipPath28)" fill="none" x1="362" x2="362" y1="118" y2="145" stroke="black"/>
<line clip-path="url(#clipPath30)" fill="none" x1="359" x2="362" y1="138" y2="145" stroke="black"/>
<line clip-path="url(#clipPath30)" fill="none" x1="362" x2="365" y1="145" y2="138" stroke="black"/>
<line clip-path="url(#clipPath28)" fill="none" x1="457" x2="457" y1="155" y2="368" stroke="black"/>
<line clip-path="url(#clipPath28)" fill="none" x1="457" x2="495" y1="368" y2="368" stroke="black"/>
<line clip-path="url(#clipPath29)" fill="none" x1="488" x2="495" y1="371" y2="368" stroke="black"/>
<line clip-path="url(#clipPath29)" fill="none" x1="495" x2="488" y1="368" y2="365" stroke="black"/>
<line clip-path="url(#clipPath28)" fill="none" x1="322" x2="322" y1="155" y2="183" stroke="black"/>
<line clip-path="url(#clipPath31)" fill="none" x1="319" x2="322" y1="176" y2="183" stroke="black"/>
<line clip-path="url(#clipPath31)" fill="none" x1="322" x2="325" y1="183" y2="176" stroke="black"/>
<line clip-path="url(#clipPath28)" fill="none" x1="322" x2="322" y1="275" y2="308" stroke="black"/>
<line clip-path="url(#clipPath32)" fill="none" x1="319" x2="322" y1="301" y2="308" stroke="black"/>
<line clip-path="url(#clipPath32)" fill="none" x1="322" x2="325" y1="308" y2="301" stroke="black"/>
<line clip-path="url(#clipPath28)" fill="none" x1="160" x2="240" y1="348" y2="348" stroke="black"/>
<line clip-path="url(#clipPath33)" fill="none" x1="233" x2="240" y1="351" y2="348" stroke="black"/>
<line clip-path="url(#clipPath33)" fill="none" x1="240" x2="233" y1="348" y2="345" stroke="black"/>
</g>
</g>
</svg>
