<?xml version="1.0" encoding="UTF-8"?><svg xmlns="http://www.w3.org/2000/svg" xmlns:xlink="http://www.w3.org/1999/xlink" stroke-dasharray="none" shape-rendering="auto" font-family="'Dialog'" width="813" text-rendering="auto" fill-opacity="1" contentScriptType="text/ecmascript" color-interpolation="auto" color-rendering="auto" preserveAspectRatio="xMidYMid meet" font-size="12" viewBox="0 0 813 337" fill="black" stroke="black" image-rendering="auto" stroke-miterlimit="10" zoomAndPan="magnify" version="1.0" stroke-linecap="square" stroke-linejoin="miter" contentStyleType="text/css" font-style="normal" height="337" stroke-width="1" stroke-dashoffset="0" font-weight="normal" stroke-opacity="1">
<!--Generated by the Batik Graphics2D SVG Generator-->
<defs id="genericDefs"/>
<g>
<defs id="defs1">
<linearGradient x1="503" x2="621" y1="170" gradientUnits="userSpaceOnUse" y2="278" xlink:type="simple" xlink:actuate="onLoad" id="linearGradient1" xlink:show="other" spreadMethod="pad">
<stop stop-opacity="1" stop-color="white" offset="0%"/>
<stop stop-opacity="1" stop-color="white" offset="100%"/>
</linearGradient>
<linearGradient x1="318" x2="436" y1="170" gradientUnits="userSpaceOnUse" y2="278" xlink:type="simple" xlink:actuate="onLoad" id="linearGradient2" xlink:show="other" spreadMethod="pad">
<stop stop-opacity="1" stop-color="white" offset="0%"/>
<stop stop-opacity="1" stop-color="white" offset="100%"/>
</linearGradient>
<linearGradient x1="683" x2="801" y1="170" gradientUnits="userSpaceOnUse" y2="278" xlink:type="simple" xlink:actuate="onLoad" id="linearGradient3" xlink:show="other" spreadMethod="pad">
<stop stop-opacity="1" stop-color="white" offset="0%"/>
<stop stop-opacity="1" stop-color="white" offset="100%"/>
</linearGradient>
<linearGradient x1="73" x2="191" y1="165" gradientUnits="userSpaceOnUse" y2="273" xlink:type="simple" xlink:actuate="onLoad" id="linearGradient4" xlink:show="other" spreadMethod="pad">
<stop stop-opacity="1" stop-color="white" offset="0%"/>
<stop stop-opacity="1" stop-color="white" offset="100%"/>
</linearGradient>
<linearGradient x1="208" x2="326" y1="5" gradientUnits="userSpaceOnUse" y2="113" xlink:type="simple" xlink:actuate="onLoad" id="linearGradient5" xlink:show="other" spreadMethod="pad">
<stop stop-opacity="1" stop-color="white" offset="0%"/>
<stop stop-opacity="1" stop-color="white" offset="100%"/>
</linearGradient>
<linearGradient x1="558" x2="747" y1="-12" gradientUnits="userSpaceOnUse" y2="131" xlink:type="simple" xlink:actuate="onLoad" id="linearGradient6" xlink:show="other" spreadMethod="pad">
<stop stop-opacity="1" stop-color="white" offset="0%"/>
<stop stop-opacity="1" stop-color="white" offset="100%"/>
</linearGradient>
<clipPath clipPathUnits="userSpaceOnUse" id="clipPath1">
<path d="M502 174 L624 174 L624 276 L502 276 L502 174 Z"/>
</clipPath>
<clipPath clipPathUnits="userSpaceOnUse" id="clipPath2">
<path d="M502 174 L622 174 L622 274 L502 274 L502 174 Z"/>
</clipPath>
<clipPath clipPathUnits="userSpaceOnUse" id="clipPath3">
<path d="M557 179 L571 179 L571 196 L557 196 L557 179 Z"/>
</clipPath>
<clipPath clipPathUnits="userSpaceOnUse" id="clipPath4">
<path d="M507 201 L544 201 L544 216 L507 216 L507 201 Z"/>
</clipPath>
<clipPath clipPathUnits="userSpaceOnUse" id="clipPath5">
<path d="M507 214 L552 214 L552 229 L507 229 L507 214 Z"/>
</clipPath>
<clipPath clipPathUnits="userSpaceOnUse" id="clipPath6">
<path d="M503 199 L621 199 L621 273 L503 273 L503 199 Z"/>
</clipPath>
<clipPath clipPathUnits="userSpaceOnUse" id="clipPath7">
<path d="M317 174 L439 174 L439 276 L317 276 L317 174 Z"/>
</clipPath>
<clipPath clipPathUnits="userSpaceOnUse" id="clipPath8">
<path d="M317 174 L437 174 L437 274 L317 274 L317 174 Z"/>
</clipPath>
<clipPath clipPathUnits="userSpaceOnUse" id="clipPath9">
<path d="M372 179 L386 179 L386 196 L372 196 L372 179 Z"/>
</clipPath>
<clipPath clipPathUnits="userSpaceOnUse" id="clipPath10">
<path d="M322 201 L390 201 L390 216 L322 216 L322 201 Z"/>
</clipPath>
<clipPath clipPathUnits="userSpaceOnUse" id="clipPath11">
<path d="M322 214 L376 214 L376 229 L322 229 L322 214 Z"/>
</clipPath>
<clipPath clipPathUnits="userSpaceOnUse" id="clipPath12">
<path d="M322 227 L433 227 L433 242 L322 242 L322 227 Z"/>
</clipPath>
<clipPath clipPathUnits="userSpaceOnUse" id="clipPath13">
<path d="M322 240 L374 240 L374 255 L322 255 L322 240 Z"/>
</clipPath>
<clipPath clipPathUnits="userSpaceOnUse" id="clipPath14">
<path d="M318 199 L436 199 L436 273 L318 273 L318 199 Z"/>
</clipPath>
<clipPath clipPathUnits="userSpaceOnUse" id="clipPath15">
<path d="M682 174 L804 174 L804 276 L682 276 L682 174 Z"/>
</clipPath>
<clipPath clipPathUnits="userSpaceOnUse" id="clipPath16">
<path d="M682 174 L802 174 L802 274 L682 274 L682 174 Z"/>
</clipPath>
<clipPath clipPathUnits="userSpaceOnUse" id="clipPath17">
<path d="M737 179 L749 179 L749 196 L737 196 L737 179 Z"/>
</clipPath>
<clipPath clipPathUnits="userSpaceOnUse" id="clipPath18">
<path d="M687 201 L750 201 L750 216 L687 216 L687 201 Z"/>
</clipPath>
<clipPath clipPathUnits="userSpaceOnUse" id="clipPath19">
<path d="M687 214 L732 214 L732 229 L687 229 L687 214 Z"/>
</clipPath>
<clipPath clipPathUnits="userSpaceOnUse" id="clipPath20">
<path d="M683 199 L801 199 L801 273 L683 273 L683 199 Z"/>
</clipPath>
<clipPath clipPathUnits="userSpaceOnUse" id="clipPath21">
<path d="M72 169 L194 169 L194 271 L72 271 L72 169 Z"/>
</clipPath>
<clipPath clipPathUnits="userSpaceOnUse" id="clipPath22">
<path d="M72 169 L192 169 L192 269 L72 269 L72 169 Z"/>
</clipPath>
<clipPath clipPathUnits="userSpaceOnUse" id="clipPath23">
<path d="M116 174 L149 174 L149 191 L116 191 L116 174 Z"/>
</clipPath>
<clipPath clipPathUnits="userSpaceOnUse" id="clipPath24">
<path d="M77 196 L112 196 L112 211 L77 211 L77 196 Z"/>
</clipPath>
<clipPath clipPathUnits="userSpaceOnUse" id="clipPath25">
<path d="M77 209 L143 209 L143 224 L77 224 L77 209 Z"/>
</clipPath>
<clipPath clipPathUnits="userSpaceOnUse" id="clipPath26">
<path d="M77 222 L165 222 L165 237 L77 237 L77 222 Z"/>
</clipPath>
<clipPath clipPathUnits="userSpaceOnUse" id="clipPath27">
<path d="M77 235 L188 235 L188 250 L77 250 L77 235 Z"/>
</clipPath>
<clipPath clipPathUnits="userSpaceOnUse" id="clipPath28">
<path d="M73 194 L191 194 L191 268 L73 268 L73 194 Z"/>
</clipPath>
<clipPath clipPathUnits="userSpaceOnUse" id="clipPath29">
<path d="M207 9 L329 9 L329 111 L207 111 L207 9 Z"/>
</clipPath>
<clipPath clipPathUnits="userSpaceOnUse" id="clipPath30">
<path d="M207 9 L327 9 L327 109 L207 109 L207 9 Z"/>
</clipPath>
<clipPath clipPathUnits="userSpaceOnUse" id="clipPath31">
<path d="M233 14 L303 14 L303 46 L233 46 L233 14 Z"/>
</clipPath>
<clipPath clipPathUnits="userSpaceOnUse" id="clipPath32">
<path d="M212 51 L323 51 L323 66 L212 66 L212 51 Z"/>
</clipPath>
<clipPath clipPathUnits="userSpaceOnUse" id="clipPath33">
<path d="M208 49 L326 49 L326 108 L208 108 L208 49 Z"/>
</clipPath>
<clipPath clipPathUnits="userSpaceOnUse" id="clipPath34">
<path d="M557 9 L750 9 L750 111 L557 111 L557 9 Z"/>
</clipPath>
<clipPath clipPathUnits="userSpaceOnUse" id="clipPath35">
<path d="M557 9 L748 9 L748 109 L557 109 L557 9 Z"/>
</clipPath>
<clipPath clipPathUnits="userSpaceOnUse" id="clipPath36">
<path d="M634 14 L673 14 L673 31 L634 31 L634 14 Z"/>
</clipPath>
<clipPath clipPathUnits="userSpaceOnUse" id="clipPath37">
<path d="M562 36 L745 36 L745 51 L562 51 L562 36 Z"/>
</clipPath>
<clipPath clipPathUnits="userSpaceOnUse" id="clipPath38">
<path d="M558 34 L747 34 L747 108 L558 108 L558 34 Z"/>
</clipPath>
<clipPath clipPathUnits="userSpaceOnUse" id="clipPath39">
<path d="M-1 -1 L814 -1 L814 338 L-1 338 L-1 -1 Z"/>
</clipPath>
<clipPath clipPathUnits="userSpaceOnUse" id="clipPath40">
<path d="M267 107 L279 107 L279 118 L267 118 L267 107 Z"/>
</clipPath>
<clipPath clipPathUnits="userSpaceOnUse" id="clipPath41">
<path d="M258 107 L270 107 L270 117 L258 117 L258 107 Z"/>
</clipPath>
<clipPath clipPathUnits="userSpaceOnUse" id="clipPath42">
<path d="M101 300 L122 300 L122 315 L101 315 L101 300 Z"/>
</clipPath>
<clipPath clipPathUnits="userSpaceOnUse" id="clipPath43">
<path d="M26 240 L66 240 L66 255 L26 255 L26 240 Z"/>
</clipPath>
<clipPath clipPathUnits="userSpaceOnUse" id="clipPath44">
<path d="M119 267 L128 267 L128 277 L119 277 L119 267 Z"/>
</clipPath>
<clipPath clipPathUnits="userSpaceOnUse" id="clipPath45">
<path d="M65 236 L75 236 L75 245 L65 245 L65 236 Z"/>
</clipPath>
<clipPath clipPathUnits="userSpaceOnUse" id="clipPath46">
<path d="M207 227 L216 227 L216 242 L207 242 L207 227 Z"/>
</clipPath>
<clipPath clipPathUnits="userSpaceOnUse" id="clipPath47">
<path d="M296 227 L305 227 L305 242 L296 242 L296 227 Z"/>
</clipPath>
<clipPath clipPathUnits="userSpaceOnUse" id="clipPath48">
<path d="M190 220 L200 220 L200 229 L190 229 L190 220 Z"/>
</clipPath>
<clipPath clipPathUnits="userSpaceOnUse" id="clipPath49">
<path d="M310 220 L320 220 L320 229 L310 229 L310 220 Z"/>
</clipPath>
</defs>
<g fill="rgb(131,122,133)" font-family="'Segoe UI'" stroke-linejoin="round" stroke="rgb(131,122,133)" font-weight="bold" stroke-width="0" stroke-miterlimit="0">
<rect x="504" y="176" clip-path="url(#clipPath1)" width="118" rx="2.5" opacity="0.2549" ry="2.5" height="98" stroke="none"/>
<rect x="505" y="177" clip-path="url(#clipPath1)" width="118" rx="2.5" opacity="0.2549" ry="2.5" height="98" stroke="none"/>
<rect x="503" y="175" clip-path="url(#clipPath2)" fill="url(#linearGradient1)" width="118" rx="2.5" ry="2.5" height="98" stroke="none"/>
</g>
<g stroke-width="1.1" font-weight="bold" font-family="'Segoe UI'" stroke-linecap="butt">
<rect x="503" y="175" clip-path="url(#clipPath2)" fill="none" width="117" rx="2.5" ry="2.5" height="97"/>
<text xml:space="preserve" x="558" y="193" clip-path="url(#clipPath3)" stroke="none">A</text>
<text x="508" font-size="11" y="214" clip-path="url(#clipPath4)" stroke="none" font-weight="normal" xml:space="preserve">+ b : B</text>
<text x="508" font-size="11" y="227" clip-path="url(#clipPath5)" stroke="none" font-weight="normal" xml:space="preserve">q : IImpl</text>
<line clip-path="url(#clipPath6)" fill="none" x1="504" x2="620" y1="200" y2="200"/>
<rect x="319" y="176" clip-path="url(#clipPath7)" fill="rgb(131,122,133)" width="118" rx="2.5" opacity="0.2549" ry="2.5" height="98" stroke="none"/>
<rect x="320" y="177" clip-path="url(#clipPath7)" fill="rgb(131,122,133)" width="118" rx="2.5" opacity="0.2549" ry="2.5" height="98" stroke="none"/>
<rect x="318" y="175" clip-path="url(#clipPath8)" fill="url(#linearGradient2)" width="118" rx="2.5" ry="2.5" height="98" stroke="none"/>
<rect x="318" y="175" clip-path="url(#clipPath8)" fill="none" width="117" rx="2.5" ry="2.5" height="97"/>
<text xml:space="preserve" x="373" y="193" clip-path="url(#clipPath9)" stroke="none">B</text>
<text x="323" font-size="11" y="214" clip-path="url(#clipPath10)" stroke="none" font-weight="normal" xml:space="preserve">+ p : Integer</text>
<text x="323" font-size="11" y="227" clip-path="url(#clipPath11)" stroke="none" font-weight="normal" xml:space="preserve">+ y : IImpl</text>
<text x="323" font-size="11" y="240" clip-path="url(#clipPath12)" stroke="none" font-weight="normal" xml:space="preserve">+ assignP(v : Integer)</text>
<text x="323" font-size="11" y="253" clip-path="url(#clipPath13)" stroke="none" font-weight="normal" xml:space="preserve">+ printP()</text>
<line clip-path="url(#clipPath14)" fill="none" x1="319" x2="435" y1="200" y2="200"/>
<rect x="684" y="176" clip-path="url(#clipPath15)" fill="rgb(131,122,133)" width="118" rx="2.5" opacity="0.2549" ry="2.5" height="98" stroke="none"/>
<rect x="685" y="177" clip-path="url(#clipPath15)" fill="rgb(131,122,133)" width="118" rx="2.5" opacity="0.2549" ry="2.5" height="98" stroke="none"/>
<rect x="683" y="175" clip-path="url(#clipPath16)" fill="url(#linearGradient3)" width="118" rx="2.5" ry="2.5" height="98" stroke="none"/>
<rect x="683" y="175" clip-path="url(#clipPath16)" fill="none" width="117" rx="2.5" ry="2.5" height="97"/>
<text xml:space="preserve" x="738" y="193" clip-path="url(#clipPath17)" stroke="none">C</text>
<text x="688" font-size="11" y="214" clip-path="url(#clipPath18)" stroke="none" font-weight="normal" xml:space="preserve">+ a : A [4..*]</text>
<text x="688" font-size="11" y="227" clip-path="url(#clipPath19)" stroke="none" font-weight="normal" xml:space="preserve">p : IImpl</text>
<line clip-path="url(#clipPath20)" fill="none" x1="684" x2="800" y1="200" y2="200"/>
<rect x="74" y="171" clip-path="url(#clipPath21)" fill="rgb(131,122,133)" width="118" rx="2.5" opacity="0.2549" ry="2.5" height="98" stroke="none"/>
<rect x="75" y="172" clip-path="url(#clipPath21)" fill="rgb(131,122,133)" width="118" rx="2.5" opacity="0.2549" ry="2.5" height="98" stroke="none"/>
<rect x="73" y="170" clip-path="url(#clipPath22)" fill="url(#linearGradient4)" width="118" rx="2.5" ry="2.5" height="98" stroke="none"/>
<rect x="73" y="170" clip-path="url(#clipPath22)" fill="none" width="117" rx="2.5" ry="2.5" height="97"/>
<text xml:space="preserve" x="117" y="188" clip-path="url(#clipPath23)" stroke="none">IImpl</text>
<text x="78" font-size="11" y="209" clip-path="url(#clipPath24)" stroke="none" font-weight="normal" xml:space="preserve">+ x : B</text>
<text x="78" font-size="11" y="222" clip-path="url(#clipPath25)" stroke="none" font-weight="normal" xml:space="preserve">+ left : IImpl</text>
<text x="78" font-size="11" y="235" clip-path="url(#clipPath26)" stroke="none" font-weight="normal" xml:space="preserve">+ right : IImpl [*]</text>
<text x="78" font-size="11" y="248" clip-path="url(#clipPath27)" stroke="none" font-weight="normal" xml:space="preserve">+ assignP(v : Integer)</text>
<line clip-path="url(#clipPath28)" fill="none" x1="74" x2="190" y1="195" y2="195"/>
<rect x="209" y="11" clip-path="url(#clipPath29)" fill="rgb(131,122,133)" width="118" rx="2.5" opacity="0.2549" ry="2.5" height="98" stroke="none"/>
<rect x="210" y="12" clip-path="url(#clipPath29)" fill="rgb(131,122,133)" width="118" rx="2.5" opacity="0.2549" ry="2.5" height="98" stroke="none"/>
<rect x="208" y="10" clip-path="url(#clipPath30)" fill="url(#linearGradient5)" width="118" rx="2.5" ry="2.5" height="98" stroke="none"/>
<rect x="208" y="10" clip-path="url(#clipPath30)" fill="none" width="117" rx="2.5" ry="2.5" height="97"/>
<text xml:space="preserve" x="234" y="28" clip-path="url(#clipPath31)" stroke="none">«Interface»&#13;</text>
<text xml:space="preserve" x="234" y="43" clip-path="url(#clipPath31)" stroke="none">I</text>
<text x="213" font-size="11" y="64" clip-path="url(#clipPath32)" stroke="none" font-weight="normal" xml:space="preserve">+ assignP(v : Integer)</text>
<line clip-path="url(#clipPath33)" fill="none" x1="209" x2="325" y1="50" y2="50"/>
<rect x="559" y="11" clip-path="url(#clipPath34)" fill="rgb(131,122,133)" width="189" rx="2.5" opacity="0.2549" ry="2.5" height="98" stroke="none"/>
<rect x="560" y="12" clip-path="url(#clipPath34)" fill="rgb(131,122,133)" width="189" rx="2.5" opacity="0.2549" ry="2.5" height="98" stroke="none"/>
<rect x="558" y="10" clip-path="url(#clipPath35)" fill="url(#linearGradient6)" width="189" rx="2.5" ry="2.5" height="98" stroke="none"/>
<rect x="558" y="10" clip-path="url(#clipPath35)" fill="none" width="188" rx="2.5" ry="2.5" height="97"/>
<text xml:space="preserve" x="635" y="28" clip-path="url(#clipPath36)" stroke="none">Tester</text>
<text x="563" font-size="11" y="49" clip-path="url(#clipPath37)" stroke="none" font-weight="normal" xml:space="preserve">+ testCallDelegation(v : Integer) : C</text>
<line clip-path="url(#clipPath38)" fill="none" x1="559" x2="746" y1="35" y2="35"/>
<line clip-path="url(#clipPath39)" fill="none" x1="378" x2="268" y1="175" y2="108" stroke-dasharray="5,5"/>
</g>
<g stroke-linecap="butt" font-size="11" fill="white" font-family="'Segoe UI'" stroke-dasharray="5,5" stroke="white" stroke-width="1.1">
<polygon clip-path="url(#clipPath40)" points=" 268 108 277 109 273 116" stroke="none"/>
<polygon fill="none" stroke-dasharray="none" clip-path="url(#clipPath40)" points=" 268 108 277 109 273 116" stroke="black"/>
<line clip-path="url(#clipPath39)" fill="none" x1="133" x2="268" y1="170" y2="108" stroke="black"/>
<polygon clip-path="url(#clipPath41)" points=" 268 108 262 115 259 108" stroke="none"/>
<polygon fill="none" stroke-dasharray="none" clip-path="url(#clipPath41)" points=" 268 108 262 115 259 108" stroke="black"/>
<line clip-path="url(#clipPath39)" fill="none" x1="123" x2="123" y1="268" y2="290" stroke-dasharray="none" stroke="black"/>
<line clip-path="url(#clipPath39)" fill="none" x1="123" x2="123" y1="290" y2="310" stroke-dasharray="none" stroke="black"/>
<line clip-path="url(#clipPath39)" fill="none" x1="123" x2="23" y1="310" y2="310" stroke-dasharray="none" stroke="black"/>
<line clip-path="url(#clipPath39)" fill="none" x1="23" x2="23" y1="310" y2="240" stroke-dasharray="none" stroke="black"/>
<line clip-path="url(#clipPath39)" fill="none" x1="23" x2="73" y1="240" y2="240" stroke-dasharray="none" stroke="black"/>
<text x="102" y="313" clip-path="url(#clipPath42)" fill="black" stroke-dasharray="none" stroke="none" xml:space="preserve">left</text>
<text x="27" y="253" clip-path="url(#clipPath43)" fill="black" stroke-dasharray="none" stroke="none" xml:space="preserve">right[*]</text>
<line clip-path="url(#clipPath44)" fill="none" x1="126" x2="123" y1="275" y2="268" stroke-dasharray="none" stroke="black"/>
<line clip-path="url(#clipPath44)" fill="none" x1="123" x2="120" y1="268" y2="275" stroke-dasharray="none" stroke="black"/>
<line clip-path="url(#clipPath45)" fill="none" x1="66" x2="73" y1="243" y2="240" stroke-dasharray="none" stroke="black"/>
<line clip-path="url(#clipPath45)" fill="none" x1="73" x2="66" y1="240" y2="237" stroke-dasharray="none" stroke="black"/>
<line clip-path="url(#clipPath39)" fill="none" x1="191" x2="318" y1="224" y2="224" stroke-dasharray="none" stroke="black"/>
<text x="208" y="240" clip-path="url(#clipPath46)" fill="black" stroke-dasharray="none" stroke="none" xml:space="preserve">y</text>
<text x="297" y="240" clip-path="url(#clipPath47)" fill="black" stroke-dasharray="none" stroke="none" xml:space="preserve">x</text>
<line clip-path="url(#clipPath48)" fill="none" x1="198" x2="191" y1="221" y2="224" stroke-dasharray="none" stroke="black"/>
<line clip-path="url(#clipPath48)" fill="none" x1="191" x2="198" y1="224" y2="227" stroke-dasharray="none" stroke="black"/>
<line clip-path="url(#clipPath49)" fill="none" x1="311" x2="318" y1="227" y2="224" stroke-dasharray="none" stroke="black"/>
<line clip-path="url(#clipPath49)" fill="none" x1="318" x2="311" y1="224" y2="221" stroke-dasharray="none" stroke="black"/>
</g>
</g>
</svg>
