<?xml version="1.0" encoding="UTF-8"?><svg xmlns="http://www.w3.org/2000/svg" xmlns:xlink="http://www.w3.org/1999/xlink" stroke-dasharray="none" shape-rendering="auto" font-family="'Dialog'" width="529" text-rendering="auto" fill-opacity="1" contentScriptType="text/ecmascript" color-interpolation="auto" color-rendering="auto" preserveAspectRatio="xMidYMid meet" font-size="12" viewBox="0 0 529 285" fill="black" stroke="black" image-rendering="auto" stroke-miterlimit="10" zoomAndPan="magnify" version="1.0" stroke-linecap="square" stroke-linejoin="miter" contentStyleType="text/css" font-style="normal" height="285" stroke-width="1" stroke-dashoffset="0" font-weight="normal" stroke-opacity="1">
<!--Generated by the Batik Graphics2D SVG Generator-->
<defs id="genericDefs"/>
<g>
<defs id="defs1">
<linearGradient x1="305" x2="517" y1="147" gradientUnits="userSpaceOnUse" y2="302" xlink:type="simple" xlink:actuate="onLoad" id="linearGradient1" xlink:show="other" spreadMethod="pad">
<stop stop-opacity="1" stop-color="white" offset="0%"/>
<stop stop-opacity="1" stop-color="white" offset="100%"/>
</linearGradient>
<linearGradient x1="10" x2="128" y1="165" gradientUnits="userSpaceOnUse" y2="273" xlink:type="simple" xlink:actuate="onLoad" id="linearGradient2" xlink:show="other" spreadMethod="pad">
<stop stop-opacity="1" stop-color="white" offset="0%"/>
<stop stop-opacity="1" stop-color="white" offset="100%"/>
</linearGradient>
<linearGradient x1="188" x2="306" y1="5" gradientUnits="userSpaceOnUse" y2="113" xlink:type="simple" xlink:actuate="onLoad" id="linearGradient3" xlink:show="other" spreadMethod="pad">
<stop stop-opacity="1" stop-color="white" offset="0%"/>
<stop stop-opacity="1" stop-color="white" offset="100%"/>
</linearGradient>
<clipPath clipPathUnits="userSpaceOnUse" id="clipPath1">
<path d="M304 174 L520 174 L520 276 L304 276 L304 174 Z"/>
</clipPath>
<clipPath clipPathUnits="userSpaceOnUse" id="clipPath2">
<path d="M304 174 L518 174 L518 274 L304 274 L304 174 Z"/>
</clipPath>
<clipPath clipPathUnits="userSpaceOnUse" id="clipPath3">
<path d="M406 179 L420 179 L420 196 L406 196 L406 179 Z"/>
</clipPath>
<clipPath clipPathUnits="userSpaceOnUse" id="clipPath4">
<path d="M309 201 L515 201 L515 216 L309 216 L309 201 Z"/>
</clipPath>
<clipPath clipPathUnits="userSpaceOnUse" id="clipPath5">
<path d="M305 199 L517 199 L517 273 L305 273 L305 199 Z"/>
</clipPath>
<clipPath clipPathUnits="userSpaceOnUse" id="clipPath6">
<path d="M9 169 L131 169 L131 271 L9 271 L9 169 Z"/>
</clipPath>
<clipPath clipPathUnits="userSpaceOnUse" id="clipPath7">
<path d="M9 169 L129 169 L129 269 L9 269 L9 169 Z"/>
</clipPath>
<clipPath clipPathUnits="userSpaceOnUse" id="clipPath8">
<path d="M21 174 L120 174 L120 191 L21 191 L21 174 Z"/>
</clipPath>
<clipPath clipPathUnits="userSpaceOnUse" id="clipPath9">
<path d="M14 196 L65 196 L65 211 L14 211 L14 196 Z"/>
</clipPath>
<clipPath clipPathUnits="userSpaceOnUse" id="clipPath10">
<path d="M10 194 L128 194 L128 268 L10 268 L10 194 Z"/>
</clipPath>
<clipPath clipPathUnits="userSpaceOnUse" id="clipPath11">
<path d="M187 9 L309 9 L309 111 L187 111 L187 9 Z"/>
</clipPath>
<clipPath clipPathUnits="userSpaceOnUse" id="clipPath12">
<path d="M187 9 L307 9 L307 109 L187 109 L187 9 Z"/>
</clipPath>
<clipPath clipPathUnits="userSpaceOnUse" id="clipPath13">
<path d="M213 14 L283 14 L283 46 L213 46 L213 14 Z"/>
</clipPath>
<clipPath clipPathUnits="userSpaceOnUse" id="clipPath14">
<path d="M188 49 L306 49 L306 108 L188 108 L188 49 Z"/>
</clipPath>
<clipPath clipPathUnits="userSpaceOnUse" id="clipPath15">
<path d="M-1 -1 L530 -1 L530 286 L-1 286 L-1 -1 Z"/>
</clipPath>
<clipPath clipPathUnits="userSpaceOnUse" id="clipPath16">
<path d="M247 106 L259 106 L259 117 L247 117 L247 106 Z"/>
</clipPath>
<clipPath clipPathUnits="userSpaceOnUse" id="clipPath17">
<path d="M238 106 L250 106 L250 116 L238 116 L238 106 Z"/>
</clipPath>
<clipPath clipPathUnits="userSpaceOnUse" id="clipPath18">
<path d="M132 204 L231 204 L231 219 L132 219 L132 204 Z"/>
</clipPath>
<clipPath clipPathUnits="userSpaceOnUse" id="clipPath19">
<path d="M268 227 L290 227 L290 242 L268 242 L268 227 Z"/>
</clipPath>
<clipPath clipPathUnits="userSpaceOnUse" id="clipPath20">
<path d="M127 220 L137 220 L137 229 L127 229 L127 220 Z"/>
</clipPath>
<clipPath clipPathUnits="userSpaceOnUse" id="clipPath21">
<path d="M297 220 L307 220 L307 229 L297 229 L297 220 Z"/>
</clipPath>
</defs>
<g fill="rgb(131,122,133)" font-family="'Segoe UI'" stroke-linejoin="round" stroke="rgb(131,122,133)" font-weight="bold" stroke-width="0" stroke-miterlimit="0">
<rect x="306" y="176" clip-path="url(#clipPath1)" width="212" rx="2.5" opacity="0.2549" ry="2.5" height="98" stroke="none"/>
<rect x="307" y="177" clip-path="url(#clipPath1)" width="212" rx="2.5" opacity="0.2549" ry="2.5" height="98" stroke="none"/>
<rect x="305" y="175" clip-path="url(#clipPath2)" fill="url(#linearGradient1)" width="212" rx="2.5" ry="2.5" height="98" stroke="none"/>
</g>
<g stroke-width="1.1" font-weight="bold" font-family="'Segoe UI'" stroke-linecap="butt">
<rect x="305" y="175" clip-path="url(#clipPath2)" fill="none" width="211" rx="2.5" ry="2.5" height="97"/>
<text xml:space="preserve" x="407" y="193" clip-path="url(#clipPath3)" stroke="none">B</text>
<text x="310" font-size="11" y="214" clip-path="url(#clipPath4)" stroke="none" font-weight="normal" xml:space="preserve">+ iImplementation : IImplementation [*]</text>
<line clip-path="url(#clipPath5)" fill="none" x1="306" x2="516" y1="200" y2="200"/>
<rect x="11" y="171" clip-path="url(#clipPath6)" fill="rgb(131,122,133)" width="118" rx="2.5" opacity="0.2549" ry="2.5" height="98" stroke="none"/>
<rect x="12" y="172" clip-path="url(#clipPath6)" fill="rgb(131,122,133)" width="118" rx="2.5" opacity="0.2549" ry="2.5" height="98" stroke="none"/>
<rect x="10" y="170" clip-path="url(#clipPath7)" fill="url(#linearGradient2)" width="118" rx="2.5" ry="2.5" height="98" stroke="none"/>
<rect x="10" y="170" clip-path="url(#clipPath7)" fill="none" width="117" rx="2.5" ry="2.5" height="97"/>
<text xml:space="preserve" x="22" y="188" clip-path="url(#clipPath8)" stroke="none">IImplementation</text>
<text x="15" font-size="11" y="209" clip-path="url(#clipPath9)" stroke="none" font-weight="normal" xml:space="preserve">+ b : B [*]</text>
<line clip-path="url(#clipPath10)" fill="none" x1="11" x2="127" y1="195" y2="195"/>
<rect x="189" y="11" clip-path="url(#clipPath11)" fill="rgb(131,122,133)" width="118" rx="2.5" opacity="0.2549" ry="2.5" height="98" stroke="none"/>
<rect x="190" y="12" clip-path="url(#clipPath11)" fill="rgb(131,122,133)" width="118" rx="2.5" opacity="0.2549" ry="2.5" height="98" stroke="none"/>
<rect x="188" y="10" clip-path="url(#clipPath12)" fill="url(#linearGradient3)" width="118" rx="2.5" ry="2.5" height="98" stroke="none"/>
<rect x="188" y="10" clip-path="url(#clipPath12)" fill="none" width="117" rx="2.5" ry="2.5" height="97"/>
<text xml:space="preserve" x="214" y="28" clip-path="url(#clipPath13)" stroke="none">«Interface»&#13;</text>
<text xml:space="preserve" x="214" y="43" clip-path="url(#clipPath13)" stroke="none">I</text>
<line clip-path="url(#clipPath14)" fill="none" x1="189" x2="305" y1="50" y2="50"/>
<line clip-path="url(#clipPath15)" fill="none" x1="412" x2="248" y1="175" y2="108" stroke-dasharray="5,5"/>
</g>
<g stroke-linecap="butt" font-size="11" fill="white" font-family="'Segoe UI'" stroke-dasharray="5,5" stroke="white" stroke-width="1.1">
<polygon clip-path="url(#clipPath16)" points=" 248 108 257 107 254 115" stroke="none"/>
<polygon fill="none" stroke-dasharray="none" clip-path="url(#clipPath16)" points=" 248 108 257 107 254 115" stroke="black"/>
<line clip-path="url(#clipPath15)" fill="none" x1="70" x2="248" y1="170" y2="108" stroke="black"/>
<polygon clip-path="url(#clipPath17)" points=" 248 108 242 114 239 107" stroke="none"/>
<polygon fill="none" stroke-dasharray="none" clip-path="url(#clipPath17)" points=" 248 108 242 114 239 107" stroke="black"/>
<line clip-path="url(#clipPath15)" fill="none" x1="128" x2="305" y1="224" y2="224" stroke-dasharray="none" stroke="black"/>
<text x="133" y="217" clip-path="url(#clipPath18)" fill="black" stroke-dasharray="none" stroke="none" xml:space="preserve">iImplementation[*]</text>
<text x="269" y="240" clip-path="url(#clipPath19)" fill="black" stroke-dasharray="none" stroke="none" xml:space="preserve">b[*]</text>
<line clip-path="url(#clipPath20)" fill="none" x1="135" x2="128" y1="221" y2="224" stroke-dasharray="none" stroke="black"/>
<line clip-path="url(#clipPath20)" fill="none" x1="128" x2="135" y1="224" y2="227" stroke-dasharray="none" stroke="black"/>
<line clip-path="url(#clipPath21)" fill="none" x1="298" x2="305" y1="227" y2="224" stroke-dasharray="none" stroke="black"/>
<line clip-path="url(#clipPath21)" fill="none" x1="305" x2="298" y1="224" y2="221" stroke-dasharray="none" stroke="black"/>
</g>
</g>
</svg>
