<?xml version="1.0" encoding="UTF-8"?><svg xmlns="http://www.w3.org/2000/svg" xmlns:xlink="http://www.w3.org/1999/xlink" stroke-dasharray="none" shape-rendering="auto" font-family="'Dialog'" width="493" text-rendering="auto" fill-opacity="1" contentScriptType="text/ecmascript" color-interpolation="auto" color-rendering="auto" preserveAspectRatio="xMidYMid meet" font-size="12" viewBox="0 0 493 508" fill="black" stroke="black" image-rendering="auto" stroke-miterlimit="10" zoomAndPan="magnify" version="1.0" stroke-linecap="square" stroke-linejoin="miter" contentStyleType="text/css" font-style="normal" height="508" stroke-width="1" stroke-dashoffset="0" font-weight="normal" stroke-opacity="1">
<!--Generated by the Batik Graphics2D SVG Generator-->
<defs id="genericDefs"/>
<g>
<defs id="defs1">
<linearGradient x1="-28" x2="380" y1="10" gradientUnits="userSpaceOnUse" y2="496" xlink:type="simple" xlink:actuate="onLoad" id="linearGradient1" xlink:show="other" spreadMethod="pad">
<stop stop-opacity="1" stop-color="white" offset="0%"/>
<stop stop-opacity="1" stop-color="white" offset="100%"/>
</linearGradient>
<linearGradient x1="100" x2="201" y1="47" gradientUnits="userSpaceOnUse" y2="120" xlink:type="simple" xlink:actuate="onLoad" id="linearGradient2" xlink:show="other" spreadMethod="pad">
<stop stop-opacity="1" stop-color="white" offset="0%"/>
<stop stop-opacity="1" stop-color="white" offset="100%"/>
</linearGradient>
<linearGradient x1="40" x2="188" y1="205" gradientUnits="userSpaceOnUse" y2="313" xlink:type="simple" xlink:actuate="onLoad" id="linearGradient3" xlink:show="other" spreadMethod="pad">
<stop stop-opacity="1" stop-color="white" offset="0%"/>
<stop stop-opacity="1" stop-color="white" offset="100%"/>
</linearGradient>
<linearGradient x1="85" x2="271" y1="327" gradientUnits="userSpaceOnUse" y2="454" xlink:type="simple" xlink:actuate="onLoad" id="linearGradient4" xlink:show="other" spreadMethod="pad">
<stop stop-opacity="1" stop-color="white" offset="0%"/>
<stop stop-opacity="1" stop-color="white" offset="100%"/>
</linearGradient>
<clipPath clipPathUnits="userSpaceOnUse" id="clipPath1">
<path d="M9 9 L344 9 L344 499 L9 499 L9 9 Z"/>
</clipPath>
<clipPath clipPathUnits="userSpaceOnUse" id="clipPath2">
<path d="M9 9 L342 9 L342 497 L9 497 L9 9 Z"/>
</clipPath>
<clipPath clipPathUnits="userSpaceOnUse" id="clipPath3">
<path d="M115 14 L237 14 L237 31 L115 31 L115 14 Z"/>
</clipPath>
<clipPath clipPathUnits="userSpaceOnUse" id="clipPath4">
<path d="M99 59 L204 59 L204 109 L99 109 L99 59 Z"/>
</clipPath>
<clipPath clipPathUnits="userSpaceOnUse" id="clipPath5">
<path d="M99 59 L202 59 L202 107 L99 107 L99 59 Z"/>
</clipPath>
<clipPath clipPathUnits="userSpaceOnUse" id="clipPath6">
<path d="M129 64 L174 64 L174 79 L129 79 L129 64 Z"/>
</clipPath>
<clipPath clipPathUnits="userSpaceOnUse" id="clipPath7">
<path d="M144 97 L166 97 L166 119 L144 119 L144 97 Z"/>
</clipPath>
<clipPath clipPathUnits="userSpaceOnUse" id="clipPath8">
<path d="M165 104 L214 104 L214 119 L165 119 L165 104 Z"/>
</clipPath>
<clipPath clipPathUnits="userSpaceOnUse" id="clipPath9">
<path d="M24 149 L307 149 L307 161 L24 161 L24 149 Z"/>
</clipPath>
<clipPath clipPathUnits="userSpaceOnUse" id="clipPath10">
<path d="M39 224 L191 224 L191 296 L39 296 L39 224 Z"/>
</clipPath>
<clipPath clipPathUnits="userSpaceOnUse" id="clipPath11">
<path d="M39 224 L189 224 L189 294 L39 294 L39 224 Z"/>
</clipPath>
<clipPath clipPathUnits="userSpaceOnUse" id="clipPath12">
<path d="M86 229 L144 229 L144 244 L86 244 L86 229 Z"/>
</clipPath>
<clipPath clipPathUnits="userSpaceOnUse" id="clipPath13">
<path d="M99 212 L121 212 L121 234 L99 234 L99 212 Z"/>
</clipPath>
<clipPath clipPathUnits="userSpaceOnUse" id="clipPath14">
<path d="M120 212 L172 212 L172 227 L120 227 L120 212 Z"/>
</clipPath>
<clipPath clipPathUnits="userSpaceOnUse" id="clipPath15">
<path d="M103 284 L125 284 L125 306 L103 306 L103 284 Z"/>
</clipPath>
<clipPath clipPathUnits="userSpaceOnUse" id="clipPath16">
<path d="M124 291 L161 291 L161 306 L124 306 L124 291 Z"/>
</clipPath>
<clipPath clipPathUnits="userSpaceOnUse" id="clipPath17">
<path d="M84 355 L274 355 L274 427 L84 427 L84 355 Z"/>
</clipPath>
<clipPath clipPathUnits="userSpaceOnUse" id="clipPath18">
<path d="M84 355 L272 355 L272 425 L84 425 L84 355 Z"/>
</clipPath>
<clipPath clipPathUnits="userSpaceOnUse" id="clipPath19">
<path d="M143 360 L216 360 L216 375 L143 375 L143 360 Z"/>
</clipPath>
<clipPath clipPathUnits="userSpaceOnUse" id="clipPath20">
<path d="M219 343 L241 343 L241 365 L219 365 L219 343 Z"/>
</clipPath>
<clipPath clipPathUnits="userSpaceOnUse" id="clipPath21">
<path d="M240 343 L292 343 L292 358 L240 358 L240 343 Z"/>
</clipPath>
<clipPath clipPathUnits="userSpaceOnUse" id="clipPath22">
<path d="M104 343 L126 343 L126 365 L104 365 L104 343 Z"/>
</clipPath>
<clipPath clipPathUnits="userSpaceOnUse" id="clipPath23">
<path d="M125 343 L171 343 L171 358 L125 358 L125 343 Z"/>
</clipPath>
<clipPath clipPathUnits="userSpaceOnUse" id="clipPath24">
<path d="M262 384 L284 384 L284 406 L262 406 L262 384 Z"/>
</clipPath>
<clipPath clipPathUnits="userSpaceOnUse" id="clipPath25">
<path d="M283 384 L321 384 L321 399 L283 399 L283 384 Z"/>
</clipPath>
<clipPath clipPathUnits="userSpaceOnUse" id="clipPath26">
<path d="M332 374 L484 374 L484 426 L332 426 L332 374 Z"/>
</clipPath>
<clipPath clipPathUnits="userSpaceOnUse" id="clipPath27">
<path d="M333 375 L485 375 L485 425 L333 425 L333 375 Z"/>
</clipPath>
<clipPath clipPathUnits="userSpaceOnUse" id="clipPath28">
<path d="M-1 -1 L494 -1 L494 509 L-1 509 L-1 -1 Z"/>
</clipPath>
<clipPath clipPathUnits="userSpaceOnUse" id="clipPath29">
<path d="M226 336 L235 336 L235 346 L226 346 L226 336 Z"/>
</clipPath>
<clipPath clipPathUnits="userSpaceOnUse" id="clipPath30">
<path d="M325 396 L335 396 L335 405 L325 405 L325 396 Z"/>
</clipPath>
<clipPath clipPathUnits="userSpaceOnUse" id="clipPath31">
<path d="M151 142 L160 142 L160 152 L151 152 L151 142 Z"/>
</clipPath>
<clipPath clipPathUnits="userSpaceOnUse" id="clipPath32">
<path d="M110 336 L119 336 L119 346 L110 346 L110 336 Z"/>
</clipPath>
<clipPath clipPathUnits="userSpaceOnUse" id="clipPath33">
<path d="M106 205 L115 205 L115 215 L106 215 L106 205 Z"/>
</clipPath>
</defs>
<g fill="rgb(131,122,133)" font-family="'Segoe UI'" stroke-linejoin="round" stroke="rgb(131,122,133)" stroke-width="0" stroke-miterlimit="0">
<rect x="11" y="11" clip-path="url(#clipPath1)" width="331" rx="12.5" opacity="0.2549" ry="12.5" height="486" stroke="none"/>
<rect x="12" y="12" clip-path="url(#clipPath1)" width="331" rx="12.5" opacity="0.2549" ry="12.5" height="486" stroke="none"/>
<rect x="10" y="10" clip-path="url(#clipPath2)" fill="url(#linearGradient1)" width="331" rx="12.5" ry="12.5" height="486" stroke="none"/>
</g>
<g stroke-width="1.1" font-family="'Segoe UI'" stroke-linecap="butt">
<rect x="10" y="10" clip-path="url(#clipPath2)" fill="none" width="330" rx="12.5" ry="12.5" height="485"/>
<text xml:space="preserve" x="116" y="28" clip-path="url(#clipPath3)" stroke="none">actTestPartDestruction</text>
</g>
<g stroke-linecap="butt" font-size="11" fill="rgb(131,122,133)" font-family="'Segoe UI'" stroke="rgb(131,122,133)" font-weight="bold" stroke-width="1.1">
<rect x="101" y="61" clip-path="url(#clipPath4)" width="101" rx="12.5" opacity="0.2549" ry="12.5" height="46" stroke="none"/>
<rect x="102" y="62" clip-path="url(#clipPath4)" width="101" rx="12.5" opacity="0.2549" ry="12.5" height="46" stroke="none"/>
<rect x="100" y="60" clip-path="url(#clipPath5)" fill="url(#linearGradient2)" width="101" rx="12.5" ry="12.5" height="46" stroke="none"/>
<rect x="100" y="60" clip-path="url(#clipPath5)" fill="none" width="100" rx="12.5" ry="12.5" height="45" stroke="black"/>
<text x="130" y="77" clip-path="url(#clipPath6)" fill="black" stroke="none" xml:space="preserve">CreateA</text>
</g>
<g fill="white" stroke-width="1.1" font-family="'Segoe UI'" stroke-linecap="butt" stroke="white">
<rect x="145" y="98" clip-path="url(#clipPath7)" width="20" height="20" stroke="none"/>
<rect x="145" y="98" clip-path="url(#clipPath7)" fill="none" width="19" height="19" stroke="black"/>
<text x="166" font-size="11" y="117" clip-path="url(#clipPath8)" fill="black" stroke="none" xml:space="preserve">result : A</text>
<rect x="25" y="150" clip-path="url(#clipPath9)" fill="black" width="281" height="10" stroke="none"/>
<rect x="25" y="150" clip-path="url(#clipPath9)" fill="none" width="280" height="9" stroke="black" stroke-width="0.1"/>
</g>
<g stroke-linecap="butt" font-size="11" fill="rgb(131,122,133)" font-family="'Segoe UI'" stroke="rgb(131,122,133)" font-weight="bold" stroke-width="0.1">
<rect x="41" y="226" clip-path="url(#clipPath10)" width="148" rx="12.5" opacity="0.2549" ry="12.5" height="68" stroke="none"/>
<rect x="42" y="227" clip-path="url(#clipPath10)" width="148" rx="12.5" opacity="0.2549" ry="12.5" height="68" stroke="none"/>
<rect x="40" y="225" clip-path="url(#clipPath11)" fill="url(#linearGradient3)" width="148" rx="12.5" ry="12.5" height="68" stroke="none"/>
<rect x="40" y="225" clip-path="url(#clipPath11)" fill="none" width="147" rx="12.5" ry="12.5" height="67" stroke="black" stroke-width="1.1"/>
<text x="87" y="242" clip-path="url(#clipPath12)" fill="black" stroke="none" stroke-width="1.1" xml:space="preserve">ReadBOfA</text>
</g>
<g fill="white" stroke-width="1.1" font-family="'Segoe UI'" stroke-linecap="butt" stroke="white">
<rect x="100" y="213" clip-path="url(#clipPath13)" width="20" height="20" stroke="none"/>
<rect x="100" y="213" clip-path="url(#clipPath13)" fill="none" width="19" height="19" stroke="black"/>
<text x="121" font-size="11" y="225" clip-path="url(#clipPath14)" fill="black" stroke="none" xml:space="preserve">object : A</text>
<rect x="104" y="285" clip-path="url(#clipPath15)" width="20" height="20" stroke="none"/>
<rect x="104" y="285" clip-path="url(#clipPath15)" fill="none" width="19" height="19" stroke="black"/>
<text x="125" font-size="11" y="304" clip-path="url(#clipPath16)" fill="black" stroke="none" xml:space="preserve">out : B</text>
</g>
<g stroke-linecap="butt" font-size="11" fill="rgb(131,122,133)" font-family="'Segoe UI'" stroke="rgb(131,122,133)" font-weight="bold" stroke-width="1.1">
<rect x="86" y="357" clip-path="url(#clipPath17)" width="186" rx="12.5" opacity="0.2549" ry="12.5" height="68" stroke="none"/>
<rect x="87" y="358" clip-path="url(#clipPath17)" width="186" rx="12.5" opacity="0.2549" ry="12.5" height="68" stroke="none"/>
<rect x="85" y="356" clip-path="url(#clipPath18)" fill="url(#linearGradient4)" width="186" rx="12.5" ry="12.5" height="68" stroke="none"/>
<rect x="85" y="356" clip-path="url(#clipPath18)" fill="none" width="185" rx="12.5" ry="12.5" height="67" stroke="black"/>
<text x="144" y="373" clip-path="url(#clipPath19)" fill="black" stroke="none" xml:space="preserve">RemoveBofA</text>
</g>
<g fill="white" stroke-width="1.1" font-family="'Segoe UI'" stroke-linecap="butt" stroke="white">
<rect x="220" y="344" clip-path="url(#clipPath20)" width="20" height="20" stroke="none"/>
<rect x="220" y="344" clip-path="url(#clipPath20)" fill="none" width="19" height="19" stroke="black"/>
<text x="241" font-size="11" y="356" clip-path="url(#clipPath21)" fill="black" stroke="none" xml:space="preserve">object : A</text>
<rect x="105" y="344" clip-path="url(#clipPath22)" width="20" height="20" stroke="none"/>
<rect x="105" y="344" clip-path="url(#clipPath22)" fill="none" width="19" height="19" stroke="black"/>
<text x="126" font-size="11" y="356" clip-path="url(#clipPath23)" fill="black" stroke="none" xml:space="preserve">value : B</text>
<rect x="263" y="385" clip-path="url(#clipPath24)" width="20" height="20" stroke="none"/>
<rect x="263" y="385" clip-path="url(#clipPath24)" fill="none" width="19" height="19" stroke="black"/>
<text x="284" font-size="11" y="397" clip-path="url(#clipPath25)" fill="black" stroke="none" xml:space="preserve">out : A</text>
<rect x="333" y="375" clip-path="url(#clipPath26)" width="150" height="50" stroke="none"/>
<rect x="333" y="375" clip-path="url(#clipPath26)" fill="none" width="149" height="49" stroke="black"/>
<text x="391" font-size="11" y="405" clip-path="url(#clipPath27)" fill="black" stroke="none" xml:space="preserve">out : A</text>
<line clip-path="url(#clipPath28)" fill="none" x1="230" x2="230" y1="160" y2="344" stroke="black"/>
<line clip-path="url(#clipPath29)" fill="none" x1="227" x2="230" y1="337" y2="344" stroke="black"/>
<line clip-path="url(#clipPath29)" fill="none" x1="230" x2="233" y1="344" y2="337" stroke="black"/>
<line clip-path="url(#clipPath28)" fill="none" x1="283" x2="333" y1="400" y2="400" stroke="black"/>
<line clip-path="url(#clipPath30)" fill="none" x1="326" x2="333" y1="403" y2="400" stroke="black"/>
<line clip-path="url(#clipPath30)" fill="none" x1="333" x2="326" y1="400" y2="397" stroke="black"/>
<line clip-path="url(#clipPath28)" fill="none" x1="155" x2="155" y1="118" y2="150" stroke="black"/>
<line clip-path="url(#clipPath31)" fill="none" x1="152" x2="155" y1="143" y2="150" stroke="black"/>
<line clip-path="url(#clipPath31)" fill="none" x1="155" x2="158" y1="150" y2="143" stroke="black"/>
<line clip-path="url(#clipPath28)" fill="none" x1="114" x2="114" y1="305" y2="344" stroke="black"/>
<line clip-path="url(#clipPath32)" fill="none" x1="111" x2="114" y1="337" y2="344" stroke="black"/>
<line clip-path="url(#clipPath32)" fill="none" x1="114" x2="117" y1="344" y2="337" stroke="black"/>
<line clip-path="url(#clipPath28)" fill="none" x1="110" x2="110" y1="160" y2="213" stroke="black"/>
<line clip-path="url(#clipPath33)" fill="none" x1="107" x2="110" y1="206" y2="213" stroke="black"/>
<line clip-path="url(#clipPath33)" fill="none" x1="110" x2="113" y1="213" y2="206" stroke="black"/>
<line clip-path="url(#clipPath28)" fill="none" x1="155" x2="155" y1="118" y2="150" stroke="black"/>
<line clip-path="url(#clipPath31)" fill="none" x1="152" x2="155" y1="143" y2="150" stroke="black"/>
<line clip-path="url(#clipPath31)" fill="none" x1="155" x2="158" y1="150" y2="143" stroke="black"/>
<line clip-path="url(#clipPath28)" fill="none" x1="110" x2="110" y1="160" y2="213" stroke="black"/>
<line clip-path="url(#clipPath33)" fill="none" x1="107" x2="110" y1="206" y2="213" stroke="black"/>
<line clip-path="url(#clipPath33)" fill="none" x1="110" x2="113" y1="213" y2="206" stroke="black"/>
<line clip-path="url(#clipPath28)" fill="none" x1="114" x2="114" y1="305" y2="344" stroke="black"/>
<line clip-path="url(#clipPath32)" fill="none" x1="111" x2="114" y1="337" y2="344" stroke="black"/>
<line clip-path="url(#clipPath32)" fill="none" x1="114" x2="117" y1="344" y2="337" stroke="black"/>
<line clip-path="url(#clipPath28)" fill="none" x1="230" x2="230" y1="160" y2="344" stroke="black"/>
<line clip-path="url(#clipPath29)" fill="none" x1="227" x2="230" y1="337" y2="344" stroke="black"/>
<line clip-path="url(#clipPath29)" fill="none" x1="230" x2="233" y1="344" y2="337" stroke="black"/>
<line clip-path="url(#clipPath28)" fill="none" x1="283" x2="333" y1="400" y2="400" stroke="black"/>
<line clip-path="url(#clipPath30)" fill="none" x1="326" x2="333" y1="403" y2="400" stroke="black"/>
<line clip-path="url(#clipPath30)" fill="none" x1="333" x2="326" y1="400" y2="397" stroke="black"/>
</g>
</g>
</svg>
