<?xml version="1.0" encoding="UTF-8"?><svg xmlns="http://www.w3.org/2000/svg" xmlns:xlink="http://www.w3.org/1999/xlink" stroke-dasharray="none" shape-rendering="auto" font-family="'Dialog'" width="686" text-rendering="auto" fill-opacity="1" contentScriptType="text/ecmascript" color-interpolation="auto" color-rendering="auto" preserveAspectRatio="xMidYMid meet" font-size="12" viewBox="0 0 686 280" fill="black" stroke="black" image-rendering="auto" stroke-miterlimit="10" zoomAndPan="magnify" version="1.0" stroke-linecap="square" stroke-linejoin="miter" contentStyleType="text/css" font-style="normal" height="280" stroke-width="1" stroke-dashoffset="0" font-weight="normal" stroke-opacity="1">
<!--Generated by the Batik Graphics2D SVG Generator-->
<defs id="genericDefs"/>
<g>
<defs id="defs1">
<linearGradient x1="485" x2="609" y1="39" gradientUnits="userSpaceOnUse" y2="150" xlink:type="simple" xlink:actuate="onLoad" id="linearGradient1" xlink:show="other" spreadMethod="pad">
<stop stop-opacity="1" stop-color="white" offset="0%"/>
<stop stop-opacity="1" stop-color="white" offset="100%"/>
</linearGradient>
<linearGradient x1="10" x2="134" y1="164" gradientUnits="userSpaceOnUse" y2="275" xlink:type="simple" xlink:actuate="onLoad" id="linearGradient2" xlink:show="other" spreadMethod="pad">
<stop stop-opacity="1" stop-color="white" offset="0%"/>
<stop stop-opacity="1" stop-color="white" offset="100%"/>
</linearGradient>
<linearGradient x1="285" x2="409" y1="164" gradientUnits="userSpaceOnUse" y2="275" xlink:type="simple" xlink:actuate="onLoad" id="linearGradient3" xlink:show="other" spreadMethod="pad">
<stop stop-opacity="1" stop-color="white" offset="0%"/>
<stop stop-opacity="1" stop-color="white" offset="100%"/>
</linearGradient>
<linearGradient x1="150" x2="274" y1="4" gradientUnits="userSpaceOnUse" y2="115" xlink:type="simple" xlink:actuate="onLoad" id="linearGradient4" xlink:show="other" spreadMethod="pad">
<stop stop-opacity="1" stop-color="white" offset="0%"/>
<stop stop-opacity="1" stop-color="white" offset="100%"/>
</linearGradient>
<linearGradient x1="485" x2="674" y1="148" gradientUnits="userSpaceOnUse" y2="291" xlink:type="simple" xlink:actuate="onLoad" id="linearGradient5" xlink:show="other" spreadMethod="pad">
<stop stop-opacity="1" stop-color="white" offset="0%"/>
<stop stop-opacity="1" stop-color="white" offset="100%"/>
</linearGradient>
<clipPath clipPathUnits="userSpaceOnUse" id="clipPath1">
<path d="M484 44 L612 44 L612 146 L484 146 L484 44 Z"/>
</clipPath>
<clipPath clipPathUnits="userSpaceOnUse" id="clipPath2">
<path d="M484 44 L610 44 L610 144 L484 144 L484 44 Z"/>
</clipPath>
<clipPath clipPathUnits="userSpaceOnUse" id="clipPath3">
<path d="M542 49 L556 49 L556 66 L542 66 L542 49 Z"/>
</clipPath>
<clipPath clipPathUnits="userSpaceOnUse" id="clipPath4">
<path d="M489 71 L534 71 L534 86 L489 86 L489 71 Z"/>
</clipPath>
<clipPath clipPathUnits="userSpaceOnUse" id="clipPath5">
<path d="M489 84 L526 84 L526 99 L489 99 L489 84 Z"/>
</clipPath>
<clipPath clipPathUnits="userSpaceOnUse" id="clipPath6">
<path d="M489 97 L607 97 L607 112 L489 112 L489 97 Z"/>
</clipPath>
<clipPath clipPathUnits="userSpaceOnUse" id="clipPath7">
<path d="M485 69 L609 69 L609 143 L485 143 L485 69 Z"/>
</clipPath>
<clipPath clipPathUnits="userSpaceOnUse" id="clipPath8">
<path d="M9 169 L137 169 L137 271 L9 271 L9 169 Z"/>
</clipPath>
<clipPath clipPathUnits="userSpaceOnUse" id="clipPath9">
<path d="M9 169 L135 169 L135 269 L9 269 L9 169 Z"/>
</clipPath>
<clipPath clipPathUnits="userSpaceOnUse" id="clipPath10">
<path d="M67 174 L81 174 L81 191 L67 191 L67 174 Z"/>
</clipPath>
<clipPath clipPathUnits="userSpaceOnUse" id="clipPath11">
<path d="M14 196 L82 196 L82 211 L14 211 L14 196 Z"/>
</clipPath>
<clipPath clipPathUnits="userSpaceOnUse" id="clipPath12">
<path d="M14 209 L88 209 L88 224 L14 224 L14 209 Z"/>
</clipPath>
<clipPath clipPathUnits="userSpaceOnUse" id="clipPath13">
<path d="M14 222 L132 222 L132 237 L14 237 L14 222 Z"/>
</clipPath>
<clipPath clipPathUnits="userSpaceOnUse" id="clipPath14">
<path d="M10 194 L134 194 L134 268 L10 268 L10 194 Z"/>
</clipPath>
<clipPath clipPathUnits="userSpaceOnUse" id="clipPath15">
<path d="M284 169 L412 169 L412 271 L284 271 L284 169 Z"/>
</clipPath>
<clipPath clipPathUnits="userSpaceOnUse" id="clipPath16">
<path d="M284 169 L410 169 L410 269 L284 269 L284 169 Z"/>
</clipPath>
<clipPath clipPathUnits="userSpaceOnUse" id="clipPath17">
<path d="M331 174 L364 174 L364 191 L331 191 L331 174 Z"/>
</clipPath>
<clipPath clipPathUnits="userSpaceOnUse" id="clipPath18">
<path d="M289 196 L326 196 L326 211 L289 211 L289 196 Z"/>
</clipPath>
<clipPath clipPathUnits="userSpaceOnUse" id="clipPath19">
<path d="M289 209 L407 209 L407 224 L289 224 L289 209 Z"/>
</clipPath>
<clipPath clipPathUnits="userSpaceOnUse" id="clipPath20">
<path d="M285 194 L409 194 L409 268 L285 268 L285 194 Z"/>
</clipPath>
<clipPath clipPathUnits="userSpaceOnUse" id="clipPath21">
<path d="M149 9 L277 9 L277 111 L149 111 L149 9 Z"/>
</clipPath>
<clipPath clipPathUnits="userSpaceOnUse" id="clipPath22">
<path d="M149 9 L275 9 L275 109 L149 109 L149 9 Z"/>
</clipPath>
<clipPath clipPathUnits="userSpaceOnUse" id="clipPath23">
<path d="M178 14 L248 14 L248 46 L178 46 L178 14 Z"/>
</clipPath>
<clipPath clipPathUnits="userSpaceOnUse" id="clipPath24">
<path d="M154 51 L272 51 L272 66 L154 66 L154 51 Z"/>
</clipPath>
<clipPath clipPathUnits="userSpaceOnUse" id="clipPath25">
<path d="M150 49 L274 49 L274 108 L150 108 L150 49 Z"/>
</clipPath>
<clipPath clipPathUnits="userSpaceOnUse" id="clipPath26">
<path d="M484 169 L677 169 L677 271 L484 271 L484 169 Z"/>
</clipPath>
<clipPath clipPathUnits="userSpaceOnUse" id="clipPath27">
<path d="M484 169 L675 169 L675 269 L484 269 L484 169 Z"/>
</clipPath>
<clipPath clipPathUnits="userSpaceOnUse" id="clipPath28">
<path d="M561 174 L600 174 L600 191 L561 191 L561 174 Z"/>
</clipPath>
<clipPath clipPathUnits="userSpaceOnUse" id="clipPath29">
<path d="M489 196 L672 196 L672 211 L489 211 L489 196 Z"/>
</clipPath>
<clipPath clipPathUnits="userSpaceOnUse" id="clipPath30">
<path d="M485 194 L674 194 L674 268 L485 268 L485 194 Z"/>
</clipPath>
<clipPath clipPathUnits="userSpaceOnUse" id="clipPath31">
<path d="M-1 -1 L687 -1 L687 281 L-1 281 L-1 -1 Z"/>
</clipPath>
<clipPath clipPathUnits="userSpaceOnUse" id="clipPath32">
<path d="M203 107 L215 107 L215 117 L203 117 L203 107 Z"/>
</clipPath>
<clipPath clipPathUnits="userSpaceOnUse" id="clipPath33">
<path d="M212 107 L224 107 L224 117 L212 117 L212 107 Z"/>
</clipPath>
<clipPath clipPathUnits="userSpaceOnUse" id="clipPath34">
<path d="M251 204 L280 204 L280 219 L251 219 L251 204 Z"/>
</clipPath>
<clipPath clipPathUnits="userSpaceOnUse" id="clipPath35">
<path d="M153 208 L165 208 L165 223 L153 223 L153 208 Z"/>
</clipPath>
<clipPath clipPathUnits="userSpaceOnUse" id="clipPath36">
<path d="M277 218 L287 218 L287 227 L277 227 L277 218 Z"/>
</clipPath>
<clipPath clipPathUnits="userSpaceOnUse" id="clipPath37">
<path d="M133 218 L143 218 L143 227 L133 227 L133 218 Z"/>
</clipPath>
</defs>
<g fill="rgb(131,122,133)" font-family="'Segoe UI'" stroke-linejoin="round" stroke="rgb(131,122,133)" font-weight="bold" stroke-width="0" stroke-miterlimit="0">
<rect x="486" y="46" clip-path="url(#clipPath1)" width="124" rx="2.5" opacity="0.2549" ry="2.5" height="98" stroke="none"/>
<rect x="487" y="47" clip-path="url(#clipPath1)" width="124" rx="2.5" opacity="0.2549" ry="2.5" height="98" stroke="none"/>
<rect x="485" y="45" clip-path="url(#clipPath2)" fill="url(#linearGradient1)" width="124" rx="2.5" ry="2.5" height="98" stroke="none"/>
</g>
<g stroke-width="1.1" font-weight="bold" font-family="'Segoe UI'" stroke-linecap="butt">
<rect x="485" y="45" clip-path="url(#clipPath2)" fill="none" width="123" rx="2.5" ry="2.5" height="97"/>
<text xml:space="preserve" x="543" y="63" clip-path="url(#clipPath3)" stroke="none">A</text>
<text x="490" font-size="11" y="84" clip-path="url(#clipPath4)" stroke="none" font-weight="normal" xml:space="preserve">q : IImpl</text>
<text x="490" font-size="11" y="97" clip-path="url(#clipPath5)" stroke="none" font-weight="normal" xml:space="preserve">+ b : B</text>
<text x="490" font-size="11" y="110" clip-path="url(#clipPath6)" stroke="none" font-weight="normal" xml:space="preserve">+ assignP(_p : Integer)</text>
<line clip-path="url(#clipPath7)" fill="none" x1="486" x2="608" y1="70" y2="70"/>
<rect x="11" y="171" clip-path="url(#clipPath8)" fill="rgb(131,122,133)" width="124" rx="2.5" opacity="0.2549" ry="2.5" height="98" stroke="none"/>
<rect x="12" y="172" clip-path="url(#clipPath8)" fill="rgb(131,122,133)" width="124" rx="2.5" opacity="0.2549" ry="2.5" height="98" stroke="none"/>
<rect x="10" y="170" clip-path="url(#clipPath9)" fill="url(#linearGradient2)" width="124" rx="2.5" ry="2.5" height="98" stroke="none"/>
<rect x="10" y="170" clip-path="url(#clipPath9)" fill="none" width="123" rx="2.5" ry="2.5" height="97"/>
<text xml:space="preserve" x="68" y="188" clip-path="url(#clipPath10)" stroke="none">B</text>
<text x="15" font-size="11" y="209" clip-path="url(#clipPath11)" stroke="none" font-weight="normal" xml:space="preserve">+ p : Integer</text>
<text x="15" font-size="11" y="222" clip-path="url(#clipPath12)" stroke="none" font-weight="normal" xml:space="preserve">+ iImpl : IImpl</text>
<text x="15" font-size="11" y="235" clip-path="url(#clipPath13)" stroke="none" font-weight="normal" xml:space="preserve">+ assignP(_p : Integer)</text>
<line clip-path="url(#clipPath14)" fill="none" x1="11" x2="133" y1="195" y2="195"/>
<rect x="286" y="171" clip-path="url(#clipPath15)" fill="rgb(131,122,133)" width="124" rx="2.5" opacity="0.2549" ry="2.5" height="98" stroke="none"/>
<rect x="287" y="172" clip-path="url(#clipPath15)" fill="rgb(131,122,133)" width="124" rx="2.5" opacity="0.2549" ry="2.5" height="98" stroke="none"/>
<rect x="285" y="170" clip-path="url(#clipPath16)" fill="url(#linearGradient3)" width="124" rx="2.5" ry="2.5" height="98" stroke="none"/>
<rect x="285" y="170" clip-path="url(#clipPath16)" fill="none" width="123" rx="2.5" ry="2.5" height="97"/>
<text xml:space="preserve" x="332" y="188" clip-path="url(#clipPath17)" stroke="none">IImpl</text>
<text x="290" font-size="11" y="209" clip-path="url(#clipPath18)" stroke="none" font-weight="normal" xml:space="preserve">+ b : B</text>
<text x="290" font-size="11" y="222" clip-path="url(#clipPath19)" stroke="none" font-weight="normal" xml:space="preserve">+ assignP(_p : Integer)</text>
<line clip-path="url(#clipPath20)" fill="none" x1="286" x2="408" y1="195" y2="195"/>
<rect x="151" y="11" clip-path="url(#clipPath21)" fill="rgb(131,122,133)" width="124" rx="2.5" opacity="0.2549" ry="2.5" height="98" stroke="none"/>
<rect x="152" y="12" clip-path="url(#clipPath21)" fill="rgb(131,122,133)" width="124" rx="2.5" opacity="0.2549" ry="2.5" height="98" stroke="none"/>
<rect x="150" y="10" clip-path="url(#clipPath22)" fill="url(#linearGradient4)" width="124" rx="2.5" ry="2.5" height="98" stroke="none"/>
<rect x="150" y="10" clip-path="url(#clipPath22)" fill="none" width="123" rx="2.5" ry="2.5" height="97"/>
<text xml:space="preserve" x="179" y="28" clip-path="url(#clipPath23)" stroke="none">«Interface»&#13;</text>
<text xml:space="preserve" x="179" y="43" clip-path="url(#clipPath23)" stroke="none">I</text>
<text x="155" font-size="11" y="64" clip-path="url(#clipPath24)" stroke="none" font-weight="normal" xml:space="preserve">+ assignP(_p : Integer)</text>
<line clip-path="url(#clipPath25)" fill="none" x1="151" x2="273" y1="50" y2="50"/>
<rect x="486" y="171" clip-path="url(#clipPath26)" fill="rgb(131,122,133)" width="189" rx="2.5" opacity="0.2549" ry="2.5" height="98" stroke="none"/>
<rect x="487" y="172" clip-path="url(#clipPath26)" fill="rgb(131,122,133)" width="189" rx="2.5" opacity="0.2549" ry="2.5" height="98" stroke="none"/>
<rect x="485" y="170" clip-path="url(#clipPath27)" fill="url(#linearGradient5)" width="189" rx="2.5" ry="2.5" height="98" stroke="none"/>
<rect x="485" y="170" clip-path="url(#clipPath27)" fill="none" width="188" rx="2.5" ry="2.5" height="97"/>
<text xml:space="preserve" x="562" y="188" clip-path="url(#clipPath28)" stroke="none">Tester</text>
<text x="490" font-size="11" y="209" clip-path="url(#clipPath29)" stroke="none" font-weight="normal" xml:space="preserve">+ testCallDelegation(v : Integer) : A</text>
<line clip-path="url(#clipPath30)" fill="none" x1="486" x2="673" y1="195" y2="195"/>
<line clip-path="url(#clipPath31)" fill="none" x1="73" x2="213" y1="170" y2="108" stroke-dasharray="5,5"/>
</g>
<g stroke-linecap="butt" font-size="11" fill="white" font-family="'Segoe UI'" stroke-dasharray="5,5" stroke="white" stroke-width="1.1">
<polygon clip-path="url(#clipPath32)" points=" 213 108 207 115 204 108" stroke="none"/>
<polygon fill="none" stroke-dasharray="none" clip-path="url(#clipPath32)" points=" 213 108 207 115 204 108" stroke="black"/>
<line clip-path="url(#clipPath31)" fill="none" x1="348" x2="213" y1="170" y2="108" stroke="black"/>
<polygon clip-path="url(#clipPath33)" points=" 213 108 222 108 219 115" stroke="none"/>
<polygon fill="none" stroke-dasharray="none" clip-path="url(#clipPath33)" points=" 213 108 222 108 219 115" stroke="black"/>
<line clip-path="url(#clipPath31)" fill="none" x1="285" x2="134" y1="222" y2="222" stroke-dasharray="none" stroke="black"/>
<text x="252" y="217" clip-path="url(#clipPath34)" fill="black" stroke-dasharray="none" stroke="none" xml:space="preserve">iImpl</text>
<text x="154" y="221" clip-path="url(#clipPath35)" fill="black" stroke-dasharray="none" stroke="none" xml:space="preserve">b</text>
<line clip-path="url(#clipPath36)" fill="none" x1="278" x2="285" y1="225" y2="222" stroke-dasharray="none" stroke="black"/>
<line clip-path="url(#clipPath36)" fill="none" x1="285" x2="278" y1="222" y2="219" stroke-dasharray="none" stroke="black"/>
<line clip-path="url(#clipPath37)" fill="none" x1="141" x2="134" y1="219" y2="222" stroke-dasharray="none" stroke="black"/>
<line clip-path="url(#clipPath37)" fill="none" x1="134" x2="141" y1="222" y2="225" stroke-dasharray="none" stroke="black"/>
</g>
</g>
</svg>
