<?xml version="1.0" encoding="UTF-8"?><svg xmlns="http://www.w3.org/2000/svg" xmlns:xlink="http://www.w3.org/1999/xlink" stroke-dasharray="none" shape-rendering="auto" font-family="'Dialog'" width="615" text-rendering="auto" fill-opacity="1" contentScriptType="text/ecmascript" color-interpolation="auto" color-rendering="auto" preserveAspectRatio="xMidYMid meet" font-size="12" viewBox="0 0 615 448" fill="black" stroke="black" image-rendering="auto" stroke-miterlimit="10" zoomAndPan="magnify" version="1.0" stroke-linecap="square" stroke-linejoin="miter" contentStyleType="text/css" font-style="normal" height="448" stroke-width="1" stroke-dashoffset="0" font-weight="normal" stroke-opacity="1">
<!--Generated by the Batik Graphics2D SVG Generator-->
<defs id="genericDefs"/>
<g>
<defs id="defs1">
<linearGradient x1="124" x2="492" y1="10" gradientUnits="userSpaceOnUse" y2="436" xlink:type="simple" xlink:actuate="onLoad" id="linearGradient1" xlink:show="other" spreadMethod="pad">
<stop stop-opacity="1" stop-color="white" offset="0%"/>
<stop stop-opacity="1" stop-color="white" offset="100%"/>
</linearGradient>
<linearGradient x1="232" x2="380" y1="209" gradientUnits="userSpaceOnUse" y2="323" xlink:type="simple" xlink:actuate="onLoad" id="linearGradient2" xlink:show="other" spreadMethod="pad">
<stop stop-opacity="1" stop-color="white" offset="0%"/>
<stop stop-opacity="1" stop-color="white" offset="100%"/>
</linearGradient>
<linearGradient x1="317" x2="438" y1="40" gradientUnits="userSpaceOnUse" y2="121" xlink:type="simple" xlink:actuate="onLoad" id="linearGradient3" xlink:show="other" spreadMethod="pad">
<stop stop-opacity="1" stop-color="white" offset="0%"/>
<stop stop-opacity="1" stop-color="white" offset="100%"/>
</linearGradient>
<clipPath clipPathUnits="userSpaceOnUse" id="clipPath1">
<path d="M151 9 L466 9 L466 439 L151 439 L151 9 Z"/>
</clipPath>
<clipPath clipPathUnits="userSpaceOnUse" id="clipPath2">
<path d="M151 9 L464 9 L464 437 L151 437 L151 9 Z"/>
</clipPath>
<clipPath clipPathUnits="userSpaceOnUse" id="clipPath3">
<path d="M250 14 L367 14 L367 31 L250 31 L250 14 Z"/>
</clipPath>
<clipPath clipPathUnits="userSpaceOnUse" id="clipPath4">
<path d="M231 224 L383 224 L383 309 L231 309 L231 224 Z"/>
</clipPath>
<clipPath clipPathUnits="userSpaceOnUse" id="clipPath5">
<path d="M231 224 L381 224 L381 307 L231 307 L231 224 Z"/>
</clipPath>
<clipPath clipPathUnits="userSpaceOnUse" id="clipPath6">
<path d="M285 229 L329 229 L329 244 L285 244 L285 229 Z"/>
</clipPath>
<clipPath clipPathUnits="userSpaceOnUse" id="clipPath7">
<path d="M219 259 L241 259 L241 281 L219 281 L219 259 Z"/>
</clipPath>
<clipPath clipPathUnits="userSpaceOnUse" id="clipPath8">
<path d="M240 259 L302 259 L302 274 L240 274 L240 259 Z"/>
</clipPath>
<clipPath clipPathUnits="userSpaceOnUse" id="clipPath9">
<path d="M301 212 L323 212 L323 234 L301 234 L301 212 Z"/>
</clipPath>
<clipPath clipPathUnits="userSpaceOnUse" id="clipPath10">
<path d="M322 212 L373 212 L373 227 L322 227 L322 212 Z"/>
</clipPath>
<clipPath clipPathUnits="userSpaceOnUse" id="clipPath11">
<path d="M276 159 L444 159 L444 171 L276 171 L276 159 Z"/>
</clipPath>
<clipPath clipPathUnits="userSpaceOnUse" id="clipPath12">
<path d="M316 59 L441 59 L441 104 L316 104 L316 59 Z"/>
</clipPath>
<clipPath clipPathUnits="userSpaceOnUse" id="clipPath13">
<path d="M316 59 L439 59 L439 102 L316 102 L316 59 Z"/>
</clipPath>
<clipPath clipPathUnits="userSpaceOnUse" id="clipPath14">
<path d="M356 64 L401 64 L401 79 L356 79 L356 64 Z"/>
</clipPath>
<clipPath clipPathUnits="userSpaceOnUse" id="clipPath15">
<path d="M361 92 L383 92 L383 114 L361 114 L361 92 Z"/>
</clipPath>
<clipPath clipPathUnits="userSpaceOnUse" id="clipPath16">
<path d="M382 92 L431 92 L431 107 L382 107 L382 92 Z"/>
</clipPath>
<clipPath clipPathUnits="userSpaceOnUse" id="clipPath17">
<path d="M454 377 L606 377 L606 429 L454 429 L454 377 Z"/>
</clipPath>
<clipPath clipPathUnits="userSpaceOnUse" id="clipPath18">
<path d="M455 378 L607 378 L607 428 L455 428 L455 378 Z"/>
</clipPath>
<clipPath clipPathUnits="userSpaceOnUse" id="clipPath19">
<path d="M9 239 L161 239 L161 291 L9 291 L9 239 Z"/>
</clipPath>
<clipPath clipPathUnits="userSpaceOnUse" id="clipPath20">
<path d="M10 240 L162 240 L162 290 L10 290 L10 240 Z"/>
</clipPath>
<clipPath clipPathUnits="userSpaceOnUse" id="clipPath21">
<path d="M-1 -1 L616 -1 L616 449 L-1 449 L-1 -1 Z"/>
</clipPath>
<clipPath clipPathUnits="userSpaceOnUse" id="clipPath22">
<path d="M361 152 L370 152 L370 162 L361 162 L361 152 Z"/>
</clipPath>
<clipPath clipPathUnits="userSpaceOnUse" id="clipPath23">
<path d="M212 263 L222 263 L222 272 L212 272 L212 263 Z"/>
</clipPath>
<clipPath clipPathUnits="userSpaceOnUse" id="clipPath24">
<path d="M308 205 L317 205 L317 215 L308 215 L308 205 Z"/>
</clipPath>
<clipPath clipPathUnits="userSpaceOnUse" id="clipPath25">
<path d="M447 399 L457 399 L457 408 L447 408 L447 399 Z"/>
</clipPath>
</defs>
<g fill="rgb(131,122,133)" font-family="'Segoe UI'" stroke-linejoin="round" stroke="rgb(131,122,133)" stroke-width="0" stroke-miterlimit="0">
<rect x="153" y="11" clip-path="url(#clipPath1)" width="311" rx="12.5" opacity="0.2549" ry="12.5" height="426" stroke="none"/>
<rect x="154" y="12" clip-path="url(#clipPath1)" width="311" rx="12.5" opacity="0.2549" ry="12.5" height="426" stroke="none"/>
<rect x="152" y="10" clip-path="url(#clipPath2)" fill="url(#linearGradient1)" width="311" rx="12.5" ry="12.5" height="426" stroke="none"/>
</g>
<g stroke-width="1.1" font-family="'Segoe UI'" stroke-linecap="butt">
<rect x="152" y="10" clip-path="url(#clipPath2)" fill="none" width="310" rx="12.5" ry="12.5" height="425"/>
<text xml:space="preserve" x="251" y="28" clip-path="url(#clipPath3)" stroke="none">actTestCallDelegation</text>
</g>
<g stroke-linecap="butt" font-size="11" fill="rgb(131,122,133)" font-family="'Segoe UI'" stroke="rgb(131,122,133)" font-weight="bold" stroke-width="1.1">
<rect x="233" y="226" clip-path="url(#clipPath4)" width="148" rx="12.5" opacity="0.2549" ry="12.5" height="81" stroke="none"/>
<rect x="234" y="227" clip-path="url(#clipPath4)" width="148" rx="12.5" opacity="0.2549" ry="12.5" height="81" stroke="none"/>
<rect x="232" y="225" clip-path="url(#clipPath5)" fill="url(#linearGradient2)" width="148" rx="12.5" ry="12.5" height="81" stroke="none"/>
<rect x="232" y="225" clip-path="url(#clipPath5)" fill="none" width="147" rx="12.5" ry="12.5" height="80" stroke="black"/>
<text x="286" y="242" clip-path="url(#clipPath6)" fill="black" stroke="none" xml:space="preserve">assignP</text>
</g>
<g fill="white" stroke-width="1.1" font-family="'Segoe UI'" stroke-linecap="butt" stroke="white">
<rect x="220" y="260" clip-path="url(#clipPath7)" width="20" height="20" stroke="none"/>
<rect x="220" y="260" clip-path="url(#clipPath7)" fill="none" width="19" height="19" stroke="black"/>
<text x="241" font-size="11" y="272" clip-path="url(#clipPath8)" fill="black" stroke="none" xml:space="preserve">_p : Integer</text>
<rect x="302" y="213" clip-path="url(#clipPath9)" width="20" height="20" stroke="none"/>
<rect x="302" y="213" clip-path="url(#clipPath9)" fill="none" width="19" height="19" stroke="black"/>
<text x="323" font-size="11" y="225" clip-path="url(#clipPath10)" fill="black" stroke="none" xml:space="preserve">target : A</text>
<rect x="277" y="160" clip-path="url(#clipPath11)" fill="black" width="166" height="10" stroke="none"/>
<rect x="277" y="160" clip-path="url(#clipPath11)" fill="none" width="165" height="9" stroke="black" stroke-width="0.1"/>
</g>
<g stroke-linecap="butt" font-size="11" fill="rgb(131,122,133)" font-family="'Segoe UI'" stroke="rgb(131,122,133)" font-weight="bold" stroke-width="0.1">
<rect x="318" y="61" clip-path="url(#clipPath12)" width="121" rx="12.5" opacity="0.2549" ry="12.5" height="41" stroke="none"/>
<rect x="319" y="62" clip-path="url(#clipPath12)" width="121" rx="12.5" opacity="0.2549" ry="12.5" height="41" stroke="none"/>
<rect x="317" y="60" clip-path="url(#clipPath13)" fill="url(#linearGradient3)" width="121" rx="12.5" ry="12.5" height="41" stroke="none"/>
<rect x="317" y="60" clip-path="url(#clipPath13)" fill="none" width="120" rx="12.5" ry="12.5" height="40" stroke="black" stroke-width="1.1"/>
<text x="357" y="77" clip-path="url(#clipPath14)" fill="black" stroke="none" stroke-width="1.1" xml:space="preserve">CreateA</text>
</g>
<g fill="white" stroke-width="1.1" font-family="'Segoe UI'" stroke-linecap="butt" stroke="white">
<rect x="362" y="93" clip-path="url(#clipPath15)" width="20" height="20" stroke="none"/>
<rect x="362" y="93" clip-path="url(#clipPath15)" fill="none" width="19" height="19" stroke="black"/>
<text x="383" font-size="11" y="105" clip-path="url(#clipPath16)" fill="black" stroke="none" xml:space="preserve">result : A</text>
<rect x="455" y="378" clip-path="url(#clipPath17)" width="150" height="50" stroke="none"/>
<rect x="455" y="378" clip-path="url(#clipPath17)" fill="none" width="149" height="49" stroke="black"/>
<text x="513" font-size="11" y="408" clip-path="url(#clipPath18)" fill="black" stroke="none" xml:space="preserve">out : A</text>
<rect x="10" y="240" clip-path="url(#clipPath19)" width="150" height="50" stroke="none"/>
<rect x="10" y="240" clip-path="url(#clipPath19)" fill="none" width="149" height="49" stroke="black"/>
<text x="59" font-size="11" y="270" clip-path="url(#clipPath20)" fill="black" stroke="none" xml:space="preserve">v : Integer</text>
<line clip-path="url(#clipPath21)" fill="none" x1="365" x2="365" y1="113" y2="160" stroke="black"/>
<line clip-path="url(#clipPath22)" fill="none" x1="362" x2="365" y1="153" y2="160" stroke="black"/>
<line clip-path="url(#clipPath22)" fill="none" x1="365" x2="368" y1="160" y2="153" stroke="black"/>
<line clip-path="url(#clipPath21)" fill="none" x1="160" x2="220" y1="267" y2="267" stroke="black"/>
<line clip-path="url(#clipPath23)" fill="none" x1="213" x2="220" y1="270" y2="267" stroke="black"/>
<line clip-path="url(#clipPath23)" fill="none" x1="220" x2="213" y1="267" y2="264" stroke="black"/>
<line clip-path="url(#clipPath21)" fill="none" x1="312" x2="312" y1="170" y2="213" stroke="black"/>
<line clip-path="url(#clipPath24)" fill="none" x1="309" x2="312" y1="206" y2="213" stroke="black"/>
<line clip-path="url(#clipPath24)" fill="none" x1="312" x2="315" y1="213" y2="206" stroke="black"/>
<line clip-path="url(#clipPath21)" fill="none" x1="417" x2="417" y1="170" y2="403" stroke="black"/>
<line clip-path="url(#clipPath21)" fill="none" x1="417" x2="455" y1="403" y2="403" stroke="black"/>
<line clip-path="url(#clipPath25)" fill="none" x1="448" x2="455" y1="406" y2="403" stroke="black"/>
<line clip-path="url(#clipPath25)" fill="none" x1="455" x2="448" y1="403" y2="400" stroke="black"/>
<line clip-path="url(#clipPath21)" fill="none" x1="160" x2="220" y1="267" y2="267" stroke="black"/>
<line clip-path="url(#clipPath23)" fill="none" x1="213" x2="220" y1="270" y2="267" stroke="black"/>
<line clip-path="url(#clipPath23)" fill="none" x1="220" x2="213" y1="267" y2="264" stroke="black"/>
<line clip-path="url(#clipPath21)" fill="none" x1="312" x2="312" y1="170" y2="213" stroke="black"/>
<line clip-path="url(#clipPath24)" fill="none" x1="309" x2="312" y1="206" y2="213" stroke="black"/>
<line clip-path="url(#clipPath24)" fill="none" x1="312" x2="315" y1="213" y2="206" stroke="black"/>
<line clip-path="url(#clipPath21)" fill="none" x1="417" x2="417" y1="170" y2="403" stroke="black"/>
<line clip-path="url(#clipPath21)" fill="none" x1="417" x2="455" y1="403" y2="403" stroke="black"/>
<line clip-path="url(#clipPath25)" fill="none" x1="448" x2="455" y1="406" y2="403" stroke="black"/>
<line clip-path="url(#clipPath25)" fill="none" x1="455" x2="448" y1="403" y2="400" stroke="black"/>
<line clip-path="url(#clipPath21)" fill="none" x1="365" x2="365" y1="113" y2="160" stroke="black"/>
<line clip-path="url(#clipPath22)" fill="none" x1="362" x2="365" y1="153" y2="160" stroke="black"/>
<line clip-path="url(#clipPath22)" fill="none" x1="365" x2="368" y1="160" y2="153" stroke="black"/>
</g>
</g>
</svg>
