<?xml version="1.0" encoding="UTF-8"?><svg xmlns="http://www.w3.org/2000/svg" xmlns:xlink="http://www.w3.org/1999/xlink" stroke-dasharray="none" shape-rendering="auto" font-family="'Dialog'" width="665" text-rendering="auto" fill-opacity="1" contentScriptType="text/ecmascript" color-interpolation="auto" color-rendering="auto" preserveAspectRatio="xMidYMid meet" font-size="12" viewBox="0 0 665 488" fill="black" stroke="black" image-rendering="auto" stroke-miterlimit="10" zoomAndPan="magnify" version="1.0" stroke-linecap="square" stroke-linejoin="miter" contentStyleType="text/css" font-style="normal" height="488" stroke-width="1" stroke-dashoffset="0" font-weight="normal" stroke-opacity="1">
<!--Generated by the Batik Graphics2D SVG Generator-->
<defs id="genericDefs"/>
<g>
<defs id="defs1">
<linearGradient x1="126" x2="539" y1="10" gradientUnits="userSpaceOnUse" y2="476" xlink:type="simple" xlink:actuate="onLoad" id="linearGradient1" xlink:show="other" spreadMethod="pad">
<stop stop-opacity="1" stop-color="white" offset="0%"/>
<stop stop-opacity="1" stop-color="white" offset="100%"/>
</linearGradient>
<linearGradient x1="257" x2="383" y1="44" gradientUnits="userSpaceOnUse" y2="127" xlink:type="simple" xlink:actuate="onLoad" id="linearGradient2" xlink:show="other" spreadMethod="pad">
<stop stop-opacity="1" stop-color="white" offset="0%"/>
<stop stop-opacity="1" stop-color="white" offset="100%"/>
</linearGradient>
<linearGradient x1="262" x2="410" y1="185" gradientUnits="userSpaceOnUse" y2="293" xlink:type="simple" xlink:actuate="onLoad" id="linearGradient3" xlink:show="other" spreadMethod="pad">
<stop stop-opacity="1" stop-color="white" offset="0%"/>
<stop stop-opacity="1" stop-color="white" offset="100%"/>
</linearGradient>
<linearGradient x1="262" x2="410" y1="315" gradientUnits="userSpaceOnUse" y2="423" xlink:type="simple" xlink:actuate="onLoad" id="linearGradient4" xlink:show="other" spreadMethod="pad">
<stop stop-opacity="1" stop-color="white" offset="0%"/>
<stop stop-opacity="1" stop-color="white" offset="100%"/>
</linearGradient>
<clipPath clipPathUnits="userSpaceOnUse" id="clipPath1">
<path d="M151 9 L516 9 L516 479 L151 479 L151 9 Z"/>
</clipPath>
<clipPath clipPathUnits="userSpaceOnUse" id="clipPath2">
<path d="M151 9 L514 9 L514 477 L151 477 L151 9 Z"/>
</clipPath>
<clipPath clipPathUnits="userSpaceOnUse" id="clipPath3">
<path d="M275 14 L392 14 L392 31 L275 31 L275 14 Z"/>
</clipPath>
<clipPath clipPathUnits="userSpaceOnUse" id="clipPath4">
<path d="M256 64 L386 64 L386 109 L256 109 L256 64 Z"/>
</clipPath>
<clipPath clipPathUnits="userSpaceOnUse" id="clipPath5">
<path d="M256 64 L384 64 L384 107 L256 107 L256 64 Z"/>
</clipPath>
<clipPath clipPathUnits="userSpaceOnUse" id="clipPath6">
<path d="M298 69 L343 69 L343 84 L298 84 L298 69 Z"/>
</clipPath>
<clipPath clipPathUnits="userSpaceOnUse" id="clipPath7">
<path d="M316 97 L338 97 L338 119 L316 119 L316 97 Z"/>
</clipPath>
<clipPath clipPathUnits="userSpaceOnUse" id="clipPath8">
<path d="M337 104 L386 104 L386 119 L337 119 L337 104 Z"/>
</clipPath>
<clipPath clipPathUnits="userSpaceOnUse" id="clipPath9">
<path d="M221 149 L489 149 L489 161 L221 161 L221 149 Z"/>
</clipPath>
<clipPath clipPathUnits="userSpaceOnUse" id="clipPath10">
<path d="M261 204 L413 204 L413 276 L261 276 L261 204 Z"/>
</clipPath>
<clipPath clipPathUnits="userSpaceOnUse" id="clipPath11">
<path d="M261 204 L411 204 L411 274 L261 274 L261 204 Z"/>
</clipPath>
<clipPath clipPathUnits="userSpaceOnUse" id="clipPath12">
<path d="M308 209 L366 209 L366 224 L308 224 L308 209 Z"/>
</clipPath>
<clipPath clipPathUnits="userSpaceOnUse" id="clipPath13">
<path d="M316 192 L338 192 L338 214 L316 214 L316 192 Z"/>
</clipPath>
<clipPath clipPathUnits="userSpaceOnUse" id="clipPath14">
<path d="M337 192 L389 192 L389 207 L337 207 L337 192 Z"/>
</clipPath>
<clipPath clipPathUnits="userSpaceOnUse" id="clipPath15">
<path d="M316 264 L338 264 L338 286 L316 286 L316 264 Z"/>
</clipPath>
<clipPath clipPathUnits="userSpaceOnUse" id="clipPath16">
<path d="M337 264 L393 264 L393 279 L337 279 L337 264 Z"/>
</clipPath>
<clipPath clipPathUnits="userSpaceOnUse" id="clipPath17">
<path d="M261 334 L413 334 L413 406 L261 406 L261 334 Z"/>
</clipPath>
<clipPath clipPathUnits="userSpaceOnUse" id="clipPath18">
<path d="M261 334 L411 334 L411 404 L261 404 L261 334 Z"/>
</clipPath>
<clipPath clipPathUnits="userSpaceOnUse" id="clipPath19">
<path d="M281 339 L393 339 L393 354 L281 354 L281 339 Z"/>
</clipPath>
<clipPath clipPathUnits="userSpaceOnUse" id="clipPath20">
<path d="M249 354 L271 354 L271 376 L249 376 L249 354 Z"/>
</clipPath>
<clipPath clipPathUnits="userSpaceOnUse" id="clipPath21">
<path d="M270 354 L325 354 L325 369 L270 369 L270 354 Z"/>
</clipPath>
<clipPath clipPathUnits="userSpaceOnUse" id="clipPath22">
<path d="M316 322 L338 322 L338 344 L316 344 L316 322 Z"/>
</clipPath>
<clipPath clipPathUnits="userSpaceOnUse" id="clipPath23">
<path d="M337 322 L406 322 L406 337 L337 337 L337 322 Z"/>
</clipPath>
<clipPath clipPathUnits="userSpaceOnUse" id="clipPath24">
<path d="M9 334 L161 334 L161 386 L9 386 L9 334 Z"/>
</clipPath>
<clipPath clipPathUnits="userSpaceOnUse" id="clipPath25">
<path d="M10 335 L162 335 L162 385 L10 385 L10 335 Z"/>
</clipPath>
<clipPath clipPathUnits="userSpaceOnUse" id="clipPath26">
<path d="M504 399 L656 399 L656 451 L504 451 L504 399 Z"/>
</clipPath>
<clipPath clipPathUnits="userSpaceOnUse" id="clipPath27">
<path d="M505 400 L657 400 L657 450 L505 450 L505 400 Z"/>
</clipPath>
<clipPath clipPathUnits="userSpaceOnUse" id="clipPath28">
<path d="M-1 -1 L666 -1 L666 489 L-1 489 L-1 -1 Z"/>
</clipPath>
<clipPath clipPathUnits="userSpaceOnUse" id="clipPath29">
<path d="M323 142 L332 142 L332 152 L323 152 L323 142 Z"/>
</clipPath>
<clipPath clipPathUnits="userSpaceOnUse" id="clipPath30">
<path d="M323 315 L332 315 L332 325 L323 325 L323 315 Z"/>
</clipPath>
<clipPath clipPathUnits="userSpaceOnUse" id="clipPath31">
<path d="M497 421 L507 421 L507 430 L497 430 L497 421 Z"/>
</clipPath>
<clipPath clipPathUnits="userSpaceOnUse" id="clipPath32">
<path d="M323 185 L332 185 L332 195 L323 195 L323 185 Z"/>
</clipPath>
<clipPath clipPathUnits="userSpaceOnUse" id="clipPath33">
<path d="M242 361 L252 361 L252 370 L242 370 L242 361 Z"/>
</clipPath>
</defs>
<g fill="rgb(131,122,133)" font-family="'Segoe UI'" stroke-linejoin="round" stroke="rgb(131,122,133)" stroke-width="0" stroke-miterlimit="0">
<rect x="153" y="11" clip-path="url(#clipPath1)" width="361" rx="12.5" opacity="0.2549" ry="12.5" height="466" stroke="none"/>
<rect x="154" y="12" clip-path="url(#clipPath1)" width="361" rx="12.5" opacity="0.2549" ry="12.5" height="466" stroke="none"/>
<rect x="152" y="10" clip-path="url(#clipPath2)" fill="url(#linearGradient1)" width="361" rx="12.5" ry="12.5" height="466" stroke="none"/>
</g>
<g stroke-width="1.1" font-family="'Segoe UI'" stroke-linecap="butt">
<rect x="152" y="10" clip-path="url(#clipPath2)" fill="none" width="360" rx="12.5" ry="12.5" height="465"/>
<text xml:space="preserve" x="276" y="28" clip-path="url(#clipPath3)" stroke="none">actTestCallDelegation</text>
</g>
<g stroke-linecap="butt" font-size="11" fill="rgb(131,122,133)" font-family="'Segoe UI'" stroke="rgb(131,122,133)" font-weight="bold" stroke-width="1.1">
<rect x="258" y="66" clip-path="url(#clipPath4)" width="126" rx="12.5" opacity="0.2549" ry="12.5" height="41" stroke="none"/>
<rect x="259" y="67" clip-path="url(#clipPath4)" width="126" rx="12.5" opacity="0.2549" ry="12.5" height="41" stroke="none"/>
<rect x="257" y="65" clip-path="url(#clipPath5)" fill="url(#linearGradient2)" width="126" rx="12.5" ry="12.5" height="41" stroke="none"/>
<rect x="257" y="65" clip-path="url(#clipPath5)" fill="none" width="125" rx="12.5" ry="12.5" height="40" stroke="black"/>
<text x="299" y="82" clip-path="url(#clipPath6)" fill="black" stroke="none" xml:space="preserve">CreateA</text>
</g>
<g fill="white" stroke-width="1.1" font-family="'Segoe UI'" stroke-linecap="butt" stroke="white">
<rect x="317" y="98" clip-path="url(#clipPath7)" width="20" height="20" stroke="none"/>
<rect x="317" y="98" clip-path="url(#clipPath7)" fill="none" width="19" height="19" stroke="black"/>
<text x="338" font-size="11" y="117" clip-path="url(#clipPath8)" fill="black" stroke="none" xml:space="preserve">result : A</text>
<rect x="222" y="150" clip-path="url(#clipPath9)" fill="black" width="266" height="10" stroke="none"/>
<rect x="222" y="150" clip-path="url(#clipPath9)" fill="none" width="265" height="9" stroke="black" stroke-width="0.1"/>
</g>
<g stroke-linecap="butt" font-size="11" fill="rgb(131,122,133)" font-family="'Segoe UI'" stroke="rgb(131,122,133)" font-weight="bold" stroke-width="0.1">
<rect x="263" y="206" clip-path="url(#clipPath10)" width="148" rx="12.5" opacity="0.2549" ry="12.5" height="68" stroke="none"/>
<rect x="264" y="207" clip-path="url(#clipPath10)" width="148" rx="12.5" opacity="0.2549" ry="12.5" height="68" stroke="none"/>
<rect x="262" y="205" clip-path="url(#clipPath11)" fill="url(#linearGradient3)" width="148" rx="12.5" ry="12.5" height="68" stroke="none"/>
<rect x="262" y="205" clip-path="url(#clipPath11)" fill="none" width="147" rx="12.5" ry="12.5" height="67" stroke="black" stroke-width="1.1"/>
<text x="309" y="222" clip-path="url(#clipPath12)" fill="black" stroke="none" stroke-width="1.1" xml:space="preserve">ReadQofA</text>
</g>
<g fill="white" stroke-width="1.1" font-family="'Segoe UI'" stroke-linecap="butt" stroke="white">
<rect x="317" y="193" clip-path="url(#clipPath13)" width="20" height="20" stroke="none"/>
<rect x="317" y="193" clip-path="url(#clipPath13)" fill="none" width="19" height="19" stroke="black"/>
<text x="338" font-size="11" y="205" clip-path="url(#clipPath14)" fill="black" stroke="none" xml:space="preserve">object : A</text>
<rect x="317" y="265" clip-path="url(#clipPath15)" width="20" height="20" stroke="none"/>
<rect x="317" y="265" clip-path="url(#clipPath15)" fill="none" width="19" height="19" stroke="black"/>
<text x="338" font-size="11" y="277" clip-path="url(#clipPath16)" fill="black" stroke="none" xml:space="preserve">out : IImpl</text>
</g>
<g stroke-linecap="butt" font-size="11" fill="rgb(131,122,133)" font-family="'Segoe UI'" stroke="rgb(131,122,133)" font-weight="bold" stroke-width="1.1">
<rect x="263" y="336" clip-path="url(#clipPath17)" width="148" rx="12.5" opacity="0.2549" ry="12.5" height="68" stroke="none"/>
<rect x="264" y="337" clip-path="url(#clipPath17)" width="148" rx="12.5" opacity="0.2549" ry="12.5" height="68" stroke="none"/>
<rect x="262" y="335" clip-path="url(#clipPath18)" fill="url(#linearGradient4)" width="148" rx="12.5" ry="12.5" height="68" stroke="none"/>
<rect x="262" y="335" clip-path="url(#clipPath18)" fill="none" width="147" rx="12.5" ry="12.5" height="67" stroke="black"/>
<text x="282" y="352" clip-path="url(#clipPath19)" fill="black" stroke="none" xml:space="preserve">callAssignP : assignP</text>
</g>
<g fill="white" stroke-width="1.1" font-family="'Segoe UI'" stroke-linecap="butt" stroke="white">
<rect x="250" y="355" clip-path="url(#clipPath20)" width="20" height="20" stroke="none"/>
<rect x="250" y="355" clip-path="url(#clipPath20)" fill="none" width="19" height="19" stroke="black"/>
<text x="271" font-size="11" y="367" clip-path="url(#clipPath21)" fill="black" stroke="none" xml:space="preserve">v : Integer</text>
<rect x="317" y="323" clip-path="url(#clipPath22)" width="20" height="20" stroke="none"/>
<rect x="317" y="323" clip-path="url(#clipPath22)" fill="none" width="19" height="19" stroke="black"/>
<text x="338" font-size="11" y="335" clip-path="url(#clipPath23)" fill="black" stroke="none" xml:space="preserve">target : IImpl</text>
<rect x="10" y="335" clip-path="url(#clipPath24)" width="150" height="50" stroke="none"/>
<rect x="10" y="335" clip-path="url(#clipPath24)" fill="none" width="149" height="49" stroke="black"/>
<text x="59" font-size="11" y="365" clip-path="url(#clipPath25)" fill="black" stroke="none" xml:space="preserve">v : Integer</text>
<rect x="505" y="400" clip-path="url(#clipPath26)" width="150" height="50" stroke="none"/>
<rect x="505" y="400" clip-path="url(#clipPath26)" fill="none" width="149" height="49" stroke="black"/>
<text x="563" font-size="11" y="430" clip-path="url(#clipPath27)" fill="black" stroke="none" xml:space="preserve">out : A</text>
<line clip-path="url(#clipPath28)" fill="none" x1="327" x2="327" y1="118" y2="150" stroke="black"/>
<line clip-path="url(#clipPath29)" fill="none" x1="324" x2="327" y1="143" y2="150" stroke="black"/>
<line clip-path="url(#clipPath29)" fill="none" x1="327" x2="330" y1="150" y2="143" stroke="black"/>
<line clip-path="url(#clipPath28)" fill="none" x1="327" x2="327" y1="285" y2="323" stroke="black"/>
<line clip-path="url(#clipPath30)" fill="none" x1="324" x2="327" y1="316" y2="323" stroke="black"/>
<line clip-path="url(#clipPath30)" fill="none" x1="327" x2="330" y1="323" y2="316" stroke="black"/>
<line clip-path="url(#clipPath28)" fill="none" x1="442" x2="442" y1="160" y2="425" stroke="black"/>
<line clip-path="url(#clipPath28)" fill="none" x1="442" x2="505" y1="425" y2="425" stroke="black"/>
<line clip-path="url(#clipPath31)" fill="none" x1="498" x2="505" y1="428" y2="425" stroke="black"/>
<line clip-path="url(#clipPath31)" fill="none" x1="505" x2="498" y1="425" y2="422" stroke="black"/>
<line clip-path="url(#clipPath28)" fill="none" x1="327" x2="327" y1="160" y2="193" stroke="black"/>
<line clip-path="url(#clipPath32)" fill="none" x1="324" x2="327" y1="186" y2="193" stroke="black"/>
<line clip-path="url(#clipPath32)" fill="none" x1="327" x2="330" y1="193" y2="186" stroke="black"/>
<line clip-path="url(#clipPath28)" fill="none" x1="160" x2="250" y1="365" y2="365" stroke="black"/>
<line clip-path="url(#clipPath33)" fill="none" x1="243" x2="250" y1="368" y2="365" stroke="black"/>
<line clip-path="url(#clipPath33)" fill="none" x1="250" x2="243" y1="365" y2="362" stroke="black"/>
<line clip-path="url(#clipPath28)" fill="none" x1="327" x2="327" y1="118" y2="150" stroke="black"/>
<line clip-path="url(#clipPath29)" fill="none" x1="324" x2="327" y1="143" y2="150" stroke="black"/>
<line clip-path="url(#clipPath29)" fill="none" x1="327" x2="330" y1="150" y2="143" stroke="black"/>
<line clip-path="url(#clipPath28)" fill="none" x1="442" x2="442" y1="160" y2="425" stroke="black"/>
<line clip-path="url(#clipPath28)" fill="none" x1="442" x2="505" y1="425" y2="425" stroke="black"/>
<line clip-path="url(#clipPath31)" fill="none" x1="498" x2="505" y1="428" y2="425" stroke="black"/>
<line clip-path="url(#clipPath31)" fill="none" x1="505" x2="498" y1="425" y2="422" stroke="black"/>
<line clip-path="url(#clipPath28)" fill="none" x1="327" x2="327" y1="160" y2="193" stroke="black"/>
<line clip-path="url(#clipPath32)" fill="none" x1="324" x2="327" y1="186" y2="193" stroke="black"/>
<line clip-path="url(#clipPath32)" fill="none" x1="327" x2="330" y1="193" y2="186" stroke="black"/>
<line clip-path="url(#clipPath28)" fill="none" x1="327" x2="327" y1="285" y2="323" stroke="black"/>
<line clip-path="url(#clipPath30)" fill="none" x1="324" x2="327" y1="316" y2="323" stroke="black"/>
<line clip-path="url(#clipPath30)" fill="none" x1="327" x2="330" y1="323" y2="316" stroke="black"/>
<line clip-path="url(#clipPath28)" fill="none" x1="160" x2="250" y1="365" y2="365" stroke="black"/>
<line clip-path="url(#clipPath33)" fill="none" x1="243" x2="250" y1="368" y2="365" stroke="black"/>
<line clip-path="url(#clipPath33)" fill="none" x1="250" x2="243" y1="365" y2="362" stroke="black"/>
</g>
</g>
</svg>
