<?xml version="1.0" encoding="UTF-8"?><svg xmlns="http://www.w3.org/2000/svg" xmlns:xlink="http://www.w3.org/1999/xlink" stroke-dasharray="none" shape-rendering="auto" font-family="'Dialog'" width="596" text-rendering="auto" fill-opacity="1" contentScriptType="text/ecmascript" color-interpolation="auto" color-rendering="auto" preserveAspectRatio="xMidYMid meet" font-size="12" viewBox="0 0 596 280" fill="black" stroke="black" image-rendering="auto" stroke-miterlimit="10" zoomAndPan="magnify" version="1.0" stroke-linecap="square" stroke-linejoin="miter" contentStyleType="text/css" font-style="normal" height="280" stroke-width="1" stroke-dashoffset="0" font-weight="normal" stroke-opacity="1">
<!--Generated by the Batik Graphics2D SVG Generator-->
<defs id="genericDefs"/>
<g>
<defs id="defs1">
<linearGradient x1="10" x2="128" y1="165" gradientUnits="userSpaceOnUse" y2="273" xlink:type="simple" xlink:actuate="onLoad" id="linearGradient1" xlink:show="other" spreadMethod="pad">
<stop stop-opacity="1" stop-color="white" offset="0%"/>
<stop stop-opacity="1" stop-color="white" offset="100%"/>
</linearGradient>
<linearGradient x1="220" x2="338" y1="165" gradientUnits="userSpaceOnUse" y2="273" xlink:type="simple" xlink:actuate="onLoad" id="linearGradient2" xlink:show="other" spreadMethod="pad">
<stop stop-opacity="1" stop-color="white" offset="0%"/>
<stop stop-opacity="1" stop-color="white" offset="100%"/>
</linearGradient>
<linearGradient x1="130" x2="248" y1="5" gradientUnits="userSpaceOnUse" y2="113" xlink:type="simple" xlink:actuate="onLoad" id="linearGradient3" xlink:show="other" spreadMethod="pad">
<stop stop-opacity="1" stop-color="white" offset="0%"/>
<stop stop-opacity="1" stop-color="white" offset="100%"/>
</linearGradient>
<linearGradient x1="395" x2="584" y1="148" gradientUnits="userSpaceOnUse" y2="291" xlink:type="simple" xlink:actuate="onLoad" id="linearGradient4" xlink:show="other" spreadMethod="pad">
<stop stop-opacity="1" stop-color="white" offset="0%"/>
<stop stop-opacity="1" stop-color="white" offset="100%"/>
</linearGradient>
<clipPath clipPathUnits="userSpaceOnUse" id="clipPath1">
<path d="M9 169 L131 169 L131 271 L9 271 L9 169 Z"/>
</clipPath>
<clipPath clipPathUnits="userSpaceOnUse" id="clipPath2">
<path d="M9 169 L129 169 L129 269 L9 269 L9 169 Z"/>
</clipPath>
<clipPath clipPathUnits="userSpaceOnUse" id="clipPath3">
<path d="M64 174 L78 174 L78 191 L64 191 L64 174 Z"/>
</clipPath>
<clipPath clipPathUnits="userSpaceOnUse" id="clipPath4">
<path d="M14 196 L82 196 L82 211 L14 211 L14 196 Z"/>
</clipPath>
<clipPath clipPathUnits="userSpaceOnUse" id="clipPath5">
<path d="M14 209 L59 209 L59 224 L14 224 L14 209 Z"/>
</clipPath>
<clipPath clipPathUnits="userSpaceOnUse" id="clipPath6">
<path d="M14 222 L125 222 L125 237 L14 237 L14 222 Z"/>
</clipPath>
<clipPath clipPathUnits="userSpaceOnUse" id="clipPath7">
<path d="M10 194 L128 194 L128 268 L10 268 L10 194 Z"/>
</clipPath>
<clipPath clipPathUnits="userSpaceOnUse" id="clipPath8">
<path d="M219 169 L341 169 L341 271 L219 271 L219 169 Z"/>
</clipPath>
<clipPath clipPathUnits="userSpaceOnUse" id="clipPath9">
<path d="M219 169 L339 169 L339 269 L219 269 L219 169 Z"/>
</clipPath>
<clipPath clipPathUnits="userSpaceOnUse" id="clipPath10">
<path d="M263 174 L296 174 L296 191 L263 191 L263 174 Z"/>
</clipPath>
<clipPath clipPathUnits="userSpaceOnUse" id="clipPath11">
<path d="M224 196 L335 196 L335 211 L224 211 L224 196 Z"/>
</clipPath>
<clipPath clipPathUnits="userSpaceOnUse" id="clipPath12">
<path d="M220 194 L338 194 L338 268 L220 268 L220 194 Z"/>
</clipPath>
<clipPath clipPathUnits="userSpaceOnUse" id="clipPath13">
<path d="M129 9 L251 9 L251 111 L129 111 L129 9 Z"/>
</clipPath>
<clipPath clipPathUnits="userSpaceOnUse" id="clipPath14">
<path d="M129 9 L249 9 L249 109 L129 109 L129 9 Z"/>
</clipPath>
<clipPath clipPathUnits="userSpaceOnUse" id="clipPath15">
<path d="M155 14 L225 14 L225 46 L155 46 L155 14 Z"/>
</clipPath>
<clipPath clipPathUnits="userSpaceOnUse" id="clipPath16">
<path d="M134 51 L245 51 L245 66 L134 66 L134 51 Z"/>
</clipPath>
<clipPath clipPathUnits="userSpaceOnUse" id="clipPath17">
<path d="M130 49 L248 49 L248 108 L130 108 L130 49 Z"/>
</clipPath>
<clipPath clipPathUnits="userSpaceOnUse" id="clipPath18">
<path d="M394 169 L587 169 L587 271 L394 271 L394 169 Z"/>
</clipPath>
<clipPath clipPathUnits="userSpaceOnUse" id="clipPath19">
<path d="M394 169 L585 169 L585 269 L394 269 L394 169 Z"/>
</clipPath>
<clipPath clipPathUnits="userSpaceOnUse" id="clipPath20">
<path d="M471 174 L510 174 L510 191 L471 191 L471 174 Z"/>
</clipPath>
<clipPath clipPathUnits="userSpaceOnUse" id="clipPath21">
<path d="M399 196 L582 196 L582 211 L399 211 L399 196 Z"/>
</clipPath>
<clipPath clipPathUnits="userSpaceOnUse" id="clipPath22">
<path d="M395 194 L584 194 L584 268 L395 268 L395 194 Z"/>
</clipPath>
<clipPath clipPathUnits="userSpaceOnUse" id="clipPath23">
<path d="M-1 -1 L597 -1 L597 281 L-1 281 L-1 -1 Z"/>
</clipPath>
<clipPath clipPathUnits="userSpaceOnUse" id="clipPath24">
<path d="M180 107 L192 107 L192 117 L180 117 L180 107 Z"/>
</clipPath>
<clipPath clipPathUnits="userSpaceOnUse" id="clipPath25">
<path d="M189 107 L201 107 L201 118 L189 118 L189 107 Z"/>
</clipPath>
</defs>
<g fill="rgb(131,122,133)" font-family="'Segoe UI'" stroke-linejoin="round" stroke="rgb(131,122,133)" font-weight="bold" stroke-width="0" stroke-miterlimit="0">
<rect x="11" y="171" clip-path="url(#clipPath1)" width="118" rx="2.5" opacity="0.2549" ry="2.5" height="98" stroke="none"/>
<rect x="12" y="172" clip-path="url(#clipPath1)" width="118" rx="2.5" opacity="0.2549" ry="2.5" height="98" stroke="none"/>
<rect x="10" y="170" clip-path="url(#clipPath2)" fill="url(#linearGradient1)" width="118" rx="2.5" ry="2.5" height="98" stroke="none"/>
</g>
<g stroke-width="1.1" font-weight="bold" font-family="'Segoe UI'" stroke-linecap="butt">
<rect x="10" y="170" clip-path="url(#clipPath2)" fill="none" width="117" rx="2.5" ry="2.5" height="97"/>
<text xml:space="preserve" x="65" y="188" clip-path="url(#clipPath3)" stroke="none">A</text>
<text x="15" font-size="11" y="209" clip-path="url(#clipPath4)" stroke="none" font-weight="normal" xml:space="preserve">+ p : Integer</text>
<text x="15" font-size="11" y="222" clip-path="url(#clipPath5)" stroke="none" font-weight="normal" xml:space="preserve">q : IImpl</text>
<text x="15" font-size="11" y="235" clip-path="url(#clipPath6)" stroke="none" font-weight="normal" xml:space="preserve">+ assignP(v : Integer)</text>
<line clip-path="url(#clipPath7)" fill="none" x1="11" x2="127" y1="195" y2="195"/>
<rect x="221" y="171" clip-path="url(#clipPath8)" fill="rgb(131,122,133)" width="118" rx="2.5" opacity="0.2549" ry="2.5" height="98" stroke="none"/>
<rect x="222" y="172" clip-path="url(#clipPath8)" fill="rgb(131,122,133)" width="118" rx="2.5" opacity="0.2549" ry="2.5" height="98" stroke="none"/>
<rect x="220" y="170" clip-path="url(#clipPath9)" fill="url(#linearGradient2)" width="118" rx="2.5" ry="2.5" height="98" stroke="none"/>
<rect x="220" y="170" clip-path="url(#clipPath9)" fill="none" width="117" rx="2.5" ry="2.5" height="97"/>
<text xml:space="preserve" x="264" y="188" clip-path="url(#clipPath10)" stroke="none">IImpl</text>
<text x="225" font-size="11" y="209" clip-path="url(#clipPath11)" stroke="none" font-weight="normal" xml:space="preserve">+ assignP(v : Integer)</text>
<line clip-path="url(#clipPath12)" fill="none" x1="221" x2="337" y1="195" y2="195"/>
<rect x="131" y="11" clip-path="url(#clipPath13)" fill="rgb(131,122,133)" width="118" rx="2.5" opacity="0.2549" ry="2.5" height="98" stroke="none"/>
<rect x="132" y="12" clip-path="url(#clipPath13)" fill="rgb(131,122,133)" width="118" rx="2.5" opacity="0.2549" ry="2.5" height="98" stroke="none"/>
<rect x="130" y="10" clip-path="url(#clipPath14)" fill="url(#linearGradient3)" width="118" rx="2.5" ry="2.5" height="98" stroke="none"/>
<rect x="130" y="10" clip-path="url(#clipPath14)" fill="none" width="117" rx="2.5" ry="2.5" height="97"/>
<text xml:space="preserve" x="156" y="28" clip-path="url(#clipPath15)" stroke="none">«Interface»&#13;</text>
<text xml:space="preserve" x="156" y="43" clip-path="url(#clipPath15)" stroke="none">I</text>
<text x="135" font-size="11" y="64" clip-path="url(#clipPath16)" stroke="none" font-weight="normal" xml:space="preserve">+ assignP(v : Integer)</text>
<line clip-path="url(#clipPath17)" fill="none" x1="131" x2="247" y1="50" y2="50"/>
<rect x="396" y="171" clip-path="url(#clipPath18)" fill="rgb(131,122,133)" width="189" rx="2.5" opacity="0.2549" ry="2.5" height="98" stroke="none"/>
<rect x="397" y="172" clip-path="url(#clipPath18)" fill="rgb(131,122,133)" width="189" rx="2.5" opacity="0.2549" ry="2.5" height="98" stroke="none"/>
<rect x="395" y="170" clip-path="url(#clipPath19)" fill="url(#linearGradient4)" width="189" rx="2.5" ry="2.5" height="98" stroke="none"/>
<rect x="395" y="170" clip-path="url(#clipPath19)" fill="none" width="188" rx="2.5" ry="2.5" height="97"/>
<text xml:space="preserve" x="472" y="188" clip-path="url(#clipPath20)" stroke="none">Tester</text>
<text x="400" font-size="11" y="209" clip-path="url(#clipPath21)" stroke="none" font-weight="normal" xml:space="preserve">+ testCallDelegation(v : Integer) : A</text>
<line clip-path="url(#clipPath22)" fill="none" x1="396" x2="583" y1="195" y2="195"/>
<line clip-path="url(#clipPath23)" fill="none" x1="70" x2="190" y1="170" y2="108" stroke-dasharray="5,5"/>
</g>
<g stroke-linecap="butt" font-size="11" fill="white" font-family="'Segoe UI'" stroke-dasharray="5,5" stroke="white" stroke-width="1.1">
<polygon clip-path="url(#clipPath24)" points=" 190 108 185 115 181 108" stroke="none"/>
<polygon fill="none" stroke-dasharray="none" clip-path="url(#clipPath24)" points=" 190 108 185 115 181 108" stroke="black"/>
<line clip-path="url(#clipPath23)" fill="none" x1="280" x2="190" y1="170" y2="108" stroke="black"/>
<polygon clip-path="url(#clipPath25)" points=" 190 108 199 109 194 116" stroke="none"/>
<polygon fill="none" stroke-dasharray="none" clip-path="url(#clipPath25)" points=" 190 108 199 109 194 116" stroke="black"/>
</g>
</g>
</svg>
