<?xml version="1.0" encoding="UTF-8"?><svg xmlns="http://www.w3.org/2000/svg" xmlns:xlink="http://www.w3.org/1999/xlink" stroke-dasharray="none" shape-rendering="auto" font-family="'Dialog'" width="490" text-rendering="auto" fill-opacity="1" contentScriptType="text/ecmascript" color-interpolation="auto" color-rendering="auto" preserveAspectRatio="xMidYMid meet" font-size="12" viewBox="0 0 490 193" fill="black" stroke="black" image-rendering="auto" stroke-miterlimit="10" zoomAndPan="magnify" version="1.0" stroke-linecap="square" stroke-linejoin="miter" contentStyleType="text/css" font-style="normal" height="193" stroke-width="1" stroke-dashoffset="0" font-weight="normal" stroke-opacity="1">
<!--Generated by the Batik Graphics2D SVG Generator-->
<defs id="genericDefs"/>
<g>
<defs id="defs1">
<linearGradient x1="152" x2="478" y1="-28" gradientUnits="userSpaceOnUse" y2="220" xlink:type="simple" xlink:actuate="onLoad" id="linearGradient1" xlink:show="other" spreadMethod="pad">
<stop stop-opacity="1" stop-color="white" offset="0%"/>
<stop stop-opacity="1" stop-color="white" offset="100%"/>
</linearGradient>
<linearGradient x1="247" x2="395" y1="47" gradientUnits="userSpaceOnUse" y2="169" xlink:type="simple" xlink:actuate="onLoad" id="linearGradient2" xlink:show="other" spreadMethod="pad">
<stop stop-opacity="1" stop-color="white" offset="0%"/>
<stop stop-opacity="1" stop-color="white" offset="100%"/>
</linearGradient>
<clipPath clipPathUnits="userSpaceOnUse" id="clipPath1">
<path d="M151 9 L481 9 L481 184 L151 184 L151 9 Z"/>
</clipPath>
<clipPath clipPathUnits="userSpaceOnUse" id="clipPath2">
<path d="M151 9 L479 9 L479 182 L151 182 L151 9 Z"/>
</clipPath>
<clipPath clipPathUnits="userSpaceOnUse" id="clipPath3">
<path d="M284 14 L347 14 L347 31 L284 31 L284 14 Z"/>
</clipPath>
<clipPath clipPathUnits="userSpaceOnUse" id="clipPath4">
<path d="M246 59 L398 59 L398 159 L246 159 L246 59 Z"/>
</clipPath>
<clipPath clipPathUnits="userSpaceOnUse" id="clipPath5">
<path d="M246 59 L396 59 L396 157 L246 157 L246 59 Z"/>
</clipPath>
<clipPath clipPathUnits="userSpaceOnUse" id="clipPath6">
<path d="M265 64 L378 64 L378 79 L265 79 L265 64 Z"/>
</clipPath>
<clipPath clipPathUnits="userSpaceOnUse" id="clipPath7">
<path d="M234 119 L256 119 L256 141 L234 141 L234 119 Z"/>
</clipPath>
<clipPath clipPathUnits="userSpaceOnUse" id="clipPath8">
<path d="M255 119 L317 119 L317 134 L255 134 L255 119 Z"/>
</clipPath>
<clipPath clipPathUnits="userSpaceOnUse" id="clipPath9">
<path d="M301 47 L323 47 L323 69 L301 69 L301 47 Z"/>
</clipPath>
<clipPath clipPathUnits="userSpaceOnUse" id="clipPath10">
<path d="M322 47 L344 47 L344 62 L322 62 L322 47 Z"/>
</clipPath>
<clipPath clipPathUnits="userSpaceOnUse" id="clipPath11">
<path d="M9 105 L161 105 L161 157 L9 157 L9 105 Z"/>
</clipPath>
<clipPath clipPathUnits="userSpaceOnUse" id="clipPath12">
<path d="M10 106 L162 106 L162 156 L10 156 L10 106 Z"/>
</clipPath>
<clipPath clipPathUnits="userSpaceOnUse" id="clipPath13">
<path d="M-1 -1 L491 -1 L491 194 L-1 194 L-1 -1 Z"/>
</clipPath>
<clipPath clipPathUnits="userSpaceOnUse" id="clipPath14">
<path d="M227 129 L237 129 L237 138 L227 138 L227 129 Z"/>
</clipPath>
</defs>
<g fill="rgb(131,122,133)" font-family="'Segoe UI'" stroke-linejoin="round" stroke="rgb(131,122,133)" stroke-width="0" stroke-miterlimit="0">
<rect x="153" y="11" clip-path="url(#clipPath1)" width="326" rx="12.5" opacity="0.2549" ry="12.5" height="171" stroke="none"/>
<rect x="154" y="12" clip-path="url(#clipPath1)" width="326" rx="12.5" opacity="0.2549" ry="12.5" height="171" stroke="none"/>
<rect x="152" y="10" clip-path="url(#clipPath2)" fill="url(#linearGradient1)" width="326" rx="12.5" ry="12.5" height="171" stroke="none"/>
</g>
<g stroke-width="1.1" font-family="'Segoe UI'" stroke-linecap="butt">
<rect x="152" y="10" clip-path="url(#clipPath2)" fill="none" width="325" rx="12.5" ry="12.5" height="170"/>
<text xml:space="preserve" x="285" y="28" clip-path="url(#clipPath3)" stroke="none">actCallSetP</text>
</g>
<g stroke-linecap="butt" font-size="11" fill="rgb(131,122,133)" font-family="'Segoe UI'" stroke="rgb(131,122,133)" font-weight="bold" stroke-width="1.1">
<rect x="248" y="61" clip-path="url(#clipPath4)" width="148" rx="12.5" opacity="0.2549" ry="12.5" height="96" stroke="none"/>
<rect x="249" y="62" clip-path="url(#clipPath4)" width="148" rx="12.5" opacity="0.2549" ry="12.5" height="96" stroke="none"/>
<rect x="247" y="60" clip-path="url(#clipPath5)" fill="url(#linearGradient2)" width="148" rx="12.5" ry="12.5" height="96" stroke="none"/>
<rect x="247" y="60" clip-path="url(#clipPath5)" fill="none" width="147" rx="12.5" ry="12.5" height="95" stroke="black"/>
<text x="266" y="77" clip-path="url(#clipPath6)" fill="black" stroke="none" xml:space="preserve">coaAssignP : assignP</text>
</g>
<g fill="white" stroke-width="1.1" font-family="'Segoe UI'" stroke-linecap="butt" stroke="white">
<rect x="235" y="120" clip-path="url(#clipPath7)" width="20" height="20" stroke="none"/>
<rect x="235" y="120" clip-path="url(#clipPath7)" fill="none" width="19" height="19" stroke="black"/>
<text x="256" font-size="11" y="132" clip-path="url(#clipPath8)" fill="black" stroke="none" xml:space="preserve">_p : Integer</text>
<rect x="302" y="48" clip-path="url(#clipPath9)" width="20" height="20" stroke="none"/>
<rect x="302" y="48" clip-path="url(#clipPath9)" fill="none" width="19" height="19" stroke="black"/>
<text x="323" font-size="11" y="60" clip-path="url(#clipPath10)" fill="black" stroke="none" xml:space="preserve">self</text>
<rect x="10" y="106" clip-path="url(#clipPath11)" width="150" height="50" stroke="none"/>
<rect x="10" y="106" clip-path="url(#clipPath11)" fill="none" width="149" height="49" stroke="black"/>
<text x="57" font-size="11" y="136" clip-path="url(#clipPath12)" fill="black" stroke="none" xml:space="preserve">_v : Integer</text>
<line clip-path="url(#clipPath13)" fill="none" x1="160" x2="235" y1="133" y2="133" stroke="black"/>
<line clip-path="url(#clipPath14)" fill="none" x1="228" x2="235" y1="136" y2="133" stroke="black"/>
<line clip-path="url(#clipPath14)" fill="none" x1="235" x2="228" y1="133" y2="130" stroke="black"/>
<line clip-path="url(#clipPath13)" fill="none" x1="160" x2="235" y1="133" y2="133" stroke="black"/>
<line clip-path="url(#clipPath14)" fill="none" x1="228" x2="235" y1="136" y2="133" stroke="black"/>
<line clip-path="url(#clipPath14)" fill="none" x1="235" x2="228" y1="133" y2="130" stroke="black"/>
</g>
</g>
</svg>
