<?xml version="1.0" encoding="UTF-8"?><svg xmlns="http://www.w3.org/2000/svg" xmlns:xlink="http://www.w3.org/1999/xlink" stroke-dasharray="none" shape-rendering="auto" font-family="'Dialog'" width="715" text-rendering="auto" fill-opacity="1" contentScriptType="text/ecmascript" color-interpolation="auto" color-rendering="auto" preserveAspectRatio="xMidYMid meet" font-size="12" viewBox="0 0 715 583" fill="black" stroke="black" image-rendering="auto" stroke-miterlimit="10" zoomAndPan="magnify" version="1.0" stroke-linecap="square" stroke-linejoin="miter" contentStyleType="text/css" font-style="normal" height="583" stroke-width="1" stroke-dashoffset="0" font-weight="normal" stroke-opacity="1">
<!--Generated by the Batik Graphics2D SVG Generator-->
<defs id="genericDefs"/>
<g>
<defs id="defs1">
<linearGradient x1="115" x2="601" y1="10" gradientUnits="userSpaceOnUse" y2="571" xlink:type="simple" xlink:actuate="onLoad" id="linearGradient1" xlink:show="other" spreadMethod="pad">
<stop stop-opacity="1" stop-color="white" offset="0%"/>
<stop stop-opacity="1" stop-color="white" offset="100%"/>
</linearGradient>
<linearGradient x1="322" x2="470" y1="45" gradientUnits="userSpaceOnUse" y2="153" xlink:type="simple" xlink:actuate="onLoad" id="linearGradient2" xlink:show="other" spreadMethod="pad">
<stop stop-opacity="1" stop-color="white" offset="0%"/>
<stop stop-opacity="1" stop-color="white" offset="100%"/>
</linearGradient>
<linearGradient x1="272" x2="420" y1="215" gradientUnits="userSpaceOnUse" y2="323" xlink:type="simple" xlink:actuate="onLoad" id="linearGradient3" xlink:show="other" spreadMethod="pad">
<stop stop-opacity="1" stop-color="white" offset="0%"/>
<stop stop-opacity="1" stop-color="white" offset="100%"/>
</linearGradient>
<linearGradient x1="272" x2="420" y1="325" gradientUnits="userSpaceOnUse" y2="433" xlink:type="simple" xlink:actuate="onLoad" id="linearGradient4" xlink:show="other" spreadMethod="pad">
<stop stop-opacity="1" stop-color="white" offset="0%"/>
<stop stop-opacity="1" stop-color="white" offset="100%"/>
</linearGradient>
<linearGradient x1="272" x2="420" y1="450" gradientUnits="userSpaceOnUse" y2="558" xlink:type="simple" xlink:actuate="onLoad" id="linearGradient5" xlink:show="other" spreadMethod="pad">
<stop stop-opacity="1" stop-color="white" offset="0%"/>
<stop stop-opacity="1" stop-color="white" offset="100%"/>
</linearGradient>
<clipPath clipPathUnits="userSpaceOnUse" id="clipPath1">
<path d="M151 9 L566 9 L566 574 L151 574 L151 9 Z"/>
</clipPath>
<clipPath clipPathUnits="userSpaceOnUse" id="clipPath2">
<path d="M151 9 L564 9 L564 572 L151 572 L151 9 Z"/>
</clipPath>
<clipPath clipPathUnits="userSpaceOnUse" id="clipPath3">
<path d="M300 14 L417 14 L417 31 L300 31 L300 14 Z"/>
</clipPath>
<clipPath clipPathUnits="userSpaceOnUse" id="clipPath4">
<path d="M321 64 L473 64 L473 136 L321 136 L321 64 Z"/>
</clipPath>
<clipPath clipPathUnits="userSpaceOnUse" id="clipPath5">
<path d="M321 64 L471 64 L471 134 L321 134 L321 64 Z"/>
</clipPath>
<clipPath clipPathUnits="userSpaceOnUse" id="clipPath6">
<path d="M374 69 L419 69 L419 84 L374 84 L374 69 Z"/>
</clipPath>
<clipPath clipPathUnits="userSpaceOnUse" id="clipPath7">
<path d="M381 124 L403 124 L403 146 L381 146 L381 124 Z"/>
</clipPath>
<clipPath clipPathUnits="userSpaceOnUse" id="clipPath8">
<path d="M402 124 L452 124 L452 139 L402 139 L402 124 Z"/>
</clipPath>
<clipPath clipPathUnits="userSpaceOnUse" id="clipPath9">
<path d="M271 234 L423 234 L423 306 L271 306 L271 234 Z"/>
</clipPath>
<clipPath clipPathUnits="userSpaceOnUse" id="clipPath10">
<path d="M271 234 L421 234 L421 304 L271 304 L271 234 Z"/>
</clipPath>
<clipPath clipPathUnits="userSpaceOnUse" id="clipPath11">
<path d="M319 239 L375 239 L375 254 L319 254 L319 239 Z"/>
</clipPath>
<clipPath clipPathUnits="userSpaceOnUse" id="clipPath12">
<path d="M326 222 L348 222 L348 244 L326 244 L326 222 Z"/>
</clipPath>
<clipPath clipPathUnits="userSpaceOnUse" id="clipPath13">
<path d="M347 222 L400 222 L400 237 L347 237 L347 222 Z"/>
</clipPath>
<clipPath clipPathUnits="userSpaceOnUse" id="clipPath14">
<path d="M326 294 L348 294 L348 316 L326 316 L326 294 Z"/>
</clipPath>
<clipPath clipPathUnits="userSpaceOnUse" id="clipPath15">
<path d="M347 301 L384 301 L384 316 L347 316 L347 301 Z"/>
</clipPath>
<clipPath clipPathUnits="userSpaceOnUse" id="clipPath16">
<path d="M301 164 L509 164 L509 176 L301 176 L301 164 Z"/>
</clipPath>
<clipPath clipPathUnits="userSpaceOnUse" id="clipPath17">
<path d="M271 344 L423 344 L423 416 L271 416 L271 344 Z"/>
</clipPath>
<clipPath clipPathUnits="userSpaceOnUse" id="clipPath18">
<path d="M271 344 L421 344 L421 414 L271 414 L271 344 Z"/>
</clipPath>
<clipPath clipPathUnits="userSpaceOnUse" id="clipPath19">
<path d="M320 349 L375 349 L375 364 L320 364 L320 349 Z"/>
</clipPath>
<clipPath clipPathUnits="userSpaceOnUse" id="clipPath20">
<path d="M326 332 L348 332 L348 354 L326 354 L326 332 Z"/>
</clipPath>
<clipPath clipPathUnits="userSpaceOnUse" id="clipPath21">
<path d="M347 332 L398 332 L398 347 L347 347 L347 332 Z"/>
</clipPath>
<clipPath clipPathUnits="userSpaceOnUse" id="clipPath22">
<path d="M331 404 L353 404 L353 426 L331 426 L331 404 Z"/>
</clipPath>
<clipPath clipPathUnits="userSpaceOnUse" id="clipPath23">
<path d="M352 404 L390 404 L390 419 L352 419 L352 404 Z"/>
</clipPath>
<clipPath clipPathUnits="userSpaceOnUse" id="clipPath24">
<path d="M271 469 L423 469 L423 541 L271 541 L271 469 Z"/>
</clipPath>
<clipPath clipPathUnits="userSpaceOnUse" id="clipPath25">
<path d="M271 469 L421 469 L421 539 L271 539 L271 469 Z"/>
</clipPath>
<clipPath clipPathUnits="userSpaceOnUse" id="clipPath26">
<path d="M291 474 L402 474 L402 489 L291 489 L291 474 Z"/>
</clipPath>
<clipPath clipPathUnits="userSpaceOnUse" id="clipPath27">
<path d="M259 489 L281 489 L281 511 L259 511 L259 489 Z"/>
</clipPath>
<clipPath clipPathUnits="userSpaceOnUse" id="clipPath28">
<path d="M280 489 L335 489 L335 504 L280 504 L280 489 Z"/>
</clipPath>
<clipPath clipPathUnits="userSpaceOnUse" id="clipPath29">
<path d="M331 457 L353 457 L353 479 L331 479 L331 457 Z"/>
</clipPath>
<clipPath clipPathUnits="userSpaceOnUse" id="clipPath30">
<path d="M352 457 L403 457 L403 472 L352 472 L352 457 Z"/>
</clipPath>
<clipPath clipPathUnits="userSpaceOnUse" id="clipPath31">
<path d="M9 469 L161 469 L161 521 L9 521 L9 469 Z"/>
</clipPath>
<clipPath clipPathUnits="userSpaceOnUse" id="clipPath32">
<path d="M10 470 L162 470 L162 520 L10 520 L10 470 Z"/>
</clipPath>
<clipPath clipPathUnits="userSpaceOnUse" id="clipPath33">
<path d="M554 484 L706 484 L706 536 L554 536 L554 484 Z"/>
</clipPath>
<clipPath clipPathUnits="userSpaceOnUse" id="clipPath34">
<path d="M555 485 L707 485 L707 535 L555 535 L555 485 Z"/>
</clipPath>
<clipPath clipPathUnits="userSpaceOnUse" id="clipPath35">
<path d="M-1 -1 L716 -1 L716 584 L-1 584 L-1 -1 Z"/>
</clipPath>
<clipPath clipPathUnits="userSpaceOnUse" id="clipPath36">
<path d="M547 506 L557 506 L557 515 L547 515 L547 506 Z"/>
</clipPath>
<clipPath clipPathUnits="userSpaceOnUse" id="clipPath37">
<path d="M338 450 L347 450 L347 460 L338 460 L338 450 Z"/>
</clipPath>
<clipPath clipPathUnits="userSpaceOnUse" id="clipPath38">
<path d="M391 157 L400 157 L400 167 L391 167 L391 157 Z"/>
</clipPath>
<clipPath clipPathUnits="userSpaceOnUse" id="clipPath39">
<path d="M333 325 L342 325 L342 335 L333 335 L333 325 Z"/>
</clipPath>
<clipPath clipPathUnits="userSpaceOnUse" id="clipPath40">
<path d="M337 215 L346 215 L346 225 L337 225 L337 215 Z"/>
</clipPath>
<clipPath clipPathUnits="userSpaceOnUse" id="clipPath41">
<path d="M252 493 L262 493 L262 502 L252 502 L252 493 Z"/>
</clipPath>
</defs>
<g fill="rgb(131,122,133)" font-family="'Segoe UI'" stroke-linejoin="round" stroke="rgb(131,122,133)" stroke-width="0" stroke-miterlimit="0">
<rect x="153" y="11" clip-path="url(#clipPath1)" width="411" rx="12.5" opacity="0.2549" ry="12.5" height="561" stroke="none"/>
<rect x="154" y="12" clip-path="url(#clipPath1)" width="411" rx="12.5" opacity="0.2549" ry="12.5" height="561" stroke="none"/>
<rect x="152" y="10" clip-path="url(#clipPath2)" fill="url(#linearGradient1)" width="411" rx="12.5" ry="12.5" height="561" stroke="none"/>
</g>
<g stroke-width="1.1" font-family="'Segoe UI'" stroke-linecap="butt">
<rect x="152" y="10" clip-path="url(#clipPath2)" fill="none" width="410" rx="12.5" ry="12.5" height="560"/>
<text xml:space="preserve" x="301" y="28" clip-path="url(#clipPath3)" stroke="none">actTestCallDelegation</text>
</g>
<g stroke-linecap="butt" font-size="11" fill="rgb(131,122,133)" font-family="'Segoe UI'" stroke="rgb(131,122,133)" font-weight="bold" stroke-width="1.1">
<rect x="323" y="66" clip-path="url(#clipPath4)" width="148" rx="12.5" opacity="0.2549" ry="12.5" height="68" stroke="none"/>
<rect x="324" y="67" clip-path="url(#clipPath4)" width="148" rx="12.5" opacity="0.2549" ry="12.5" height="68" stroke="none"/>
<rect x="322" y="65" clip-path="url(#clipPath5)" fill="url(#linearGradient2)" width="148" rx="12.5" ry="12.5" height="68" stroke="none"/>
<rect x="322" y="65" clip-path="url(#clipPath5)" fill="none" width="147" rx="12.5" ry="12.5" height="67" stroke="black"/>
<text x="375" y="82" clip-path="url(#clipPath6)" fill="black" stroke="none" xml:space="preserve">CreateD</text>
</g>
<g fill="white" stroke-width="1.1" font-family="'Segoe UI'" stroke-linecap="butt" stroke="white">
<rect x="382" y="125" clip-path="url(#clipPath7)" width="20" height="20" stroke="none"/>
<rect x="382" y="125" clip-path="url(#clipPath7)" fill="none" width="19" height="19" stroke="black"/>
<text x="403" font-size="11" y="137" clip-path="url(#clipPath8)" fill="black" stroke="none" xml:space="preserve">result : D</text>
</g>
<g stroke-linecap="butt" font-size="11" fill="rgb(131,122,133)" font-family="'Segoe UI'" stroke="rgb(131,122,133)" font-weight="bold" stroke-width="1.1">
<rect x="273" y="236" clip-path="url(#clipPath9)" width="148" rx="12.5" opacity="0.2549" ry="12.5" height="68" stroke="none"/>
<rect x="274" y="237" clip-path="url(#clipPath9)" width="148" rx="12.5" opacity="0.2549" ry="12.5" height="68" stroke="none"/>
<rect x="272" y="235" clip-path="url(#clipPath10)" fill="url(#linearGradient3)" width="148" rx="12.5" ry="12.5" height="68" stroke="none"/>
<rect x="272" y="235" clip-path="url(#clipPath10)" fill="none" width="147" rx="12.5" ry="12.5" height="67" stroke="black"/>
<text x="320" y="252" clip-path="url(#clipPath11)" fill="black" stroke="none" xml:space="preserve">ReadEofD</text>
</g>
<g fill="white" stroke-width="1.1" font-family="'Segoe UI'" stroke-linecap="butt" stroke="white">
<rect x="327" y="223" clip-path="url(#clipPath12)" width="20" height="20" stroke="none"/>
<rect x="327" y="223" clip-path="url(#clipPath12)" fill="none" width="19" height="19" stroke="black"/>
<text x="348" font-size="11" y="235" clip-path="url(#clipPath13)" fill="black" stroke="none" xml:space="preserve">object : D</text>
<rect x="327" y="295" clip-path="url(#clipPath14)" width="20" height="20" stroke="none"/>
<rect x="327" y="295" clip-path="url(#clipPath14)" fill="none" width="19" height="19" stroke="black"/>
<text x="348" font-size="11" y="314" clip-path="url(#clipPath15)" fill="black" stroke="none" xml:space="preserve">out : E</text>
<rect x="302" y="165" clip-path="url(#clipPath16)" fill="black" width="206" height="10" stroke="none"/>
<rect x="302" y="165" clip-path="url(#clipPath16)" fill="none" width="205" height="9" stroke="black" stroke-width="0.1"/>
</g>
<g stroke-linecap="butt" font-size="11" fill="rgb(131,122,133)" font-family="'Segoe UI'" stroke="rgb(131,122,133)" font-weight="bold" stroke-width="0.1">
<rect x="273" y="346" clip-path="url(#clipPath17)" width="148" rx="12.5" opacity="0.2549" ry="12.5" height="68" stroke="none"/>
<rect x="274" y="347" clip-path="url(#clipPath17)" width="148" rx="12.5" opacity="0.2549" ry="12.5" height="68" stroke="none"/>
<rect x="272" y="345" clip-path="url(#clipPath18)" fill="url(#linearGradient4)" width="148" rx="12.5" ry="12.5" height="68" stroke="none"/>
<rect x="272" y="345" clip-path="url(#clipPath18)" fill="none" width="147" rx="12.5" ry="12.5" height="67" stroke="black" stroke-width="1.1"/>
<text x="321" y="362" clip-path="url(#clipPath19)" fill="black" stroke="none" stroke-width="1.1" xml:space="preserve">ReadCofE</text>
</g>
<g fill="white" stroke-width="1.1" font-family="'Segoe UI'" stroke-linecap="butt" stroke="white">
<rect x="327" y="333" clip-path="url(#clipPath20)" width="20" height="20" stroke="none"/>
<rect x="327" y="333" clip-path="url(#clipPath20)" fill="none" width="19" height="19" stroke="black"/>
<text x="348" font-size="11" y="345" clip-path="url(#clipPath21)" fill="black" stroke="none" xml:space="preserve">object : E</text>
<rect x="332" y="405" clip-path="url(#clipPath22)" width="20" height="20" stroke="none"/>
<rect x="332" y="405" clip-path="url(#clipPath22)" fill="none" width="19" height="19" stroke="black"/>
<text x="353" font-size="11" y="417" clip-path="url(#clipPath23)" fill="black" stroke="none" xml:space="preserve">out : C</text>
</g>
<g stroke-linecap="butt" font-size="11" fill="rgb(131,122,133)" font-family="'Segoe UI'" stroke="rgb(131,122,133)" font-weight="bold" stroke-width="1.1">
<rect x="273" y="471" clip-path="url(#clipPath24)" width="148" rx="12.5" opacity="0.2549" ry="12.5" height="68" stroke="none"/>
<rect x="274" y="472" clip-path="url(#clipPath24)" width="148" rx="12.5" opacity="0.2549" ry="12.5" height="68" stroke="none"/>
<rect x="272" y="470" clip-path="url(#clipPath25)" fill="url(#linearGradient5)" width="148" rx="12.5" ry="12.5" height="68" stroke="none"/>
<rect x="272" y="470" clip-path="url(#clipPath25)" fill="none" width="147" rx="12.5" ry="12.5" height="67" stroke="black"/>
<text x="292" y="487" clip-path="url(#clipPath26)" fill="black" stroke="none" xml:space="preserve">callSetPofC : callSetP</text>
</g>
<g fill="white" stroke-width="1.1" font-family="'Segoe UI'" stroke-linecap="butt" stroke="white">
<rect x="260" y="490" clip-path="url(#clipPath27)" width="20" height="20" stroke="none"/>
<rect x="260" y="490" clip-path="url(#clipPath27)" fill="none" width="19" height="19" stroke="black"/>
<text x="281" font-size="11" y="502" clip-path="url(#clipPath28)" fill="black" stroke="none" xml:space="preserve">v : Integer</text>
<rect x="332" y="458" clip-path="url(#clipPath29)" width="20" height="20" stroke="none"/>
<rect x="332" y="458" clip-path="url(#clipPath29)" fill="none" width="19" height="19" stroke="black"/>
<text x="353" font-size="11" y="470" clip-path="url(#clipPath30)" fill="black" stroke="none" xml:space="preserve">target : C</text>
<rect x="10" y="470" clip-path="url(#clipPath31)" width="150" height="50" stroke="none"/>
<rect x="10" y="470" clip-path="url(#clipPath31)" fill="none" width="149" height="49" stroke="black"/>
<text x="59" font-size="11" y="500" clip-path="url(#clipPath32)" fill="black" stroke="none" xml:space="preserve">v : Integer</text>
<rect x="555" y="485" clip-path="url(#clipPath33)" width="150" height="50" stroke="none"/>
<rect x="555" y="485" clip-path="url(#clipPath33)" fill="none" width="149" height="49" stroke="black"/>
<text x="612" font-size="11" y="515" clip-path="url(#clipPath34)" fill="black" stroke="none" xml:space="preserve">out : D</text>
<line clip-path="url(#clipPath35)" fill="none" x1="472" x2="472" y1="175" y2="510" stroke="black"/>
<line clip-path="url(#clipPath35)" fill="none" x1="472" x2="555" y1="510" y2="510" stroke="black"/>
<line clip-path="url(#clipPath36)" fill="none" x1="548" x2="555" y1="513" y2="510" stroke="black"/>
<line clip-path="url(#clipPath36)" fill="none" x1="555" x2="548" y1="510" y2="507" stroke="black"/>
<line clip-path="url(#clipPath35)" fill="none" x1="342" x2="342" y1="425" y2="458" stroke="black"/>
<line clip-path="url(#clipPath37)" fill="none" x1="339" x2="342" y1="451" y2="458" stroke="black"/>
<line clip-path="url(#clipPath37)" fill="none" x1="342" x2="345" y1="458" y2="451" stroke="black"/>
<line clip-path="url(#clipPath35)" fill="none" x1="395" x2="395" y1="145" y2="165" stroke="black"/>
<line clip-path="url(#clipPath38)" fill="none" x1="392" x2="395" y1="158" y2="165" stroke="black"/>
<line clip-path="url(#clipPath38)" fill="none" x1="395" x2="398" y1="165" y2="158" stroke="black"/>
<line clip-path="url(#clipPath35)" fill="none" x1="337" x2="337" y1="315" y2="333" stroke="black"/>
<line clip-path="url(#clipPath39)" fill="none" x1="334" x2="337" y1="326" y2="333" stroke="black"/>
<line clip-path="url(#clipPath39)" fill="none" x1="337" x2="340" y1="333" y2="326" stroke="black"/>
<line clip-path="url(#clipPath35)" fill="none" x1="341" x2="341" y1="175" y2="223" stroke="black"/>
<line clip-path="url(#clipPath40)" fill="none" x1="338" x2="341" y1="216" y2="223" stroke="black"/>
<line clip-path="url(#clipPath40)" fill="none" x1="341" x2="344" y1="223" y2="216" stroke="black"/>
<line clip-path="url(#clipPath35)" fill="none" x1="160" x2="260" y1="497" y2="497" stroke="black"/>
<line clip-path="url(#clipPath41)" fill="none" x1="253" x2="260" y1="500" y2="497" stroke="black"/>
<line clip-path="url(#clipPath41)" fill="none" x1="260" x2="253" y1="497" y2="494" stroke="black"/>
<line clip-path="url(#clipPath35)" fill="none" x1="395" x2="395" y1="145" y2="165" stroke="black"/>
<line clip-path="url(#clipPath38)" fill="none" x1="392" x2="395" y1="158" y2="165" stroke="black"/>
<line clip-path="url(#clipPath38)" fill="none" x1="395" x2="398" y1="165" y2="158" stroke="black"/>
<line clip-path="url(#clipPath35)" fill="none" x1="472" x2="472" y1="175" y2="510" stroke="black"/>
<line clip-path="url(#clipPath35)" fill="none" x1="472" x2="555" y1="510" y2="510" stroke="black"/>
<line clip-path="url(#clipPath36)" fill="none" x1="548" x2="555" y1="513" y2="510" stroke="black"/>
<line clip-path="url(#clipPath36)" fill="none" x1="555" x2="548" y1="510" y2="507" stroke="black"/>
<line clip-path="url(#clipPath35)" fill="none" x1="341" x2="341" y1="175" y2="223" stroke="black"/>
<line clip-path="url(#clipPath40)" fill="none" x1="338" x2="341" y1="216" y2="223" stroke="black"/>
<line clip-path="url(#clipPath40)" fill="none" x1="341" x2="344" y1="223" y2="216" stroke="black"/>
<line clip-path="url(#clipPath35)" fill="none" x1="337" x2="337" y1="315" y2="333" stroke="black"/>
<line clip-path="url(#clipPath39)" fill="none" x1="334" x2="337" y1="326" y2="333" stroke="black"/>
<line clip-path="url(#clipPath39)" fill="none" x1="337" x2="340" y1="333" y2="326" stroke="black"/>
<line clip-path="url(#clipPath35)" fill="none" x1="342" x2="342" y1="425" y2="458" stroke="black"/>
<line clip-path="url(#clipPath37)" fill="none" x1="339" x2="342" y1="451" y2="458" stroke="black"/>
<line clip-path="url(#clipPath37)" fill="none" x1="342" x2="345" y1="458" y2="451" stroke="black"/>
<line clip-path="url(#clipPath35)" fill="none" x1="160" x2="260" y1="497" y2="497" stroke="black"/>
<line clip-path="url(#clipPath41)" fill="none" x1="253" x2="260" y1="500" y2="497" stroke="black"/>
<line clip-path="url(#clipPath41)" fill="none" x1="260" x2="253" y1="497" y2="494" stroke="black"/>
</g>
</g>
</svg>
