<?xml version="1.0" encoding="UTF-8"?><svg xmlns="http://www.w3.org/2000/svg" xmlns:xlink="http://www.w3.org/1999/xlink" stroke-dasharray="none" shape-rendering="auto" font-family="'Dialog'" width="140" text-rendering="auto" fill-opacity="1" contentScriptType="text/ecmascript" color-interpolation="auto" color-rendering="auto" preserveAspectRatio="xMidYMid meet" font-size="12" viewBox="0 0 140 280" fill="black" stroke="black" image-rendering="auto" stroke-miterlimit="10" zoomAndPan="magnify" version="1.0" stroke-linecap="square" stroke-linejoin="miter" contentStyleType="text/css" font-style="normal" height="280" stroke-width="1" stroke-dashoffset="0" font-weight="normal" stroke-opacity="1">
<!--Generated by the Batik Graphics2D SVG Generator-->
<defs id="genericDefs"/>
<g>
<defs id="defs1">
<linearGradient x1="10" x2="128" y1="5" gradientUnits="userSpaceOnUse" y2="113" xlink:type="simple" xlink:actuate="onLoad" id="linearGradient1" xlink:show="other" spreadMethod="pad">
<stop stop-opacity="1" stop-color="white" offset="0%"/>
<stop stop-opacity="1" stop-color="white" offset="100%"/>
</linearGradient>
<linearGradient x1="10" x2="128" y1="165" gradientUnits="userSpaceOnUse" y2="273" xlink:type="simple" xlink:actuate="onLoad" id="linearGradient2" xlink:show="other" spreadMethod="pad">
<stop stop-opacity="1" stop-color="white" offset="0%"/>
<stop stop-opacity="1" stop-color="white" offset="100%"/>
</linearGradient>
<clipPath clipPathUnits="userSpaceOnUse" id="clipPath1">
<path d="M9 9 L131 9 L131 111 L9 111 L9 9 Z"/>
</clipPath>
<clipPath clipPathUnits="userSpaceOnUse" id="clipPath2">
<path d="M9 9 L129 9 L129 109 L9 109 L9 9 Z"/>
</clipPath>
<clipPath clipPathUnits="userSpaceOnUse" id="clipPath3">
<path d="M64 14 L78 14 L78 31 L64 31 L64 14 Z"/>
</clipPath>
<clipPath clipPathUnits="userSpaceOnUse" id="clipPath4">
<path d="M14 36 L64 36 L64 51 L14 51 L14 36 Z"/>
</clipPath>
<clipPath clipPathUnits="userSpaceOnUse" id="clipPath5">
<path d="M10 34 L128 34 L128 108 L10 108 L10 34 Z"/>
</clipPath>
<clipPath clipPathUnits="userSpaceOnUse" id="clipPath6">
<path d="M9 169 L131 169 L131 271 L9 271 L9 169 Z"/>
</clipPath>
<clipPath clipPathUnits="userSpaceOnUse" id="clipPath7">
<path d="M9 169 L129 169 L129 269 L9 269 L9 169 Z"/>
</clipPath>
<clipPath clipPathUnits="userSpaceOnUse" id="clipPath8">
<path d="M64 174 L76 174 L76 191 L64 191 L64 174 Z"/>
</clipPath>
<clipPath clipPathUnits="userSpaceOnUse" id="clipPath9">
<path d="M14 196 L65 196 L65 211 L14 211 L14 196 Z"/>
</clipPath>
<clipPath clipPathUnits="userSpaceOnUse" id="clipPath10">
<path d="M10 194 L128 194 L128 268 L10 268 L10 194 Z"/>
</clipPath>
<clipPath clipPathUnits="userSpaceOnUse" id="clipPath11">
<path d="M-1 -1 L141 -1 L141 281 L-1 281 L-1 -1 Z"/>
</clipPath>
<clipPath clipPathUnits="userSpaceOnUse" id="clipPath12">
<path d="M49 110 L71 110 L71 125 L49 125 L49 110 Z"/>
</clipPath>
<clipPath clipPathUnits="userSpaceOnUse" id="clipPath13">
<path d="M50 154 L70 154 L70 169 L50 169 L50 154 Z"/>
</clipPath>
<clipPath clipPathUnits="userSpaceOnUse" id="clipPath14">
<path d="M65 107 L74 107 L74 117 L65 117 L65 107 Z"/>
</clipPath>
<clipPath clipPathUnits="userSpaceOnUse" id="clipPath15">
<path d="M65 162 L74 162 L74 172 L65 172 L65 162 Z"/>
</clipPath>
</defs>
<g fill="rgb(131,122,133)" font-family="'Segoe UI'" stroke-linejoin="round" stroke="rgb(131,122,133)" font-weight="bold" stroke-width="0" stroke-miterlimit="0">
<rect x="11" y="11" clip-path="url(#clipPath1)" width="118" rx="2.5" opacity="0.2549" ry="2.5" height="98" stroke="none"/>
<rect x="12" y="12" clip-path="url(#clipPath1)" width="118" rx="2.5" opacity="0.2549" ry="2.5" height="98" stroke="none"/>
<rect x="10" y="10" clip-path="url(#clipPath2)" fill="url(#linearGradient1)" width="118" rx="2.5" ry="2.5" height="98" stroke="none"/>
</g>
<g stroke-width="1.1" font-weight="bold" font-family="'Segoe UI'" stroke-linecap="butt">
<rect x="10" y="10" clip-path="url(#clipPath2)" fill="none" width="117" rx="2.5" ry="2.5" height="97"/>
<text xml:space="preserve" x="65" y="28" clip-path="url(#clipPath3)" stroke="none">B</text>
<text x="15" font-size="11" y="49" clip-path="url(#clipPath4)" stroke="none" font-weight="normal" xml:space="preserve">+ c : C [*]</text>
<line clip-path="url(#clipPath5)" fill="none" x1="11" x2="127" y1="35" y2="35"/>
<rect x="11" y="171" clip-path="url(#clipPath6)" fill="rgb(131,122,133)" width="118" rx="2.5" opacity="0.2549" ry="2.5" height="98" stroke="none"/>
<rect x="12" y="172" clip-path="url(#clipPath6)" fill="rgb(131,122,133)" width="118" rx="2.5" opacity="0.2549" ry="2.5" height="98" stroke="none"/>
<rect x="10" y="170" clip-path="url(#clipPath7)" fill="url(#linearGradient2)" width="118" rx="2.5" ry="2.5" height="98" stroke="none"/>
<rect x="10" y="170" clip-path="url(#clipPath7)" fill="none" width="117" rx="2.5" ry="2.5" height="97"/>
<text xml:space="preserve" x="65" y="188" clip-path="url(#clipPath8)" stroke="none">C</text>
<text x="15" font-size="11" y="209" clip-path="url(#clipPath9)" stroke="none" font-weight="normal" xml:space="preserve">+ b : B [*]</text>
<line clip-path="url(#clipPath10)" fill="none" x1="11" x2="127" y1="195" y2="195"/>
<line clip-path="url(#clipPath11)" fill="none" x1="69" x2="69" y1="108" y2="170"/>
<text x="50" font-size="11" y="123" clip-path="url(#clipPath12)" stroke="none" font-weight="normal" xml:space="preserve">b[*]</text>
<text x="51" font-size="11" y="167" clip-path="url(#clipPath13)" stroke="none" font-weight="normal" xml:space="preserve">c[*]</text>
<line clip-path="url(#clipPath14)" fill="none" x1="72" x2="69" y1="115" y2="108"/>
<line clip-path="url(#clipPath14)" fill="none" x1="69" x2="66" y1="108" y2="115"/>
<line clip-path="url(#clipPath15)" fill="none" x1="66" x2="69" y1="163" y2="170"/>
<line clip-path="url(#clipPath15)" fill="none" x1="69" x2="72" y1="170" y2="163"/>
</g>
</g>
</svg>
