<?xml version="1.0" encoding="UTF-8"?><svg xmlns="http://www.w3.org/2000/svg" xmlns:xlink="http://www.w3.org/1999/xlink" stroke-dasharray="none" shape-rendering="auto" font-family="'Dialog'" width="665" text-rendering="auto" fill-opacity="1" contentScriptType="text/ecmascript" color-interpolation="auto" color-rendering="auto" preserveAspectRatio="xMidYMid meet" font-size="12" viewBox="0 0 665 478" fill="black" stroke="black" image-rendering="auto" stroke-miterlimit="10" zoomAndPan="magnify" version="1.0" stroke-linecap="square" stroke-linejoin="miter" contentStyleType="text/css" font-style="normal" height="478" stroke-width="1" stroke-dashoffset="0" font-weight="normal" stroke-opacity="1">
<!--Generated by the Batik Graphics2D SVG Generator-->
<defs id="genericDefs"/>
<g>
<defs id="defs1">
<linearGradient x1="129" x2="537" y1="10" gradientUnits="userSpaceOnUse" y2="466" xlink:type="simple" xlink:actuate="onLoad" id="linearGradient1" xlink:show="other" spreadMethod="pad">
<stop stop-opacity="1" stop-color="white" offset="0%"/>
<stop stop-opacity="1" stop-color="white" offset="100%"/>
</linearGradient>
<linearGradient x1="247" x2="395" y1="340" gradientUnits="userSpaceOnUse" y2="448" xlink:type="simple" xlink:actuate="onLoad" id="linearGradient2" xlink:show="other" spreadMethod="pad">
<stop stop-opacity="1" stop-color="white" offset="0%"/>
<stop stop-opacity="1" stop-color="white" offset="100%"/>
</linearGradient>
<linearGradient x1="247" x2="395" y1="20" gradientUnits="userSpaceOnUse" y2="128" xlink:type="simple" xlink:actuate="onLoad" id="linearGradient3" xlink:show="other" spreadMethod="pad">
<stop stop-opacity="1" stop-color="white" offset="0%"/>
<stop stop-opacity="1" stop-color="white" offset="100%"/>
</linearGradient>
<linearGradient x1="247" x2="395" y1="210" gradientUnits="userSpaceOnUse" y2="318" xlink:type="simple" xlink:actuate="onLoad" id="linearGradient4" xlink:show="other" spreadMethod="pad">
<stop stop-opacity="1" stop-color="white" offset="0%"/>
<stop stop-opacity="1" stop-color="white" offset="100%"/>
</linearGradient>
<clipPath clipPathUnits="userSpaceOnUse" id="clipPath1">
<path d="M151 9 L516 9 L516 469 L151 469 L151 9 Z"/>
</clipPath>
<clipPath clipPathUnits="userSpaceOnUse" id="clipPath2">
<path d="M151 9 L514 9 L514 467 L151 467 L151 9 Z"/>
</clipPath>
<clipPath clipPathUnits="userSpaceOnUse" id="clipPath3">
<path d="M275 14 L392 14 L392 31 L275 31 L275 14 Z"/>
</clipPath>
<clipPath clipPathUnits="userSpaceOnUse" id="clipPath4">
<path d="M246 359 L398 359 L398 431 L246 431 L246 359 Z"/>
</clipPath>
<clipPath clipPathUnits="userSpaceOnUse" id="clipPath5">
<path d="M246 359 L396 359 L396 429 L246 429 L246 359 Z"/>
</clipPath>
<clipPath clipPathUnits="userSpaceOnUse" id="clipPath6">
<path d="M266 364 L378 364 L378 379 L266 379 L266 364 Z"/>
</clipPath>
<clipPath clipPathUnits="userSpaceOnUse" id="clipPath7">
<path d="M234 379 L256 379 L256 401 L234 401 L234 379 Z"/>
</clipPath>
<clipPath clipPathUnits="userSpaceOnUse" id="clipPath8">
<path d="M182 386 L237 386 L237 401 L182 401 L182 386 Z"/>
</clipPath>
<clipPath clipPathUnits="userSpaceOnUse" id="clipPath9">
<path d="M306 347 L328 347 L328 369 L306 369 L306 347 Z"/>
</clipPath>
<clipPath clipPathUnits="userSpaceOnUse" id="clipPath10">
<path d="M327 347 L396 347 L396 362 L327 362 L327 347 Z"/>
</clipPath>
<clipPath clipPathUnits="userSpaceOnUse" id="clipPath11">
<path d="M246 39 L398 39 L398 111 L246 111 L246 39 Z"/>
</clipPath>
<clipPath clipPathUnits="userSpaceOnUse" id="clipPath12">
<path d="M246 39 L396 39 L396 109 L246 109 L246 39 Z"/>
</clipPath>
<clipPath clipPathUnits="userSpaceOnUse" id="clipPath13">
<path d="M299 44 L344 44 L344 59 L299 59 L299 44 Z"/>
</clipPath>
<clipPath clipPathUnits="userSpaceOnUse" id="clipPath14">
<path d="M310 99 L332 99 L332 121 L310 121 L310 99 Z"/>
</clipPath>
<clipPath clipPathUnits="userSpaceOnUse" id="clipPath15">
<path d="M331 106 L380 106 L380 121 L331 121 L331 106 Z"/>
</clipPath>
<clipPath clipPathUnits="userSpaceOnUse" id="clipPath16">
<path d="M246 229 L398 229 L398 301 L246 301 L246 229 Z"/>
</clipPath>
<clipPath clipPathUnits="userSpaceOnUse" id="clipPath17">
<path d="M246 229 L396 229 L396 299 L246 299 L246 229 Z"/>
</clipPath>
<clipPath clipPathUnits="userSpaceOnUse" id="clipPath18">
<path d="M293 234 L351 234 L351 249 L293 249 L293 234 Z"/>
</clipPath>
<clipPath clipPathUnits="userSpaceOnUse" id="clipPath19">
<path d="M305 217 L327 217 L327 239 L305 239 L305 217 Z"/>
</clipPath>
<clipPath clipPathUnits="userSpaceOnUse" id="clipPath20">
<path d="M326 217 L352 217 L352 232 L326 232 L326 217 Z"/>
</clipPath>
<clipPath clipPathUnits="userSpaceOnUse" id="clipPath21">
<path d="M305 289 L327 289 L327 311 L305 311 L305 289 Z"/>
</clipPath>
<clipPath clipPathUnits="userSpaceOnUse" id="clipPath22">
<path d="M326 296 L371 296 L371 311 L326 311 L326 296 Z"/>
</clipPath>
<clipPath clipPathUnits="userSpaceOnUse" id="clipPath23">
<path d="M296 159 L474 159 L474 171 L296 171 L296 159 Z"/>
</clipPath>
<clipPath clipPathUnits="userSpaceOnUse" id="clipPath24">
<path d="M9 364 L161 364 L161 416 L9 416 L9 364 Z"/>
</clipPath>
<clipPath clipPathUnits="userSpaceOnUse" id="clipPath25">
<path d="M10 365 L162 365 L162 415 L10 415 L10 365 Z"/>
</clipPath>
<clipPath clipPathUnits="userSpaceOnUse" id="clipPath26">
<path d="M504 384 L656 384 L656 436 L504 436 L504 384 Z"/>
</clipPath>
<clipPath clipPathUnits="userSpaceOnUse" id="clipPath27">
<path d="M505 385 L657 385 L657 435 L505 435 L505 385 Z"/>
</clipPath>
<clipPath clipPathUnits="userSpaceOnUse" id="clipPath28">
<path d="M-1 -1 L666 -1 L666 479 L-1 479 L-1 -1 Z"/>
</clipPath>
<clipPath clipPathUnits="userSpaceOnUse" id="clipPath29">
<path d="M497 406 L507 406 L507 415 L497 415 L497 406 Z"/>
</clipPath>
<clipPath clipPathUnits="userSpaceOnUse" id="clipPath30">
<path d="M316 152 L325 152 L325 162 L316 162 L316 152 Z"/>
</clipPath>
<clipPath clipPathUnits="userSpaceOnUse" id="clipPath31">
<path d="M227 386 L237 386 L237 395 L227 395 L227 386 Z"/>
</clipPath>
<clipPath clipPathUnits="userSpaceOnUse" id="clipPath32">
<path d="M308 210 L317 210 L317 220 L308 220 L308 210 Z"/>
</clipPath>
<clipPath clipPathUnits="userSpaceOnUse" id="clipPath33">
<path d="M313 340 L322 340 L322 350 L313 350 L313 340 Z"/>
</clipPath>
</defs>
<g fill="rgb(131,122,133)" font-family="'Segoe UI'" stroke-linejoin="round" stroke="rgb(131,122,133)" stroke-width="0" stroke-miterlimit="0">
<rect x="153" y="11" clip-path="url(#clipPath1)" width="361" rx="12.5" opacity="0.2549" ry="12.5" height="456" stroke="none"/>
<rect x="154" y="12" clip-path="url(#clipPath1)" width="361" rx="12.5" opacity="0.2549" ry="12.5" height="456" stroke="none"/>
<rect x="152" y="10" clip-path="url(#clipPath2)" fill="url(#linearGradient1)" width="361" rx="12.5" ry="12.5" height="456" stroke="none"/>
</g>
<g stroke-width="1.1" font-family="'Segoe UI'" stroke-linecap="butt">
<rect x="152" y="10" clip-path="url(#clipPath2)" fill="none" width="360" rx="12.5" ry="12.5" height="455"/>
<text xml:space="preserve" x="276" y="28" clip-path="url(#clipPath3)" stroke="none">actTestCallDelegation</text>
</g>
<g stroke-linecap="butt" font-size="11" fill="rgb(131,122,133)" font-family="'Segoe UI'" stroke="rgb(131,122,133)" font-weight="bold" stroke-width="1.1">
<rect x="248" y="361" clip-path="url(#clipPath4)" width="148" rx="12.5" opacity="0.2549" ry="12.5" height="68" stroke="none"/>
<rect x="249" y="362" clip-path="url(#clipPath4)" width="148" rx="12.5" opacity="0.2549" ry="12.5" height="68" stroke="none"/>
<rect x="247" y="360" clip-path="url(#clipPath5)" fill="url(#linearGradient2)" width="148" rx="12.5" ry="12.5" height="68" stroke="none"/>
<rect x="247" y="360" clip-path="url(#clipPath5)" fill="none" width="147" rx="12.5" ry="12.5" height="67" stroke="black"/>
<text x="267" y="377" clip-path="url(#clipPath6)" fill="black" stroke="none" xml:space="preserve">callAssignP : assignP</text>
</g>
<g fill="white" stroke-width="1.1" font-family="'Segoe UI'" stroke-linecap="butt" stroke="white">
<rect x="235" y="380" clip-path="url(#clipPath7)" width="20" height="20" stroke="none"/>
<rect x="235" y="380" clip-path="url(#clipPath7)" fill="none" width="19" height="19" stroke="black"/>
<text x="183" font-size="11" y="399" clip-path="url(#clipPath8)" fill="black" stroke="none" xml:space="preserve">v : Integer</text>
<rect x="307" y="348" clip-path="url(#clipPath9)" width="20" height="20" stroke="none"/>
<rect x="307" y="348" clip-path="url(#clipPath9)" fill="none" width="19" height="19" stroke="black"/>
<text x="328" font-size="11" y="360" clip-path="url(#clipPath10)" fill="black" stroke="none" xml:space="preserve">target : IImpl</text>
</g>
<g stroke-linecap="butt" font-size="11" fill="rgb(131,122,133)" font-family="'Segoe UI'" stroke="rgb(131,122,133)" font-weight="bold" stroke-width="1.1">
<rect x="248" y="41" clip-path="url(#clipPath11)" width="148" rx="12.5" opacity="0.2549" ry="12.5" height="68" stroke="none"/>
<rect x="249" y="42" clip-path="url(#clipPath11)" width="148" rx="12.5" opacity="0.2549" ry="12.5" height="68" stroke="none"/>
<rect x="247" y="40" clip-path="url(#clipPath12)" fill="url(#linearGradient3)" width="148" rx="12.5" ry="12.5" height="68" stroke="none"/>
<rect x="247" y="40" clip-path="url(#clipPath12)" fill="none" width="147" rx="12.5" ry="12.5" height="67" stroke="black"/>
<text x="300" y="57" clip-path="url(#clipPath13)" fill="black" stroke="none" xml:space="preserve">CreateA</text>
</g>
<g fill="white" stroke-width="1.1" font-family="'Segoe UI'" stroke-linecap="butt" stroke="white">
<rect x="311" y="100" clip-path="url(#clipPath14)" width="20" height="20" stroke="none"/>
<rect x="311" y="100" clip-path="url(#clipPath14)" fill="none" width="19" height="19" stroke="black"/>
<text x="332" font-size="11" y="119" clip-path="url(#clipPath15)" fill="black" stroke="none" xml:space="preserve">result : A</text>
</g>
<g stroke-linecap="butt" font-size="11" fill="rgb(131,122,133)" font-family="'Segoe UI'" stroke="rgb(131,122,133)" font-weight="bold" stroke-width="1.1">
<rect x="248" y="231" clip-path="url(#clipPath16)" width="148" rx="12.5" opacity="0.2549" ry="12.5" height="68" stroke="none"/>
<rect x="249" y="232" clip-path="url(#clipPath16)" width="148" rx="12.5" opacity="0.2549" ry="12.5" height="68" stroke="none"/>
<rect x="247" y="230" clip-path="url(#clipPath17)" fill="url(#linearGradient4)" width="148" rx="12.5" ry="12.5" height="68" stroke="none"/>
<rect x="247" y="230" clip-path="url(#clipPath17)" fill="none" width="147" rx="12.5" ry="12.5" height="67" stroke="black"/>
<text x="294" y="247" clip-path="url(#clipPath18)" fill="black" stroke="none" xml:space="preserve">ReadQofA</text>
</g>
<g fill="white" stroke-width="1.1" font-family="'Segoe UI'" stroke-linecap="butt" stroke="white">
<rect x="306" y="218" clip-path="url(#clipPath19)" width="20" height="20" stroke="none"/>
<rect x="306" y="218" clip-path="url(#clipPath19)" fill="none" width="19" height="19" stroke="black"/>
<text x="327" font-size="11" y="230" clip-path="url(#clipPath20)" fill="black" stroke="none" xml:space="preserve">a : A</text>
<rect x="306" y="290" clip-path="url(#clipPath21)" width="20" height="20" stroke="none"/>
<rect x="306" y="290" clip-path="url(#clipPath21)" fill="none" width="19" height="19" stroke="black"/>
<text x="327" font-size="11" y="309" clip-path="url(#clipPath22)" fill="black" stroke="none" xml:space="preserve">q : IImpl</text>
<rect x="297" y="160" clip-path="url(#clipPath23)" fill="black" width="176" height="10" stroke="none"/>
<rect x="297" y="160" clip-path="url(#clipPath23)" fill="none" width="175" height="9" stroke="black" stroke-width="0.1"/>
<rect x="10" y="365" clip-path="url(#clipPath24)" width="150" height="50" stroke="none" stroke-width="0.1"/>
<rect x="10" y="365" clip-path="url(#clipPath24)" fill="none" width="149" height="49" stroke="black"/>
<text x="59" font-size="11" y="395" clip-path="url(#clipPath25)" fill="black" stroke="none" xml:space="preserve">v : Integer</text>
<rect x="505" y="385" clip-path="url(#clipPath26)" width="150" height="50" stroke="none"/>
<rect x="505" y="385" clip-path="url(#clipPath26)" fill="none" width="149" height="49" stroke="black"/>
<text x="563" font-size="11" y="415" clip-path="url(#clipPath27)" fill="black" stroke="none" xml:space="preserve">out : A</text>
<line clip-path="url(#clipPath28)" fill="none" x1="442" x2="442" y1="170" y2="410" stroke="black"/>
<line clip-path="url(#clipPath28)" fill="none" x1="442" x2="505" y1="410" y2="410" stroke="black"/>
<line clip-path="url(#clipPath29)" fill="none" x1="498" x2="505" y1="413" y2="410" stroke="black"/>
<line clip-path="url(#clipPath29)" fill="none" x1="505" x2="498" y1="410" y2="407" stroke="black"/>
<line clip-path="url(#clipPath28)" fill="none" x1="320" x2="320" y1="120" y2="160" stroke="black"/>
<line clip-path="url(#clipPath30)" fill="none" x1="317" x2="320" y1="153" y2="160" stroke="black"/>
<line clip-path="url(#clipPath30)" fill="none" x1="320" x2="323" y1="160" y2="153" stroke="black"/>
<line clip-path="url(#clipPath28)" fill="none" x1="160" x2="235" y1="390" y2="390" stroke="black"/>
<line clip-path="url(#clipPath31)" fill="none" x1="228" x2="235" y1="393" y2="390" stroke="black"/>
<line clip-path="url(#clipPath31)" fill="none" x1="235" x2="228" y1="390" y2="387" stroke="black"/>
<line clip-path="url(#clipPath28)" fill="none" x1="312" x2="312" y1="170" y2="218" stroke="black"/>
<line clip-path="url(#clipPath32)" fill="none" x1="309" x2="312" y1="211" y2="218" stroke="black"/>
<line clip-path="url(#clipPath32)" fill="none" x1="312" x2="315" y1="218" y2="211" stroke="black"/>
<line clip-path="url(#clipPath28)" fill="none" x1="317" x2="317" y1="310" y2="348" stroke="black"/>
<line clip-path="url(#clipPath33)" fill="none" x1="314" x2="317" y1="341" y2="348" stroke="black"/>
<line clip-path="url(#clipPath33)" fill="none" x1="317" x2="320" y1="348" y2="341" stroke="black"/>
<line clip-path="url(#clipPath28)" fill="none" x1="320" x2="320" y1="120" y2="160" stroke="black"/>
<line clip-path="url(#clipPath30)" fill="none" x1="317" x2="320" y1="153" y2="160" stroke="black"/>
<line clip-path="url(#clipPath30)" fill="none" x1="320" x2="323" y1="160" y2="153" stroke="black"/>
<line clip-path="url(#clipPath28)" fill="none" x1="312" x2="312" y1="170" y2="218" stroke="black"/>
<line clip-path="url(#clipPath32)" fill="none" x1="309" x2="312" y1="211" y2="218" stroke="black"/>
<line clip-path="url(#clipPath32)" fill="none" x1="312" x2="315" y1="218" y2="211" stroke="black"/>
<line clip-path="url(#clipPath28)" fill="none" x1="317" x2="317" y1="310" y2="348" stroke="black"/>
<line clip-path="url(#clipPath33)" fill="none" x1="314" x2="317" y1="341" y2="348" stroke="black"/>
<line clip-path="url(#clipPath33)" fill="none" x1="317" x2="320" y1="348" y2="341" stroke="black"/>
<line clip-path="url(#clipPath28)" fill="none" x1="160" x2="235" y1="390" y2="390" stroke="black"/>
<line clip-path="url(#clipPath31)" fill="none" x1="228" x2="235" y1="393" y2="390" stroke="black"/>
<line clip-path="url(#clipPath31)" fill="none" x1="235" x2="228" y1="390" y2="387" stroke="black"/>
<line clip-path="url(#clipPath28)" fill="none" x1="442" x2="442" y1="170" y2="410" stroke="black"/>
<line clip-path="url(#clipPath28)" fill="none" x1="442" x2="505" y1="410" y2="410" stroke="black"/>
<line clip-path="url(#clipPath29)" fill="none" x1="498" x2="505" y1="413" y2="410" stroke="black"/>
<line clip-path="url(#clipPath29)" fill="none" x1="505" x2="498" y1="410" y2="407" stroke="black"/>
</g>
</g>
</svg>
