<?xml version="1.0" encoding="UTF-8"?><svg xmlns="http://www.w3.org/2000/svg" xmlns:xlink="http://www.w3.org/1999/xlink" stroke-dasharray="none" shape-rendering="auto" font-family="'Dialog'" width="625" text-rendering="auto" fill-opacity="1" contentScriptType="text/ecmascript" color-interpolation="auto" color-rendering="auto" preserveAspectRatio="xMidYMid meet" font-size="12" viewBox="0 0 625 280" fill="black" stroke="black" image-rendering="auto" stroke-miterlimit="10" zoomAndPan="magnify" version="1.0" stroke-linecap="square" stroke-linejoin="miter" contentStyleType="text/css" font-style="normal" height="280" stroke-width="1" stroke-dashoffset="0" font-weight="normal" stroke-opacity="1">
<!--Generated by the Batik Graphics2D SVG Generator-->
<defs id="genericDefs"/>
<g>
<defs id="defs1">
<linearGradient x1="495" x2="613" y1="165" gradientUnits="userSpaceOnUse" y2="273" xlink:type="simple" xlink:actuate="onLoad" id="linearGradient1" xlink:show="other" spreadMethod="pad">
<stop stop-opacity="1" stop-color="white" offset="0%"/>
<stop stop-opacity="1" stop-color="white" offset="100%"/>
</linearGradient>
<linearGradient x1="295" x2="413" y1="165" gradientUnits="userSpaceOnUse" y2="273" xlink:type="simple" xlink:actuate="onLoad" id="linearGradient2" xlink:show="other" spreadMethod="pad">
<stop stop-opacity="1" stop-color="white" offset="0%"/>
<stop stop-opacity="1" stop-color="white" offset="100%"/>
</linearGradient>
<linearGradient x1="10" x2="128" y1="165" gradientUnits="userSpaceOnUse" y2="273" xlink:type="simple" xlink:actuate="onLoad" id="linearGradient3" xlink:show="other" spreadMethod="pad">
<stop stop-opacity="1" stop-color="white" offset="0%"/>
<stop stop-opacity="1" stop-color="white" offset="100%"/>
</linearGradient>
<linearGradient x1="145" x2="263" y1="5" gradientUnits="userSpaceOnUse" y2="113" xlink:type="simple" xlink:actuate="onLoad" id="linearGradient4" xlink:show="other" spreadMethod="pad">
<stop stop-opacity="1" stop-color="white" offset="0%"/>
<stop stop-opacity="1" stop-color="white" offset="100%"/>
</linearGradient>
<linearGradient x1="424" x2="613" y1="-12" gradientUnits="userSpaceOnUse" y2="131" xlink:type="simple" xlink:actuate="onLoad" id="linearGradient5" xlink:show="other" spreadMethod="pad">
<stop stop-opacity="1" stop-color="white" offset="0%"/>
<stop stop-opacity="1" stop-color="white" offset="100%"/>
</linearGradient>
<clipPath clipPathUnits="userSpaceOnUse" id="clipPath1">
<path d="M494 169 L616 169 L616 271 L494 271 L494 169 Z"/>
</clipPath>
<clipPath clipPathUnits="userSpaceOnUse" id="clipPath2">
<path d="M494 169 L614 169 L614 269 L494 269 L494 169 Z"/>
</clipPath>
<clipPath clipPathUnits="userSpaceOnUse" id="clipPath3">
<path d="M549 174 L563 174 L563 191 L549 191 L549 174 Z"/>
</clipPath>
<clipPath clipPathUnits="userSpaceOnUse" id="clipPath4">
<path d="M499 196 L568 196 L568 211 L499 211 L499 196 Z"/>
</clipPath>
<clipPath clipPathUnits="userSpaceOnUse" id="clipPath5">
<path d="M499 209 L568 209 L568 224 L499 224 L499 209 Z"/>
</clipPath>
<clipPath clipPathUnits="userSpaceOnUse" id="clipPath6">
<path d="M499 222 L568 222 L568 237 L499 237 L499 222 Z"/>
</clipPath>
<clipPath clipPathUnits="userSpaceOnUse" id="clipPath7">
<path d="M499 235 L568 235 L568 250 L499 250 L499 235 Z"/>
</clipPath>
<clipPath clipPathUnits="userSpaceOnUse" id="clipPath8">
<path d="M499 248 L544 248 L544 263 L499 263 L499 248 Z"/>
</clipPath>
<clipPath clipPathUnits="userSpaceOnUse" id="clipPath9">
<path d="M495 194 L613 194 L613 268 L495 268 L495 194 Z"/>
</clipPath>
<clipPath clipPathUnits="userSpaceOnUse" id="clipPath10">
<path d="M294 169 L416 169 L416 271 L294 271 L294 169 Z"/>
</clipPath>
<clipPath clipPathUnits="userSpaceOnUse" id="clipPath11">
<path d="M294 169 L414 169 L414 269 L294 269 L294 169 Z"/>
</clipPath>
<clipPath clipPathUnits="userSpaceOnUse" id="clipPath12">
<path d="M349 174 L363 174 L363 191 L349 191 L349 174 Z"/>
</clipPath>
<clipPath clipPathUnits="userSpaceOnUse" id="clipPath13">
<path d="M299 196 L367 196 L367 211 L299 211 L299 196 Z"/>
</clipPath>
<clipPath clipPathUnits="userSpaceOnUse" id="clipPath14">
<path d="M299 209 L353 209 L353 224 L299 224 L299 209 Z"/>
</clipPath>
<clipPath clipPathUnits="userSpaceOnUse" id="clipPath15">
<path d="M299 222 L410 222 L410 237 L299 237 L299 222 Z"/>
</clipPath>
<clipPath clipPathUnits="userSpaceOnUse" id="clipPath16">
<path d="M295 194 L413 194 L413 268 L295 268 L295 194 Z"/>
</clipPath>
<clipPath clipPathUnits="userSpaceOnUse" id="clipPath17">
<path d="M9 169 L131 169 L131 271 L9 271 L9 169 Z"/>
</clipPath>
<clipPath clipPathUnits="userSpaceOnUse" id="clipPath18">
<path d="M9 169 L129 169 L129 269 L9 269 L9 169 Z"/>
</clipPath>
<clipPath clipPathUnits="userSpaceOnUse" id="clipPath19">
<path d="M53 174 L86 174 L86 191 L53 191 L53 174 Z"/>
</clipPath>
<clipPath clipPathUnits="userSpaceOnUse" id="clipPath20">
<path d="M14 196 L63 196 L63 211 L14 211 L14 196 Z"/>
</clipPath>
<clipPath clipPathUnits="userSpaceOnUse" id="clipPath21">
<path d="M14 209 L125 209 L125 224 L14 224 L14 209 Z"/>
</clipPath>
<clipPath clipPathUnits="userSpaceOnUse" id="clipPath22">
<path d="M10 194 L128 194 L128 268 L10 268 L10 194 Z"/>
</clipPath>
<clipPath clipPathUnits="userSpaceOnUse" id="clipPath23">
<path d="M144 9 L266 9 L266 111 L144 111 L144 9 Z"/>
</clipPath>
<clipPath clipPathUnits="userSpaceOnUse" id="clipPath24">
<path d="M144 9 L264 9 L264 109 L144 109 L144 9 Z"/>
</clipPath>
<clipPath clipPathUnits="userSpaceOnUse" id="clipPath25">
<path d="M170 14 L240 14 L240 46 L170 46 L170 14 Z"/>
</clipPath>
<clipPath clipPathUnits="userSpaceOnUse" id="clipPath26">
<path d="M149 51 L260 51 L260 66 L149 66 L149 51 Z"/>
</clipPath>
<clipPath clipPathUnits="userSpaceOnUse" id="clipPath27">
<path d="M145 49 L263 49 L263 108 L145 108 L145 49 Z"/>
</clipPath>
<clipPath clipPathUnits="userSpaceOnUse" id="clipPath28">
<path d="M423 9 L616 9 L616 111 L423 111 L423 9 Z"/>
</clipPath>
<clipPath clipPathUnits="userSpaceOnUse" id="clipPath29">
<path d="M423 9 L614 9 L614 109 L423 109 L423 9 Z"/>
</clipPath>
<clipPath clipPathUnits="userSpaceOnUse" id="clipPath30">
<path d="M500 14 L539 14 L539 31 L500 31 L500 14 Z"/>
</clipPath>
<clipPath clipPathUnits="userSpaceOnUse" id="clipPath31">
<path d="M428 36 L611 36 L611 51 L428 51 L428 36 Z"/>
</clipPath>
<clipPath clipPathUnits="userSpaceOnUse" id="clipPath32">
<path d="M424 34 L613 34 L613 108 L424 108 L424 34 Z"/>
</clipPath>
<clipPath clipPathUnits="userSpaceOnUse" id="clipPath33">
<path d="M-1 -1 L626 -1 L626 281 L-1 281 L-1 -1 Z"/>
</clipPath>
<clipPath clipPathUnits="userSpaceOnUse" id="clipPath34">
<path d="M204 106 L216 106 L216 117 L204 117 L204 106 Z"/>
</clipPath>
<clipPath clipPathUnits="userSpaceOnUse" id="clipPath35">
<path d="M195 107 L207 107 L207 117 L195 117 L195 107 Z"/>
</clipPath>
<clipPath clipPathUnits="userSpaceOnUse" id="clipPath36">
<path d="M149 222 L158 222 L158 237 L149 237 L149 222 Z"/>
</clipPath>
<clipPath clipPathUnits="userSpaceOnUse" id="clipPath37">
<path d="M261 222 L281 222 L281 237 L261 237 L261 222 Z"/>
</clipPath>
<clipPath clipPathUnits="userSpaceOnUse" id="clipPath38">
<path d="M127 215 L137 215 L137 224 L127 224 L127 215 Z"/>
</clipPath>
<clipPath clipPathUnits="userSpaceOnUse" id="clipPath39">
<path d="M287 215 L297 215 L297 224 L287 224 L287 215 Z"/>
</clipPath>
</defs>
<g fill="rgb(131,122,133)" font-family="'Segoe UI'" stroke-linejoin="round" stroke="rgb(131,122,133)" font-weight="bold" stroke-width="0" stroke-miterlimit="0">
<rect x="496" y="171" clip-path="url(#clipPath1)" width="118" rx="2.5" opacity="0.2549" ry="2.5" height="98" stroke="none"/>
<rect x="497" y="172" clip-path="url(#clipPath1)" width="118" rx="2.5" opacity="0.2549" ry="2.5" height="98" stroke="none"/>
<rect x="495" y="170" clip-path="url(#clipPath2)" fill="url(#linearGradient1)" width="118" rx="2.5" ry="2.5" height="98" stroke="none"/>
</g>
<g stroke-width="1.1" font-weight="bold" font-family="'Segoe UI'" stroke-linecap="butt">
<rect x="495" y="170" clip-path="url(#clipPath2)" fill="none" width="117" rx="2.5" ry="2.5" height="97"/>
<text xml:space="preserve" x="550" y="188" clip-path="url(#clipPath3)" stroke="none">A</text>
<text x="500" font-size="11" y="209" clip-path="url(#clipPath4)" stroke="none" font-weight="normal" xml:space="preserve">+ b1 : B [1..*]</text>
<text x="500" font-size="11" y="222" clip-path="url(#clipPath5)" stroke="none" font-weight="normal" xml:space="preserve">+ b2 : B [1..*]</text>
<text x="500" font-size="11" y="235" clip-path="url(#clipPath6)" stroke="none" font-weight="normal" xml:space="preserve">+ b3 : B [1..*]</text>
<text x="500" font-size="11" y="248" clip-path="url(#clipPath7)" stroke="none" font-weight="normal" xml:space="preserve">+ b4 : B [1..*]</text>
<text x="500" font-size="11" y="261" clip-path="url(#clipPath8)" stroke="none" font-weight="normal" xml:space="preserve">q : IImpl</text>
<line clip-path="url(#clipPath9)" fill="none" x1="496" x2="612" y1="195" y2="195"/>
<rect x="296" y="171" clip-path="url(#clipPath10)" fill="rgb(131,122,133)" width="118" rx="2.5" opacity="0.2549" ry="2.5" height="98" stroke="none"/>
<rect x="297" y="172" clip-path="url(#clipPath10)" fill="rgb(131,122,133)" width="118" rx="2.5" opacity="0.2549" ry="2.5" height="98" stroke="none"/>
<rect x="295" y="170" clip-path="url(#clipPath11)" fill="url(#linearGradient2)" width="118" rx="2.5" ry="2.5" height="98" stroke="none"/>
<rect x="295" y="170" clip-path="url(#clipPath11)" fill="none" width="117" rx="2.5" ry="2.5" height="97"/>
<text xml:space="preserve" x="350" y="188" clip-path="url(#clipPath12)" stroke="none">B</text>
<text x="300" font-size="11" y="209" clip-path="url(#clipPath13)" stroke="none" font-weight="normal" xml:space="preserve">+ p : Integer</text>
<text x="300" font-size="11" y="222" clip-path="url(#clipPath14)" stroke="none" font-weight="normal" xml:space="preserve">+ y : IImpl</text>
<text x="300" font-size="11" y="235" clip-path="url(#clipPath15)" stroke="none" font-weight="normal" xml:space="preserve">+ assignP(v : Integer)</text>
<line clip-path="url(#clipPath16)" fill="none" x1="296" x2="412" y1="195" y2="195"/>
<rect x="11" y="171" clip-path="url(#clipPath17)" fill="rgb(131,122,133)" width="118" rx="2.5" opacity="0.2549" ry="2.5" height="98" stroke="none"/>
<rect x="12" y="172" clip-path="url(#clipPath17)" fill="rgb(131,122,133)" width="118" rx="2.5" opacity="0.2549" ry="2.5" height="98" stroke="none"/>
<rect x="10" y="170" clip-path="url(#clipPath18)" fill="url(#linearGradient3)" width="118" rx="2.5" ry="2.5" height="98" stroke="none"/>
<rect x="10" y="170" clip-path="url(#clipPath18)" fill="none" width="117" rx="2.5" ry="2.5" height="97"/>
<text xml:space="preserve" x="54" y="188" clip-path="url(#clipPath19)" stroke="none">IImpl</text>
<text x="15" font-size="11" y="209" clip-path="url(#clipPath20)" stroke="none" font-weight="normal" xml:space="preserve">+ x : B [*]</text>
<text x="15" font-size="11" y="222" clip-path="url(#clipPath21)" stroke="none" font-weight="normal" xml:space="preserve">+ assignP(v : Integer)</text>
<line clip-path="url(#clipPath22)" fill="none" x1="11" x2="127" y1="195" y2="195"/>
<rect x="146" y="11" clip-path="url(#clipPath23)" fill="rgb(131,122,133)" width="118" rx="2.5" opacity="0.2549" ry="2.5" height="98" stroke="none"/>
<rect x="147" y="12" clip-path="url(#clipPath23)" fill="rgb(131,122,133)" width="118" rx="2.5" opacity="0.2549" ry="2.5" height="98" stroke="none"/>
<rect x="145" y="10" clip-path="url(#clipPath24)" fill="url(#linearGradient4)" width="118" rx="2.5" ry="2.5" height="98" stroke="none"/>
<rect x="145" y="10" clip-path="url(#clipPath24)" fill="none" width="117" rx="2.5" ry="2.5" height="97"/>
<text xml:space="preserve" x="171" y="28" clip-path="url(#clipPath25)" stroke="none">«Interface»&#13;</text>
<text xml:space="preserve" x="171" y="43" clip-path="url(#clipPath25)" stroke="none">I</text>
<text x="150" font-size="11" y="64" clip-path="url(#clipPath26)" stroke="none" font-weight="normal" xml:space="preserve">+ assignP(v : Integer)</text>
<line clip-path="url(#clipPath27)" fill="none" x1="146" x2="262" y1="50" y2="50"/>
<rect x="425" y="11" clip-path="url(#clipPath28)" fill="rgb(131,122,133)" width="189" rx="2.5" opacity="0.2549" ry="2.5" height="98" stroke="none"/>
<rect x="426" y="12" clip-path="url(#clipPath28)" fill="rgb(131,122,133)" width="189" rx="2.5" opacity="0.2549" ry="2.5" height="98" stroke="none"/>
<rect x="424" y="10" clip-path="url(#clipPath29)" fill="url(#linearGradient5)" width="189" rx="2.5" ry="2.5" height="98" stroke="none"/>
<rect x="424" y="10" clip-path="url(#clipPath29)" fill="none" width="188" rx="2.5" ry="2.5" height="97"/>
<text xml:space="preserve" x="501" y="28" clip-path="url(#clipPath30)" stroke="none">Tester</text>
<text x="429" font-size="11" y="49" clip-path="url(#clipPath31)" stroke="none" font-weight="normal" xml:space="preserve">+ testCallDelegation(v : Integer) : A</text>
<line clip-path="url(#clipPath32)" fill="none" x1="425" x2="612" y1="35" y2="35"/>
<line clip-path="url(#clipPath33)" fill="none" x1="355" x2="205" y1="170" y2="108" stroke-dasharray="5,5"/>
</g>
<g stroke-linecap="butt" font-size="11" fill="white" font-family="'Segoe UI'" stroke-dasharray="5,5" stroke="white" stroke-width="1.1">
<polygon clip-path="url(#clipPath34)" points=" 205 108 214 107 211 115" stroke="none"/>
<polygon fill="none" stroke-dasharray="none" clip-path="url(#clipPath34)" points=" 205 108 214 107 211 115" stroke="black"/>
<line clip-path="url(#clipPath33)" fill="none" x1="70" x2="205" y1="170" y2="108" stroke="black"/>
<polygon clip-path="url(#clipPath35)" points=" 205 108 199 115 196 108" stroke="none"/>
<polygon fill="none" stroke-dasharray="none" clip-path="url(#clipPath35)" points=" 205 108 199 115 196 108" stroke="black"/>
<line clip-path="url(#clipPath33)" fill="none" x1="128" x2="295" y1="219" y2="219" stroke-dasharray="none" stroke="black"/>
<text x="150" y="235" clip-path="url(#clipPath36)" fill="black" stroke-dasharray="none" stroke="none" xml:space="preserve">y</text>
<text x="262" y="235" clip-path="url(#clipPath37)" fill="black" stroke-dasharray="none" stroke="none" xml:space="preserve">x[*]</text>
<line clip-path="url(#clipPath38)" fill="none" x1="135" x2="128" y1="216" y2="219" stroke-dasharray="none" stroke="black"/>
<line clip-path="url(#clipPath38)" fill="none" x1="128" x2="135" y1="219" y2="222" stroke-dasharray="none" stroke="black"/>
<line clip-path="url(#clipPath39)" fill="none" x1="288" x2="295" y1="222" y2="219" stroke-dasharray="none" stroke="black"/>
<line clip-path="url(#clipPath39)" fill="none" x1="295" x2="288" y1="219" y2="216" stroke-dasharray="none" stroke="black"/>
</g>
</g>
</svg>
