<?xml version="1.0" encoding="UTF-8"?><svg xmlns="http://www.w3.org/2000/svg" xmlns:xlink="http://www.w3.org/1999/xlink" stroke-dasharray="none" shape-rendering="auto" font-family="'Dialog'" width="1033" text-rendering="auto" fill-opacity="1" contentScriptType="text/ecmascript" color-interpolation="auto" color-rendering="auto" preserveAspectRatio="xMidYMid meet" font-size="12" viewBox="0 0 1033 749" fill="black" stroke="black" image-rendering="auto" stroke-miterlimit="10" zoomAndPan="magnify" version="1.0" stroke-linecap="square" stroke-linejoin="miter" contentStyleType="text/css" font-style="normal" height="749" stroke-width="1" stroke-dashoffset="0" font-weight="normal" stroke-opacity="1">
<!--Generated by the Batik Graphics2D SVG Generator-->
<defs id="genericDefs"/>
<g>
<defs id="defs1">
<linearGradient x1="56" x2="174" y1="5" gradientUnits="userSpaceOnUse" y2="113" xlink:type="simple" xlink:actuate="onLoad" id="linearGradient1" xlink:show="other" spreadMethod="pad">
<stop stop-opacity="1" stop-color="white" offset="0%"/>
<stop stop-opacity="1" stop-color="white" offset="100%"/>
</linearGradient>
<linearGradient x1="693" x2="817" y1="354" gradientUnits="userSpaceOnUse" y2="465" xlink:type="simple" xlink:actuate="onLoad" id="linearGradient2" xlink:show="other" spreadMethod="pad">
<stop stop-opacity="1" stop-color="white" offset="0%"/>
<stop stop-opacity="1" stop-color="white" offset="100%"/>
</linearGradient>
<linearGradient x1="483" x2="607" y1="354" gradientUnits="userSpaceOnUse" y2="465" xlink:type="simple" xlink:actuate="onLoad" id="linearGradient3" xlink:show="other" spreadMethod="pad">
<stop stop-opacity="1" stop-color="white" offset="0%"/>
<stop stop-opacity="1" stop-color="white" offset="100%"/>
</linearGradient>
<linearGradient x1="278" x2="402" y1="354" gradientUnits="userSpaceOnUse" y2="465" xlink:type="simple" xlink:actuate="onLoad" id="linearGradient4" xlink:show="other" spreadMethod="pad">
<stop stop-opacity="1" stop-color="white" offset="0%"/>
<stop stop-opacity="1" stop-color="white" offset="100%"/>
</linearGradient>
<linearGradient x1="53" x2="177" y1="349" gradientUnits="userSpaceOnUse" y2="460" xlink:type="simple" xlink:actuate="onLoad" id="linearGradient5" xlink:show="other" spreadMethod="pad">
<stop stop-opacity="1" stop-color="white" offset="0%"/>
<stop stop-opacity="1" stop-color="white" offset="100%"/>
</linearGradient>
<linearGradient x1="273" x2="397" y1="189" gradientUnits="userSpaceOnUse" y2="300" xlink:type="simple" xlink:actuate="onLoad" id="linearGradient6" xlink:show="other" spreadMethod="pad">
<stop stop-opacity="1" stop-color="white" offset="0%"/>
<stop stop-opacity="1" stop-color="white" offset="100%"/>
</linearGradient>
<linearGradient x1="273" x2="463" y1="-13" gradientUnits="userSpaceOnUse" y2="131" xlink:type="simple" xlink:actuate="onLoad" id="linearGradient7" xlink:show="other" spreadMethod="pad">
<stop stop-opacity="1" stop-color="white" offset="0%"/>
<stop stop-opacity="1" stop-color="white" offset="100%"/>
</linearGradient>
<linearGradient x1="43" x2="167" y1="559" gradientUnits="userSpaceOnUse" y2="670" xlink:type="simple" xlink:actuate="onLoad" id="linearGradient8" xlink:show="other" spreadMethod="pad">
<stop stop-opacity="1" stop-color="white" offset="0%"/>
<stop stop-opacity="1" stop-color="white" offset="100%"/>
</linearGradient>
<linearGradient x1="903" x2="1021" y1="350" gradientUnits="userSpaceOnUse" y2="458" xlink:type="simple" xlink:actuate="onLoad" id="linearGradient9" xlink:show="other" spreadMethod="pad">
<stop stop-opacity="1" stop-color="white" offset="0%"/>
<stop stop-opacity="1" stop-color="white" offset="100%"/>
</linearGradient>
<clipPath clipPathUnits="userSpaceOnUse" id="clipPath1">
<path d="M55 9 L177 9 L177 111 L55 111 L55 9 Z"/>
</clipPath>
<clipPath clipPathUnits="userSpaceOnUse" id="clipPath2">
<path d="M55 9 L175 9 L175 109 L55 109 L55 9 Z"/>
</clipPath>
<clipPath clipPathUnits="userSpaceOnUse" id="clipPath3">
<path d="M109 14 L124 14 L124 31 L109 31 L109 14 Z"/>
</clipPath>
<clipPath clipPathUnits="userSpaceOnUse" id="clipPath4">
<path d="M60 36 L96 36 L96 51 L60 51 L60 36 Z"/>
</clipPath>
<clipPath clipPathUnits="userSpaceOnUse" id="clipPath5">
<path d="M60 49 L97 49 L97 64 L60 64 L60 49 Z"/>
</clipPath>
<clipPath clipPathUnits="userSpaceOnUse" id="clipPath6">
<path d="M56 34 L174 34 L174 108 L56 108 L56 34 Z"/>
</clipPath>
<clipPath clipPathUnits="userSpaceOnUse" id="clipPath7">
<path d="M692 359 L820 359 L820 461 L692 461 L692 359 Z"/>
</clipPath>
<clipPath clipPathUnits="userSpaceOnUse" id="clipPath8">
<path d="M692 359 L818 359 L818 459 L692 459 L692 359 Z"/>
</clipPath>
<clipPath clipPathUnits="userSpaceOnUse" id="clipPath9">
<path d="M750 364 L764 364 L764 381 L750 381 L750 364 Z"/>
</clipPath>
<clipPath clipPathUnits="userSpaceOnUse" id="clipPath10">
<path d="M697 386 L742 386 L742 401 L697 401 L697 386 Z"/>
</clipPath>
<clipPath clipPathUnits="userSpaceOnUse" id="clipPath11">
<path d="M697 399 L734 399 L734 414 L697 414 L697 399 Z"/>
</clipPath>
<clipPath clipPathUnits="userSpaceOnUse" id="clipPath12">
<path d="M697 412 L815 412 L815 427 L697 427 L697 412 Z"/>
</clipPath>
<clipPath clipPathUnits="userSpaceOnUse" id="clipPath13">
<path d="M693 384 L817 384 L817 458 L693 458 L693 384 Z"/>
</clipPath>
<clipPath clipPathUnits="userSpaceOnUse" id="clipPath14">
<path d="M482 359 L610 359 L610 461 L482 461 L482 359 Z"/>
</clipPath>
<clipPath clipPathUnits="userSpaceOnUse" id="clipPath15">
<path d="M482 359 L608 359 L608 459 L482 459 L482 359 Z"/>
</clipPath>
<clipPath clipPathUnits="userSpaceOnUse" id="clipPath16">
<path d="M540 364 L552 364 L552 381 L540 381 L540 364 Z"/>
</clipPath>
<clipPath clipPathUnits="userSpaceOnUse" id="clipPath17">
<path d="M487 386 L552 386 L552 401 L487 401 L487 386 Z"/>
</clipPath>
<clipPath clipPathUnits="userSpaceOnUse" id="clipPath18">
<path d="M487 399 L598 399 L598 414 L487 414 L487 399 Z"/>
</clipPath>
<clipPath clipPathUnits="userSpaceOnUse" id="clipPath19">
<path d="M487 412 L605 412 L605 427 L487 427 L487 412 Z"/>
</clipPath>
<clipPath clipPathUnits="userSpaceOnUse" id="clipPath20">
<path d="M483 384 L607 384 L607 458 L483 458 L483 384 Z"/>
</clipPath>
<clipPath clipPathUnits="userSpaceOnUse" id="clipPath21">
<path d="M277 359 L405 359 L405 461 L277 461 L277 359 Z"/>
</clipPath>
<clipPath clipPathUnits="userSpaceOnUse" id="clipPath22">
<path d="M277 359 L403 359 L403 459 L277 459 L277 359 Z"/>
</clipPath>
<clipPath clipPathUnits="userSpaceOnUse" id="clipPath23">
<path d="M335 364 L349 364 L349 381 L335 381 L335 364 Z"/>
</clipPath>
<clipPath clipPathUnits="userSpaceOnUse" id="clipPath24">
<path d="M282 386 L350 386 L350 401 L282 401 L282 386 Z"/>
</clipPath>
<clipPath clipPathUnits="userSpaceOnUse" id="clipPath25">
<path d="M282 399 L356 399 L356 414 L282 414 L282 399 Z"/>
</clipPath>
<clipPath clipPathUnits="userSpaceOnUse" id="clipPath26">
<path d="M282 412 L400 412 L400 427 L282 427 L282 412 Z"/>
</clipPath>
<clipPath clipPathUnits="userSpaceOnUse" id="clipPath27">
<path d="M278 384 L402 384 L402 458 L278 458 L278 384 Z"/>
</clipPath>
<clipPath clipPathUnits="userSpaceOnUse" id="clipPath28">
<path d="M52 354 L180 354 L180 456 L52 456 L52 354 Z"/>
</clipPath>
<clipPath clipPathUnits="userSpaceOnUse" id="clipPath29">
<path d="M52 354 L178 354 L178 454 L52 454 L52 354 Z"/>
</clipPath>
<clipPath clipPathUnits="userSpaceOnUse" id="clipPath30">
<path d="M99 359 L132 359 L132 376 L99 376 L99 359 Z"/>
</clipPath>
<clipPath clipPathUnits="userSpaceOnUse" id="clipPath31">
<path d="M57 381 L94 381 L94 396 L57 396 L57 381 Z"/>
</clipPath>
<clipPath clipPathUnits="userSpaceOnUse" id="clipPath32">
<path d="M57 394 L171 394 L171 409 L57 409 L57 394 Z"/>
</clipPath>
<clipPath clipPathUnits="userSpaceOnUse" id="clipPath33">
<path d="M57 407 L175 407 L175 422 L57 422 L57 407 Z"/>
</clipPath>
<clipPath clipPathUnits="userSpaceOnUse" id="clipPath34">
<path d="M53 379 L177 379 L177 453 L53 453 L53 379 Z"/>
</clipPath>
<clipPath clipPathUnits="userSpaceOnUse" id="clipPath35">
<path d="M272 194 L400 194 L400 296 L272 296 L272 194 Z"/>
</clipPath>
<clipPath clipPathUnits="userSpaceOnUse" id="clipPath36">
<path d="M272 194 L398 194 L398 294 L272 294 L272 194 Z"/>
</clipPath>
<clipPath clipPathUnits="userSpaceOnUse" id="clipPath37">
<path d="M301 199 L371 199 L371 231 L301 231 L301 199 Z"/>
</clipPath>
<clipPath clipPathUnits="userSpaceOnUse" id="clipPath38">
<path d="M277 236 L395 236 L395 251 L277 251 L277 236 Z"/>
</clipPath>
<clipPath clipPathUnits="userSpaceOnUse" id="clipPath39">
<path d="M273 234 L397 234 L397 293 L273 293 L273 234 Z"/>
</clipPath>
<clipPath clipPathUnits="userSpaceOnUse" id="clipPath40">
<path d="M272 9 L466 9 L466 111 L272 111 L272 9 Z"/>
</clipPath>
<clipPath clipPathUnits="userSpaceOnUse" id="clipPath41">
<path d="M272 9 L464 9 L464 109 L272 109 L272 9 Z"/>
</clipPath>
<clipPath clipPathUnits="userSpaceOnUse" id="clipPath42">
<path d="M349 14 L388 14 L388 31 L349 31 L349 14 Z"/>
</clipPath>
<clipPath clipPathUnits="userSpaceOnUse" id="clipPath43">
<path d="M277 36 L461 36 L461 51 L277 51 L277 36 Z"/>
</clipPath>
<clipPath clipPathUnits="userSpaceOnUse" id="clipPath44">
<path d="M273 34 L463 34 L463 108 L273 108 L273 34 Z"/>
</clipPath>
<clipPath clipPathUnits="userSpaceOnUse" id="clipPath45">
<path d="M42 564 L170 564 L170 666 L42 666 L42 564 Z"/>
</clipPath>
<clipPath clipPathUnits="userSpaceOnUse" id="clipPath46">
<path d="M42 564 L168 564 L168 664 L42 664 L42 564 Z"/>
</clipPath>
<clipPath clipPathUnits="userSpaceOnUse" id="clipPath47">
<path d="M78 569 L135 569 L135 586 L78 586 L78 569 Z"/>
</clipPath>
<clipPath clipPathUnits="userSpaceOnUse" id="clipPath48">
<path d="M47 591 L133 591 L133 606 L47 606 L47 591 Z"/>
</clipPath>
<clipPath clipPathUnits="userSpaceOnUse" id="clipPath49">
<path d="M47 604 L141 604 L141 619 L47 619 L47 604 Z"/>
</clipPath>
<clipPath clipPathUnits="userSpaceOnUse" id="clipPath50">
<path d="M47 617 L121 617 L121 632 L47 632 L47 617 Z"/>
</clipPath>
<clipPath clipPathUnits="userSpaceOnUse" id="clipPath51">
<path d="M47 630 L165 630 L165 645 L47 645 L47 630 Z"/>
</clipPath>
<clipPath clipPathUnits="userSpaceOnUse" id="clipPath52">
<path d="M43 589 L167 589 L167 663 L43 663 L43 589 Z"/>
</clipPath>
<clipPath clipPathUnits="userSpaceOnUse" id="clipPath53">
<path d="M902 354 L1024 354 L1024 456 L902 456 L902 354 Z"/>
</clipPath>
<clipPath clipPathUnits="userSpaceOnUse" id="clipPath54">
<path d="M902 354 L1022 354 L1022 454 L902 454 L902 354 Z"/>
</clipPath>
<clipPath clipPathUnits="userSpaceOnUse" id="clipPath55">
<path d="M958 359 L969 359 L969 376 L958 376 L958 359 Z"/>
</clipPath>
<clipPath clipPathUnits="userSpaceOnUse" id="clipPath56">
<path d="M907 381 L943 381 L943 396 L907 396 L907 381 Z"/>
</clipPath>
<clipPath clipPathUnits="userSpaceOnUse" id="clipPath57">
<path d="M907 394 L972 394 L972 409 L907 409 L907 394 Z"/>
</clipPath>
<clipPath clipPathUnits="userSpaceOnUse" id="clipPath58">
<path d="M903 379 L1021 379 L1021 453 L903 453 L903 379 Z"/>
</clipPath>
<clipPath clipPathUnits="userSpaceOnUse" id="clipPath59">
<path d="M-1 -1 L1034 -1 L1034 750 L-1 750 L-1 -1 Z"/>
</clipPath>
<clipPath clipPathUnits="userSpaceOnUse" id="clipPath60">
<path d="M335 291 L347 291 L347 301 L335 301 L335 291 Z"/>
</clipPath>
<clipPath clipPathUnits="userSpaceOnUse" id="clipPath61">
<path d="M331 292 L342 292 L342 303 L331 303 L331 292 Z"/>
</clipPath>
<clipPath clipPathUnits="userSpaceOnUse" id="clipPath62">
<path d="M326 290 L338 290 L338 301 L326 301 L326 290 Z"/>
</clipPath>
<clipPath clipPathUnits="userSpaceOnUse" id="clipPath63">
<path d="M178 412 L207 412 L207 427 L178 427 L178 412 Z"/>
</clipPath>
<clipPath clipPathUnits="userSpaceOnUse" id="clipPath64">
<path d="M259 411 L271 411 L271 426 L259 426 L259 411 Z"/>
</clipPath>
<clipPath clipPathUnits="userSpaceOnUse" id="clipPath65">
<path d="M176 405 L186 405 L186 414 L176 414 L176 405 Z"/>
</clipPath>
<clipPath clipPathUnits="userSpaceOnUse" id="clipPath66">
<path d="M270 405 L280 405 L280 414 L270 414 L270 405 Z"/>
</clipPath>
<clipPath clipPathUnits="userSpaceOnUse" id="clipPath67">
<path d="M109 452 L120 452 L120 463 L109 463 L109 452 Z"/>
</clipPath>
<clipPath clipPathUnits="userSpaceOnUse" id="clipPath68">
<path d="M157 474 L212 474 L212 489 L157 489 L157 474 Z"/>
</clipPath>
<clipPath clipPathUnits="userSpaceOnUse" id="clipPath69">
<path d="M316 292 L326 292 L326 302 L316 302 L316 292 Z"/>
</clipPath>
<clipPath clipPathUnits="userSpaceOnUse" id="clipPath70">
<path d="M27 544 L76 544 L76 559 L27 559 L27 544 Z"/>
</clipPath>
<clipPath clipPathUnits="userSpaceOnUse" id="clipPath71">
<path d="M28 456 L57 456 L57 471 L28 471 L28 456 Z"/>
</clipPath>
<clipPath clipPathUnits="userSpaceOnUse" id="clipPath72">
<path d="M35 592 L45 592 L45 601 L35 601 L35 592 Z"/>
</clipPath>
<clipPath clipPathUnits="userSpaceOnUse" id="clipPath73">
<path d="M45 436 L55 436 L55 445 L45 445 L45 436 Z"/>
</clipPath>
<clipPath clipPathUnits="userSpaceOnUse" id="clipPath74">
<path d="M200 623 L221 623 L221 638 L200 638 L200 623 Z"/>
</clipPath>
<clipPath clipPathUnits="userSpaceOnUse" id="clipPath75">
<path d="M122 694 L151 694 L151 709 L122 709 L122 694 Z"/>
</clipPath>
<clipPath clipPathUnits="userSpaceOnUse" id="clipPath76">
<path d="M166 616 L176 616 L176 625 L166 625 L166 616 Z"/>
</clipPath>
<clipPath clipPathUnits="userSpaceOnUse" id="clipPath77">
<path d="M110 662 L119 662 L119 672 L110 672 L110 662 Z"/>
</clipPath>
</defs>
<g fill="rgb(131,122,133)" font-family="'Segoe UI'" stroke-linejoin="round" stroke="rgb(131,122,133)" font-weight="bold" stroke-width="0" stroke-miterlimit="0">
<rect x="57" y="11" clip-path="url(#clipPath1)" width="118" rx="2.5" opacity="0.2549" ry="2.5" height="98" stroke="none"/>
<rect x="58" y="12" clip-path="url(#clipPath1)" width="118" rx="2.5" opacity="0.2549" ry="2.5" height="98" stroke="none"/>
<rect x="56" y="10" clip-path="url(#clipPath2)" fill="url(#linearGradient1)" width="118" rx="2.5" ry="2.5" height="98" stroke="none"/>
</g>
<g stroke-width="1.1" font-weight="bold" font-family="'Segoe UI'" stroke-linecap="butt">
<rect x="56" y="10" clip-path="url(#clipPath2)" fill="none" width="117" rx="2.5" ry="2.5" height="97"/>
<text xml:space="preserve" x="110" y="28" clip-path="url(#clipPath3)" stroke="none">D</text>
<text x="61" font-size="11" y="49" clip-path="url(#clipPath4)" stroke="none" font-weight="normal" xml:space="preserve">+ e : E</text>
<text x="61" font-size="11" y="62" clip-path="url(#clipPath5)" stroke="none" font-weight="normal" xml:space="preserve">+ a : A</text>
<line clip-path="url(#clipPath6)" fill="none" x1="57" x2="173" y1="35" y2="35"/>
<rect x="694" y="361" clip-path="url(#clipPath7)" fill="rgb(131,122,133)" width="124" rx="2.5" opacity="0.2549" ry="2.5" height="98" stroke="none"/>
<rect x="695" y="362" clip-path="url(#clipPath7)" fill="rgb(131,122,133)" width="124" rx="2.5" opacity="0.2549" ry="2.5" height="98" stroke="none"/>
<rect x="693" y="360" clip-path="url(#clipPath8)" fill="url(#linearGradient2)" width="124" rx="2.5" ry="2.5" height="98" stroke="none"/>
<rect x="693" y="360" clip-path="url(#clipPath8)" fill="none" width="123" rx="2.5" ry="2.5" height="97"/>
<text xml:space="preserve" x="751" y="378" clip-path="url(#clipPath9)" stroke="none">A</text>
<text x="698" font-size="11" y="399" clip-path="url(#clipPath10)" stroke="none" font-weight="normal" xml:space="preserve">q : IImpl</text>
<text x="698" font-size="11" y="412" clip-path="url(#clipPath11)" stroke="none" font-weight="normal" xml:space="preserve">+ b : B</text>
<text x="698" font-size="11" y="425" clip-path="url(#clipPath12)" stroke="none" font-weight="normal" xml:space="preserve">+ assignP(_p : Integer)</text>
<line clip-path="url(#clipPath13)" fill="none" x1="694" x2="816" y1="385" y2="385"/>
<rect x="484" y="361" clip-path="url(#clipPath14)" fill="rgb(131,122,133)" width="124" rx="2.5" opacity="0.2549" ry="2.5" height="98" stroke="none"/>
<rect x="485" y="362" clip-path="url(#clipPath14)" fill="rgb(131,122,133)" width="124" rx="2.5" opacity="0.2549" ry="2.5" height="98" stroke="none"/>
<rect x="483" y="360" clip-path="url(#clipPath15)" fill="url(#linearGradient3)" width="124" rx="2.5" ry="2.5" height="98" stroke="none"/>
<rect x="483" y="360" clip-path="url(#clipPath15)" fill="none" width="123" rx="2.5" ry="2.5" height="97"/>
<text xml:space="preserve" x="541" y="378" clip-path="url(#clipPath16)" stroke="none">C</text>
<text x="488" font-size="11" y="399" clip-path="url(#clipPath17)" stroke="none" font-weight="normal" xml:space="preserve">q : IProvReq</text>
<text x="488" font-size="11" y="412" clip-path="url(#clipPath18)" stroke="none" font-weight="normal" xml:space="preserve">+ callSetP(v : Integer)</text>
<text x="488" font-size="11" y="425" clip-path="url(#clipPath19)" stroke="none" font-weight="normal" xml:space="preserve">+ assignP(_p : Integer)</text>
<line clip-path="url(#clipPath20)" fill="none" x1="484" x2="606" y1="385" y2="385"/>
<rect x="279" y="361" clip-path="url(#clipPath21)" fill="rgb(131,122,133)" width="124" rx="2.5" opacity="0.2549" ry="2.5" height="98" stroke="none"/>
<rect x="280" y="362" clip-path="url(#clipPath21)" fill="rgb(131,122,133)" width="124" rx="2.5" opacity="0.2549" ry="2.5" height="98" stroke="none"/>
<rect x="278" y="360" clip-path="url(#clipPath22)" fill="url(#linearGradient4)" width="124" rx="2.5" ry="2.5" height="98" stroke="none"/>
<rect x="278" y="360" clip-path="url(#clipPath22)" fill="none" width="123" rx="2.5" ry="2.5" height="97"/>
<text xml:space="preserve" x="336" y="378" clip-path="url(#clipPath23)" stroke="none">B</text>
<text x="283" font-size="11" y="399" clip-path="url(#clipPath24)" stroke="none" font-weight="normal" xml:space="preserve">+ p : Integer</text>
<text x="283" font-size="11" y="412" clip-path="url(#clipPath25)" stroke="none" font-weight="normal" xml:space="preserve">+ iImpl : IImpl</text>
<text x="283" font-size="11" y="425" clip-path="url(#clipPath26)" stroke="none" font-weight="normal" xml:space="preserve">+ assignP(_p : Integer)</text>
<line clip-path="url(#clipPath27)" fill="none" x1="279" x2="401" y1="385" y2="385"/>
<rect x="54" y="356" clip-path="url(#clipPath28)" fill="rgb(131,122,133)" width="124" rx="2.5" opacity="0.2549" ry="2.5" height="98" stroke="none"/>
<rect x="55" y="357" clip-path="url(#clipPath28)" fill="rgb(131,122,133)" width="124" rx="2.5" opacity="0.2549" ry="2.5" height="98" stroke="none"/>
<rect x="53" y="355" clip-path="url(#clipPath29)" fill="url(#linearGradient5)" width="124" rx="2.5" ry="2.5" height="98" stroke="none"/>
<rect x="53" y="355" clip-path="url(#clipPath29)" fill="none" width="123" rx="2.5" ry="2.5" height="97"/>
<text xml:space="preserve" x="100" y="373" clip-path="url(#clipPath30)" stroke="none">IImpl</text>
<text x="58" font-size="11" y="394" clip-path="url(#clipPath31)" stroke="none" font-weight="normal" xml:space="preserve">+ b : B</text>
<text x="58" font-size="11" y="407" clip-path="url(#clipPath32)" stroke="none" font-weight="normal" xml:space="preserve">+ iProvReq : IProvReq</text>
<text x="58" font-size="11" y="420" clip-path="url(#clipPath33)" stroke="none" font-weight="normal" xml:space="preserve">+ assignP(_p : Integer)</text>
<line clip-path="url(#clipPath34)" fill="none" x1="54" x2="176" y1="380" y2="380"/>
<rect x="274" y="196" clip-path="url(#clipPath35)" fill="rgb(131,122,133)" width="124" rx="2.5" opacity="0.2549" ry="2.5" height="98" stroke="none"/>
<rect x="275" y="197" clip-path="url(#clipPath35)" fill="rgb(131,122,133)" width="124" rx="2.5" opacity="0.2549" ry="2.5" height="98" stroke="none"/>
<rect x="273" y="195" clip-path="url(#clipPath36)" fill="url(#linearGradient6)" width="124" rx="2.5" ry="2.5" height="98" stroke="none"/>
<rect x="273" y="195" clip-path="url(#clipPath36)" fill="none" width="123" rx="2.5" ry="2.5" height="97"/>
<text xml:space="preserve" x="302" y="213" clip-path="url(#clipPath37)" stroke="none">«Interface»&#13;</text>
<text xml:space="preserve" x="302" y="228" clip-path="url(#clipPath37)" stroke="none">I</text>
<text x="278" font-size="11" y="249" clip-path="url(#clipPath38)" stroke="none" font-weight="normal" xml:space="preserve">+ assignP(_p : Integer)</text>
<line clip-path="url(#clipPath39)" fill="none" x1="274" x2="396" y1="235" y2="235"/>
<rect x="274" y="11" clip-path="url(#clipPath40)" fill="rgb(131,122,133)" width="190" rx="2.5" opacity="0.2549" ry="2.5" height="98" stroke="none"/>
<rect x="275" y="12" clip-path="url(#clipPath40)" fill="rgb(131,122,133)" width="190" rx="2.5" opacity="0.2549" ry="2.5" height="98" stroke="none"/>
<rect x="273" y="10" clip-path="url(#clipPath41)" fill="url(#linearGradient7)" width="190" rx="2.5" ry="2.5" height="98" stroke="none"/>
<rect x="273" y="10" clip-path="url(#clipPath41)" fill="none" width="189" rx="2.5" ry="2.5" height="97"/>
<text xml:space="preserve" x="350" y="28" clip-path="url(#clipPath42)" stroke="none">Tester</text>
<text x="278" font-size="11" y="49" clip-path="url(#clipPath43)" stroke="none" font-weight="normal" xml:space="preserve">+ testCallDelegation(v : Integer) : D</text>
<line clip-path="url(#clipPath44)" fill="none" x1="274" x2="462" y1="35" y2="35"/>
<rect x="44" y="566" clip-path="url(#clipPath45)" fill="rgb(131,122,133)" width="124" rx="2.5" opacity="0.2549" ry="2.5" height="98" stroke="none"/>
<rect x="45" y="567" clip-path="url(#clipPath45)" fill="rgb(131,122,133)" width="124" rx="2.5" opacity="0.2549" ry="2.5" height="98" stroke="none"/>
<rect x="43" y="565" clip-path="url(#clipPath46)" fill="url(#linearGradient8)" width="124" rx="2.5" ry="2.5" height="98" stroke="none"/>
<rect x="43" y="565" clip-path="url(#clipPath46)" fill="none" width="123" rx="2.5" ry="2.5" height="97"/>
<text xml:space="preserve" x="79" y="583" clip-path="url(#clipPath47)" stroke="none">IProvReq</text>
<text x="48" font-size="11" y="604" clip-path="url(#clipPath48)" stroke="none" font-weight="normal" xml:space="preserve">+ left : IProvReq</text>
<text x="48" font-size="11" y="617" clip-path="url(#clipPath49)" stroke="none" font-weight="normal" xml:space="preserve">+ right : IProvReq</text>
<text x="48" font-size="11" y="630" clip-path="url(#clipPath50)" stroke="none" font-weight="normal" xml:space="preserve">+ iImpl : IImpl</text>
<text x="48" font-size="11" y="643" clip-path="url(#clipPath51)" stroke="none" font-weight="normal" xml:space="preserve">+ assignP(_p : Integer)</text>
<line clip-path="url(#clipPath52)" fill="none" x1="44" x2="166" y1="590" y2="590"/>
<rect x="904" y="356" clip-path="url(#clipPath53)" fill="rgb(131,122,133)" width="118" rx="2.5" opacity="0.2549" ry="2.5" height="98" stroke="none"/>
<rect x="905" y="357" clip-path="url(#clipPath53)" fill="rgb(131,122,133)" width="118" rx="2.5" opacity="0.2549" ry="2.5" height="98" stroke="none"/>
<rect x="903" y="355" clip-path="url(#clipPath54)" fill="url(#linearGradient9)" width="118" rx="2.5" ry="2.5" height="98" stroke="none"/>
<rect x="903" y="355" clip-path="url(#clipPath54)" fill="none" width="117" rx="2.5" ry="2.5" height="97"/>
<text xml:space="preserve" x="959" y="373" clip-path="url(#clipPath55)" stroke="none">E</text>
<text x="908" font-size="11" y="394" clip-path="url(#clipPath56)" stroke="none" font-weight="normal" xml:space="preserve">+ c : C</text>
<text x="908" font-size="11" y="407" clip-path="url(#clipPath57)" stroke="none" font-weight="normal" xml:space="preserve">q : IProvReq</text>
<line clip-path="url(#clipPath58)" fill="none" x1="904" x2="1020" y1="380" y2="380"/>
<line clip-path="url(#clipPath59)" fill="none" x1="546" x2="336" y1="360" y2="293" stroke-dasharray="5,5"/>
</g>
<g stroke-linecap="butt" font-size="11" fill="white" font-family="'Segoe UI'" stroke-dasharray="5,5" stroke="white" stroke-width="1.1">
<polygon clip-path="url(#clipPath60)" points=" 336 293 345 292 342 299" stroke="none"/>
<polygon fill="none" stroke-dasharray="none" clip-path="url(#clipPath60)" points=" 336 293 345 292 342 299" stroke="black"/>
<line clip-path="url(#clipPath59)" fill="none" x1="336" x2="336" y1="360" y2="293" stroke="black"/>
<polygon clip-path="url(#clipPath61)" points=" 336 293 340 301 332 301" stroke="none"/>
<polygon fill="none" stroke-dasharray="none" clip-path="url(#clipPath61)" points=" 336 293 340 301 332 301" stroke="black"/>
<line clip-path="url(#clipPath59)" fill="none" x1="116" x2="336" y1="355" y2="293" stroke="black"/>
<polygon clip-path="url(#clipPath62)" points=" 336 293 329 299 327 291" stroke="none"/>
<polygon fill="none" stroke-dasharray="none" clip-path="url(#clipPath62)" points=" 336 293 329 299 327 291" stroke="black"/>
<line clip-path="url(#clipPath59)" fill="none" x1="177" x2="278" y1="409" y2="409" stroke-dasharray="none" stroke="black"/>
<text x="179" y="425" clip-path="url(#clipPath63)" fill="black" stroke-dasharray="none" stroke="none" xml:space="preserve">iImpl</text>
<text x="260" y="424" clip-path="url(#clipPath64)" fill="black" stroke-dasharray="none" stroke="none" xml:space="preserve">b</text>
<line clip-path="url(#clipPath65)" fill="none" x1="184" x2="177" y1="406" y2="409" stroke-dasharray="none" stroke="black"/>
<line clip-path="url(#clipPath65)" fill="none" x1="177" x2="184" y1="409" y2="412" stroke-dasharray="none" stroke="black"/>
<line clip-path="url(#clipPath66)" fill="none" x1="271" x2="278" y1="412" y2="409" stroke-dasharray="none" stroke="black"/>
<line clip-path="url(#clipPath66)" fill="none" x1="278" x2="271" y1="409" y2="406" stroke-dasharray="none" stroke="black"/>
<line clip-path="url(#clipPath59)" fill="none" x1="113" x2="113" y1="565" y2="471" stroke-dasharray="none" stroke="black"/>
<line clip-path="url(#clipPath59)" fill="none" x1="113" x2="114" y1="471" y2="471" stroke-dasharray="none" stroke="black"/>
<line clip-path="url(#clipPath59)" fill="none" x1="114" x2="114" y1="471" y2="453" stroke-dasharray="none" stroke="black"/>
<polygon stroke-dasharray="none" clip-path="url(#clipPath67)" points=" 114 453 118 461 110 461" stroke="none"/>
<polygon fill="none" stroke-dasharray="none" clip-path="url(#clipPath67)" points=" 114 453 118 461 110 461" stroke="black"/>
<line clip-path="url(#clipPath59)" fill="none" x1="116" x2="324" y1="565" y2="293" stroke="black"/>
<text x="158" y="487" clip-path="url(#clipPath68)" fill="black" stroke="none" xml:space="preserve">&lt;&lt;use&gt;&gt;</text>
<line clip-path="url(#clipPath69)" fill="none" x1="322" x2="324" y1="300" y2="293" stroke-dasharray="none" stroke="black"/>
<line clip-path="url(#clipPath69)" fill="none" x1="324" x2="317" y1="293" y2="297" stroke-dasharray="none" stroke="black"/>
<line clip-path="url(#clipPath59)" fill="none" x1="43" x2="23" y1="596" y2="596" stroke-dasharray="none" stroke="black"/>
<line clip-path="url(#clipPath59)" fill="none" x1="23" x2="23" y1="596" y2="440" stroke-dasharray="none" stroke="black"/>
<line clip-path="url(#clipPath59)" fill="none" x1="23" x2="53" y1="440" y2="440" stroke-dasharray="none" stroke="black"/>
<text x="28" y="557" clip-path="url(#clipPath70)" fill="black" stroke-dasharray="none" stroke="none" xml:space="preserve">iProvReq</text>
<text x="29" y="469" clip-path="url(#clipPath71)" fill="black" stroke-dasharray="none" stroke="none" xml:space="preserve">iImpl</text>
<line clip-path="url(#clipPath72)" fill="none" x1="36" x2="43" y1="599" y2="596" stroke-dasharray="none" stroke="black"/>
<line clip-path="url(#clipPath72)" fill="none" x1="43" x2="36" y1="596" y2="593" stroke-dasharray="none" stroke="black"/>
<line clip-path="url(#clipPath73)" fill="none" x1="46" x2="53" y1="443" y2="440" stroke-dasharray="none" stroke="black"/>
<line clip-path="url(#clipPath73)" fill="none" x1="53" x2="46" y1="440" y2="437" stroke-dasharray="none" stroke="black"/>
<line clip-path="url(#clipPath59)" fill="none" x1="167" x2="229" y1="620" y2="620" stroke-dasharray="none" stroke="black"/>
<line clip-path="url(#clipPath59)" fill="none" x1="229" x2="229" y1="620" y2="725" stroke-dasharray="none" stroke="black"/>
<line clip-path="url(#clipPath59)" fill="none" x1="229" x2="114" y1="725" y2="725" stroke-dasharray="none" stroke="black"/>
<line clip-path="url(#clipPath59)" fill="none" x1="114" x2="114" y1="725" y2="663" stroke-dasharray="none" stroke="black"/>
<text x="201" y="636" clip-path="url(#clipPath74)" fill="black" stroke-dasharray="none" stroke="none" xml:space="preserve">left</text>
<text x="123" y="707" clip-path="url(#clipPath75)" fill="black" stroke-dasharray="none" stroke="none" xml:space="preserve">right</text>
<line clip-path="url(#clipPath76)" fill="none" x1="174" x2="167" y1="617" y2="620" stroke-dasharray="none" stroke="black"/>
<line clip-path="url(#clipPath76)" fill="none" x1="167" x2="174" y1="620" y2="623" stroke-dasharray="none" stroke="black"/>
<line clip-path="url(#clipPath77)" fill="none" x1="117" x2="114" y1="670" y2="663" stroke-dasharray="none" stroke="black"/>
<line clip-path="url(#clipPath77)" fill="none" x1="114" x2="111" y1="663" y2="670" stroke-dasharray="none" stroke="black"/>
</g>
</g>
</svg>
