<?xml version="1.0" encoding="UTF-8"?><svg xmlns="http://www.w3.org/2000/svg" xmlns:xlink="http://www.w3.org/1999/xlink" stroke-dasharray="none" shape-rendering="auto" font-family="'Dialog'" width="460" text-rendering="auto" fill-opacity="1" contentScriptType="text/ecmascript" color-interpolation="auto" color-rendering="auto" preserveAspectRatio="xMidYMid meet" font-size="12" viewBox="0 0 460 188" fill="black" stroke="black" image-rendering="auto" stroke-miterlimit="10" zoomAndPan="magnify" version="1.0" stroke-linecap="square" stroke-linejoin="miter" contentStyleType="text/css" font-style="normal" height="188" stroke-width="1" stroke-dashoffset="0" font-weight="normal" stroke-opacity="1">
<!--Generated by the Batik Graphics2D SVG Generator-->
<defs id="genericDefs"/>
<g>
<defs id="defs1">
<linearGradient x1="152" x2="448" y1="-22" gradientUnits="userSpaceOnUse" y2="209" xlink:type="simple" xlink:actuate="onLoad" id="linearGradient1" xlink:show="other" spreadMethod="pad">
<stop stop-opacity="1" stop-color="white" offset="0%"/>
<stop stop-opacity="1" stop-color="white" offset="100%"/>
</linearGradient>
<linearGradient x1="227" x2="375" y1="51" gradientUnits="userSpaceOnUse" y2="159" xlink:type="simple" xlink:actuate="onLoad" id="linearGradient2" xlink:show="other" spreadMethod="pad">
<stop stop-opacity="1" stop-color="white" offset="0%"/>
<stop stop-opacity="1" stop-color="white" offset="100%"/>
</linearGradient>
<clipPath clipPathUnits="userSpaceOnUse" id="clipPath1">
<path d="M151 9 L451 9 L451 179 L151 179 L151 9 Z"/>
</clipPath>
<clipPath clipPathUnits="userSpaceOnUse" id="clipPath2">
<path d="M151 9 L449 9 L449 177 L151 177 L151 9 Z"/>
</clipPath>
<clipPath clipPathUnits="userSpaceOnUse" id="clipPath3">
<path d="M269 14 L332 14 L332 31 L269 31 L269 14 Z"/>
</clipPath>
<clipPath clipPathUnits="userSpaceOnUse" id="clipPath4">
<path d="M226 70 L378 70 L378 142 L226 142 L226 70 Z"/>
</clipPath>
<clipPath clipPathUnits="userSpaceOnUse" id="clipPath5">
<path d="M226 70 L376 70 L376 140 L226 140 L226 70 Z"/>
</clipPath>
<clipPath clipPathUnits="userSpaceOnUse" id="clipPath6">
<path d="M280 75 L324 75 L324 90 L280 90 L280 75 Z"/>
</clipPath>
<clipPath clipPathUnits="userSpaceOnUse" id="clipPath7">
<path d="M214 95 L236 95 L236 117 L214 117 L214 95 Z"/>
</clipPath>
<clipPath clipPathUnits="userSpaceOnUse" id="clipPath8">
<path d="M235 95 L297 95 L297 110 L235 110 L235 95 Z"/>
</clipPath>
<clipPath clipPathUnits="userSpaceOnUse" id="clipPath9">
<path d="M286 58 L308 58 L308 80 L286 80 L286 58 Z"/>
</clipPath>
<clipPath clipPathUnits="userSpaceOnUse" id="clipPath10">
<path d="M307 58 L329 58 L329 73 L307 73 L307 58 Z"/>
</clipPath>
<clipPath clipPathUnits="userSpaceOnUse" id="clipPath11">
<path d="M9 79 L161 79 L161 131 L9 131 L9 79 Z"/>
</clipPath>
<clipPath clipPathUnits="userSpaceOnUse" id="clipPath12">
<path d="M10 80 L162 80 L162 130 L10 130 L10 80 Z"/>
</clipPath>
<clipPath clipPathUnits="userSpaceOnUse" id="clipPath13">
<path d="M-1 -1 L461 -1 L461 189 L-1 189 L-1 -1 Z"/>
</clipPath>
<clipPath clipPathUnits="userSpaceOnUse" id="clipPath14">
<path d="M207 100 L217 100 L217 109 L207 109 L207 100 Z"/>
</clipPath>
</defs>
<g fill="rgb(131,122,133)" font-family="'Segoe UI'" stroke-linejoin="round" stroke="rgb(131,122,133)" stroke-width="0" stroke-miterlimit="0">
<rect x="153" y="11" clip-path="url(#clipPath1)" width="296" rx="12.5" opacity="0.2549" ry="12.5" height="166" stroke="none"/>
<rect x="154" y="12" clip-path="url(#clipPath1)" width="296" rx="12.5" opacity="0.2549" ry="12.5" height="166" stroke="none"/>
<rect x="152" y="10" clip-path="url(#clipPath2)" fill="url(#linearGradient1)" width="296" rx="12.5" ry="12.5" height="166" stroke="none"/>
</g>
<g stroke-width="1.1" font-family="'Segoe UI'" stroke-linecap="butt">
<rect x="152" y="10" clip-path="url(#clipPath2)" fill="none" width="295" rx="12.5" ry="12.5" height="165"/>
<text xml:space="preserve" x="270" y="28" clip-path="url(#clipPath3)" stroke="none">actCallSetP</text>
</g>
<g stroke-linecap="butt" font-size="11" fill="rgb(131,122,133)" font-family="'Segoe UI'" stroke="rgb(131,122,133)" font-weight="bold" stroke-width="1.1">
<rect x="228" y="72" clip-path="url(#clipPath4)" width="148" rx="12.5" opacity="0.2549" ry="12.5" height="68" stroke="none"/>
<rect x="229" y="73" clip-path="url(#clipPath4)" width="148" rx="12.5" opacity="0.2549" ry="12.5" height="68" stroke="none"/>
<rect x="227" y="71" clip-path="url(#clipPath5)" fill="url(#linearGradient2)" width="148" rx="12.5" ry="12.5" height="68" stroke="none"/>
<rect x="227" y="71" clip-path="url(#clipPath5)" fill="none" width="147" rx="12.5" ry="12.5" height="67" stroke="black"/>
<text x="281" y="88" clip-path="url(#clipPath6)" fill="black" stroke="none" xml:space="preserve">assignP</text>
</g>
<g fill="white" stroke-width="1.1" font-family="'Segoe UI'" stroke-linecap="butt" stroke="white">
<rect x="215" y="96" clip-path="url(#clipPath7)" width="20" height="20" stroke="none"/>
<rect x="215" y="96" clip-path="url(#clipPath7)" fill="none" width="19" height="19" stroke="black"/>
<text x="236" font-size="11" y="108" clip-path="url(#clipPath8)" fill="black" stroke="none" xml:space="preserve">_p : Integer</text>
<rect x="287" y="59" clip-path="url(#clipPath9)" width="20" height="20" stroke="none"/>
<rect x="287" y="59" clip-path="url(#clipPath9)" fill="none" width="19" height="19" stroke="black"/>
<text x="308" font-size="11" y="71" clip-path="url(#clipPath10)" fill="black" stroke="none" xml:space="preserve">self</text>
<rect x="10" y="80" clip-path="url(#clipPath11)" width="150" height="50" stroke="none"/>
<rect x="10" y="80" clip-path="url(#clipPath11)" fill="none" width="149" height="49" stroke="black"/>
<text x="57" font-size="11" y="110" clip-path="url(#clipPath12)" fill="black" stroke="none" xml:space="preserve">_v : Integer</text>
<line clip-path="url(#clipPath13)" fill="none" x1="160" x2="215" y1="104" y2="104" stroke="black"/>
<line clip-path="url(#clipPath14)" fill="none" x1="208" x2="215" y1="107" y2="104" stroke="black"/>
<line clip-path="url(#clipPath14)" fill="none" x1="215" x2="208" y1="104" y2="101" stroke="black"/>
<line clip-path="url(#clipPath13)" fill="none" x1="160" x2="215" y1="104" y2="104" stroke="black"/>
<line clip-path="url(#clipPath14)" fill="none" x1="208" x2="215" y1="107" y2="104" stroke="black"/>
<line clip-path="url(#clipPath14)" fill="none" x1="215" x2="208" y1="104" y2="101" stroke="black"/>
</g>
</g>
</svg>
