<?xml version="1.0" encoding="UTF-8"?><svg xmlns="http://www.w3.org/2000/svg" xmlns:xlink="http://www.w3.org/1999/xlink" stroke-dasharray="none" shape-rendering="auto" font-family="'Dialog'" width="715" text-rendering="auto" fill-opacity="1" contentScriptType="text/ecmascript" color-interpolation="auto" color-rendering="auto" preserveAspectRatio="xMidYMid meet" font-size="12" viewBox="0 0 715 563" fill="black" stroke="black" image-rendering="auto" stroke-miterlimit="10" zoomAndPan="magnify" version="1.0" stroke-linecap="square" stroke-linejoin="miter" contentStyleType="text/css" font-style="normal" height="563" stroke-width="1" stroke-dashoffset="0" font-weight="normal" stroke-opacity="1">
<!--Generated by the Batik Graphics2D SVG Generator-->
<defs id="genericDefs"/>
<g>
<defs id="defs1">
<linearGradient x1="120" x2="596" y1="10" gradientUnits="userSpaceOnUse" y2="551" xlink:type="simple" xlink:actuate="onLoad" id="linearGradient1" xlink:show="other" spreadMethod="pad">
<stop stop-opacity="1" stop-color="white" offset="0%"/>
<stop stop-opacity="1" stop-color="white" offset="100%"/>
</linearGradient>
<linearGradient x1="322" x2="470" y1="25" gradientUnits="userSpaceOnUse" y2="133" xlink:type="simple" xlink:actuate="onLoad" id="linearGradient2" xlink:show="other" spreadMethod="pad">
<stop stop-opacity="1" stop-color="white" offset="0%"/>
<stop stop-opacity="1" stop-color="white" offset="100%"/>
</linearGradient>
<linearGradient x1="272" x2="420" y1="195" gradientUnits="userSpaceOnUse" y2="303" xlink:type="simple" xlink:actuate="onLoad" id="linearGradient3" xlink:show="other" spreadMethod="pad">
<stop stop-opacity="1" stop-color="white" offset="0%"/>
<stop stop-opacity="1" stop-color="white" offset="100%"/>
</linearGradient>
<linearGradient x1="272" x2="420" y1="305" gradientUnits="userSpaceOnUse" y2="413" xlink:type="simple" xlink:actuate="onLoad" id="linearGradient4" xlink:show="other" spreadMethod="pad">
<stop stop-opacity="1" stop-color="white" offset="0%"/>
<stop stop-opacity="1" stop-color="white" offset="100%"/>
</linearGradient>
<linearGradient x1="272" x2="420" y1="430" gradientUnits="userSpaceOnUse" y2="538" xlink:type="simple" xlink:actuate="onLoad" id="linearGradient5" xlink:show="other" spreadMethod="pad">
<stop stop-opacity="1" stop-color="white" offset="0%"/>
<stop stop-opacity="1" stop-color="white" offset="100%"/>
</linearGradient>
<clipPath clipPathUnits="userSpaceOnUse" id="clipPath1">
<path d="M151 9 L566 9 L566 554 L151 554 L151 9 Z"/>
</clipPath>
<clipPath clipPathUnits="userSpaceOnUse" id="clipPath2">
<path d="M151 9 L564 9 L564 552 L151 552 L151 9 Z"/>
</clipPath>
<clipPath clipPathUnits="userSpaceOnUse" id="clipPath3">
<path d="M300 14 L417 14 L417 31 L300 31 L300 14 Z"/>
</clipPath>
<clipPath clipPathUnits="userSpaceOnUse" id="clipPath4">
<path d="M321 44 L473 44 L473 116 L321 116 L321 44 Z"/>
</clipPath>
<clipPath clipPathUnits="userSpaceOnUse" id="clipPath5">
<path d="M321 44 L471 44 L471 114 L321 114 L321 44 Z"/>
</clipPath>
<clipPath clipPathUnits="userSpaceOnUse" id="clipPath6">
<path d="M374 49 L419 49 L419 64 L374 64 L374 49 Z"/>
</clipPath>
<clipPath clipPathUnits="userSpaceOnUse" id="clipPath7">
<path d="M381 104 L403 104 L403 126 L381 126 L381 104 Z"/>
</clipPath>
<clipPath clipPathUnits="userSpaceOnUse" id="clipPath8">
<path d="M402 104 L452 104 L452 119 L402 119 L402 104 Z"/>
</clipPath>
<clipPath clipPathUnits="userSpaceOnUse" id="clipPath9">
<path d="M271 214 L423 214 L423 286 L271 286 L271 214 Z"/>
</clipPath>
<clipPath clipPathUnits="userSpaceOnUse" id="clipPath10">
<path d="M271 214 L421 214 L421 284 L271 284 L271 214 Z"/>
</clipPath>
<clipPath clipPathUnits="userSpaceOnUse" id="clipPath11">
<path d="M319 219 L375 219 L375 234 L319 234 L319 219 Z"/>
</clipPath>
<clipPath clipPathUnits="userSpaceOnUse" id="clipPath12">
<path d="M326 202 L348 202 L348 224 L326 224 L326 202 Z"/>
</clipPath>
<clipPath clipPathUnits="userSpaceOnUse" id="clipPath13">
<path d="M347 202 L400 202 L400 217 L347 217 L347 202 Z"/>
</clipPath>
<clipPath clipPathUnits="userSpaceOnUse" id="clipPath14">
<path d="M326 274 L348 274 L348 296 L326 296 L326 274 Z"/>
</clipPath>
<clipPath clipPathUnits="userSpaceOnUse" id="clipPath15">
<path d="M347 281 L384 281 L384 296 L347 296 L347 281 Z"/>
</clipPath>
<clipPath clipPathUnits="userSpaceOnUse" id="clipPath16">
<path d="M301 144 L509 144 L509 156 L301 156 L301 144 Z"/>
</clipPath>
<clipPath clipPathUnits="userSpaceOnUse" id="clipPath17">
<path d="M271 324 L423 324 L423 396 L271 396 L271 324 Z"/>
</clipPath>
<clipPath clipPathUnits="userSpaceOnUse" id="clipPath18">
<path d="M271 324 L421 324 L421 394 L271 394 L271 324 Z"/>
</clipPath>
<clipPath clipPathUnits="userSpaceOnUse" id="clipPath19">
<path d="M320 329 L375 329 L375 344 L320 344 L320 329 Z"/>
</clipPath>
<clipPath clipPathUnits="userSpaceOnUse" id="clipPath20">
<path d="M326 312 L348 312 L348 334 L326 334 L326 312 Z"/>
</clipPath>
<clipPath clipPathUnits="userSpaceOnUse" id="clipPath21">
<path d="M347 312 L398 312 L398 327 L347 327 L347 312 Z"/>
</clipPath>
<clipPath clipPathUnits="userSpaceOnUse" id="clipPath22">
<path d="M331 384 L353 384 L353 406 L331 406 L331 384 Z"/>
</clipPath>
<clipPath clipPathUnits="userSpaceOnUse" id="clipPath23">
<path d="M352 384 L390 384 L390 399 L352 399 L352 384 Z"/>
</clipPath>
<clipPath clipPathUnits="userSpaceOnUse" id="clipPath24">
<path d="M271 449 L423 449 L423 521 L271 521 L271 449 Z"/>
</clipPath>
<clipPath clipPathUnits="userSpaceOnUse" id="clipPath25">
<path d="M271 449 L421 449 L421 519 L271 519 L271 449 Z"/>
</clipPath>
<clipPath clipPathUnits="userSpaceOnUse" id="clipPath26">
<path d="M291 454 L402 454 L402 469 L291 469 L291 454 Z"/>
</clipPath>
<clipPath clipPathUnits="userSpaceOnUse" id="clipPath27">
<path d="M259 469 L281 469 L281 491 L259 491 L259 469 Z"/>
</clipPath>
<clipPath clipPathUnits="userSpaceOnUse" id="clipPath28">
<path d="M280 469 L335 469 L335 484 L280 484 L280 469 Z"/>
</clipPath>
<clipPath clipPathUnits="userSpaceOnUse" id="clipPath29">
<path d="M331 437 L353 437 L353 459 L331 459 L331 437 Z"/>
</clipPath>
<clipPath clipPathUnits="userSpaceOnUse" id="clipPath30">
<path d="M352 437 L403 437 L403 452 L352 452 L352 437 Z"/>
</clipPath>
<clipPath clipPathUnits="userSpaceOnUse" id="clipPath31">
<path d="M9 449 L161 449 L161 501 L9 501 L9 449 Z"/>
</clipPath>
<clipPath clipPathUnits="userSpaceOnUse" id="clipPath32">
<path d="M10 450 L162 450 L162 500 L10 500 L10 450 Z"/>
</clipPath>
<clipPath clipPathUnits="userSpaceOnUse" id="clipPath33">
<path d="M554 464 L706 464 L706 516 L554 516 L554 464 Z"/>
</clipPath>
<clipPath clipPathUnits="userSpaceOnUse" id="clipPath34">
<path d="M555 465 L707 465 L707 515 L555 515 L555 465 Z"/>
</clipPath>
<clipPath clipPathUnits="userSpaceOnUse" id="clipPath35">
<path d="M-1 -1 L716 -1 L716 564 L-1 564 L-1 -1 Z"/>
</clipPath>
<clipPath clipPathUnits="userSpaceOnUse" id="clipPath36">
<path d="M338 430 L347 430 L347 440 L338 440 L338 430 Z"/>
</clipPath>
<clipPath clipPathUnits="userSpaceOnUse" id="clipPath37">
<path d="M333 305 L342 305 L342 315 L333 315 L333 305 Z"/>
</clipPath>
<clipPath clipPathUnits="userSpaceOnUse" id="clipPath38">
<path d="M391 137 L400 137 L400 147 L391 147 L391 137 Z"/>
</clipPath>
<clipPath clipPathUnits="userSpaceOnUse" id="clipPath39">
<path d="M252 473 L262 473 L262 482 L252 482 L252 473 Z"/>
</clipPath>
<clipPath clipPathUnits="userSpaceOnUse" id="clipPath40">
<path d="M337 195 L346 195 L346 205 L337 205 L337 195 Z"/>
</clipPath>
<clipPath clipPathUnits="userSpaceOnUse" id="clipPath41">
<path d="M635 457 L644 457 L644 467 L635 467 L635 457 Z"/>
</clipPath>
</defs>
<g fill="rgb(131,122,133)" font-family="'Segoe UI'" stroke-linejoin="round" stroke="rgb(131,122,133)" stroke-width="0" stroke-miterlimit="0">
<rect x="153" y="11" clip-path="url(#clipPath1)" width="411" rx="12.5" opacity="0.2549" ry="12.5" height="541" stroke="none"/>
<rect x="154" y="12" clip-path="url(#clipPath1)" width="411" rx="12.5" opacity="0.2549" ry="12.5" height="541" stroke="none"/>
<rect x="152" y="10" clip-path="url(#clipPath2)" fill="url(#linearGradient1)" width="411" rx="12.5" ry="12.5" height="541" stroke="none"/>
</g>
<g stroke-width="1.1" font-family="'Segoe UI'" stroke-linecap="butt">
<rect x="152" y="10" clip-path="url(#clipPath2)" fill="none" width="410" rx="12.5" ry="12.5" height="540"/>
<text xml:space="preserve" x="301" y="28" clip-path="url(#clipPath3)" stroke="none">actTestCallDelegation</text>
</g>
<g stroke-linecap="butt" font-size="11" fill="rgb(131,122,133)" font-family="'Segoe UI'" stroke="rgb(131,122,133)" font-weight="bold" stroke-width="1.1">
<rect x="323" y="46" clip-path="url(#clipPath4)" width="148" rx="12.5" opacity="0.2549" ry="12.5" height="68" stroke="none"/>
<rect x="324" y="47" clip-path="url(#clipPath4)" width="148" rx="12.5" opacity="0.2549" ry="12.5" height="68" stroke="none"/>
<rect x="322" y="45" clip-path="url(#clipPath5)" fill="url(#linearGradient2)" width="148" rx="12.5" ry="12.5" height="68" stroke="none"/>
<rect x="322" y="45" clip-path="url(#clipPath5)" fill="none" width="147" rx="12.5" ry="12.5" height="67" stroke="black"/>
<text x="375" y="62" clip-path="url(#clipPath6)" fill="black" stroke="none" xml:space="preserve">CreateD</text>
</g>
<g fill="white" stroke-width="1.1" font-family="'Segoe UI'" stroke-linecap="butt" stroke="white">
<rect x="382" y="105" clip-path="url(#clipPath7)" width="20" height="20" stroke="none"/>
<rect x="382" y="105" clip-path="url(#clipPath7)" fill="none" width="19" height="19" stroke="black"/>
<text x="403" font-size="11" y="117" clip-path="url(#clipPath8)" fill="black" stroke="none" xml:space="preserve">result : D</text>
</g>
<g stroke-linecap="butt" font-size="11" fill="rgb(131,122,133)" font-family="'Segoe UI'" stroke="rgb(131,122,133)" font-weight="bold" stroke-width="1.1">
<rect x="273" y="216" clip-path="url(#clipPath9)" width="148" rx="12.5" opacity="0.2549" ry="12.5" height="68" stroke="none"/>
<rect x="274" y="217" clip-path="url(#clipPath9)" width="148" rx="12.5" opacity="0.2549" ry="12.5" height="68" stroke="none"/>
<rect x="272" y="215" clip-path="url(#clipPath10)" fill="url(#linearGradient3)" width="148" rx="12.5" ry="12.5" height="68" stroke="none"/>
<rect x="272" y="215" clip-path="url(#clipPath10)" fill="none" width="147" rx="12.5" ry="12.5" height="67" stroke="black"/>
<text x="320" y="232" clip-path="url(#clipPath11)" fill="black" stroke="none" xml:space="preserve">ReadEofD</text>
</g>
<g fill="white" stroke-width="1.1" font-family="'Segoe UI'" stroke-linecap="butt" stroke="white">
<rect x="327" y="203" clip-path="url(#clipPath12)" width="20" height="20" stroke="none"/>
<rect x="327" y="203" clip-path="url(#clipPath12)" fill="none" width="19" height="19" stroke="black"/>
<text x="348" font-size="11" y="215" clip-path="url(#clipPath13)" fill="black" stroke="none" xml:space="preserve">object : D</text>
<rect x="327" y="275" clip-path="url(#clipPath14)" width="20" height="20" stroke="none"/>
<rect x="327" y="275" clip-path="url(#clipPath14)" fill="none" width="19" height="19" stroke="black"/>
<text x="348" font-size="11" y="294" clip-path="url(#clipPath15)" fill="black" stroke="none" xml:space="preserve">out : E</text>
<rect x="302" y="145" clip-path="url(#clipPath16)" fill="black" width="206" height="10" stroke="none"/>
<rect x="302" y="145" clip-path="url(#clipPath16)" fill="none" width="205" height="9" stroke="black" stroke-width="0.1"/>
</g>
<g stroke-linecap="butt" font-size="11" fill="rgb(131,122,133)" font-family="'Segoe UI'" stroke="rgb(131,122,133)" font-weight="bold" stroke-width="0.1">
<rect x="273" y="326" clip-path="url(#clipPath17)" width="148" rx="12.5" opacity="0.2549" ry="12.5" height="68" stroke="none"/>
<rect x="274" y="327" clip-path="url(#clipPath17)" width="148" rx="12.5" opacity="0.2549" ry="12.5" height="68" stroke="none"/>
<rect x="272" y="325" clip-path="url(#clipPath18)" fill="url(#linearGradient4)" width="148" rx="12.5" ry="12.5" height="68" stroke="none"/>
<rect x="272" y="325" clip-path="url(#clipPath18)" fill="none" width="147" rx="12.5" ry="12.5" height="67" stroke="black" stroke-width="1.1"/>
<text x="321" y="342" clip-path="url(#clipPath19)" fill="black" stroke="none" stroke-width="1.1" xml:space="preserve">ReadCofE</text>
</g>
<g fill="white" stroke-width="1.1" font-family="'Segoe UI'" stroke-linecap="butt" stroke="white">
<rect x="327" y="313" clip-path="url(#clipPath20)" width="20" height="20" stroke="none"/>
<rect x="327" y="313" clip-path="url(#clipPath20)" fill="none" width="19" height="19" stroke="black"/>
<text x="348" font-size="11" y="325" clip-path="url(#clipPath21)" fill="black" stroke="none" xml:space="preserve">object : E</text>
<rect x="332" y="385" clip-path="url(#clipPath22)" width="20" height="20" stroke="none"/>
<rect x="332" y="385" clip-path="url(#clipPath22)" fill="none" width="19" height="19" stroke="black"/>
<text x="353" font-size="11" y="397" clip-path="url(#clipPath23)" fill="black" stroke="none" xml:space="preserve">out : C</text>
</g>
<g stroke-linecap="butt" font-size="11" fill="rgb(131,122,133)" font-family="'Segoe UI'" stroke="rgb(131,122,133)" font-weight="bold" stroke-width="1.1">
<rect x="273" y="451" clip-path="url(#clipPath24)" width="148" rx="12.5" opacity="0.2549" ry="12.5" height="68" stroke="none"/>
<rect x="274" y="452" clip-path="url(#clipPath24)" width="148" rx="12.5" opacity="0.2549" ry="12.5" height="68" stroke="none"/>
<rect x="272" y="450" clip-path="url(#clipPath25)" fill="url(#linearGradient5)" width="148" rx="12.5" ry="12.5" height="68" stroke="none"/>
<rect x="272" y="450" clip-path="url(#clipPath25)" fill="none" width="147" rx="12.5" ry="12.5" height="67" stroke="black"/>
<text x="292" y="467" clip-path="url(#clipPath26)" fill="black" stroke="none" xml:space="preserve">callSetPofC : callSetP</text>
</g>
<g fill="white" stroke-width="1.1" font-family="'Segoe UI'" stroke-linecap="butt" stroke="white">
<rect x="260" y="470" clip-path="url(#clipPath27)" width="20" height="20" stroke="none"/>
<rect x="260" y="470" clip-path="url(#clipPath27)" fill="none" width="19" height="19" stroke="black"/>
<text x="281" font-size="11" y="482" clip-path="url(#clipPath28)" fill="black" stroke="none" xml:space="preserve">v : Integer</text>
<rect x="332" y="438" clip-path="url(#clipPath29)" width="20" height="20" stroke="none"/>
<rect x="332" y="438" clip-path="url(#clipPath29)" fill="none" width="19" height="19" stroke="black"/>
<text x="353" font-size="11" y="450" clip-path="url(#clipPath30)" fill="black" stroke="none" xml:space="preserve">target : C</text>
<rect x="10" y="450" clip-path="url(#clipPath31)" width="150" height="50" stroke="none"/>
<rect x="10" y="450" clip-path="url(#clipPath31)" fill="none" width="149" height="49" stroke="black"/>
<text x="59" font-size="11" y="480" clip-path="url(#clipPath32)" fill="black" stroke="none" xml:space="preserve">v : Integer</text>
<rect x="555" y="465" clip-path="url(#clipPath33)" width="150" height="50" stroke="none"/>
<rect x="555" y="465" clip-path="url(#clipPath33)" fill="none" width="149" height="49" stroke="black"/>
<text x="612" font-size="11" y="495" clip-path="url(#clipPath34)" fill="black" stroke="none" xml:space="preserve">out : D</text>
<line clip-path="url(#clipPath35)" fill="none" x1="342" x2="342" y1="405" y2="438" stroke="black"/>
<line clip-path="url(#clipPath36)" fill="none" x1="339" x2="342" y1="431" y2="438" stroke="black"/>
<line clip-path="url(#clipPath36)" fill="none" x1="342" x2="345" y1="438" y2="431" stroke="black"/>
<line clip-path="url(#clipPath35)" fill="none" x1="337" x2="337" y1="295" y2="313" stroke="black"/>
<line clip-path="url(#clipPath37)" fill="none" x1="334" x2="337" y1="306" y2="313" stroke="black"/>
<line clip-path="url(#clipPath37)" fill="none" x1="337" x2="340" y1="313" y2="306" stroke="black"/>
<line clip-path="url(#clipPath35)" fill="none" x1="395" x2="395" y1="125" y2="145" stroke="black"/>
<line clip-path="url(#clipPath38)" fill="none" x1="392" x2="395" y1="138" y2="145" stroke="black"/>
<line clip-path="url(#clipPath38)" fill="none" x1="395" x2="398" y1="145" y2="138" stroke="black"/>
<line clip-path="url(#clipPath35)" fill="none" x1="160" x2="260" y1="477" y2="477" stroke="black"/>
<line clip-path="url(#clipPath39)" fill="none" x1="253" x2="260" y1="480" y2="477" stroke="black"/>
<line clip-path="url(#clipPath39)" fill="none" x1="260" x2="253" y1="477" y2="474" stroke="black"/>
<line clip-path="url(#clipPath35)" fill="none" x1="341" x2="341" y1="155" y2="203" stroke="black"/>
<line clip-path="url(#clipPath40)" fill="none" x1="338" x2="341" y1="196" y2="203" stroke="black"/>
<line clip-path="url(#clipPath40)" fill="none" x1="341" x2="344" y1="203" y2="196" stroke="black"/>
<line clip-path="url(#clipPath35)" fill="none" x1="411" x2="411" y1="155" y2="180" stroke="black"/>
<line clip-path="url(#clipPath35)" fill="none" x1="411" x2="639" y1="180" y2="180" stroke="black"/>
<line clip-path="url(#clipPath35)" fill="none" x1="639" x2="639" y1="180" y2="465" stroke="black"/>
<line clip-path="url(#clipPath41)" fill="none" x1="636" x2="639" y1="458" y2="465" stroke="black"/>
<line clip-path="url(#clipPath41)" fill="none" x1="639" x2="642" y1="465" y2="458" stroke="black"/>
<line clip-path="url(#clipPath35)" fill="none" x1="395" x2="395" y1="125" y2="145" stroke="black"/>
<line clip-path="url(#clipPath38)" fill="none" x1="392" x2="395" y1="138" y2="145" stroke="black"/>
<line clip-path="url(#clipPath38)" fill="none" x1="395" x2="398" y1="145" y2="138" stroke="black"/>
<line clip-path="url(#clipPath35)" fill="none" x1="411" x2="411" y1="155" y2="180" stroke="black"/>
<line clip-path="url(#clipPath35)" fill="none" x1="411" x2="639" y1="180" y2="180" stroke="black"/>
<line clip-path="url(#clipPath35)" fill="none" x1="639" x2="639" y1="180" y2="465" stroke="black"/>
<line clip-path="url(#clipPath41)" fill="none" x1="636" x2="639" y1="458" y2="465" stroke="black"/>
<line clip-path="url(#clipPath41)" fill="none" x1="639" x2="642" y1="465" y2="458" stroke="black"/>
<line clip-path="url(#clipPath35)" fill="none" x1="341" x2="341" y1="155" y2="203" stroke="black"/>
<line clip-path="url(#clipPath40)" fill="none" x1="338" x2="341" y1="196" y2="203" stroke="black"/>
<line clip-path="url(#clipPath40)" fill="none" x1="341" x2="344" y1="203" y2="196" stroke="black"/>
<line clip-path="url(#clipPath35)" fill="none" x1="337" x2="337" y1="295" y2="313" stroke="black"/>
<line clip-path="url(#clipPath37)" fill="none" x1="334" x2="337" y1="306" y2="313" stroke="black"/>
<line clip-path="url(#clipPath37)" fill="none" x1="337" x2="340" y1="313" y2="306" stroke="black"/>
<line clip-path="url(#clipPath35)" fill="none" x1="342" x2="342" y1="405" y2="438" stroke="black"/>
<line clip-path="url(#clipPath36)" fill="none" x1="339" x2="342" y1="431" y2="438" stroke="black"/>
<line clip-path="url(#clipPath36)" fill="none" x1="342" x2="345" y1="438" y2="431" stroke="black"/>
<line clip-path="url(#clipPath35)" fill="none" x1="160" x2="260" y1="477" y2="477" stroke="black"/>
<line clip-path="url(#clipPath39)" fill="none" x1="253" x2="260" y1="480" y2="477" stroke="black"/>
<line clip-path="url(#clipPath39)" fill="none" x1="260" x2="253" y1="477" y2="474" stroke="black"/>
</g>
</g>
</svg>
