<?xml version="1.0" encoding="UTF-8"?><svg xmlns="http://www.w3.org/2000/svg" xmlns:xlink="http://www.w3.org/1999/xlink" stroke-dasharray="none" shape-rendering="auto" font-family="'Dialog'" width="814" text-rendering="auto" fill-opacity="1" contentScriptType="text/ecmascript" color-interpolation="auto" color-rendering="auto" preserveAspectRatio="xMidYMid meet" font-size="12" viewBox="0 0 814 514" fill="black" stroke="black" image-rendering="auto" stroke-miterlimit="10" zoomAndPan="magnify" version="1.0" stroke-linecap="square" stroke-linejoin="miter" contentStyleType="text/css" font-style="normal" height="514" stroke-width="1" stroke-dashoffset="0" font-weight="normal" stroke-opacity="1">
<!--Generated by the Batik Graphics2D SVG Generator-->
<defs id="genericDefs"/>
<g>
<defs id="defs1">
<linearGradient x1="41" x2="159" y1="5" gradientUnits="userSpaceOnUse" y2="113" xlink:type="simple" xlink:actuate="onLoad" id="linearGradient1" xlink:show="other" spreadMethod="pad">
<stop stop-opacity="1" stop-color="white" offset="0%"/>
<stop stop-opacity="1" stop-color="white" offset="100%"/>
</linearGradient>
<linearGradient x1="678" x2="802" y1="354" gradientUnits="userSpaceOnUse" y2="465" xlink:type="simple" xlink:actuate="onLoad" id="linearGradient2" xlink:show="other" spreadMethod="pad">
<stop stop-opacity="1" stop-color="white" offset="0%"/>
<stop stop-opacity="1" stop-color="white" offset="100%"/>
</linearGradient>
<linearGradient x1="468" x2="592" y1="354" gradientUnits="userSpaceOnUse" y2="465" xlink:type="simple" xlink:actuate="onLoad" id="linearGradient3" xlink:show="other" spreadMethod="pad">
<stop stop-opacity="1" stop-color="white" offset="0%"/>
<stop stop-opacity="1" stop-color="white" offset="100%"/>
</linearGradient>
<linearGradient x1="258" x2="382" y1="354" gradientUnits="userSpaceOnUse" y2="465" xlink:type="simple" xlink:actuate="onLoad" id="linearGradient4" xlink:show="other" spreadMethod="pad">
<stop stop-opacity="1" stop-color="white" offset="0%"/>
<stop stop-opacity="1" stop-color="white" offset="100%"/>
</linearGradient>
<linearGradient x1="38" x2="162" y1="349" gradientUnits="userSpaceOnUse" y2="460" xlink:type="simple" xlink:actuate="onLoad" id="linearGradient5" xlink:show="other" spreadMethod="pad">
<stop stop-opacity="1" stop-color="white" offset="0%"/>
<stop stop-opacity="1" stop-color="white" offset="100%"/>
</linearGradient>
<linearGradient x1="258" x2="382" y1="189" gradientUnits="userSpaceOnUse" y2="300" xlink:type="simple" xlink:actuate="onLoad" id="linearGradient6" xlink:show="other" spreadMethod="pad">
<stop stop-opacity="1" stop-color="white" offset="0%"/>
<stop stop-opacity="1" stop-color="white" offset="100%"/>
</linearGradient>
<linearGradient x1="258" x2="448" y1="-13" gradientUnits="userSpaceOnUse" y2="131" xlink:type="simple" xlink:actuate="onLoad" id="linearGradient7" xlink:show="other" spreadMethod="pad">
<stop stop-opacity="1" stop-color="white" offset="0%"/>
<stop stop-opacity="1" stop-color="white" offset="100%"/>
</linearGradient>
<clipPath clipPathUnits="userSpaceOnUse" id="clipPath1">
<path d="M40 9 L162 9 L162 111 L40 111 L40 9 Z"/>
</clipPath>
<clipPath clipPathUnits="userSpaceOnUse" id="clipPath2">
<path d="M40 9 L160 9 L160 109 L40 109 L40 9 Z"/>
</clipPath>
<clipPath clipPathUnits="userSpaceOnUse" id="clipPath3">
<path d="M94 14 L109 14 L109 31 L94 31 L94 14 Z"/>
</clipPath>
<clipPath clipPathUnits="userSpaceOnUse" id="clipPath4">
<path d="M45 36 L81 36 L81 51 L45 51 L45 36 Z"/>
</clipPath>
<clipPath clipPathUnits="userSpaceOnUse" id="clipPath5">
<path d="M45 49 L82 49 L82 64 L45 64 L45 49 Z"/>
</clipPath>
<clipPath clipPathUnits="userSpaceOnUse" id="clipPath6">
<path d="M41 34 L159 34 L159 108 L41 108 L41 34 Z"/>
</clipPath>
<clipPath clipPathUnits="userSpaceOnUse" id="clipPath7">
<path d="M677 359 L805 359 L805 461 L677 461 L677 359 Z"/>
</clipPath>
<clipPath clipPathUnits="userSpaceOnUse" id="clipPath8">
<path d="M677 359 L803 359 L803 459 L677 459 L677 359 Z"/>
</clipPath>
<clipPath clipPathUnits="userSpaceOnUse" id="clipPath9">
<path d="M735 364 L749 364 L749 381 L735 381 L735 364 Z"/>
</clipPath>
<clipPath clipPathUnits="userSpaceOnUse" id="clipPath10">
<path d="M682 386 L727 386 L727 401 L682 401 L682 386 Z"/>
</clipPath>
<clipPath clipPathUnits="userSpaceOnUse" id="clipPath11">
<path d="M682 399 L719 399 L719 414 L682 414 L682 399 Z"/>
</clipPath>
<clipPath clipPathUnits="userSpaceOnUse" id="clipPath12">
<path d="M682 412 L800 412 L800 427 L682 427 L682 412 Z"/>
</clipPath>
<clipPath clipPathUnits="userSpaceOnUse" id="clipPath13">
<path d="M678 384 L802 384 L802 458 L678 458 L678 384 Z"/>
</clipPath>
<clipPath clipPathUnits="userSpaceOnUse" id="clipPath14">
<path d="M467 359 L595 359 L595 461 L467 461 L467 359 Z"/>
</clipPath>
<clipPath clipPathUnits="userSpaceOnUse" id="clipPath15">
<path d="M467 359 L593 359 L593 459 L467 459 L467 359 Z"/>
</clipPath>
<clipPath clipPathUnits="userSpaceOnUse" id="clipPath16">
<path d="M525 364 L537 364 L537 381 L525 381 L525 364 Z"/>
</clipPath>
<clipPath clipPathUnits="userSpaceOnUse" id="clipPath17">
<path d="M472 386 L525 386 L525 401 L472 401 L472 386 Z"/>
</clipPath>
<clipPath clipPathUnits="userSpaceOnUse" id="clipPath18">
<path d="M472 399 L590 399 L590 414 L472 414 L472 399 Z"/>
</clipPath>
<clipPath clipPathUnits="userSpaceOnUse" id="clipPath19">
<path d="M472 412 L583 412 L583 427 L472 427 L472 412 Z"/>
</clipPath>
<clipPath clipPathUnits="userSpaceOnUse" id="clipPath20">
<path d="M468 384 L592 384 L592 458 L468 458 L468 384 Z"/>
</clipPath>
<clipPath clipPathUnits="userSpaceOnUse" id="clipPath21">
<path d="M257 359 L385 359 L385 461 L257 461 L257 359 Z"/>
</clipPath>
<clipPath clipPathUnits="userSpaceOnUse" id="clipPath22">
<path d="M257 359 L383 359 L383 459 L257 459 L257 359 Z"/>
</clipPath>
<clipPath clipPathUnits="userSpaceOnUse" id="clipPath23">
<path d="M315 364 L329 364 L329 381 L315 381 L315 364 Z"/>
</clipPath>
<clipPath clipPathUnits="userSpaceOnUse" id="clipPath24">
<path d="M262 386 L330 386 L330 401 L262 401 L262 386 Z"/>
</clipPath>
<clipPath clipPathUnits="userSpaceOnUse" id="clipPath25">
<path d="M262 399 L336 399 L336 414 L262 414 L262 399 Z"/>
</clipPath>
<clipPath clipPathUnits="userSpaceOnUse" id="clipPath26">
<path d="M262 412 L380 412 L380 427 L262 427 L262 412 Z"/>
</clipPath>
<clipPath clipPathUnits="userSpaceOnUse" id="clipPath27">
<path d="M258 384 L382 384 L382 458 L258 458 L258 384 Z"/>
</clipPath>
<clipPath clipPathUnits="userSpaceOnUse" id="clipPath28">
<path d="M37 354 L165 354 L165 456 L37 456 L37 354 Z"/>
</clipPath>
<clipPath clipPathUnits="userSpaceOnUse" id="clipPath29">
<path d="M37 354 L163 354 L163 454 L37 454 L37 354 Z"/>
</clipPath>
<clipPath clipPathUnits="userSpaceOnUse" id="clipPath30">
<path d="M84 359 L117 359 L117 376 L84 376 L84 359 Z"/>
</clipPath>
<clipPath clipPathUnits="userSpaceOnUse" id="clipPath31">
<path d="M42 381 L79 381 L79 396 L42 396 L42 381 Z"/>
</clipPath>
<clipPath clipPathUnits="userSpaceOnUse" id="clipPath32">
<path d="M42 394 L108 394 L108 409 L42 409 L42 394 Z"/>
</clipPath>
<clipPath clipPathUnits="userSpaceOnUse" id="clipPath33">
<path d="M42 407 L116 407 L116 422 L42 422 L42 407 Z"/>
</clipPath>
<clipPath clipPathUnits="userSpaceOnUse" id="clipPath34">
<path d="M42 420 L160 420 L160 435 L42 435 L42 420 Z"/>
</clipPath>
<clipPath clipPathUnits="userSpaceOnUse" id="clipPath35">
<path d="M38 379 L162 379 L162 453 L38 453 L38 379 Z"/>
</clipPath>
<clipPath clipPathUnits="userSpaceOnUse" id="clipPath36">
<path d="M257 194 L385 194 L385 296 L257 296 L257 194 Z"/>
</clipPath>
<clipPath clipPathUnits="userSpaceOnUse" id="clipPath37">
<path d="M257 194 L383 194 L383 294 L257 294 L257 194 Z"/>
</clipPath>
<clipPath clipPathUnits="userSpaceOnUse" id="clipPath38">
<path d="M286 199 L356 199 L356 231 L286 231 L286 199 Z"/>
</clipPath>
<clipPath clipPathUnits="userSpaceOnUse" id="clipPath39">
<path d="M262 236 L380 236 L380 251 L262 251 L262 236 Z"/>
</clipPath>
<clipPath clipPathUnits="userSpaceOnUse" id="clipPath40">
<path d="M258 234 L382 234 L382 293 L258 293 L258 234 Z"/>
</clipPath>
<clipPath clipPathUnits="userSpaceOnUse" id="clipPath41">
<path d="M257 9 L451 9 L451 111 L257 111 L257 9 Z"/>
</clipPath>
<clipPath clipPathUnits="userSpaceOnUse" id="clipPath42">
<path d="M257 9 L449 9 L449 109 L257 109 L257 9 Z"/>
</clipPath>
<clipPath clipPathUnits="userSpaceOnUse" id="clipPath43">
<path d="M334 14 L373 14 L373 31 L334 31 L334 14 Z"/>
</clipPath>
<clipPath clipPathUnits="userSpaceOnUse" id="clipPath44">
<path d="M262 36 L446 36 L446 51 L262 51 L262 36 Z"/>
</clipPath>
<clipPath clipPathUnits="userSpaceOnUse" id="clipPath45">
<path d="M258 34 L448 34 L448 108 L258 108 L258 34 Z"/>
</clipPath>
<clipPath clipPathUnits="userSpaceOnUse" id="clipPath46">
<path d="M-1 -1 L815 -1 L815 515 L-1 515 L-1 -1 Z"/>
</clipPath>
<clipPath clipPathUnits="userSpaceOnUse" id="clipPath47">
<path d="M320 291 L332 291 L332 301 L320 301 L320 291 Z"/>
</clipPath>
<clipPath clipPathUnits="userSpaceOnUse" id="clipPath48">
<path d="M316 292 L327 292 L327 303 L316 303 L316 292 Z"/>
</clipPath>
<clipPath clipPathUnits="userSpaceOnUse" id="clipPath49">
<path d="M311 290 L323 290 L323 301 L311 301 L311 290 Z"/>
</clipPath>
<clipPath clipPathUnits="userSpaceOnUse" id="clipPath50">
<path d="M24 451 L45 451 L45 466 L24 466 L24 451 Z"/>
</clipPath>
<clipPath clipPathUnits="userSpaceOnUse" id="clipPath51">
<path d="M77 464 L106 464 L106 479 L77 479 L77 464 Z"/>
</clipPath>
<clipPath clipPathUnits="userSpaceOnUse" id="clipPath52">
<path d="M30 426 L40 426 L40 435 L30 435 L30 426 Z"/>
</clipPath>
<clipPath clipPathUnits="userSpaceOnUse" id="clipPath53">
<path d="M104 452 L113 452 L113 462 L104 462 L104 452 Z"/>
</clipPath>
<clipPath clipPathUnits="userSpaceOnUse" id="clipPath54">
<path d="M163 412 L192 412 L192 427 L163 427 L163 412 Z"/>
</clipPath>
<clipPath clipPathUnits="userSpaceOnUse" id="clipPath55">
<path d="M240 412 L252 412 L252 427 L240 427 L240 412 Z"/>
</clipPath>
<clipPath clipPathUnits="userSpaceOnUse" id="clipPath56">
<path d="M161 405 L171 405 L171 414 L161 414 L161 405 Z"/>
</clipPath>
<clipPath clipPathUnits="userSpaceOnUse" id="clipPath57">
<path d="M250 405 L260 405 L260 414 L250 414 L250 405 Z"/>
</clipPath>
</defs>
<g fill="rgb(131,122,133)" font-family="'Segoe UI'" stroke-linejoin="round" stroke="rgb(131,122,133)" font-weight="bold" stroke-width="0" stroke-miterlimit="0">
<rect x="42" y="11" clip-path="url(#clipPath1)" width="118" rx="2.5" opacity="0.2549" ry="2.5" height="98" stroke="none"/>
<rect x="43" y="12" clip-path="url(#clipPath1)" width="118" rx="2.5" opacity="0.2549" ry="2.5" height="98" stroke="none"/>
<rect x="41" y="10" clip-path="url(#clipPath2)" fill="url(#linearGradient1)" width="118" rx="2.5" ry="2.5" height="98" stroke="none"/>
</g>
<g stroke-width="1.1" font-weight="bold" font-family="'Segoe UI'" stroke-linecap="butt">
<rect x="41" y="10" clip-path="url(#clipPath2)" fill="none" width="117" rx="2.5" ry="2.5" height="97"/>
<text xml:space="preserve" x="95" y="28" clip-path="url(#clipPath3)" stroke="none">D</text>
<text x="46" font-size="11" y="49" clip-path="url(#clipPath4)" stroke="none" font-weight="normal" xml:space="preserve">+ e : E</text>
<text x="46" font-size="11" y="62" clip-path="url(#clipPath5)" stroke="none" font-weight="normal" xml:space="preserve">+ a : A</text>
<line clip-path="url(#clipPath6)" fill="none" x1="42" x2="158" y1="35" y2="35"/>
<rect x="679" y="361" clip-path="url(#clipPath7)" fill="rgb(131,122,133)" width="124" rx="2.5" opacity="0.2549" ry="2.5" height="98" stroke="none"/>
<rect x="680" y="362" clip-path="url(#clipPath7)" fill="rgb(131,122,133)" width="124" rx="2.5" opacity="0.2549" ry="2.5" height="98" stroke="none"/>
<rect x="678" y="360" clip-path="url(#clipPath8)" fill="url(#linearGradient2)" width="124" rx="2.5" ry="2.5" height="98" stroke="none"/>
<rect x="678" y="360" clip-path="url(#clipPath8)" fill="none" width="123" rx="2.5" ry="2.5" height="97"/>
<text xml:space="preserve" x="736" y="378" clip-path="url(#clipPath9)" stroke="none">A</text>
<text x="683" font-size="11" y="399" clip-path="url(#clipPath10)" stroke="none" font-weight="normal" xml:space="preserve">q : IImpl</text>
<text x="683" font-size="11" y="412" clip-path="url(#clipPath11)" stroke="none" font-weight="normal" xml:space="preserve">+ b : B</text>
<text x="683" font-size="11" y="425" clip-path="url(#clipPath12)" stroke="none" font-weight="normal" xml:space="preserve">+ assignP(_p : Integer)</text>
<line clip-path="url(#clipPath13)" fill="none" x1="679" x2="801" y1="385" y2="385"/>
<rect x="469" y="361" clip-path="url(#clipPath14)" fill="rgb(131,122,133)" width="124" rx="2.5" opacity="0.2549" ry="2.5" height="98" stroke="none"/>
<rect x="470" y="362" clip-path="url(#clipPath14)" fill="rgb(131,122,133)" width="124" rx="2.5" opacity="0.2549" ry="2.5" height="98" stroke="none"/>
<rect x="468" y="360" clip-path="url(#clipPath15)" fill="url(#linearGradient3)" width="124" rx="2.5" ry="2.5" height="98" stroke="none"/>
<rect x="468" y="360" clip-path="url(#clipPath15)" fill="none" width="123" rx="2.5" ry="2.5" height="97"/>
<text xml:space="preserve" x="526" y="378" clip-path="url(#clipPath16)" stroke="none">C</text>
<text x="473" font-size="11" y="399" clip-path="url(#clipPath17)" stroke="none" font-weight="normal" xml:space="preserve">q : ~IImpl</text>
<text x="473" font-size="11" y="412" clip-path="url(#clipPath18)" stroke="none" font-weight="normal" xml:space="preserve">+ assignP(_p : Integer)</text>
<text x="473" font-size="11" y="425" clip-path="url(#clipPath19)" stroke="none" font-weight="normal" xml:space="preserve">+ callSetP(v : Integer)</text>
<line clip-path="url(#clipPath20)" fill="none" x1="469" x2="591" y1="385" y2="385"/>
<rect x="259" y="361" clip-path="url(#clipPath21)" fill="rgb(131,122,133)" width="124" rx="2.5" opacity="0.2549" ry="2.5" height="98" stroke="none"/>
<rect x="260" y="362" clip-path="url(#clipPath21)" fill="rgb(131,122,133)" width="124" rx="2.5" opacity="0.2549" ry="2.5" height="98" stroke="none"/>
<rect x="258" y="360" clip-path="url(#clipPath22)" fill="url(#linearGradient4)" width="124" rx="2.5" ry="2.5" height="98" stroke="none"/>
<rect x="258" y="360" clip-path="url(#clipPath22)" fill="none" width="123" rx="2.5" ry="2.5" height="97"/>
<text xml:space="preserve" x="316" y="378" clip-path="url(#clipPath23)" stroke="none">B</text>
<text x="263" font-size="11" y="399" clip-path="url(#clipPath24)" stroke="none" font-weight="normal" xml:space="preserve">+ p : Integer</text>
<text x="263" font-size="11" y="412" clip-path="url(#clipPath25)" stroke="none" font-weight="normal" xml:space="preserve">+ iImpl : IImpl</text>
<text x="263" font-size="11" y="425" clip-path="url(#clipPath26)" stroke="none" font-weight="normal" xml:space="preserve">+ assignP(_p : Integer)</text>
<line clip-path="url(#clipPath27)" fill="none" x1="259" x2="381" y1="385" y2="385"/>
<rect x="39" y="356" clip-path="url(#clipPath28)" fill="rgb(131,122,133)" width="124" rx="2.5" opacity="0.2549" ry="2.5" height="98" stroke="none"/>
<rect x="40" y="357" clip-path="url(#clipPath28)" fill="rgb(131,122,133)" width="124" rx="2.5" opacity="0.2549" ry="2.5" height="98" stroke="none"/>
<rect x="38" y="355" clip-path="url(#clipPath29)" fill="url(#linearGradient5)" width="124" rx="2.5" ry="2.5" height="98" stroke="none"/>
<rect x="38" y="355" clip-path="url(#clipPath29)" fill="none" width="123" rx="2.5" ry="2.5" height="97"/>
<text xml:space="preserve" x="85" y="373" clip-path="url(#clipPath30)" stroke="none">IImpl</text>
<text x="43" font-size="11" y="394" clip-path="url(#clipPath31)" stroke="none" font-weight="normal" xml:space="preserve">+ b : B</text>
<text x="43" font-size="11" y="407" clip-path="url(#clipPath32)" stroke="none" font-weight="normal" xml:space="preserve">+ left : IImpl</text>
<text x="43" font-size="11" y="420" clip-path="url(#clipPath33)" stroke="none" font-weight="normal" xml:space="preserve">+ right : IImpl</text>
<text x="43" font-size="11" y="433" clip-path="url(#clipPath34)" stroke="none" font-weight="normal" xml:space="preserve">+ assignP(_p : Integer)</text>
<line clip-path="url(#clipPath35)" fill="none" x1="39" x2="161" y1="380" y2="380"/>
<rect x="259" y="196" clip-path="url(#clipPath36)" fill="rgb(131,122,133)" width="124" rx="2.5" opacity="0.2549" ry="2.5" height="98" stroke="none"/>
<rect x="260" y="197" clip-path="url(#clipPath36)" fill="rgb(131,122,133)" width="124" rx="2.5" opacity="0.2549" ry="2.5" height="98" stroke="none"/>
<rect x="258" y="195" clip-path="url(#clipPath37)" fill="url(#linearGradient6)" width="124" rx="2.5" ry="2.5" height="98" stroke="none"/>
<rect x="258" y="195" clip-path="url(#clipPath37)" fill="none" width="123" rx="2.5" ry="2.5" height="97"/>
<text xml:space="preserve" x="287" y="213" clip-path="url(#clipPath38)" stroke="none">«Interface»&#13;</text>
<text xml:space="preserve" x="287" y="228" clip-path="url(#clipPath38)" stroke="none">I</text>
<text x="263" font-size="11" y="249" clip-path="url(#clipPath39)" stroke="none" font-weight="normal" xml:space="preserve">+ assignP(_p : Integer)</text>
<line clip-path="url(#clipPath40)" fill="none" x1="259" x2="381" y1="235" y2="235"/>
<rect x="259" y="11" clip-path="url(#clipPath41)" fill="rgb(131,122,133)" width="190" rx="2.5" opacity="0.2549" ry="2.5" height="98" stroke="none"/>
<rect x="260" y="12" clip-path="url(#clipPath41)" fill="rgb(131,122,133)" width="190" rx="2.5" opacity="0.2549" ry="2.5" height="98" stroke="none"/>
<rect x="258" y="10" clip-path="url(#clipPath42)" fill="url(#linearGradient7)" width="190" rx="2.5" ry="2.5" height="98" stroke="none"/>
<rect x="258" y="10" clip-path="url(#clipPath42)" fill="none" width="189" rx="2.5" ry="2.5" height="97"/>
<text xml:space="preserve" x="335" y="28" clip-path="url(#clipPath43)" stroke="none">Tester</text>
<text x="263" font-size="11" y="49" clip-path="url(#clipPath44)" stroke="none" font-weight="normal" xml:space="preserve">+ testCallDelegation(v : Integer) : D</text>
<line clip-path="url(#clipPath45)" fill="none" x1="259" x2="447" y1="35" y2="35"/>
<line clip-path="url(#clipPath46)" fill="none" x1="531" x2="321" y1="360" y2="293" stroke-dasharray="5,5"/>
</g>
<g stroke-linecap="butt" font-size="11" fill="white" font-family="'Segoe UI'" stroke-dasharray="5,5" stroke="white" stroke-width="1.1">
<polygon clip-path="url(#clipPath47)" points=" 321 293 330 292 327 299" stroke="none"/>
<polygon fill="none" stroke-dasharray="none" clip-path="url(#clipPath47)" points=" 321 293 330 292 327 299" stroke="black"/>
<line clip-path="url(#clipPath46)" fill="none" x1="321" x2="321" y1="360" y2="293" stroke="black"/>
<polygon clip-path="url(#clipPath48)" points=" 321 293 325 301 317 301" stroke="none"/>
<polygon fill="none" stroke-dasharray="none" clip-path="url(#clipPath48)" points=" 321 293 325 301 317 301" stroke="black"/>
<line clip-path="url(#clipPath46)" fill="none" x1="101" x2="321" y1="355" y2="293" stroke="black"/>
<polygon clip-path="url(#clipPath49)" points=" 321 293 314 299 312 291" stroke="none"/>
<polygon fill="none" stroke-dasharray="none" clip-path="url(#clipPath49)" points=" 321 293 314 299 312 291" stroke="black"/>
<line clip-path="url(#clipPath46)" fill="none" x1="38" x2="23" y1="430" y2="430" stroke-dasharray="none" stroke="black"/>
<line clip-path="url(#clipPath46)" fill="none" x1="23" x2="23" y1="430" y2="490" stroke-dasharray="none" stroke="black"/>
<line clip-path="url(#clipPath46)" fill="none" x1="23" x2="108" y1="490" y2="490" stroke-dasharray="none" stroke="black"/>
<line clip-path="url(#clipPath46)" fill="none" x1="108" x2="108" y1="490" y2="453" stroke-dasharray="none" stroke="black"/>
<text x="25" y="464" clip-path="url(#clipPath50)" fill="black" stroke-dasharray="none" stroke="none" xml:space="preserve">left</text>
<text x="78" y="477" clip-path="url(#clipPath51)" fill="black" stroke-dasharray="none" stroke="none" xml:space="preserve">right</text>
<line clip-path="url(#clipPath52)" fill="none" x1="31" x2="38" y1="433" y2="430" stroke-dasharray="none" stroke="black"/>
<line clip-path="url(#clipPath52)" fill="none" x1="38" x2="31" y1="430" y2="427" stroke-dasharray="none" stroke="black"/>
<line clip-path="url(#clipPath53)" fill="none" x1="111" x2="108" y1="460" y2="453" stroke-dasharray="none" stroke="black"/>
<line clip-path="url(#clipPath53)" fill="none" x1="108" x2="105" y1="453" y2="460" stroke-dasharray="none" stroke="black"/>
<line clip-path="url(#clipPath46)" fill="none" x1="162" x2="258" y1="409" y2="409" stroke-dasharray="none" stroke="black"/>
<text x="164" y="425" clip-path="url(#clipPath54)" fill="black" stroke-dasharray="none" stroke="none" xml:space="preserve">iImpl</text>
<text x="241" y="425" clip-path="url(#clipPath55)" fill="black" stroke-dasharray="none" stroke="none" xml:space="preserve">b</text>
<line clip-path="url(#clipPath56)" fill="none" x1="169" x2="162" y1="406" y2="409" stroke-dasharray="none" stroke="black"/>
<line clip-path="url(#clipPath56)" fill="none" x1="162" x2="169" y1="409" y2="412" stroke-dasharray="none" stroke="black"/>
<line clip-path="url(#clipPath57)" fill="none" x1="251" x2="258" y1="412" y2="409" stroke-dasharray="none" stroke="black"/>
<line clip-path="url(#clipPath57)" fill="none" x1="258" x2="251" y1="409" y2="406" stroke-dasharray="none" stroke="black"/>
</g>
</g>
</svg>
