<?xml version="1.0" encoding="UTF-8"?><svg xmlns="http://www.w3.org/2000/svg" xmlns:xlink="http://www.w3.org/1999/xlink" stroke-dasharray="none" shape-rendering="auto" font-family="'Dialog'" width="498" text-rendering="auto" fill-opacity="1" contentScriptType="text/ecmascript" color-interpolation="auto" color-rendering="auto" preserveAspectRatio="xMidYMid meet" font-size="12" viewBox="0 0 498 379" fill="black" stroke="black" image-rendering="auto" stroke-miterlimit="10" zoomAndPan="magnify" version="1.0" stroke-linecap="square" stroke-linejoin="miter" contentStyleType="text/css" font-style="normal" height="379" stroke-width="1" stroke-dashoffset="0" font-weight="normal" stroke-opacity="1">
<!--Generated by the Batik Graphics2D SVG Generator-->
<defs id="genericDefs"/>
<g>
<defs id="defs1">
<linearGradient x1="193" x2="311" y1="5" gradientUnits="userSpaceOnUse" y2="113" xlink:type="simple" xlink:actuate="onLoad" id="linearGradient1" xlink:show="other" spreadMethod="pad">
<stop stop-opacity="1" stop-color="white" offset="0%"/>
<stop stop-opacity="1" stop-color="white" offset="100%"/>
</linearGradient>
<linearGradient x1="18" x2="136" y1="5" gradientUnits="userSpaceOnUse" y2="113" xlink:type="simple" xlink:actuate="onLoad" id="linearGradient2" xlink:show="other" spreadMethod="pad">
<stop stop-opacity="1" stop-color="white" offset="0%"/>
<stop stop-opacity="1" stop-color="white" offset="100%"/>
</linearGradient>
<linearGradient x1="10" x2="143" y1="187" gradientUnits="userSpaceOnUse" y2="302" xlink:type="simple" xlink:actuate="onLoad" id="linearGradient3" xlink:show="other" spreadMethod="pad">
<stop stop-opacity="1" stop-color="white" offset="0%"/>
<stop stop-opacity="1" stop-color="white" offset="100%"/>
</linearGradient>
<linearGradient x1="368" x2="486" y1="5" gradientUnits="userSpaceOnUse" y2="113" xlink:type="simple" xlink:actuate="onLoad" id="linearGradient4" xlink:show="other" spreadMethod="pad">
<stop stop-opacity="1" stop-color="white" offset="0%"/>
<stop stop-opacity="1" stop-color="white" offset="100%"/>
</linearGradient>
<clipPath clipPathUnits="userSpaceOnUse" id="clipPath1">
<path d="M192 9 L314 9 L314 111 L192 111 L192 9 Z"/>
</clipPath>
<clipPath clipPathUnits="userSpaceOnUse" id="clipPath2">
<path d="M192 9 L312 9 L312 109 L192 109 L192 9 Z"/>
</clipPath>
<clipPath clipPathUnits="userSpaceOnUse" id="clipPath3">
<path d="M247 14 L261 14 L261 31 L247 31 L247 14 Z"/>
</clipPath>
<clipPath clipPathUnits="userSpaceOnUse" id="clipPath4">
<path d="M197 36 L301 36 L301 51 L197 51 L197 36 Z"/>
</clipPath>
<clipPath clipPathUnits="userSpaceOnUse" id="clipPath5">
<path d="M193 34 L311 34 L311 108 L193 108 L193 34 Z"/>
</clipPath>
<clipPath clipPathUnits="userSpaceOnUse" id="clipPath6">
<path d="M17 9 L139 9 L139 111 L17 111 L17 9 Z"/>
</clipPath>
<clipPath clipPathUnits="userSpaceOnUse" id="clipPath7">
<path d="M17 9 L137 9 L137 109 L17 109 L17 9 Z"/>
</clipPath>
<clipPath clipPathUnits="userSpaceOnUse" id="clipPath8">
<path d="M43 14 L113 14 L113 46 L43 46 L43 14 Z"/>
</clipPath>
<clipPath clipPathUnits="userSpaceOnUse" id="clipPath9">
<path d="M18 49 L136 49 L136 108 L18 108 L18 49 Z"/>
</clipPath>
<clipPath clipPathUnits="userSpaceOnUse" id="clipPath10">
<path d="M9 194 L146 194 L146 296 L9 296 L9 194 Z"/>
</clipPath>
<clipPath clipPathUnits="userSpaceOnUse" id="clipPath11">
<path d="M9 194 L144 194 L144 294 L9 294 L9 194 Z"/>
</clipPath>
<clipPath clipPathUnits="userSpaceOnUse" id="clipPath12">
<path d="M28 199 L127 199 L127 216 L28 216 L28 199 Z"/>
</clipPath>
<clipPath clipPathUnits="userSpaceOnUse" id="clipPath13">
<path d="M14 221 L141 221 L141 236 L14 236 L14 221 Z"/>
</clipPath>
<clipPath clipPathUnits="userSpaceOnUse" id="clipPath14">
<path d="M14 234 L141 234 L141 249 L14 249 L14 234 Z"/>
</clipPath>
<clipPath clipPathUnits="userSpaceOnUse" id="clipPath15">
<path d="M10 219 L143 219 L143 293 L10 293 L10 219 Z"/>
</clipPath>
<clipPath clipPathUnits="userSpaceOnUse" id="clipPath16">
<path d="M367 9 L489 9 L489 111 L367 111 L367 9 Z"/>
</clipPath>
<clipPath clipPathUnits="userSpaceOnUse" id="clipPath17">
<path d="M367 9 L487 9 L487 109 L367 109 L367 9 Z"/>
</clipPath>
<clipPath clipPathUnits="userSpaceOnUse" id="clipPath18">
<path d="M422 14 L434 14 L434 31 L422 31 L422 14 Z"/>
</clipPath>
<clipPath clipPathUnits="userSpaceOnUse" id="clipPath19">
<path d="M372 36 L476 36 L476 51 L372 51 L372 36 Z"/>
</clipPath>
<clipPath clipPathUnits="userSpaceOnUse" id="clipPath20">
<path d="M368 34 L486 34 L486 108 L368 108 L368 34 Z"/>
</clipPath>
<clipPath clipPathUnits="userSpaceOnUse" id="clipPath21">
<path d="M-1 -1 L499 -1 L499 380 L-1 380 L-1 -1 Z"/>
</clipPath>
<clipPath clipPathUnits="userSpaceOnUse" id="clipPath22">
<path d="M73 107 L84 107 L84 118 L73 118 L73 107 Z"/>
</clipPath>
<clipPath clipPathUnits="userSpaceOnUse" id="clipPath23">
<path d="M177 271 L197 271 L197 286 L177 286 L177 271 Z"/>
</clipPath>
<clipPath clipPathUnits="userSpaceOnUse" id="clipPath24">
<path d="M111 326 L131 326 L131 341 L111 341 L111 326 Z"/>
</clipPath>
<clipPath clipPathUnits="userSpaceOnUse" id="clipPath25">
<path d="M142 264 L152 264 L152 273 L142 273 L142 264 Z"/>
</clipPath>
<clipPath clipPathUnits="userSpaceOnUse" id="clipPath26">
<path d="M106 292 L115 292 L115 302 L106 302 L106 292 Z"/>
</clipPath>
</defs>
<g fill="rgb(131,122,133)" font-family="'Segoe UI'" stroke-linejoin="round" stroke="rgb(131,122,133)" font-weight="bold" stroke-width="0" stroke-miterlimit="0">
<rect x="194" y="11" clip-path="url(#clipPath1)" width="118" rx="2.5" opacity="0.2549" ry="2.5" height="98" stroke="none"/>
<rect x="195" y="12" clip-path="url(#clipPath1)" width="118" rx="2.5" opacity="0.2549" ry="2.5" height="98" stroke="none"/>
<rect x="193" y="10" clip-path="url(#clipPath2)" fill="url(#linearGradient1)" width="118" rx="2.5" ry="2.5" height="98" stroke="none"/>
</g>
<g stroke-width="1.1" font-weight="bold" font-family="'Segoe UI'" stroke-linecap="butt">
<rect x="193" y="10" clip-path="url(#clipPath2)" fill="none" width="117" rx="2.5" ry="2.5" height="97"/>
<text xml:space="preserve" x="248" y="28" clip-path="url(#clipPath3)" stroke="none">B</text>
<text x="198" font-size="11" y="49" clip-path="url(#clipPath4)" stroke="none" font-weight="normal" xml:space="preserve">p : IImplementation</text>
<line clip-path="url(#clipPath5)" fill="none" x1="194" x2="310" y1="35" y2="35"/>
<rect x="19" y="11" clip-path="url(#clipPath6)" fill="rgb(131,122,133)" width="118" rx="2.5" opacity="0.2549" ry="2.5" height="98" stroke="none"/>
<rect x="20" y="12" clip-path="url(#clipPath6)" fill="rgb(131,122,133)" width="118" rx="2.5" opacity="0.2549" ry="2.5" height="98" stroke="none"/>
<rect x="18" y="10" clip-path="url(#clipPath7)" fill="url(#linearGradient2)" width="118" rx="2.5" ry="2.5" height="98" stroke="none"/>
<rect x="18" y="10" clip-path="url(#clipPath7)" fill="none" width="117" rx="2.5" ry="2.5" height="97"/>
<text xml:space="preserve" x="44" y="28" clip-path="url(#clipPath8)" stroke="none">«Interface»&#13;</text>
<text xml:space="preserve" x="44" y="43" clip-path="url(#clipPath8)" stroke="none">I</text>
<line clip-path="url(#clipPath9)" fill="none" x1="19" x2="135" y1="50" y2="50"/>
<rect x="11" y="196" clip-path="url(#clipPath10)" fill="rgb(131,122,133)" width="133" rx="2.5" opacity="0.2549" ry="2.5" height="98" stroke="none"/>
<rect x="12" y="197" clip-path="url(#clipPath10)" fill="rgb(131,122,133)" width="133" rx="2.5" opacity="0.2549" ry="2.5" height="98" stroke="none"/>
<rect x="10" y="195" clip-path="url(#clipPath11)" fill="url(#linearGradient3)" width="133" rx="2.5" ry="2.5" height="98" stroke="none"/>
<rect x="10" y="195" clip-path="url(#clipPath11)" fill="none" width="132" rx="2.5" ry="2.5" height="97"/>
<text xml:space="preserve" x="29" y="213" clip-path="url(#clipPath12)" stroke="none">IImplementation</text>
<text x="15" font-size="11" y="234" clip-path="url(#clipPath13)" stroke="none" font-weight="normal" xml:space="preserve">+ x : IImplementation [*]</text>
<text x="15" font-size="11" y="247" clip-path="url(#clipPath14)" stroke="none" font-weight="normal" xml:space="preserve">+ y : IImplementation [*]</text>
<line clip-path="url(#clipPath15)" fill="none" x1="11" x2="142" y1="220" y2="220"/>
<rect x="369" y="11" clip-path="url(#clipPath16)" fill="rgb(131,122,133)" width="118" rx="2.5" opacity="0.2549" ry="2.5" height="98" stroke="none"/>
<rect x="370" y="12" clip-path="url(#clipPath16)" fill="rgb(131,122,133)" width="118" rx="2.5" opacity="0.2549" ry="2.5" height="98" stroke="none"/>
<rect x="368" y="10" clip-path="url(#clipPath17)" fill="url(#linearGradient4)" width="118" rx="2.5" ry="2.5" height="98" stroke="none"/>
<rect x="368" y="10" clip-path="url(#clipPath17)" fill="none" width="117" rx="2.5" ry="2.5" height="97"/>
<text xml:space="preserve" x="423" y="28" clip-path="url(#clipPath18)" stroke="none">C</text>
<text x="373" font-size="11" y="49" clip-path="url(#clipPath19)" stroke="none" font-weight="normal" xml:space="preserve">q : IImplementation</text>
<line clip-path="url(#clipPath20)" fill="none" x1="369" x2="485" y1="35" y2="35"/>
<line clip-path="url(#clipPath21)" fill="none" x1="78" x2="78" y1="195" y2="108" stroke-dasharray="5,5"/>
</g>
<g stroke-linecap="butt" font-size="11" fill="white" font-family="'Segoe UI'" stroke-dasharray="5,5" stroke="white" stroke-width="1.1">
<polygon clip-path="url(#clipPath22)" points=" 78 108 82 116 74 116" stroke="none"/>
<polygon fill="none" stroke-dasharray="none" clip-path="url(#clipPath22)" points=" 78 108 82 116 74 116" stroke="black"/>
<line clip-path="url(#clipPath21)" fill="none" x1="143" x2="205" y1="268" y2="268" stroke-dasharray="none" stroke="black"/>
<line clip-path="url(#clipPath21)" fill="none" x1="205" x2="205" y1="268" y2="355" stroke-dasharray="none" stroke="black"/>
<line clip-path="url(#clipPath21)" fill="none" x1="205" x2="110" y1="355" y2="355" stroke-dasharray="none" stroke="black"/>
<line clip-path="url(#clipPath21)" fill="none" x1="110" x2="110" y1="355" y2="293" stroke-dasharray="none" stroke="black"/>
<text x="178" y="284" clip-path="url(#clipPath23)" fill="black" stroke-dasharray="none" stroke="none" xml:space="preserve">x[*]</text>
<text x="112" y="339" clip-path="url(#clipPath24)" fill="black" stroke-dasharray="none" stroke="none" xml:space="preserve">y[*]</text>
<line clip-path="url(#clipPath25)" fill="none" x1="150" x2="143" y1="265" y2="268" stroke-dasharray="none" stroke="black"/>
<line clip-path="url(#clipPath25)" fill="none" x1="143" x2="150" y1="268" y2="271" stroke-dasharray="none" stroke="black"/>
<line clip-path="url(#clipPath26)" fill="none" x1="113" x2="110" y1="300" y2="293" stroke-dasharray="none" stroke="black"/>
<line clip-path="url(#clipPath26)" fill="none" x1="110" x2="107" y1="293" y2="300" stroke-dasharray="none" stroke="black"/>
</g>
</g>
</svg>
